%TF.GenerationSoftware,KiCad,Pcbnew,8.0.7*%
%TF.CreationDate,2025-01-14T22:55:28+01:00*%
%TF.ProjectId,esp32_octal_wled,65737033-325f-46f6-9374-616c5f776c65,rev?*%
%TF.SameCoordinates,Original*%
%TF.FileFunction,Legend,Top*%
%TF.FilePolarity,Positive*%
%FSLAX46Y46*%
G04 Gerber Fmt 4.6, Leading zero omitted, Abs format (unit mm)*
G04 Created by KiCad (PCBNEW 8.0.7) date 2025-01-14 22:55:28*
%MOMM*%
%LPD*%
G01*
G04 APERTURE LIST*
G04 Aperture macros list*
%AMRoundRect*
0 Rectangle with rounded corners*
0 $1 Rounding radius*
0 $2 $3 $4 $5 $6 $7 $8 $9 X,Y pos of 4 corners*
0 Add a 4 corners polygon primitive as box body*
4,1,4,$2,$3,$4,$5,$6,$7,$8,$9,$2,$3,0*
0 Add four circle primitives for the rounded corners*
1,1,$1+$1,$2,$3*
1,1,$1+$1,$4,$5*
1,1,$1+$1,$6,$7*
1,1,$1+$1,$8,$9*
0 Add four rect primitives between the rounded corners*
20,1,$1+$1,$2,$3,$4,$5,0*
20,1,$1+$1,$4,$5,$6,$7,0*
20,1,$1+$1,$6,$7,$8,$9,0*
20,1,$1+$1,$8,$9,$2,$3,0*%
G04 Aperture macros list end*
%ADD10C,0.150000*%
%ADD11C,0.300000*%
%ADD12C,0.120000*%
%ADD13RoundRect,0.250001X2.474999X-0.799999X2.474999X0.799999X-2.474999X0.799999X-2.474999X-0.799999X0*%
%ADD14RoundRect,0.250001X-2.474999X0.799999X-2.474999X-0.799999X2.474999X-0.799999X2.474999X0.799999X0*%
%ADD15R,2.000000X1.000000*%
%ADD16RoundRect,0.150000X0.950000X0.150000X-0.950000X0.150000X-0.950000X-0.150000X0.950000X-0.150000X0*%
%ADD17RoundRect,0.250000X0.337500X0.475000X-0.337500X0.475000X-0.337500X-0.475000X0.337500X-0.475000X0*%
%ADD18C,3.200000*%
%ADD19RoundRect,0.250000X0.350000X0.450000X-0.350000X0.450000X-0.350000X-0.450000X0.350000X-0.450000X0*%
%ADD20RoundRect,0.250000X-0.337500X-0.475000X0.337500X-0.475000X0.337500X0.475000X-0.337500X0.475000X0*%
%ADD21C,1.400000*%
%ADD22RoundRect,0.200000X0.200000X-0.750000X0.200000X0.750000X-0.200000X0.750000X-0.200000X-0.750000X0*%
%ADD23RoundRect,0.250001X-0.799999X-2.474999X0.799999X-2.474999X0.799999X2.474999X-0.799999X2.474999X0*%
%ADD24RoundRect,0.250000X0.475000X-0.337500X0.475000X0.337500X-0.475000X0.337500X-0.475000X-0.337500X0*%
%ADD25RoundRect,0.225000X-1.275000X-0.225000X1.275000X-0.225000X1.275000X0.225000X-1.275000X0.225000X0*%
%ADD26RoundRect,0.225000X0.225000X-1.275000X0.225000X1.275000X-0.225000X1.275000X-0.225000X-1.275000X0*%
%ADD27RoundRect,0.225000X1.275000X0.225000X-1.275000X0.225000X-1.275000X-0.225000X1.275000X-0.225000X0*%
%ADD28R,5.000000X5.000000*%
%ADD29RoundRect,0.250000X0.450000X-0.350000X0.450000X0.350000X-0.450000X0.350000X-0.450000X-0.350000X0*%
%ADD30RoundRect,0.250000X-0.350000X-0.450000X0.350000X-0.450000X0.350000X0.450000X-0.350000X0.450000X0*%
%ADD31RoundRect,0.250000X0.412500X0.650000X-0.412500X0.650000X-0.412500X-0.650000X0.412500X-0.650000X0*%
%ADD32C,0.900000*%
%ADD33R,0.700000X2.000000*%
%ADD34R,2.000000X0.800000*%
%ADD35RoundRect,0.250000X-0.450000X0.350000X-0.450000X-0.350000X0.450000X-0.350000X0.450000X0.350000X0*%
%ADD36RoundRect,0.250000X0.625000X-0.400000X0.625000X0.400000X-0.625000X0.400000X-0.625000X-0.400000X0*%
%ADD37RoundRect,0.200000X-0.750000X-0.200000X0.750000X-0.200000X0.750000X0.200000X-0.750000X0.200000X0*%
%ADD38RoundRect,0.375000X0.625000X0.375000X-0.625000X0.375000X-0.625000X-0.375000X0.625000X-0.375000X0*%
%ADD39RoundRect,0.500000X0.500000X1.400000X-0.500000X1.400000X-0.500000X-1.400000X0.500000X-1.400000X0*%
%ADD40RoundRect,0.150000X-0.950000X-0.150000X0.950000X-0.150000X0.950000X0.150000X-0.950000X0.150000X0*%
%ADD41C,0.990600*%
%ADD42C,0.787400*%
%ADD43RoundRect,0.150000X0.150000X-0.950000X0.150000X0.950000X-0.150000X0.950000X-0.150000X-0.950000X0*%
%ADD44RoundRect,0.250000X-0.325000X-0.450000X0.325000X-0.450000X0.325000X0.450000X-0.325000X0.450000X0*%
%ADD45RoundRect,0.250000X1.550000X-0.650000X1.550000X0.650000X-1.550000X0.650000X-1.550000X-0.650000X0*%
%ADD46O,3.600000X1.800000*%
%ADD47RoundRect,0.250000X-1.550000X0.650000X-1.550000X-0.650000X1.550000X-0.650000X1.550000X0.650000X0*%
%ADD48RoundRect,0.400000X0.600000X0.400000X-0.600000X0.400000X-0.600000X-0.400000X0.600000X-0.400000X0*%
%ADD49O,2.000000X1.600000*%
%ADD50C,3.000000*%
%ADD51RoundRect,0.250001X-1.099999X-1.599999X1.099999X-1.599999X1.099999X1.599999X-1.099999X1.599999X0*%
%ADD52O,2.700000X3.700000*%
%ADD53RoundRect,0.450000X-0.450000X0.450000X-0.450000X-0.450000X0.450000X-0.450000X0.450000X0.450000X0*%
%ADD54C,1.800000*%
%ADD55RoundRect,0.250000X0.600000X0.600000X-0.600000X0.600000X-0.600000X-0.600000X0.600000X-0.600000X0*%
%ADD56O,1.700000X1.700000*%
%ADD57R,1.800000X1.100000*%
%ADD58RoundRect,0.275000X0.625000X-0.275000X0.625000X0.275000X-0.625000X0.275000X-0.625000X-0.275000X0*%
%ADD59O,1.600000X2.000000*%
%ADD60RoundRect,0.250000X-0.650000X-1.550000X0.650000X-1.550000X0.650000X1.550000X-0.650000X1.550000X0*%
%ADD61O,1.800000X3.600000*%
%ADD62RoundRect,0.250000X0.600000X-0.600000X0.600000X0.600000X-0.600000X0.600000X-0.600000X-0.600000X0*%
G04 APERTURE END LIST*
D10*
X157338095Y-108554819D02*
X157909523Y-108554819D01*
X157623809Y-109554819D02*
X157623809Y-108554819D01*
X158147619Y-108554819D02*
X158814285Y-109554819D01*
X158814285Y-108554819D02*
X158147619Y-109554819D01*
X110822200Y-132228571D02*
X110869819Y-132085714D01*
X110869819Y-132085714D02*
X110869819Y-131847619D01*
X110869819Y-131847619D02*
X110822200Y-131752381D01*
X110822200Y-131752381D02*
X110774580Y-131704762D01*
X110774580Y-131704762D02*
X110679342Y-131657143D01*
X110679342Y-131657143D02*
X110584104Y-131657143D01*
X110584104Y-131657143D02*
X110488866Y-131704762D01*
X110488866Y-131704762D02*
X110441247Y-131752381D01*
X110441247Y-131752381D02*
X110393628Y-131847619D01*
X110393628Y-131847619D02*
X110346009Y-132038095D01*
X110346009Y-132038095D02*
X110298390Y-132133333D01*
X110298390Y-132133333D02*
X110250771Y-132180952D01*
X110250771Y-132180952D02*
X110155533Y-132228571D01*
X110155533Y-132228571D02*
X110060295Y-132228571D01*
X110060295Y-132228571D02*
X109965057Y-132180952D01*
X109965057Y-132180952D02*
X109917438Y-132133333D01*
X109917438Y-132133333D02*
X109869819Y-132038095D01*
X109869819Y-132038095D02*
X109869819Y-131800000D01*
X109869819Y-131800000D02*
X109917438Y-131657143D01*
X110203152Y-131371428D02*
X110203152Y-130990476D01*
X109869819Y-131228571D02*
X110726961Y-131228571D01*
X110726961Y-131228571D02*
X110822200Y-131180952D01*
X110822200Y-131180952D02*
X110869819Y-131085714D01*
X110869819Y-131085714D02*
X110869819Y-130990476D01*
X110869819Y-130657142D02*
X110203152Y-130657142D01*
X110393628Y-130657142D02*
X110298390Y-130609523D01*
X110298390Y-130609523D02*
X110250771Y-130561904D01*
X110250771Y-130561904D02*
X110203152Y-130466666D01*
X110203152Y-130466666D02*
X110203152Y-130371428D01*
X110869819Y-130038094D02*
X110203152Y-130038094D01*
X109869819Y-130038094D02*
X109917438Y-130085713D01*
X109917438Y-130085713D02*
X109965057Y-130038094D01*
X109965057Y-130038094D02*
X109917438Y-129990475D01*
X109917438Y-129990475D02*
X109869819Y-130038094D01*
X109869819Y-130038094D02*
X109965057Y-130038094D01*
X110203152Y-129561904D02*
X111203152Y-129561904D01*
X110250771Y-129561904D02*
X110203152Y-129466666D01*
X110203152Y-129466666D02*
X110203152Y-129276190D01*
X110203152Y-129276190D02*
X110250771Y-129180952D01*
X110250771Y-129180952D02*
X110298390Y-129133333D01*
X110298390Y-129133333D02*
X110393628Y-129085714D01*
X110393628Y-129085714D02*
X110679342Y-129085714D01*
X110679342Y-129085714D02*
X110774580Y-129133333D01*
X110774580Y-129133333D02*
X110822200Y-129180952D01*
X110822200Y-129180952D02*
X110869819Y-129276190D01*
X110869819Y-129276190D02*
X110869819Y-129466666D01*
X110869819Y-129466666D02*
X110822200Y-129561904D01*
X109965057Y-127942856D02*
X109917438Y-127895237D01*
X109917438Y-127895237D02*
X109869819Y-127799999D01*
X109869819Y-127799999D02*
X109869819Y-127561904D01*
X109869819Y-127561904D02*
X109917438Y-127466666D01*
X109917438Y-127466666D02*
X109965057Y-127419047D01*
X109965057Y-127419047D02*
X110060295Y-127371428D01*
X110060295Y-127371428D02*
X110155533Y-127371428D01*
X110155533Y-127371428D02*
X110298390Y-127419047D01*
X110298390Y-127419047D02*
X110869819Y-127990475D01*
X110869819Y-127990475D02*
X110869819Y-127371428D01*
X110822200Y-144128571D02*
X110869819Y-143985714D01*
X110869819Y-143985714D02*
X110869819Y-143747619D01*
X110869819Y-143747619D02*
X110822200Y-143652381D01*
X110822200Y-143652381D02*
X110774580Y-143604762D01*
X110774580Y-143604762D02*
X110679342Y-143557143D01*
X110679342Y-143557143D02*
X110584104Y-143557143D01*
X110584104Y-143557143D02*
X110488866Y-143604762D01*
X110488866Y-143604762D02*
X110441247Y-143652381D01*
X110441247Y-143652381D02*
X110393628Y-143747619D01*
X110393628Y-143747619D02*
X110346009Y-143938095D01*
X110346009Y-143938095D02*
X110298390Y-144033333D01*
X110298390Y-144033333D02*
X110250771Y-144080952D01*
X110250771Y-144080952D02*
X110155533Y-144128571D01*
X110155533Y-144128571D02*
X110060295Y-144128571D01*
X110060295Y-144128571D02*
X109965057Y-144080952D01*
X109965057Y-144080952D02*
X109917438Y-144033333D01*
X109917438Y-144033333D02*
X109869819Y-143938095D01*
X109869819Y-143938095D02*
X109869819Y-143700000D01*
X109869819Y-143700000D02*
X109917438Y-143557143D01*
X110203152Y-143271428D02*
X110203152Y-142890476D01*
X109869819Y-143128571D02*
X110726961Y-143128571D01*
X110726961Y-143128571D02*
X110822200Y-143080952D01*
X110822200Y-143080952D02*
X110869819Y-142985714D01*
X110869819Y-142985714D02*
X110869819Y-142890476D01*
X110869819Y-142557142D02*
X110203152Y-142557142D01*
X110393628Y-142557142D02*
X110298390Y-142509523D01*
X110298390Y-142509523D02*
X110250771Y-142461904D01*
X110250771Y-142461904D02*
X110203152Y-142366666D01*
X110203152Y-142366666D02*
X110203152Y-142271428D01*
X110869819Y-141938094D02*
X110203152Y-141938094D01*
X109869819Y-141938094D02*
X109917438Y-141985713D01*
X109917438Y-141985713D02*
X109965057Y-141938094D01*
X109965057Y-141938094D02*
X109917438Y-141890475D01*
X109917438Y-141890475D02*
X109869819Y-141938094D01*
X109869819Y-141938094D02*
X109965057Y-141938094D01*
X110203152Y-141461904D02*
X111203152Y-141461904D01*
X110250771Y-141461904D02*
X110203152Y-141366666D01*
X110203152Y-141366666D02*
X110203152Y-141176190D01*
X110203152Y-141176190D02*
X110250771Y-141080952D01*
X110250771Y-141080952D02*
X110298390Y-141033333D01*
X110298390Y-141033333D02*
X110393628Y-140985714D01*
X110393628Y-140985714D02*
X110679342Y-140985714D01*
X110679342Y-140985714D02*
X110774580Y-141033333D01*
X110774580Y-141033333D02*
X110822200Y-141080952D01*
X110822200Y-141080952D02*
X110869819Y-141176190D01*
X110869819Y-141176190D02*
X110869819Y-141366666D01*
X110869819Y-141366666D02*
X110822200Y-141461904D01*
X110869819Y-139271428D02*
X110869819Y-139842856D01*
X110869819Y-139557142D02*
X109869819Y-139557142D01*
X109869819Y-139557142D02*
X110012676Y-139652380D01*
X110012676Y-139652380D02*
X110107914Y-139747618D01*
X110107914Y-139747618D02*
X110155533Y-139842856D01*
X110922200Y-108428571D02*
X110969819Y-108285714D01*
X110969819Y-108285714D02*
X110969819Y-108047619D01*
X110969819Y-108047619D02*
X110922200Y-107952381D01*
X110922200Y-107952381D02*
X110874580Y-107904762D01*
X110874580Y-107904762D02*
X110779342Y-107857143D01*
X110779342Y-107857143D02*
X110684104Y-107857143D01*
X110684104Y-107857143D02*
X110588866Y-107904762D01*
X110588866Y-107904762D02*
X110541247Y-107952381D01*
X110541247Y-107952381D02*
X110493628Y-108047619D01*
X110493628Y-108047619D02*
X110446009Y-108238095D01*
X110446009Y-108238095D02*
X110398390Y-108333333D01*
X110398390Y-108333333D02*
X110350771Y-108380952D01*
X110350771Y-108380952D02*
X110255533Y-108428571D01*
X110255533Y-108428571D02*
X110160295Y-108428571D01*
X110160295Y-108428571D02*
X110065057Y-108380952D01*
X110065057Y-108380952D02*
X110017438Y-108333333D01*
X110017438Y-108333333D02*
X109969819Y-108238095D01*
X109969819Y-108238095D02*
X109969819Y-108000000D01*
X109969819Y-108000000D02*
X110017438Y-107857143D01*
X110303152Y-107571428D02*
X110303152Y-107190476D01*
X109969819Y-107428571D02*
X110826961Y-107428571D01*
X110826961Y-107428571D02*
X110922200Y-107380952D01*
X110922200Y-107380952D02*
X110969819Y-107285714D01*
X110969819Y-107285714D02*
X110969819Y-107190476D01*
X110969819Y-106857142D02*
X110303152Y-106857142D01*
X110493628Y-106857142D02*
X110398390Y-106809523D01*
X110398390Y-106809523D02*
X110350771Y-106761904D01*
X110350771Y-106761904D02*
X110303152Y-106666666D01*
X110303152Y-106666666D02*
X110303152Y-106571428D01*
X110969819Y-106238094D02*
X110303152Y-106238094D01*
X109969819Y-106238094D02*
X110017438Y-106285713D01*
X110017438Y-106285713D02*
X110065057Y-106238094D01*
X110065057Y-106238094D02*
X110017438Y-106190475D01*
X110017438Y-106190475D02*
X109969819Y-106238094D01*
X109969819Y-106238094D02*
X110065057Y-106238094D01*
X110303152Y-105761904D02*
X111303152Y-105761904D01*
X110350771Y-105761904D02*
X110303152Y-105666666D01*
X110303152Y-105666666D02*
X110303152Y-105476190D01*
X110303152Y-105476190D02*
X110350771Y-105380952D01*
X110350771Y-105380952D02*
X110398390Y-105333333D01*
X110398390Y-105333333D02*
X110493628Y-105285714D01*
X110493628Y-105285714D02*
X110779342Y-105285714D01*
X110779342Y-105285714D02*
X110874580Y-105333333D01*
X110874580Y-105333333D02*
X110922200Y-105380952D01*
X110922200Y-105380952D02*
X110969819Y-105476190D01*
X110969819Y-105476190D02*
X110969819Y-105666666D01*
X110969819Y-105666666D02*
X110922200Y-105761904D01*
X110303152Y-103666666D02*
X110969819Y-103666666D01*
X109922200Y-103904761D02*
X110636485Y-104142856D01*
X110636485Y-104142856D02*
X110636485Y-103523809D01*
X179722200Y-132228571D02*
X179769819Y-132085714D01*
X179769819Y-132085714D02*
X179769819Y-131847619D01*
X179769819Y-131847619D02*
X179722200Y-131752381D01*
X179722200Y-131752381D02*
X179674580Y-131704762D01*
X179674580Y-131704762D02*
X179579342Y-131657143D01*
X179579342Y-131657143D02*
X179484104Y-131657143D01*
X179484104Y-131657143D02*
X179388866Y-131704762D01*
X179388866Y-131704762D02*
X179341247Y-131752381D01*
X179341247Y-131752381D02*
X179293628Y-131847619D01*
X179293628Y-131847619D02*
X179246009Y-132038095D01*
X179246009Y-132038095D02*
X179198390Y-132133333D01*
X179198390Y-132133333D02*
X179150771Y-132180952D01*
X179150771Y-132180952D02*
X179055533Y-132228571D01*
X179055533Y-132228571D02*
X178960295Y-132228571D01*
X178960295Y-132228571D02*
X178865057Y-132180952D01*
X178865057Y-132180952D02*
X178817438Y-132133333D01*
X178817438Y-132133333D02*
X178769819Y-132038095D01*
X178769819Y-132038095D02*
X178769819Y-131800000D01*
X178769819Y-131800000D02*
X178817438Y-131657143D01*
X179103152Y-131371428D02*
X179103152Y-130990476D01*
X178769819Y-131228571D02*
X179626961Y-131228571D01*
X179626961Y-131228571D02*
X179722200Y-131180952D01*
X179722200Y-131180952D02*
X179769819Y-131085714D01*
X179769819Y-131085714D02*
X179769819Y-130990476D01*
X179769819Y-130657142D02*
X179103152Y-130657142D01*
X179293628Y-130657142D02*
X179198390Y-130609523D01*
X179198390Y-130609523D02*
X179150771Y-130561904D01*
X179150771Y-130561904D02*
X179103152Y-130466666D01*
X179103152Y-130466666D02*
X179103152Y-130371428D01*
X179769819Y-130038094D02*
X179103152Y-130038094D01*
X178769819Y-130038094D02*
X178817438Y-130085713D01*
X178817438Y-130085713D02*
X178865057Y-130038094D01*
X178865057Y-130038094D02*
X178817438Y-129990475D01*
X178817438Y-129990475D02*
X178769819Y-130038094D01*
X178769819Y-130038094D02*
X178865057Y-130038094D01*
X179103152Y-129561904D02*
X180103152Y-129561904D01*
X179150771Y-129561904D02*
X179103152Y-129466666D01*
X179103152Y-129466666D02*
X179103152Y-129276190D01*
X179103152Y-129276190D02*
X179150771Y-129180952D01*
X179150771Y-129180952D02*
X179198390Y-129133333D01*
X179198390Y-129133333D02*
X179293628Y-129085714D01*
X179293628Y-129085714D02*
X179579342Y-129085714D01*
X179579342Y-129085714D02*
X179674580Y-129133333D01*
X179674580Y-129133333D02*
X179722200Y-129180952D01*
X179722200Y-129180952D02*
X179769819Y-129276190D01*
X179769819Y-129276190D02*
X179769819Y-129466666D01*
X179769819Y-129466666D02*
X179722200Y-129561904D01*
X178769819Y-127990475D02*
X178769819Y-127323809D01*
X178769819Y-127323809D02*
X179769819Y-127752380D01*
X113090477Y-105669819D02*
X113661905Y-105669819D01*
X113376191Y-106669819D02*
X113376191Y-105669819D01*
X113995239Y-106146009D02*
X114328572Y-106146009D01*
X114471429Y-106669819D02*
X113995239Y-106669819D01*
X113995239Y-106669819D02*
X113995239Y-105669819D01*
X113995239Y-105669819D02*
X114471429Y-105669819D01*
X115471429Y-106669819D02*
X115138096Y-106193628D01*
X114900001Y-106669819D02*
X114900001Y-105669819D01*
X114900001Y-105669819D02*
X115280953Y-105669819D01*
X115280953Y-105669819D02*
X115376191Y-105717438D01*
X115376191Y-105717438D02*
X115423810Y-105765057D01*
X115423810Y-105765057D02*
X115471429Y-105860295D01*
X115471429Y-105860295D02*
X115471429Y-106003152D01*
X115471429Y-106003152D02*
X115423810Y-106098390D01*
X115423810Y-106098390D02*
X115376191Y-106146009D01*
X115376191Y-106146009D02*
X115280953Y-106193628D01*
X115280953Y-106193628D02*
X114900001Y-106193628D01*
X115900001Y-106669819D02*
X115900001Y-105669819D01*
X115900001Y-105669819D02*
X116233334Y-106384104D01*
X116233334Y-106384104D02*
X116566667Y-105669819D01*
X116566667Y-105669819D02*
X116566667Y-106669819D01*
X117042858Y-106669819D02*
X117042858Y-105669819D01*
X117519048Y-106669819D02*
X117519048Y-105669819D01*
X117519048Y-105669819D02*
X118090476Y-106669819D01*
X118090476Y-106669819D02*
X118090476Y-105669819D01*
X118566667Y-106574580D02*
X118614286Y-106622200D01*
X118614286Y-106622200D02*
X118566667Y-106669819D01*
X118566667Y-106669819D02*
X118519048Y-106622200D01*
X118519048Y-106622200D02*
X118566667Y-106574580D01*
X118566667Y-106574580D02*
X118566667Y-106669819D01*
X179722200Y-144128571D02*
X179769819Y-143985714D01*
X179769819Y-143985714D02*
X179769819Y-143747619D01*
X179769819Y-143747619D02*
X179722200Y-143652381D01*
X179722200Y-143652381D02*
X179674580Y-143604762D01*
X179674580Y-143604762D02*
X179579342Y-143557143D01*
X179579342Y-143557143D02*
X179484104Y-143557143D01*
X179484104Y-143557143D02*
X179388866Y-143604762D01*
X179388866Y-143604762D02*
X179341247Y-143652381D01*
X179341247Y-143652381D02*
X179293628Y-143747619D01*
X179293628Y-143747619D02*
X179246009Y-143938095D01*
X179246009Y-143938095D02*
X179198390Y-144033333D01*
X179198390Y-144033333D02*
X179150771Y-144080952D01*
X179150771Y-144080952D02*
X179055533Y-144128571D01*
X179055533Y-144128571D02*
X178960295Y-144128571D01*
X178960295Y-144128571D02*
X178865057Y-144080952D01*
X178865057Y-144080952D02*
X178817438Y-144033333D01*
X178817438Y-144033333D02*
X178769819Y-143938095D01*
X178769819Y-143938095D02*
X178769819Y-143700000D01*
X178769819Y-143700000D02*
X178817438Y-143557143D01*
X179103152Y-143271428D02*
X179103152Y-142890476D01*
X178769819Y-143128571D02*
X179626961Y-143128571D01*
X179626961Y-143128571D02*
X179722200Y-143080952D01*
X179722200Y-143080952D02*
X179769819Y-142985714D01*
X179769819Y-142985714D02*
X179769819Y-142890476D01*
X179769819Y-142557142D02*
X179103152Y-142557142D01*
X179293628Y-142557142D02*
X179198390Y-142509523D01*
X179198390Y-142509523D02*
X179150771Y-142461904D01*
X179150771Y-142461904D02*
X179103152Y-142366666D01*
X179103152Y-142366666D02*
X179103152Y-142271428D01*
X179769819Y-141938094D02*
X179103152Y-141938094D01*
X178769819Y-141938094D02*
X178817438Y-141985713D01*
X178817438Y-141985713D02*
X178865057Y-141938094D01*
X178865057Y-141938094D02*
X178817438Y-141890475D01*
X178817438Y-141890475D02*
X178769819Y-141938094D01*
X178769819Y-141938094D02*
X178865057Y-141938094D01*
X179103152Y-141461904D02*
X180103152Y-141461904D01*
X179150771Y-141461904D02*
X179103152Y-141366666D01*
X179103152Y-141366666D02*
X179103152Y-141176190D01*
X179103152Y-141176190D02*
X179150771Y-141080952D01*
X179150771Y-141080952D02*
X179198390Y-141033333D01*
X179198390Y-141033333D02*
X179293628Y-140985714D01*
X179293628Y-140985714D02*
X179579342Y-140985714D01*
X179579342Y-140985714D02*
X179674580Y-141033333D01*
X179674580Y-141033333D02*
X179722200Y-141080952D01*
X179722200Y-141080952D02*
X179769819Y-141176190D01*
X179769819Y-141176190D02*
X179769819Y-141366666D01*
X179769819Y-141366666D02*
X179722200Y-141461904D01*
X179198390Y-139652380D02*
X179150771Y-139747618D01*
X179150771Y-139747618D02*
X179103152Y-139795237D01*
X179103152Y-139795237D02*
X179007914Y-139842856D01*
X179007914Y-139842856D02*
X178960295Y-139842856D01*
X178960295Y-139842856D02*
X178865057Y-139795237D01*
X178865057Y-139795237D02*
X178817438Y-139747618D01*
X178817438Y-139747618D02*
X178769819Y-139652380D01*
X178769819Y-139652380D02*
X178769819Y-139461904D01*
X178769819Y-139461904D02*
X178817438Y-139366666D01*
X178817438Y-139366666D02*
X178865057Y-139319047D01*
X178865057Y-139319047D02*
X178960295Y-139271428D01*
X178960295Y-139271428D02*
X179007914Y-139271428D01*
X179007914Y-139271428D02*
X179103152Y-139319047D01*
X179103152Y-139319047D02*
X179150771Y-139366666D01*
X179150771Y-139366666D02*
X179198390Y-139461904D01*
X179198390Y-139461904D02*
X179198390Y-139652380D01*
X179198390Y-139652380D02*
X179246009Y-139747618D01*
X179246009Y-139747618D02*
X179293628Y-139795237D01*
X179293628Y-139795237D02*
X179388866Y-139842856D01*
X179388866Y-139842856D02*
X179579342Y-139842856D01*
X179579342Y-139842856D02*
X179674580Y-139795237D01*
X179674580Y-139795237D02*
X179722200Y-139747618D01*
X179722200Y-139747618D02*
X179769819Y-139652380D01*
X179769819Y-139652380D02*
X179769819Y-139461904D01*
X179769819Y-139461904D02*
X179722200Y-139366666D01*
X179722200Y-139366666D02*
X179674580Y-139319047D01*
X179674580Y-139319047D02*
X179579342Y-139271428D01*
X179579342Y-139271428D02*
X179388866Y-139271428D01*
X179388866Y-139271428D02*
X179293628Y-139319047D01*
X179293628Y-139319047D02*
X179246009Y-139366666D01*
X179246009Y-139366666D02*
X179198390Y-139461904D01*
X110922200Y-120328571D02*
X110969819Y-120185714D01*
X110969819Y-120185714D02*
X110969819Y-119947619D01*
X110969819Y-119947619D02*
X110922200Y-119852381D01*
X110922200Y-119852381D02*
X110874580Y-119804762D01*
X110874580Y-119804762D02*
X110779342Y-119757143D01*
X110779342Y-119757143D02*
X110684104Y-119757143D01*
X110684104Y-119757143D02*
X110588866Y-119804762D01*
X110588866Y-119804762D02*
X110541247Y-119852381D01*
X110541247Y-119852381D02*
X110493628Y-119947619D01*
X110493628Y-119947619D02*
X110446009Y-120138095D01*
X110446009Y-120138095D02*
X110398390Y-120233333D01*
X110398390Y-120233333D02*
X110350771Y-120280952D01*
X110350771Y-120280952D02*
X110255533Y-120328571D01*
X110255533Y-120328571D02*
X110160295Y-120328571D01*
X110160295Y-120328571D02*
X110065057Y-120280952D01*
X110065057Y-120280952D02*
X110017438Y-120233333D01*
X110017438Y-120233333D02*
X109969819Y-120138095D01*
X109969819Y-120138095D02*
X109969819Y-119900000D01*
X109969819Y-119900000D02*
X110017438Y-119757143D01*
X110303152Y-119471428D02*
X110303152Y-119090476D01*
X109969819Y-119328571D02*
X110826961Y-119328571D01*
X110826961Y-119328571D02*
X110922200Y-119280952D01*
X110922200Y-119280952D02*
X110969819Y-119185714D01*
X110969819Y-119185714D02*
X110969819Y-119090476D01*
X110969819Y-118757142D02*
X110303152Y-118757142D01*
X110493628Y-118757142D02*
X110398390Y-118709523D01*
X110398390Y-118709523D02*
X110350771Y-118661904D01*
X110350771Y-118661904D02*
X110303152Y-118566666D01*
X110303152Y-118566666D02*
X110303152Y-118471428D01*
X110969819Y-118138094D02*
X110303152Y-118138094D01*
X109969819Y-118138094D02*
X110017438Y-118185713D01*
X110017438Y-118185713D02*
X110065057Y-118138094D01*
X110065057Y-118138094D02*
X110017438Y-118090475D01*
X110017438Y-118090475D02*
X109969819Y-118138094D01*
X109969819Y-118138094D02*
X110065057Y-118138094D01*
X110303152Y-117661904D02*
X111303152Y-117661904D01*
X110350771Y-117661904D02*
X110303152Y-117566666D01*
X110303152Y-117566666D02*
X110303152Y-117376190D01*
X110303152Y-117376190D02*
X110350771Y-117280952D01*
X110350771Y-117280952D02*
X110398390Y-117233333D01*
X110398390Y-117233333D02*
X110493628Y-117185714D01*
X110493628Y-117185714D02*
X110779342Y-117185714D01*
X110779342Y-117185714D02*
X110874580Y-117233333D01*
X110874580Y-117233333D02*
X110922200Y-117280952D01*
X110922200Y-117280952D02*
X110969819Y-117376190D01*
X110969819Y-117376190D02*
X110969819Y-117566666D01*
X110969819Y-117566666D02*
X110922200Y-117661904D01*
X109969819Y-116090475D02*
X109969819Y-115471428D01*
X109969819Y-115471428D02*
X110350771Y-115804761D01*
X110350771Y-115804761D02*
X110350771Y-115661904D01*
X110350771Y-115661904D02*
X110398390Y-115566666D01*
X110398390Y-115566666D02*
X110446009Y-115519047D01*
X110446009Y-115519047D02*
X110541247Y-115471428D01*
X110541247Y-115471428D02*
X110779342Y-115471428D01*
X110779342Y-115471428D02*
X110874580Y-115519047D01*
X110874580Y-115519047D02*
X110922200Y-115566666D01*
X110922200Y-115566666D02*
X110969819Y-115661904D01*
X110969819Y-115661904D02*
X110969819Y-115947618D01*
X110969819Y-115947618D02*
X110922200Y-116042856D01*
X110922200Y-116042856D02*
X110874580Y-116090475D01*
X120919819Y-108619047D02*
X120919819Y-108428571D01*
X120919819Y-108428571D02*
X120967438Y-108333333D01*
X120967438Y-108333333D02*
X121062676Y-108238095D01*
X121062676Y-108238095D02*
X121253152Y-108190476D01*
X121253152Y-108190476D02*
X121586485Y-108190476D01*
X121586485Y-108190476D02*
X121776961Y-108238095D01*
X121776961Y-108238095D02*
X121872200Y-108333333D01*
X121872200Y-108333333D02*
X121919819Y-108428571D01*
X121919819Y-108428571D02*
X121919819Y-108619047D01*
X121919819Y-108619047D02*
X121872200Y-108714285D01*
X121872200Y-108714285D02*
X121776961Y-108809523D01*
X121776961Y-108809523D02*
X121586485Y-108857142D01*
X121586485Y-108857142D02*
X121253152Y-108857142D01*
X121253152Y-108857142D02*
X121062676Y-108809523D01*
X121062676Y-108809523D02*
X120967438Y-108714285D01*
X120967438Y-108714285D02*
X120919819Y-108619047D01*
X121919819Y-107761904D02*
X120919819Y-107761904D01*
X120919819Y-107761904D02*
X121919819Y-107190476D01*
X121919819Y-107190476D02*
X120919819Y-107190476D01*
X179722200Y-120328571D02*
X179769819Y-120185714D01*
X179769819Y-120185714D02*
X179769819Y-119947619D01*
X179769819Y-119947619D02*
X179722200Y-119852381D01*
X179722200Y-119852381D02*
X179674580Y-119804762D01*
X179674580Y-119804762D02*
X179579342Y-119757143D01*
X179579342Y-119757143D02*
X179484104Y-119757143D01*
X179484104Y-119757143D02*
X179388866Y-119804762D01*
X179388866Y-119804762D02*
X179341247Y-119852381D01*
X179341247Y-119852381D02*
X179293628Y-119947619D01*
X179293628Y-119947619D02*
X179246009Y-120138095D01*
X179246009Y-120138095D02*
X179198390Y-120233333D01*
X179198390Y-120233333D02*
X179150771Y-120280952D01*
X179150771Y-120280952D02*
X179055533Y-120328571D01*
X179055533Y-120328571D02*
X178960295Y-120328571D01*
X178960295Y-120328571D02*
X178865057Y-120280952D01*
X178865057Y-120280952D02*
X178817438Y-120233333D01*
X178817438Y-120233333D02*
X178769819Y-120138095D01*
X178769819Y-120138095D02*
X178769819Y-119900000D01*
X178769819Y-119900000D02*
X178817438Y-119757143D01*
X179103152Y-119471428D02*
X179103152Y-119090476D01*
X178769819Y-119328571D02*
X179626961Y-119328571D01*
X179626961Y-119328571D02*
X179722200Y-119280952D01*
X179722200Y-119280952D02*
X179769819Y-119185714D01*
X179769819Y-119185714D02*
X179769819Y-119090476D01*
X179769819Y-118757142D02*
X179103152Y-118757142D01*
X179293628Y-118757142D02*
X179198390Y-118709523D01*
X179198390Y-118709523D02*
X179150771Y-118661904D01*
X179150771Y-118661904D02*
X179103152Y-118566666D01*
X179103152Y-118566666D02*
X179103152Y-118471428D01*
X179769819Y-118138094D02*
X179103152Y-118138094D01*
X178769819Y-118138094D02*
X178817438Y-118185713D01*
X178817438Y-118185713D02*
X178865057Y-118138094D01*
X178865057Y-118138094D02*
X178817438Y-118090475D01*
X178817438Y-118090475D02*
X178769819Y-118138094D01*
X178769819Y-118138094D02*
X178865057Y-118138094D01*
X179103152Y-117661904D02*
X180103152Y-117661904D01*
X179150771Y-117661904D02*
X179103152Y-117566666D01*
X179103152Y-117566666D02*
X179103152Y-117376190D01*
X179103152Y-117376190D02*
X179150771Y-117280952D01*
X179150771Y-117280952D02*
X179198390Y-117233333D01*
X179198390Y-117233333D02*
X179293628Y-117185714D01*
X179293628Y-117185714D02*
X179579342Y-117185714D01*
X179579342Y-117185714D02*
X179674580Y-117233333D01*
X179674580Y-117233333D02*
X179722200Y-117280952D01*
X179722200Y-117280952D02*
X179769819Y-117376190D01*
X179769819Y-117376190D02*
X179769819Y-117566666D01*
X179769819Y-117566666D02*
X179722200Y-117661904D01*
X178769819Y-115566666D02*
X178769819Y-115757142D01*
X178769819Y-115757142D02*
X178817438Y-115852380D01*
X178817438Y-115852380D02*
X178865057Y-115899999D01*
X178865057Y-115899999D02*
X179007914Y-115995237D01*
X179007914Y-115995237D02*
X179198390Y-116042856D01*
X179198390Y-116042856D02*
X179579342Y-116042856D01*
X179579342Y-116042856D02*
X179674580Y-115995237D01*
X179674580Y-115995237D02*
X179722200Y-115947618D01*
X179722200Y-115947618D02*
X179769819Y-115852380D01*
X179769819Y-115852380D02*
X179769819Y-115661904D01*
X179769819Y-115661904D02*
X179722200Y-115566666D01*
X179722200Y-115566666D02*
X179674580Y-115519047D01*
X179674580Y-115519047D02*
X179579342Y-115471428D01*
X179579342Y-115471428D02*
X179341247Y-115471428D01*
X179341247Y-115471428D02*
X179246009Y-115519047D01*
X179246009Y-115519047D02*
X179198390Y-115566666D01*
X179198390Y-115566666D02*
X179150771Y-115661904D01*
X179150771Y-115661904D02*
X179150771Y-115852380D01*
X179150771Y-115852380D02*
X179198390Y-115947618D01*
X179198390Y-115947618D02*
X179246009Y-115995237D01*
X179246009Y-115995237D02*
X179341247Y-116042856D01*
X179722200Y-108328571D02*
X179769819Y-108185714D01*
X179769819Y-108185714D02*
X179769819Y-107947619D01*
X179769819Y-107947619D02*
X179722200Y-107852381D01*
X179722200Y-107852381D02*
X179674580Y-107804762D01*
X179674580Y-107804762D02*
X179579342Y-107757143D01*
X179579342Y-107757143D02*
X179484104Y-107757143D01*
X179484104Y-107757143D02*
X179388866Y-107804762D01*
X179388866Y-107804762D02*
X179341247Y-107852381D01*
X179341247Y-107852381D02*
X179293628Y-107947619D01*
X179293628Y-107947619D02*
X179246009Y-108138095D01*
X179246009Y-108138095D02*
X179198390Y-108233333D01*
X179198390Y-108233333D02*
X179150771Y-108280952D01*
X179150771Y-108280952D02*
X179055533Y-108328571D01*
X179055533Y-108328571D02*
X178960295Y-108328571D01*
X178960295Y-108328571D02*
X178865057Y-108280952D01*
X178865057Y-108280952D02*
X178817438Y-108233333D01*
X178817438Y-108233333D02*
X178769819Y-108138095D01*
X178769819Y-108138095D02*
X178769819Y-107900000D01*
X178769819Y-107900000D02*
X178817438Y-107757143D01*
X179103152Y-107471428D02*
X179103152Y-107090476D01*
X178769819Y-107328571D02*
X179626961Y-107328571D01*
X179626961Y-107328571D02*
X179722200Y-107280952D01*
X179722200Y-107280952D02*
X179769819Y-107185714D01*
X179769819Y-107185714D02*
X179769819Y-107090476D01*
X179769819Y-106757142D02*
X179103152Y-106757142D01*
X179293628Y-106757142D02*
X179198390Y-106709523D01*
X179198390Y-106709523D02*
X179150771Y-106661904D01*
X179150771Y-106661904D02*
X179103152Y-106566666D01*
X179103152Y-106566666D02*
X179103152Y-106471428D01*
X179769819Y-106138094D02*
X179103152Y-106138094D01*
X178769819Y-106138094D02*
X178817438Y-106185713D01*
X178817438Y-106185713D02*
X178865057Y-106138094D01*
X178865057Y-106138094D02*
X178817438Y-106090475D01*
X178817438Y-106090475D02*
X178769819Y-106138094D01*
X178769819Y-106138094D02*
X178865057Y-106138094D01*
X179103152Y-105661904D02*
X180103152Y-105661904D01*
X179150771Y-105661904D02*
X179103152Y-105566666D01*
X179103152Y-105566666D02*
X179103152Y-105376190D01*
X179103152Y-105376190D02*
X179150771Y-105280952D01*
X179150771Y-105280952D02*
X179198390Y-105233333D01*
X179198390Y-105233333D02*
X179293628Y-105185714D01*
X179293628Y-105185714D02*
X179579342Y-105185714D01*
X179579342Y-105185714D02*
X179674580Y-105233333D01*
X179674580Y-105233333D02*
X179722200Y-105280952D01*
X179722200Y-105280952D02*
X179769819Y-105376190D01*
X179769819Y-105376190D02*
X179769819Y-105566666D01*
X179769819Y-105566666D02*
X179722200Y-105661904D01*
X178769819Y-103519047D02*
X178769819Y-103995237D01*
X178769819Y-103995237D02*
X179246009Y-104042856D01*
X179246009Y-104042856D02*
X179198390Y-103995237D01*
X179198390Y-103995237D02*
X179150771Y-103899999D01*
X179150771Y-103899999D02*
X179150771Y-103661904D01*
X179150771Y-103661904D02*
X179198390Y-103566666D01*
X179198390Y-103566666D02*
X179246009Y-103519047D01*
X179246009Y-103519047D02*
X179341247Y-103471428D01*
X179341247Y-103471428D02*
X179579342Y-103471428D01*
X179579342Y-103471428D02*
X179674580Y-103519047D01*
X179674580Y-103519047D02*
X179722200Y-103566666D01*
X179722200Y-103566666D02*
X179769819Y-103661904D01*
X179769819Y-103661904D02*
X179769819Y-103899999D01*
X179769819Y-103899999D02*
X179722200Y-103995237D01*
X179722200Y-103995237D02*
X179674580Y-104042856D01*
D11*
X101050000Y-146678328D02*
X101335714Y-146678328D01*
X101335714Y-146678328D02*
X101478571Y-146749757D01*
X101478571Y-146749757D02*
X101621428Y-146892614D01*
X101621428Y-146892614D02*
X101692857Y-147178328D01*
X101692857Y-147178328D02*
X101692857Y-147678328D01*
X101692857Y-147678328D02*
X101621428Y-147964042D01*
X101621428Y-147964042D02*
X101478571Y-148106900D01*
X101478571Y-148106900D02*
X101335714Y-148178328D01*
X101335714Y-148178328D02*
X101050000Y-148178328D01*
X101050000Y-148178328D02*
X100907143Y-148106900D01*
X100907143Y-148106900D02*
X100764285Y-147964042D01*
X100764285Y-147964042D02*
X100692857Y-147678328D01*
X100692857Y-147678328D02*
X100692857Y-147178328D01*
X100692857Y-147178328D02*
X100764285Y-146892614D01*
X100764285Y-146892614D02*
X100907143Y-146749757D01*
X100907143Y-146749757D02*
X101050000Y-146678328D01*
X102978572Y-148106900D02*
X102835714Y-148178328D01*
X102835714Y-148178328D02*
X102550000Y-148178328D01*
X102550000Y-148178328D02*
X102407143Y-148106900D01*
X102407143Y-148106900D02*
X102335714Y-148035471D01*
X102335714Y-148035471D02*
X102264286Y-147892614D01*
X102264286Y-147892614D02*
X102264286Y-147464042D01*
X102264286Y-147464042D02*
X102335714Y-147321185D01*
X102335714Y-147321185D02*
X102407143Y-147249757D01*
X102407143Y-147249757D02*
X102550000Y-147178328D01*
X102550000Y-147178328D02*
X102835714Y-147178328D01*
X102835714Y-147178328D02*
X102978572Y-147249757D01*
X103407143Y-147178328D02*
X103978571Y-147178328D01*
X103621428Y-146678328D02*
X103621428Y-147964042D01*
X103621428Y-147964042D02*
X103692857Y-148106900D01*
X103692857Y-148106900D02*
X103835714Y-148178328D01*
X103835714Y-148178328D02*
X103978571Y-148178328D01*
X105121429Y-148178328D02*
X105121429Y-147392614D01*
X105121429Y-147392614D02*
X105050000Y-147249757D01*
X105050000Y-147249757D02*
X104907143Y-147178328D01*
X104907143Y-147178328D02*
X104621429Y-147178328D01*
X104621429Y-147178328D02*
X104478571Y-147249757D01*
X105121429Y-148106900D02*
X104978571Y-148178328D01*
X104978571Y-148178328D02*
X104621429Y-148178328D01*
X104621429Y-148178328D02*
X104478571Y-148106900D01*
X104478571Y-148106900D02*
X104407143Y-147964042D01*
X104407143Y-147964042D02*
X104407143Y-147821185D01*
X104407143Y-147821185D02*
X104478571Y-147678328D01*
X104478571Y-147678328D02*
X104621429Y-147606900D01*
X104621429Y-147606900D02*
X104978571Y-147606900D01*
X104978571Y-147606900D02*
X105121429Y-147535471D01*
X106050000Y-148178328D02*
X105907143Y-148106900D01*
X105907143Y-148106900D02*
X105835714Y-147964042D01*
X105835714Y-147964042D02*
X105835714Y-146678328D01*
X107621428Y-146678328D02*
X107978571Y-148178328D01*
X107978571Y-148178328D02*
X108264285Y-147106900D01*
X108264285Y-147106900D02*
X108550000Y-148178328D01*
X108550000Y-148178328D02*
X108907143Y-146678328D01*
X110192857Y-148178328D02*
X109478571Y-148178328D01*
X109478571Y-148178328D02*
X109478571Y-146678328D01*
X110692857Y-147392614D02*
X111192857Y-147392614D01*
X111407143Y-148178328D02*
X110692857Y-148178328D01*
X110692857Y-148178328D02*
X110692857Y-146678328D01*
X110692857Y-146678328D02*
X111407143Y-146678328D01*
X112050000Y-148178328D02*
X112050000Y-146678328D01*
X112050000Y-146678328D02*
X112407143Y-146678328D01*
X112407143Y-146678328D02*
X112621429Y-146749757D01*
X112621429Y-146749757D02*
X112764286Y-146892614D01*
X112764286Y-146892614D02*
X112835715Y-147035471D01*
X112835715Y-147035471D02*
X112907143Y-147321185D01*
X112907143Y-147321185D02*
X112907143Y-147535471D01*
X112907143Y-147535471D02*
X112835715Y-147821185D01*
X112835715Y-147821185D02*
X112764286Y-147964042D01*
X112764286Y-147964042D02*
X112621429Y-148106900D01*
X112621429Y-148106900D02*
X112407143Y-148178328D01*
X112407143Y-148178328D02*
X112050000Y-148178328D01*
X114692857Y-148178328D02*
X114692857Y-146678328D01*
X114692857Y-146678328D02*
X115192857Y-147749757D01*
X115192857Y-147749757D02*
X115692857Y-146678328D01*
X115692857Y-146678328D02*
X115692857Y-148178328D01*
X116621429Y-148178328D02*
X116478572Y-148106900D01*
X116478572Y-148106900D02*
X116407143Y-148035471D01*
X116407143Y-148035471D02*
X116335715Y-147892614D01*
X116335715Y-147892614D02*
X116335715Y-147464042D01*
X116335715Y-147464042D02*
X116407143Y-147321185D01*
X116407143Y-147321185D02*
X116478572Y-147249757D01*
X116478572Y-147249757D02*
X116621429Y-147178328D01*
X116621429Y-147178328D02*
X116835715Y-147178328D01*
X116835715Y-147178328D02*
X116978572Y-147249757D01*
X116978572Y-147249757D02*
X117050001Y-147321185D01*
X117050001Y-147321185D02*
X117121429Y-147464042D01*
X117121429Y-147464042D02*
X117121429Y-147892614D01*
X117121429Y-147892614D02*
X117050001Y-148035471D01*
X117050001Y-148035471D02*
X116978572Y-148106900D01*
X116978572Y-148106900D02*
X116835715Y-148178328D01*
X116835715Y-148178328D02*
X116621429Y-148178328D01*
X118407144Y-148178328D02*
X118407144Y-146678328D01*
X118407144Y-148106900D02*
X118264286Y-148178328D01*
X118264286Y-148178328D02*
X117978572Y-148178328D01*
X117978572Y-148178328D02*
X117835715Y-148106900D01*
X117835715Y-148106900D02*
X117764286Y-148035471D01*
X117764286Y-148035471D02*
X117692858Y-147892614D01*
X117692858Y-147892614D02*
X117692858Y-147464042D01*
X117692858Y-147464042D02*
X117764286Y-147321185D01*
X117764286Y-147321185D02*
X117835715Y-147249757D01*
X117835715Y-147249757D02*
X117978572Y-147178328D01*
X117978572Y-147178328D02*
X118264286Y-147178328D01*
X118264286Y-147178328D02*
X118407144Y-147249757D01*
X119764287Y-147178328D02*
X119764287Y-148178328D01*
X119121429Y-147178328D02*
X119121429Y-147964042D01*
X119121429Y-147964042D02*
X119192858Y-148106900D01*
X119192858Y-148106900D02*
X119335715Y-148178328D01*
X119335715Y-148178328D02*
X119550001Y-148178328D01*
X119550001Y-148178328D02*
X119692858Y-148106900D01*
X119692858Y-148106900D02*
X119764287Y-148035471D01*
X120692858Y-148178328D02*
X120550001Y-148106900D01*
X120550001Y-148106900D02*
X120478572Y-147964042D01*
X120478572Y-147964042D02*
X120478572Y-146678328D01*
X121835715Y-148106900D02*
X121692858Y-148178328D01*
X121692858Y-148178328D02*
X121407144Y-148178328D01*
X121407144Y-148178328D02*
X121264286Y-148106900D01*
X121264286Y-148106900D02*
X121192858Y-147964042D01*
X121192858Y-147964042D02*
X121192858Y-147392614D01*
X121192858Y-147392614D02*
X121264286Y-147249757D01*
X121264286Y-147249757D02*
X121407144Y-147178328D01*
X121407144Y-147178328D02*
X121692858Y-147178328D01*
X121692858Y-147178328D02*
X121835715Y-147249757D01*
X121835715Y-147249757D02*
X121907144Y-147392614D01*
X121907144Y-147392614D02*
X121907144Y-147535471D01*
X121907144Y-147535471D02*
X121192858Y-147678328D01*
D10*
X124469819Y-108952380D02*
X124469819Y-108761904D01*
X124469819Y-108761904D02*
X124517438Y-108666666D01*
X124517438Y-108666666D02*
X124612676Y-108571428D01*
X124612676Y-108571428D02*
X124803152Y-108523809D01*
X124803152Y-108523809D02*
X125136485Y-108523809D01*
X125136485Y-108523809D02*
X125326961Y-108571428D01*
X125326961Y-108571428D02*
X125422200Y-108666666D01*
X125422200Y-108666666D02*
X125469819Y-108761904D01*
X125469819Y-108761904D02*
X125469819Y-108952380D01*
X125469819Y-108952380D02*
X125422200Y-109047618D01*
X125422200Y-109047618D02*
X125326961Y-109142856D01*
X125326961Y-109142856D02*
X125136485Y-109190475D01*
X125136485Y-109190475D02*
X124803152Y-109190475D01*
X124803152Y-109190475D02*
X124612676Y-109142856D01*
X124612676Y-109142856D02*
X124517438Y-109047618D01*
X124517438Y-109047618D02*
X124469819Y-108952380D01*
X124946009Y-107761904D02*
X124946009Y-108095237D01*
X125469819Y-108095237D02*
X124469819Y-108095237D01*
X124469819Y-108095237D02*
X124469819Y-107619047D01*
X124946009Y-106904761D02*
X124946009Y-107238094D01*
X125469819Y-107238094D02*
X124469819Y-107238094D01*
X124469819Y-107238094D02*
X124469819Y-106761904D01*
X158283333Y-113304819D02*
X157950000Y-112828628D01*
X157711905Y-113304819D02*
X157711905Y-112304819D01*
X157711905Y-112304819D02*
X158092857Y-112304819D01*
X158092857Y-112304819D02*
X158188095Y-112352438D01*
X158188095Y-112352438D02*
X158235714Y-112400057D01*
X158235714Y-112400057D02*
X158283333Y-112495295D01*
X158283333Y-112495295D02*
X158283333Y-112638152D01*
X158283333Y-112638152D02*
X158235714Y-112733390D01*
X158235714Y-112733390D02*
X158188095Y-112781009D01*
X158188095Y-112781009D02*
X158092857Y-112828628D01*
X158092857Y-112828628D02*
X157711905Y-112828628D01*
X158616667Y-112304819D02*
X159283333Y-113304819D01*
X159283333Y-112304819D02*
X158616667Y-113304819D01*
D11*
X172831203Y-107128328D02*
X172331203Y-106414042D01*
X171974060Y-107128328D02*
X171974060Y-105628328D01*
X171974060Y-105628328D02*
X172545489Y-105628328D01*
X172545489Y-105628328D02*
X172688346Y-105699757D01*
X172688346Y-105699757D02*
X172759775Y-105771185D01*
X172759775Y-105771185D02*
X172831203Y-105914042D01*
X172831203Y-105914042D02*
X172831203Y-106128328D01*
X172831203Y-106128328D02*
X172759775Y-106271185D01*
X172759775Y-106271185D02*
X172688346Y-106342614D01*
X172688346Y-106342614D02*
X172545489Y-106414042D01*
X172545489Y-106414042D02*
X171974060Y-106414042D01*
X173474060Y-106342614D02*
X173974060Y-106342614D01*
X174188346Y-107128328D02*
X173474060Y-107128328D01*
X173474060Y-107128328D02*
X173474060Y-105628328D01*
X173474060Y-105628328D02*
X174188346Y-105628328D01*
X174759775Y-107056900D02*
X174974061Y-107128328D01*
X174974061Y-107128328D02*
X175331203Y-107128328D01*
X175331203Y-107128328D02*
X175474061Y-107056900D01*
X175474061Y-107056900D02*
X175545489Y-106985471D01*
X175545489Y-106985471D02*
X175616918Y-106842614D01*
X175616918Y-106842614D02*
X175616918Y-106699757D01*
X175616918Y-106699757D02*
X175545489Y-106556900D01*
X175545489Y-106556900D02*
X175474061Y-106485471D01*
X175474061Y-106485471D02*
X175331203Y-106414042D01*
X175331203Y-106414042D02*
X175045489Y-106342614D01*
X175045489Y-106342614D02*
X174902632Y-106271185D01*
X174902632Y-106271185D02*
X174831203Y-106199757D01*
X174831203Y-106199757D02*
X174759775Y-106056900D01*
X174759775Y-106056900D02*
X174759775Y-105914042D01*
X174759775Y-105914042D02*
X174831203Y-105771185D01*
X174831203Y-105771185D02*
X174902632Y-105699757D01*
X174902632Y-105699757D02*
X175045489Y-105628328D01*
X175045489Y-105628328D02*
X175402632Y-105628328D01*
X175402632Y-105628328D02*
X175616918Y-105699757D01*
X176259774Y-106342614D02*
X176759774Y-106342614D01*
X176974060Y-107128328D02*
X176259774Y-107128328D01*
X176259774Y-107128328D02*
X176259774Y-105628328D01*
X176259774Y-105628328D02*
X176974060Y-105628328D01*
X177402632Y-105628328D02*
X178259775Y-105628328D01*
X177831203Y-107128328D02*
X177831203Y-105628328D01*
D10*
X134607142Y-140854819D02*
X134035714Y-140854819D01*
X134321428Y-140854819D02*
X134321428Y-139854819D01*
X134321428Y-139854819D02*
X134226190Y-139997676D01*
X134226190Y-139997676D02*
X134130952Y-140092914D01*
X134130952Y-140092914D02*
X134035714Y-140140533D01*
X135226190Y-139854819D02*
X135321428Y-139854819D01*
X135321428Y-139854819D02*
X135416666Y-139902438D01*
X135416666Y-139902438D02*
X135464285Y-139950057D01*
X135464285Y-139950057D02*
X135511904Y-140045295D01*
X135511904Y-140045295D02*
X135559523Y-140235771D01*
X135559523Y-140235771D02*
X135559523Y-140473866D01*
X135559523Y-140473866D02*
X135511904Y-140664342D01*
X135511904Y-140664342D02*
X135464285Y-140759580D01*
X135464285Y-140759580D02*
X135416666Y-140807200D01*
X135416666Y-140807200D02*
X135321428Y-140854819D01*
X135321428Y-140854819D02*
X135226190Y-140854819D01*
X135226190Y-140854819D02*
X135130952Y-140807200D01*
X135130952Y-140807200D02*
X135083333Y-140759580D01*
X135083333Y-140759580D02*
X135035714Y-140664342D01*
X135035714Y-140664342D02*
X134988095Y-140473866D01*
X134988095Y-140473866D02*
X134988095Y-140235771D01*
X134988095Y-140235771D02*
X135035714Y-140045295D01*
X135035714Y-140045295D02*
X135083333Y-139950057D01*
X135083333Y-139950057D02*
X135130952Y-139902438D01*
X135130952Y-139902438D02*
X135226190Y-139854819D01*
X136416666Y-140188152D02*
X136416666Y-140854819D01*
X135988095Y-140188152D02*
X135988095Y-140711961D01*
X135988095Y-140711961D02*
X136035714Y-140807200D01*
X136035714Y-140807200D02*
X136130952Y-140854819D01*
X136130952Y-140854819D02*
X136273809Y-140854819D01*
X136273809Y-140854819D02*
X136369047Y-140807200D01*
X136369047Y-140807200D02*
X136416666Y-140759580D01*
X135488095Y-138188152D02*
X135488095Y-138854819D01*
X135059524Y-138188152D02*
X135059524Y-138711961D01*
X135059524Y-138711961D02*
X135107143Y-138807200D01*
X135107143Y-138807200D02*
X135202381Y-138854819D01*
X135202381Y-138854819D02*
X135345238Y-138854819D01*
X135345238Y-138854819D02*
X135440476Y-138807200D01*
X135440476Y-138807200D02*
X135488095Y-138759580D01*
X136488095Y-138854819D02*
X135916667Y-138854819D01*
X136202381Y-138854819D02*
X136202381Y-137854819D01*
X136202381Y-137854819D02*
X136107143Y-137997676D01*
X136107143Y-137997676D02*
X136011905Y-138092914D01*
X136011905Y-138092914D02*
X135916667Y-138140533D01*
X160454819Y-104892856D02*
X159454819Y-104892856D01*
X160073866Y-104797618D02*
X160454819Y-104511904D01*
X159788152Y-104511904D02*
X160169104Y-104892856D01*
X160454819Y-103559523D02*
X160454819Y-104130951D01*
X160454819Y-103845237D02*
X159454819Y-103845237D01*
X159454819Y-103845237D02*
X159597676Y-103940475D01*
X159597676Y-103940475D02*
X159692914Y-104035713D01*
X159692914Y-104035713D02*
X159740533Y-104130951D01*
X176138095Y-139788152D02*
X176138095Y-140454819D01*
X175709524Y-139788152D02*
X175709524Y-140311961D01*
X175709524Y-140311961D02*
X175757143Y-140407200D01*
X175757143Y-140407200D02*
X175852381Y-140454819D01*
X175852381Y-140454819D02*
X175995238Y-140454819D01*
X175995238Y-140454819D02*
X176090476Y-140407200D01*
X176090476Y-140407200D02*
X176138095Y-140359580D01*
X177138095Y-140454819D02*
X176566667Y-140454819D01*
X176852381Y-140454819D02*
X176852381Y-139454819D01*
X176852381Y-139454819D02*
X176757143Y-139597676D01*
X176757143Y-139597676D02*
X176661905Y-139692914D01*
X176661905Y-139692914D02*
X176566667Y-139740533D01*
X170338152Y-120511904D02*
X171004819Y-120511904D01*
X170338152Y-120940475D02*
X170861961Y-120940475D01*
X170861961Y-120940475D02*
X170957200Y-120892856D01*
X170957200Y-120892856D02*
X171004819Y-120797618D01*
X171004819Y-120797618D02*
X171004819Y-120654761D01*
X171004819Y-120654761D02*
X170957200Y-120559523D01*
X170957200Y-120559523D02*
X170909580Y-120511904D01*
X171004819Y-119511904D02*
X171004819Y-120083332D01*
X171004819Y-119797618D02*
X170004819Y-119797618D01*
X170004819Y-119797618D02*
X170147676Y-119892856D01*
X170147676Y-119892856D02*
X170242914Y-119988094D01*
X170242914Y-119988094D02*
X170290533Y-120083332D01*
X165354819Y-147142856D02*
X164354819Y-147142856D01*
X164973866Y-147047618D02*
X165354819Y-146761904D01*
X164688152Y-146761904D02*
X165069104Y-147142856D01*
X165354819Y-145809523D02*
X165354819Y-146380951D01*
X165354819Y-146095237D02*
X164354819Y-146095237D01*
X164354819Y-146095237D02*
X164497676Y-146190475D01*
X164497676Y-146190475D02*
X164592914Y-146285713D01*
X164592914Y-146285713D02*
X164640533Y-146380951D01*
X127850057Y-108964285D02*
X127802438Y-108916666D01*
X127802438Y-108916666D02*
X127754819Y-108821428D01*
X127754819Y-108821428D02*
X127754819Y-108583333D01*
X127754819Y-108583333D02*
X127802438Y-108488095D01*
X127802438Y-108488095D02*
X127850057Y-108440476D01*
X127850057Y-108440476D02*
X127945295Y-108392857D01*
X127945295Y-108392857D02*
X128040533Y-108392857D01*
X128040533Y-108392857D02*
X128183390Y-108440476D01*
X128183390Y-108440476D02*
X128754819Y-109011904D01*
X128754819Y-109011904D02*
X128754819Y-108392857D01*
X127850057Y-108011904D02*
X127802438Y-107964285D01*
X127802438Y-107964285D02*
X127754819Y-107869047D01*
X127754819Y-107869047D02*
X127754819Y-107630952D01*
X127754819Y-107630952D02*
X127802438Y-107535714D01*
X127802438Y-107535714D02*
X127850057Y-107488095D01*
X127850057Y-107488095D02*
X127945295Y-107440476D01*
X127945295Y-107440476D02*
X128040533Y-107440476D01*
X128040533Y-107440476D02*
X128183390Y-107488095D01*
X128183390Y-107488095D02*
X128754819Y-108059523D01*
X128754819Y-108059523D02*
X128754819Y-107440476D01*
X128088152Y-106583333D02*
X128754819Y-106583333D01*
X128088152Y-107011904D02*
X128611961Y-107011904D01*
X128611961Y-107011904D02*
X128707200Y-106964285D01*
X128707200Y-106964285D02*
X128754819Y-106869047D01*
X128754819Y-106869047D02*
X128754819Y-106726190D01*
X128754819Y-106726190D02*
X128707200Y-106630952D01*
X128707200Y-106630952D02*
X128659580Y-106583333D01*
X171400057Y-121916666D02*
X171352438Y-121869047D01*
X171352438Y-121869047D02*
X171304819Y-121773809D01*
X171304819Y-121773809D02*
X171304819Y-121535714D01*
X171304819Y-121535714D02*
X171352438Y-121440476D01*
X171352438Y-121440476D02*
X171400057Y-121392857D01*
X171400057Y-121392857D02*
X171495295Y-121345238D01*
X171495295Y-121345238D02*
X171590533Y-121345238D01*
X171590533Y-121345238D02*
X171733390Y-121392857D01*
X171733390Y-121392857D02*
X172304819Y-121964285D01*
X172304819Y-121964285D02*
X172304819Y-121345238D01*
X171400057Y-120964285D02*
X171352438Y-120916666D01*
X171352438Y-120916666D02*
X171304819Y-120821428D01*
X171304819Y-120821428D02*
X171304819Y-120583333D01*
X171304819Y-120583333D02*
X171352438Y-120488095D01*
X171352438Y-120488095D02*
X171400057Y-120440476D01*
X171400057Y-120440476D02*
X171495295Y-120392857D01*
X171495295Y-120392857D02*
X171590533Y-120392857D01*
X171590533Y-120392857D02*
X171733390Y-120440476D01*
X171733390Y-120440476D02*
X172304819Y-121011904D01*
X172304819Y-121011904D02*
X172304819Y-120392857D01*
X172304819Y-119964285D02*
X171304819Y-119964285D01*
X171923866Y-119869047D02*
X172304819Y-119583333D01*
X171638152Y-119583333D02*
X172019104Y-119964285D01*
X166159523Y-112788152D02*
X166159523Y-113454819D01*
X165921428Y-112407200D02*
X165683333Y-113121485D01*
X165683333Y-113121485D02*
X166302380Y-113121485D01*
X166683333Y-113454819D02*
X166683333Y-112454819D01*
X166778571Y-113073866D02*
X167064285Y-113454819D01*
X167064285Y-112788152D02*
X166683333Y-113169104D01*
X167397619Y-112454819D02*
X168064285Y-112454819D01*
X168064285Y-112454819D02*
X167635714Y-113454819D01*
X176257142Y-138654819D02*
X175685714Y-138654819D01*
X175971428Y-138654819D02*
X175971428Y-137654819D01*
X175971428Y-137654819D02*
X175876190Y-137797676D01*
X175876190Y-137797676D02*
X175780952Y-137892914D01*
X175780952Y-137892914D02*
X175685714Y-137940533D01*
X176876190Y-137654819D02*
X176971428Y-137654819D01*
X176971428Y-137654819D02*
X177066666Y-137702438D01*
X177066666Y-137702438D02*
X177114285Y-137750057D01*
X177114285Y-137750057D02*
X177161904Y-137845295D01*
X177161904Y-137845295D02*
X177209523Y-138035771D01*
X177209523Y-138035771D02*
X177209523Y-138273866D01*
X177209523Y-138273866D02*
X177161904Y-138464342D01*
X177161904Y-138464342D02*
X177114285Y-138559580D01*
X177114285Y-138559580D02*
X177066666Y-138607200D01*
X177066666Y-138607200D02*
X176971428Y-138654819D01*
X176971428Y-138654819D02*
X176876190Y-138654819D01*
X176876190Y-138654819D02*
X176780952Y-138607200D01*
X176780952Y-138607200D02*
X176733333Y-138559580D01*
X176733333Y-138559580D02*
X176685714Y-138464342D01*
X176685714Y-138464342D02*
X176638095Y-138273866D01*
X176638095Y-138273866D02*
X176638095Y-138035771D01*
X176638095Y-138035771D02*
X176685714Y-137845295D01*
X176685714Y-137845295D02*
X176733333Y-137750057D01*
X176733333Y-137750057D02*
X176780952Y-137702438D01*
X176780952Y-137702438D02*
X176876190Y-137654819D01*
X178066666Y-137988152D02*
X178066666Y-138654819D01*
X177638095Y-137988152D02*
X177638095Y-138511961D01*
X177638095Y-138511961D02*
X177685714Y-138607200D01*
X177685714Y-138607200D02*
X177780952Y-138654819D01*
X177780952Y-138654819D02*
X177923809Y-138654819D01*
X177923809Y-138654819D02*
X178019047Y-138607200D01*
X178019047Y-138607200D02*
X178066666Y-138559580D01*
X134395238Y-143104819D02*
X134395238Y-142438152D01*
X134395238Y-142533390D02*
X134442857Y-142485771D01*
X134442857Y-142485771D02*
X134538095Y-142438152D01*
X134538095Y-142438152D02*
X134680952Y-142438152D01*
X134680952Y-142438152D02*
X134776190Y-142485771D01*
X134776190Y-142485771D02*
X134823809Y-142581009D01*
X134823809Y-142581009D02*
X134823809Y-143104819D01*
X134823809Y-142581009D02*
X134871428Y-142485771D01*
X134871428Y-142485771D02*
X134966666Y-142438152D01*
X134966666Y-142438152D02*
X135109523Y-142438152D01*
X135109523Y-142438152D02*
X135204762Y-142485771D01*
X135204762Y-142485771D02*
X135252381Y-142581009D01*
X135252381Y-142581009D02*
X135252381Y-143104819D01*
X136252380Y-143104819D02*
X135680952Y-143104819D01*
X135966666Y-143104819D02*
X135966666Y-142104819D01*
X135966666Y-142104819D02*
X135871428Y-142247676D01*
X135871428Y-142247676D02*
X135776190Y-142342914D01*
X135776190Y-142342914D02*
X135680952Y-142390533D01*
X121738095Y-110888152D02*
X121738095Y-111554819D01*
X121309524Y-110888152D02*
X121309524Y-111411961D01*
X121309524Y-111411961D02*
X121357143Y-111507200D01*
X121357143Y-111507200D02*
X121452381Y-111554819D01*
X121452381Y-111554819D02*
X121595238Y-111554819D01*
X121595238Y-111554819D02*
X121690476Y-111507200D01*
X121690476Y-111507200D02*
X121738095Y-111459580D01*
X122738095Y-111554819D02*
X122166667Y-111554819D01*
X122452381Y-111554819D02*
X122452381Y-110554819D01*
X122452381Y-110554819D02*
X122357143Y-110697676D01*
X122357143Y-110697676D02*
X122261905Y-110792914D01*
X122261905Y-110792914D02*
X122166667Y-110840533D01*
X143880952Y-138304819D02*
X143309524Y-138304819D01*
X143595238Y-138304819D02*
X143595238Y-137304819D01*
X143595238Y-137304819D02*
X143500000Y-137447676D01*
X143500000Y-137447676D02*
X143404762Y-137542914D01*
X143404762Y-137542914D02*
X143309524Y-137590533D01*
X144309524Y-138304819D02*
X144309524Y-137304819D01*
X144404762Y-137923866D02*
X144690476Y-138304819D01*
X144690476Y-137638152D02*
X144309524Y-138019104D01*
X174854819Y-121345238D02*
X174854819Y-121916666D01*
X174854819Y-121630952D02*
X173854819Y-121630952D01*
X173854819Y-121630952D02*
X173997676Y-121726190D01*
X173997676Y-121726190D02*
X174092914Y-121821428D01*
X174092914Y-121821428D02*
X174140533Y-121916666D01*
X173854819Y-120726190D02*
X173854819Y-120630952D01*
X173854819Y-120630952D02*
X173902438Y-120535714D01*
X173902438Y-120535714D02*
X173950057Y-120488095D01*
X173950057Y-120488095D02*
X174045295Y-120440476D01*
X174045295Y-120440476D02*
X174235771Y-120392857D01*
X174235771Y-120392857D02*
X174473866Y-120392857D01*
X174473866Y-120392857D02*
X174664342Y-120440476D01*
X174664342Y-120440476D02*
X174759580Y-120488095D01*
X174759580Y-120488095D02*
X174807200Y-120535714D01*
X174807200Y-120535714D02*
X174854819Y-120630952D01*
X174854819Y-120630952D02*
X174854819Y-120726190D01*
X174854819Y-120726190D02*
X174807200Y-120821428D01*
X174807200Y-120821428D02*
X174759580Y-120869047D01*
X174759580Y-120869047D02*
X174664342Y-120916666D01*
X174664342Y-120916666D02*
X174473866Y-120964285D01*
X174473866Y-120964285D02*
X174235771Y-120964285D01*
X174235771Y-120964285D02*
X174045295Y-120916666D01*
X174045295Y-120916666D02*
X173950057Y-120869047D01*
X173950057Y-120869047D02*
X173902438Y-120821428D01*
X173902438Y-120821428D02*
X173854819Y-120726190D01*
X174854819Y-119964285D02*
X173854819Y-119964285D01*
X174473866Y-119869047D02*
X174854819Y-119583333D01*
X174188152Y-119583333D02*
X174569104Y-119964285D01*
X132554819Y-125419047D02*
X132554819Y-125990475D01*
X132554819Y-125704761D02*
X131554819Y-125704761D01*
X131554819Y-125704761D02*
X131697676Y-125799999D01*
X131697676Y-125799999D02*
X131792914Y-125895237D01*
X131792914Y-125895237D02*
X131840533Y-125990475D01*
X132554819Y-124990475D02*
X131554819Y-124990475D01*
X132173866Y-124895237D02*
X132554819Y-124609523D01*
X131888152Y-124609523D02*
X132269104Y-124990475D01*
X173604819Y-121345238D02*
X173604819Y-121916666D01*
X173604819Y-121630952D02*
X172604819Y-121630952D01*
X172604819Y-121630952D02*
X172747676Y-121726190D01*
X172747676Y-121726190D02*
X172842914Y-121821428D01*
X172842914Y-121821428D02*
X172890533Y-121916666D01*
X172604819Y-120440476D02*
X172604819Y-120916666D01*
X172604819Y-120916666D02*
X173081009Y-120964285D01*
X173081009Y-120964285D02*
X173033390Y-120916666D01*
X173033390Y-120916666D02*
X172985771Y-120821428D01*
X172985771Y-120821428D02*
X172985771Y-120583333D01*
X172985771Y-120583333D02*
X173033390Y-120488095D01*
X173033390Y-120488095D02*
X173081009Y-120440476D01*
X173081009Y-120440476D02*
X173176247Y-120392857D01*
X173176247Y-120392857D02*
X173414342Y-120392857D01*
X173414342Y-120392857D02*
X173509580Y-120440476D01*
X173509580Y-120440476D02*
X173557200Y-120488095D01*
X173557200Y-120488095D02*
X173604819Y-120583333D01*
X173604819Y-120583333D02*
X173604819Y-120821428D01*
X173604819Y-120821428D02*
X173557200Y-120916666D01*
X173557200Y-120916666D02*
X173509580Y-120964285D01*
X173604819Y-119964285D02*
X172604819Y-119964285D01*
X173223866Y-119869047D02*
X173604819Y-119583333D01*
X172938152Y-119583333D02*
X173319104Y-119964285D01*
X154595238Y-138404819D02*
X154595238Y-137738152D01*
X154595238Y-137833390D02*
X154642857Y-137785771D01*
X154642857Y-137785771D02*
X154738095Y-137738152D01*
X154738095Y-137738152D02*
X154880952Y-137738152D01*
X154880952Y-137738152D02*
X154976190Y-137785771D01*
X154976190Y-137785771D02*
X155023809Y-137881009D01*
X155023809Y-137881009D02*
X155023809Y-138404819D01*
X155023809Y-137881009D02*
X155071428Y-137785771D01*
X155071428Y-137785771D02*
X155166666Y-137738152D01*
X155166666Y-137738152D02*
X155309523Y-137738152D01*
X155309523Y-137738152D02*
X155404762Y-137785771D01*
X155404762Y-137785771D02*
X155452381Y-137881009D01*
X155452381Y-137881009D02*
X155452381Y-138404819D01*
X156452380Y-138404819D02*
X155880952Y-138404819D01*
X156166666Y-138404819D02*
X156166666Y-137404819D01*
X156166666Y-137404819D02*
X156071428Y-137547676D01*
X156071428Y-137547676D02*
X155976190Y-137642914D01*
X155976190Y-137642914D02*
X155880952Y-137690533D01*
X103204819Y-104764285D02*
X102204819Y-104764285D01*
X103204819Y-104192857D02*
X102633390Y-104621428D01*
X102204819Y-104192857D02*
X102776247Y-104764285D01*
X103204819Y-103240476D02*
X103204819Y-103811904D01*
X103204819Y-103526190D02*
X102204819Y-103526190D01*
X102204819Y-103526190D02*
X102347676Y-103621428D01*
X102347676Y-103621428D02*
X102442914Y-103716666D01*
X102442914Y-103716666D02*
X102490533Y-103811904D01*
X102300057Y-102859523D02*
X102252438Y-102811904D01*
X102252438Y-102811904D02*
X102204819Y-102716666D01*
X102204819Y-102716666D02*
X102204819Y-102478571D01*
X102204819Y-102478571D02*
X102252438Y-102383333D01*
X102252438Y-102383333D02*
X102300057Y-102335714D01*
X102300057Y-102335714D02*
X102395295Y-102288095D01*
X102395295Y-102288095D02*
X102490533Y-102288095D01*
X102490533Y-102288095D02*
X102633390Y-102335714D01*
X102633390Y-102335714D02*
X103204819Y-102907142D01*
X103204819Y-102907142D02*
X103204819Y-102288095D01*
X112788095Y-115488152D02*
X112788095Y-116154819D01*
X112359524Y-115488152D02*
X112359524Y-116011961D01*
X112359524Y-116011961D02*
X112407143Y-116107200D01*
X112407143Y-116107200D02*
X112502381Y-116154819D01*
X112502381Y-116154819D02*
X112645238Y-116154819D01*
X112645238Y-116154819D02*
X112740476Y-116107200D01*
X112740476Y-116107200D02*
X112788095Y-116059580D01*
X113788095Y-116154819D02*
X113216667Y-116154819D01*
X113502381Y-116154819D02*
X113502381Y-115154819D01*
X113502381Y-115154819D02*
X113407143Y-115297676D01*
X113407143Y-115297676D02*
X113311905Y-115392914D01*
X113311905Y-115392914D02*
X113216667Y-115440533D01*
X127431009Y-129507142D02*
X127478628Y-129364285D01*
X127478628Y-129364285D02*
X127526247Y-129316666D01*
X127526247Y-129316666D02*
X127621485Y-129269047D01*
X127621485Y-129269047D02*
X127764342Y-129269047D01*
X127764342Y-129269047D02*
X127859580Y-129316666D01*
X127859580Y-129316666D02*
X127907200Y-129364285D01*
X127907200Y-129364285D02*
X127954819Y-129459523D01*
X127954819Y-129459523D02*
X127954819Y-129840475D01*
X127954819Y-129840475D02*
X126954819Y-129840475D01*
X126954819Y-129840475D02*
X126954819Y-129507142D01*
X126954819Y-129507142D02*
X127002438Y-129411904D01*
X127002438Y-129411904D02*
X127050057Y-129364285D01*
X127050057Y-129364285D02*
X127145295Y-129316666D01*
X127145295Y-129316666D02*
X127240533Y-129316666D01*
X127240533Y-129316666D02*
X127335771Y-129364285D01*
X127335771Y-129364285D02*
X127383390Y-129411904D01*
X127383390Y-129411904D02*
X127431009Y-129507142D01*
X127431009Y-129507142D02*
X127431009Y-129840475D01*
X127859580Y-128269047D02*
X127907200Y-128316666D01*
X127907200Y-128316666D02*
X127954819Y-128459523D01*
X127954819Y-128459523D02*
X127954819Y-128554761D01*
X127954819Y-128554761D02*
X127907200Y-128697618D01*
X127907200Y-128697618D02*
X127811961Y-128792856D01*
X127811961Y-128792856D02*
X127716723Y-128840475D01*
X127716723Y-128840475D02*
X127526247Y-128888094D01*
X127526247Y-128888094D02*
X127383390Y-128888094D01*
X127383390Y-128888094D02*
X127192914Y-128840475D01*
X127192914Y-128840475D02*
X127097676Y-128792856D01*
X127097676Y-128792856D02*
X127002438Y-128697618D01*
X127002438Y-128697618D02*
X126954819Y-128554761D01*
X126954819Y-128554761D02*
X126954819Y-128459523D01*
X126954819Y-128459523D02*
X127002438Y-128316666D01*
X127002438Y-128316666D02*
X127050057Y-128269047D01*
X127383390Y-127697618D02*
X127335771Y-127792856D01*
X127335771Y-127792856D02*
X127288152Y-127840475D01*
X127288152Y-127840475D02*
X127192914Y-127888094D01*
X127192914Y-127888094D02*
X127145295Y-127888094D01*
X127145295Y-127888094D02*
X127050057Y-127840475D01*
X127050057Y-127840475D02*
X127002438Y-127792856D01*
X127002438Y-127792856D02*
X126954819Y-127697618D01*
X126954819Y-127697618D02*
X126954819Y-127507142D01*
X126954819Y-127507142D02*
X127002438Y-127411904D01*
X127002438Y-127411904D02*
X127050057Y-127364285D01*
X127050057Y-127364285D02*
X127145295Y-127316666D01*
X127145295Y-127316666D02*
X127192914Y-127316666D01*
X127192914Y-127316666D02*
X127288152Y-127364285D01*
X127288152Y-127364285D02*
X127335771Y-127411904D01*
X127335771Y-127411904D02*
X127383390Y-127507142D01*
X127383390Y-127507142D02*
X127383390Y-127697618D01*
X127383390Y-127697618D02*
X127431009Y-127792856D01*
X127431009Y-127792856D02*
X127478628Y-127840475D01*
X127478628Y-127840475D02*
X127573866Y-127888094D01*
X127573866Y-127888094D02*
X127764342Y-127888094D01*
X127764342Y-127888094D02*
X127859580Y-127840475D01*
X127859580Y-127840475D02*
X127907200Y-127792856D01*
X127907200Y-127792856D02*
X127954819Y-127697618D01*
X127954819Y-127697618D02*
X127954819Y-127507142D01*
X127954819Y-127507142D02*
X127907200Y-127411904D01*
X127907200Y-127411904D02*
X127859580Y-127364285D01*
X127859580Y-127364285D02*
X127764342Y-127316666D01*
X127764342Y-127316666D02*
X127573866Y-127316666D01*
X127573866Y-127316666D02*
X127478628Y-127364285D01*
X127478628Y-127364285D02*
X127431009Y-127411904D01*
X127431009Y-127411904D02*
X127383390Y-127507142D01*
X127288152Y-126459523D02*
X127954819Y-126459523D01*
X126907200Y-126697618D02*
X127621485Y-126935713D01*
X127621485Y-126935713D02*
X127621485Y-126316666D01*
X126954819Y-126030951D02*
X126954819Y-125364285D01*
X126954819Y-125364285D02*
X127954819Y-125792856D01*
D11*
X172304510Y-146778328D02*
X172304510Y-145278328D01*
X172304510Y-145278328D02*
X172875939Y-145278328D01*
X172875939Y-145278328D02*
X173018796Y-145349757D01*
X173018796Y-145349757D02*
X173090225Y-145421185D01*
X173090225Y-145421185D02*
X173161653Y-145564042D01*
X173161653Y-145564042D02*
X173161653Y-145778328D01*
X173161653Y-145778328D02*
X173090225Y-145921185D01*
X173090225Y-145921185D02*
X173018796Y-145992614D01*
X173018796Y-145992614D02*
X172875939Y-146064042D01*
X172875939Y-146064042D02*
X172304510Y-146064042D01*
X174661653Y-146778328D02*
X174161653Y-146064042D01*
X173804510Y-146778328D02*
X173804510Y-145278328D01*
X173804510Y-145278328D02*
X174375939Y-145278328D01*
X174375939Y-145278328D02*
X174518796Y-145349757D01*
X174518796Y-145349757D02*
X174590225Y-145421185D01*
X174590225Y-145421185D02*
X174661653Y-145564042D01*
X174661653Y-145564042D02*
X174661653Y-145778328D01*
X174661653Y-145778328D02*
X174590225Y-145921185D01*
X174590225Y-145921185D02*
X174518796Y-145992614D01*
X174518796Y-145992614D02*
X174375939Y-146064042D01*
X174375939Y-146064042D02*
X173804510Y-146064042D01*
X175590225Y-145278328D02*
X175875939Y-145278328D01*
X175875939Y-145278328D02*
X176018796Y-145349757D01*
X176018796Y-145349757D02*
X176161653Y-145492614D01*
X176161653Y-145492614D02*
X176233082Y-145778328D01*
X176233082Y-145778328D02*
X176233082Y-146278328D01*
X176233082Y-146278328D02*
X176161653Y-146564042D01*
X176161653Y-146564042D02*
X176018796Y-146706900D01*
X176018796Y-146706900D02*
X175875939Y-146778328D01*
X175875939Y-146778328D02*
X175590225Y-146778328D01*
X175590225Y-146778328D02*
X175447368Y-146706900D01*
X175447368Y-146706900D02*
X175304510Y-146564042D01*
X175304510Y-146564042D02*
X175233082Y-146278328D01*
X175233082Y-146278328D02*
X175233082Y-145778328D01*
X175233082Y-145778328D02*
X175304510Y-145492614D01*
X175304510Y-145492614D02*
X175447368Y-145349757D01*
X175447368Y-145349757D02*
X175590225Y-145278328D01*
X177661654Y-145349757D02*
X177518797Y-145278328D01*
X177518797Y-145278328D02*
X177304511Y-145278328D01*
X177304511Y-145278328D02*
X177090225Y-145349757D01*
X177090225Y-145349757D02*
X176947368Y-145492614D01*
X176947368Y-145492614D02*
X176875939Y-145635471D01*
X176875939Y-145635471D02*
X176804511Y-145921185D01*
X176804511Y-145921185D02*
X176804511Y-146135471D01*
X176804511Y-146135471D02*
X176875939Y-146421185D01*
X176875939Y-146421185D02*
X176947368Y-146564042D01*
X176947368Y-146564042D02*
X177090225Y-146706900D01*
X177090225Y-146706900D02*
X177304511Y-146778328D01*
X177304511Y-146778328D02*
X177447368Y-146778328D01*
X177447368Y-146778328D02*
X177661654Y-146706900D01*
X177661654Y-146706900D02*
X177733082Y-146635471D01*
X177733082Y-146635471D02*
X177733082Y-146135471D01*
X177733082Y-146135471D02*
X177447368Y-146135471D01*
D10*
X165654819Y-143095238D02*
X165654819Y-143666666D01*
X165654819Y-143380952D02*
X164654819Y-143380952D01*
X164654819Y-143380952D02*
X164797676Y-143476190D01*
X164797676Y-143476190D02*
X164892914Y-143571428D01*
X164892914Y-143571428D02*
X164940533Y-143666666D01*
X164654819Y-142476190D02*
X164654819Y-142380952D01*
X164654819Y-142380952D02*
X164702438Y-142285714D01*
X164702438Y-142285714D02*
X164750057Y-142238095D01*
X164750057Y-142238095D02*
X164845295Y-142190476D01*
X164845295Y-142190476D02*
X165035771Y-142142857D01*
X165035771Y-142142857D02*
X165273866Y-142142857D01*
X165273866Y-142142857D02*
X165464342Y-142190476D01*
X165464342Y-142190476D02*
X165559580Y-142238095D01*
X165559580Y-142238095D02*
X165607200Y-142285714D01*
X165607200Y-142285714D02*
X165654819Y-142380952D01*
X165654819Y-142380952D02*
X165654819Y-142476190D01*
X165654819Y-142476190D02*
X165607200Y-142571428D01*
X165607200Y-142571428D02*
X165559580Y-142619047D01*
X165559580Y-142619047D02*
X165464342Y-142666666D01*
X165464342Y-142666666D02*
X165273866Y-142714285D01*
X165273866Y-142714285D02*
X165035771Y-142714285D01*
X165035771Y-142714285D02*
X164845295Y-142666666D01*
X164845295Y-142666666D02*
X164750057Y-142619047D01*
X164750057Y-142619047D02*
X164702438Y-142571428D01*
X164702438Y-142571428D02*
X164654819Y-142476190D01*
X165654819Y-141714285D02*
X164654819Y-141714285D01*
X165273866Y-141619047D02*
X165654819Y-141333333D01*
X164988152Y-141333333D02*
X165369104Y-141714285D01*
X131904761Y-113004819D02*
X131333333Y-113004819D01*
X131619047Y-113004819D02*
X131619047Y-112004819D01*
X131619047Y-112004819D02*
X131523809Y-112147676D01*
X131523809Y-112147676D02*
X131428571Y-112242914D01*
X131428571Y-112242914D02*
X131333333Y-112290533D01*
X132523809Y-112004819D02*
X132619047Y-112004819D01*
X132619047Y-112004819D02*
X132714285Y-112052438D01*
X132714285Y-112052438D02*
X132761904Y-112100057D01*
X132761904Y-112100057D02*
X132809523Y-112195295D01*
X132809523Y-112195295D02*
X132857142Y-112385771D01*
X132857142Y-112385771D02*
X132857142Y-112623866D01*
X132857142Y-112623866D02*
X132809523Y-112814342D01*
X132809523Y-112814342D02*
X132761904Y-112909580D01*
X132761904Y-112909580D02*
X132714285Y-112957200D01*
X132714285Y-112957200D02*
X132619047Y-113004819D01*
X132619047Y-113004819D02*
X132523809Y-113004819D01*
X132523809Y-113004819D02*
X132428571Y-112957200D01*
X132428571Y-112957200D02*
X132380952Y-112909580D01*
X132380952Y-112909580D02*
X132333333Y-112814342D01*
X132333333Y-112814342D02*
X132285714Y-112623866D01*
X132285714Y-112623866D02*
X132285714Y-112385771D01*
X132285714Y-112385771D02*
X132333333Y-112195295D01*
X132333333Y-112195295D02*
X132380952Y-112100057D01*
X132380952Y-112100057D02*
X132428571Y-112052438D01*
X132428571Y-112052438D02*
X132523809Y-112004819D01*
X133285714Y-113004819D02*
X133285714Y-112004819D01*
X133380952Y-112623866D02*
X133666666Y-113004819D01*
X133666666Y-112338152D02*
X133285714Y-112719104D01*
X159788152Y-102311904D02*
X160454819Y-102311904D01*
X159788152Y-102740475D02*
X160311961Y-102740475D01*
X160311961Y-102740475D02*
X160407200Y-102692856D01*
X160407200Y-102692856D02*
X160454819Y-102597618D01*
X160454819Y-102597618D02*
X160454819Y-102454761D01*
X160454819Y-102454761D02*
X160407200Y-102359523D01*
X160407200Y-102359523D02*
X160359580Y-102311904D01*
X160454819Y-101311904D02*
X160454819Y-101883332D01*
X160454819Y-101597618D02*
X159454819Y-101597618D01*
X159454819Y-101597618D02*
X159597676Y-101692856D01*
X159597676Y-101692856D02*
X159692914Y-101788094D01*
X159692914Y-101788094D02*
X159740533Y-101883332D01*
X175438152Y-120511904D02*
X176104819Y-120511904D01*
X175438152Y-120940475D02*
X175961961Y-120940475D01*
X175961961Y-120940475D02*
X176057200Y-120892856D01*
X176057200Y-120892856D02*
X176104819Y-120797618D01*
X176104819Y-120797618D02*
X176104819Y-120654761D01*
X176104819Y-120654761D02*
X176057200Y-120559523D01*
X176057200Y-120559523D02*
X176009580Y-120511904D01*
X176104819Y-119511904D02*
X176104819Y-120083332D01*
X176104819Y-119797618D02*
X175104819Y-119797618D01*
X175104819Y-119797618D02*
X175247676Y-119892856D01*
X175247676Y-119892856D02*
X175342914Y-119988094D01*
X175342914Y-119988094D02*
X175390533Y-120083332D01*
X129338152Y-108461904D02*
X130004819Y-108461904D01*
X129338152Y-108890475D02*
X129861961Y-108890475D01*
X129861961Y-108890475D02*
X129957200Y-108842856D01*
X129957200Y-108842856D02*
X130004819Y-108747618D01*
X130004819Y-108747618D02*
X130004819Y-108604761D01*
X130004819Y-108604761D02*
X129957200Y-108509523D01*
X129957200Y-108509523D02*
X129909580Y-108461904D01*
X130004819Y-107461904D02*
X130004819Y-108033332D01*
X130004819Y-107747618D02*
X129004819Y-107747618D01*
X129004819Y-107747618D02*
X129147676Y-107842856D01*
X129147676Y-107842856D02*
X129242914Y-107938094D01*
X129242914Y-107938094D02*
X129290533Y-108033332D01*
D11*
X148285713Y-141878328D02*
X148285713Y-140378328D01*
X148999999Y-141878328D02*
X148999999Y-140378328D01*
X148999999Y-140378328D02*
X149857142Y-141878328D01*
X149857142Y-141878328D02*
X149857142Y-140378328D01*
X151071428Y-141092614D02*
X150571428Y-141092614D01*
X150571428Y-141878328D02*
X150571428Y-140378328D01*
X150571428Y-140378328D02*
X151285714Y-140378328D01*
X152142857Y-140378328D02*
X152428571Y-140378328D01*
X152428571Y-140378328D02*
X152571428Y-140449757D01*
X152571428Y-140449757D02*
X152714285Y-140592614D01*
X152714285Y-140592614D02*
X152785714Y-140878328D01*
X152785714Y-140878328D02*
X152785714Y-141378328D01*
X152785714Y-141378328D02*
X152714285Y-141664042D01*
X152714285Y-141664042D02*
X152571428Y-141806900D01*
X152571428Y-141806900D02*
X152428571Y-141878328D01*
X152428571Y-141878328D02*
X152142857Y-141878328D01*
X152142857Y-141878328D02*
X152000000Y-141806900D01*
X152000000Y-141806900D02*
X151857142Y-141664042D01*
X151857142Y-141664042D02*
X151785714Y-141378328D01*
X151785714Y-141378328D02*
X151785714Y-140878328D01*
X151785714Y-140878328D02*
X151857142Y-140592614D01*
X151857142Y-140592614D02*
X152000000Y-140449757D01*
X152000000Y-140449757D02*
X152142857Y-140378328D01*
D10*
X124254819Y-126419047D02*
X124254819Y-126990475D01*
X124254819Y-126704761D02*
X123254819Y-126704761D01*
X123254819Y-126704761D02*
X123397676Y-126799999D01*
X123397676Y-126799999D02*
X123492914Y-126895237D01*
X123492914Y-126895237D02*
X123540533Y-126990475D01*
X124254819Y-125990475D02*
X123254819Y-125990475D01*
X123873866Y-125895237D02*
X124254819Y-125609523D01*
X123588152Y-125609523D02*
X123969104Y-125990475D01*
X169159523Y-109338152D02*
X169159523Y-110004819D01*
X168921428Y-108957200D02*
X168683333Y-109671485D01*
X168683333Y-109671485D02*
X169302380Y-109671485D01*
X169683333Y-110004819D02*
X169683333Y-109004819D01*
X169778571Y-109623866D02*
X170064285Y-110004819D01*
X170064285Y-109338152D02*
X169683333Y-109719104D01*
X170397619Y-109004819D02*
X171064285Y-109004819D01*
X171064285Y-109004819D02*
X170635714Y-110004819D01*
D12*
%TO.C,F2*%
X100430000Y-139003752D02*
X100430000Y-134596248D01*
X105770000Y-139003752D02*
X105770000Y-134596248D01*
%TO.C,F1*%
X114830000Y-139896248D02*
X114830000Y-144303752D01*
X120170000Y-139896248D02*
X120170000Y-144303752D01*
%TO.C,SW2*%
X171750000Y-103700000D02*
X171750000Y-101700000D01*
X170700000Y-105000000D02*
X170250000Y-105450000D01*
X170700000Y-100400000D02*
X170250000Y-99950000D01*
X170250000Y-105450000D02*
X167750000Y-105450000D01*
X170250000Y-99950000D02*
X167750000Y-99950000D01*
X167300000Y-105000000D02*
X167750000Y-105450000D01*
X167300000Y-100400000D02*
X167750000Y-99950000D01*
X166250000Y-103700000D02*
X166250000Y-101700000D01*
%TO.C,U3*%
X114000000Y-107115000D02*
X112050000Y-107115000D01*
X114000000Y-107115000D02*
X115950000Y-107115000D01*
X114000000Y-115985000D02*
X112050000Y-115985000D01*
X114000000Y-115985000D02*
X117450000Y-115985000D01*
%TO.C,C4*%
X138711252Y-139665000D02*
X138188748Y-139665000D01*
X138711252Y-141135000D02*
X138188748Y-141135000D01*
%TO.C,C3*%
X138711252Y-137665000D02*
X138188748Y-137665000D01*
X138711252Y-139135000D02*
X138188748Y-139135000D01*
%TO.C,R8*%
X162377064Y-103515000D02*
X161922936Y-103515000D01*
X162377064Y-104985000D02*
X161922936Y-104985000D01*
%TO.C,C9*%
X164038748Y-139515000D02*
X164561252Y-139515000D01*
X164038748Y-140985000D02*
X164561252Y-140985000D01*
D10*
%TO.C,J9*%
X155600000Y-109770000D02*
X156100000Y-109270000D01*
X155600000Y-113370000D02*
X155600000Y-109770000D01*
X156100000Y-109270000D02*
X156900000Y-109270000D01*
X156100000Y-113870000D02*
X155600000Y-113370000D01*
X156900000Y-109270000D02*
X157400000Y-109770000D01*
X156900000Y-113870000D02*
X156100000Y-113870000D01*
X157400000Y-109770000D02*
X157400000Y-113370000D01*
X157400000Y-113370000D02*
X156900000Y-113870000D01*
D12*
%TO.C,D1*%
X126920000Y-102340000D02*
X127850000Y-102340000D01*
X126920000Y-103140000D02*
X126920000Y-102340000D01*
X126920000Y-103140000D02*
X126920000Y-103940000D01*
X130080000Y-102340000D02*
X129150000Y-102340000D01*
X130080000Y-102340000D02*
X130080000Y-103800000D01*
X126890000Y-104440000D02*
X126560000Y-104680000D01*
X126560000Y-104200000D01*
X126890000Y-104440000D01*
G36*
X126890000Y-104440000D02*
G01*
X126560000Y-104680000D01*
X126560000Y-104200000D01*
X126890000Y-104440000D01*
G37*
%TO.C,F5*%
X184230000Y-109903752D02*
X184230000Y-105496248D01*
X189570000Y-109903752D02*
X189570000Y-105496248D01*
%TO.C,F8*%
X168796248Y-137330000D02*
X173203752Y-137330000D01*
X168796248Y-142670000D02*
X173203752Y-142670000D01*
%TO.C,C13*%
X160735000Y-118711252D02*
X160735000Y-118188748D01*
X159265000Y-118711252D02*
X159265000Y-118188748D01*
%TO.C,U2*%
X135875000Y-100080000D02*
X135875000Y-106500000D01*
X135875000Y-100080000D02*
X154115000Y-100080000D01*
X135875000Y-106500000D02*
X135495000Y-106500000D01*
X135875000Y-125045000D02*
X135875000Y-125825000D01*
X135875000Y-125825000D02*
X136875000Y-125825000D01*
X154115000Y-100080000D02*
X154115000Y-106500000D01*
X154115000Y-125045000D02*
X154115000Y-125825000D01*
X154115000Y-125825000D02*
X153115000Y-125825000D01*
%TO.C,R12*%
X162615000Y-147027064D02*
X162615000Y-146572936D01*
X164085000Y-147027064D02*
X164085000Y-146572936D01*
%TO.C,C7*%
X130760000Y-108461252D02*
X130760000Y-107938748D01*
X132230000Y-108461252D02*
X132230000Y-107938748D01*
%TO.C,R2*%
X161215000Y-118677064D02*
X161215000Y-118222936D01*
X162685000Y-118677064D02*
X162685000Y-118222936D01*
%TO.C,F7*%
X184230000Y-133603752D02*
X184230000Y-129196248D01*
X189570000Y-133603752D02*
X189570000Y-129196248D01*
%TO.C,R5*%
X166622936Y-112235000D02*
X167077064Y-112235000D01*
X166622936Y-110765000D02*
X167077064Y-110765000D01*
%TO.C,C2*%
X164038748Y-137515000D02*
X164561252Y-137515000D01*
X164038748Y-138985000D02*
X164561252Y-138985000D01*
%TO.C,C5*%
X139611252Y-141640000D02*
X138188748Y-141640000D01*
X139611252Y-143460000D02*
X138188748Y-143460000D01*
%TO.C,F6*%
X184230000Y-121803752D02*
X184230000Y-117396248D01*
X189570000Y-121803752D02*
X189570000Y-117396248D01*
%TO.C,C12*%
X125061252Y-110365000D02*
X124538748Y-110365000D01*
X125061252Y-111835000D02*
X124538748Y-111835000D01*
%TO.C,R9*%
X146572936Y-137115000D02*
X147027064Y-137115000D01*
X146572936Y-138585000D02*
X147027064Y-138585000D01*
%TO.C,R10*%
X165615000Y-118677064D02*
X165615000Y-118222936D01*
X167085000Y-118677064D02*
X167085000Y-118222936D01*
%TO.C,F4*%
X100430000Y-115103752D02*
X100430000Y-110696248D01*
X105770000Y-115103752D02*
X105770000Y-110696248D01*
%TO.C,R4*%
X132327064Y-122765000D02*
X131872936Y-122765000D01*
X132327064Y-124235000D02*
X131872936Y-124235000D01*
%TO.C,SW1*%
X118150000Y-102452500D02*
X118150000Y-103242500D01*
X120200000Y-104292500D02*
X120000000Y-104292500D01*
X121700000Y-100152500D02*
X121700000Y-101442500D01*
X121700000Y-100152500D02*
X121900000Y-99942500D01*
X122800000Y-99942500D02*
X121900000Y-99942500D01*
X123000000Y-100152500D02*
X122800000Y-99942500D01*
X123000000Y-101442500D02*
X123000000Y-100152500D01*
X123200000Y-104292500D02*
X121500000Y-104292500D01*
X124450000Y-101442500D02*
X118750000Y-101442500D01*
X125050000Y-103242500D02*
X125050000Y-102452500D01*
%TO.C,R3*%
X163365000Y-118222936D02*
X163365000Y-118677064D01*
X164835000Y-118222936D02*
X164835000Y-118677064D01*
%TO.C,C1*%
X159511252Y-137040000D02*
X158088748Y-137040000D01*
X159511252Y-138860000D02*
X158088748Y-138860000D01*
%TO.C,R1*%
X103640000Y-103377064D02*
X103640000Y-101922936D01*
X105460000Y-103377064D02*
X105460000Y-101922936D01*
%TO.C,C10*%
X113311252Y-117935000D02*
X112788748Y-117935000D01*
X113311252Y-116465000D02*
X112788748Y-116465000D01*
%TO.C,Q2*%
X127460000Y-121870000D02*
X126660000Y-121870000D01*
X127460000Y-121870000D02*
X128260000Y-121870000D01*
X128260000Y-121870000D02*
X128260000Y-122800000D01*
X128260000Y-125030000D02*
X126800000Y-125030000D01*
X128260000Y-125030000D02*
X128260000Y-124100000D01*
X126160000Y-121840000D02*
X125920000Y-121510000D01*
X126400000Y-121510000D01*
X126160000Y-121840000D01*
G36*
X126160000Y-121840000D02*
G01*
X125920000Y-121510000D01*
X126400000Y-121510000D01*
X126160000Y-121840000D01*
G37*
%TO.C,F3*%
X100430000Y-127003752D02*
X100430000Y-122596248D01*
X105770000Y-127003752D02*
X105770000Y-122596248D01*
%TO.C,U1*%
X156090000Y-139490000D02*
X156090000Y-140750000D01*
X156090000Y-146310000D02*
X156090000Y-145050000D01*
X159850000Y-139490000D02*
X156090000Y-139490000D01*
X159850000Y-146310000D02*
X156090000Y-146310000D01*
X161370000Y-146540000D02*
X160890000Y-146540000D01*
X161130000Y-146210000D01*
X161370000Y-146540000D01*
G36*
X161370000Y-146540000D02*
G01*
X160890000Y-146540000D01*
X161130000Y-146210000D01*
X161370000Y-146540000D01*
G37*
%TO.C,SW4*%
X166250000Y-147100000D02*
X166250000Y-145100000D01*
X167300000Y-143800000D02*
X167750000Y-143350000D01*
X167300000Y-148400000D02*
X167750000Y-148850000D01*
X170250000Y-143350000D02*
X167750000Y-143350000D01*
X170250000Y-148850000D02*
X167750000Y-148850000D01*
X170700000Y-143800000D02*
X170250000Y-143350000D01*
X170700000Y-148400000D02*
X170250000Y-148850000D01*
X171750000Y-147100000D02*
X171750000Y-145100000D01*
%TO.C,U7*%
X161850000Y-120640000D02*
X158400000Y-120640000D01*
X161850000Y-120640000D02*
X163800000Y-120640000D01*
X161850000Y-125760000D02*
X159900000Y-125760000D01*
X161850000Y-125760000D02*
X163800000Y-125760000D01*
%TO.C,J3*%
X159595000Y-111805000D02*
X159595000Y-111170000D01*
X160230000Y-111805000D02*
X159595000Y-111805000D01*
%TO.C,R11*%
X162615000Y-143327064D02*
X162615000Y-142872936D01*
X164085000Y-143327064D02*
X164085000Y-142872936D01*
%TO.C,R7*%
X132727064Y-110365000D02*
X132272936Y-110365000D01*
X132727064Y-111835000D02*
X132272936Y-111835000D01*
%TO.C,C8*%
X161938748Y-101315000D02*
X162461252Y-101315000D01*
X161938748Y-102785000D02*
X162461252Y-102785000D01*
%TO.C,U5*%
X125475000Y-116100000D02*
X125475000Y-114150000D01*
X125475000Y-116100000D02*
X125475000Y-119550000D01*
X130595000Y-116100000D02*
X130595000Y-114150000D01*
X130595000Y-116100000D02*
X130595000Y-118050000D01*
%TO.C,U4*%
X174000000Y-110465000D02*
X172050000Y-110465000D01*
X174000000Y-110465000D02*
X175950000Y-110465000D01*
X174000000Y-119335000D02*
X172050000Y-119335000D01*
X174000000Y-119335000D02*
X177450000Y-119335000D01*
%TO.C,C11*%
X168415000Y-118761252D02*
X168415000Y-118238748D01*
X169885000Y-118761252D02*
X169885000Y-118238748D01*
%TO.C,C6*%
X132760000Y-108461252D02*
X132760000Y-107938748D01*
X134230000Y-108461252D02*
X134230000Y-107938748D01*
%TO.C,D2*%
X148640000Y-136890000D02*
X148640000Y-138810000D01*
X148640000Y-138810000D02*
X151500000Y-138810000D01*
X151500000Y-136890000D02*
X148640000Y-136890000D01*
%TO.C,R14*%
X123065000Y-123927064D02*
X123065000Y-123472936D01*
X124535000Y-123927064D02*
X124535000Y-123472936D01*
%TO.C,R6*%
X166622936Y-108815000D02*
X167077064Y-108815000D01*
X166622936Y-110285000D02*
X167077064Y-110285000D01*
%TD*%
%LPC*%
D13*
%TO.C,F2*%
X103100000Y-140275000D03*
X103100000Y-133325000D03*
%TD*%
D14*
%TO.C,F1*%
X117500000Y-138625000D03*
X117500000Y-145575000D03*
%TD*%
D15*
%TO.C,SW2*%
X172300000Y-104600000D03*
X165700000Y-104600000D03*
X172300000Y-100800000D03*
X165700000Y-100800000D03*
%TD*%
D16*
%TO.C,U3*%
X116675000Y-115360000D03*
X116675000Y-114090000D03*
X116675000Y-112820000D03*
X116675000Y-111550000D03*
X116675000Y-110280000D03*
X116675000Y-109010000D03*
X116675000Y-107740000D03*
X111325000Y-107740000D03*
X111325000Y-109010000D03*
X111325000Y-110280000D03*
X111325000Y-111550000D03*
X111325000Y-112820000D03*
X111325000Y-114090000D03*
X111325000Y-115360000D03*
%TD*%
D17*
%TO.C,C4*%
X139487500Y-140400000D03*
X137412500Y-140400000D03*
%TD*%
%TO.C,C3*%
X139487500Y-138400000D03*
X137412500Y-138400000D03*
%TD*%
D18*
%TO.C,H4*%
X113000000Y-124000000D03*
%TD*%
D19*
%TO.C,R8*%
X163150000Y-104250000D03*
X161150000Y-104250000D03*
%TD*%
D18*
%TO.C,H2*%
X177000000Y-103500000D03*
%TD*%
D20*
%TO.C,C9*%
X163262500Y-140250000D03*
X165337500Y-140250000D03*
%TD*%
D21*
%TO.C,J9*%
X156500000Y-110300000D03*
X156500000Y-112840000D03*
%TD*%
D22*
%TO.C,D1*%
X127550000Y-104600000D03*
X129450000Y-104600000D03*
X128500000Y-101600000D03*
%TD*%
D13*
%TO.C,F5*%
X186900000Y-111175000D03*
X186900000Y-104225000D03*
%TD*%
D23*
%TO.C,F8*%
X167525000Y-140000000D03*
X174475000Y-140000000D03*
%TD*%
D24*
%TO.C,C13*%
X160000000Y-117412500D03*
X160000000Y-119487500D03*
%TD*%
D25*
%TO.C,U2*%
X135995000Y-107690000D03*
X135995000Y-108960000D03*
X135995000Y-110230000D03*
X135995000Y-111500000D03*
X135995000Y-112770000D03*
X135995000Y-114040000D03*
X135995000Y-115310000D03*
X135995000Y-116580000D03*
X135995000Y-117850000D03*
X135995000Y-119120000D03*
X135995000Y-120390000D03*
X135995000Y-121660000D03*
X135995000Y-122930000D03*
X135995000Y-124200000D03*
D26*
X139280000Y-125700000D03*
X140550000Y-125700000D03*
X141820000Y-125700000D03*
X143090000Y-125700000D03*
X144360000Y-125700000D03*
X145630000Y-125700000D03*
X146900000Y-125700000D03*
X148170000Y-125700000D03*
X149440000Y-125700000D03*
X150710000Y-125700000D03*
D27*
X153995000Y-124200000D03*
X153995000Y-122930000D03*
X153995000Y-121660000D03*
X153995000Y-120390000D03*
X153995000Y-119120000D03*
X153995000Y-117850000D03*
X153995000Y-116580000D03*
X153995000Y-115310000D03*
X153995000Y-114040000D03*
X153995000Y-112770000D03*
X153995000Y-111500000D03*
X153995000Y-110230000D03*
X153995000Y-108960000D03*
X153995000Y-107690000D03*
D28*
X143995000Y-115190000D03*
%TD*%
D29*
%TO.C,R12*%
X163350000Y-147800000D03*
X163350000Y-145800000D03*
%TD*%
D24*
%TO.C,C7*%
X131495000Y-109237500D03*
X131495000Y-107162500D03*
%TD*%
D29*
%TO.C,R2*%
X161950000Y-119450000D03*
X161950000Y-117450000D03*
%TD*%
D18*
%TO.C,H1*%
X113000000Y-103500000D03*
%TD*%
D13*
%TO.C,F7*%
X186900000Y-134875000D03*
X186900000Y-127925000D03*
%TD*%
D30*
%TO.C,R5*%
X167850000Y-111500000D03*
X165850000Y-111500000D03*
%TD*%
D20*
%TO.C,C2*%
X163262500Y-138250000D03*
X165337500Y-138250000D03*
%TD*%
D31*
%TO.C,C5*%
X140462500Y-142550000D03*
X137337500Y-142550000D03*
%TD*%
D13*
%TO.C,F6*%
X186900000Y-123075000D03*
X186900000Y-116125000D03*
%TD*%
D18*
%TO.C,H3*%
X177000000Y-124000000D03*
%TD*%
D17*
%TO.C,C12*%
X125837500Y-111100000D03*
X123762500Y-111100000D03*
%TD*%
D30*
%TO.C,R9*%
X145800000Y-137850000D03*
X147800000Y-137850000D03*
%TD*%
D29*
%TO.C,R10*%
X166350000Y-119450000D03*
X166350000Y-117450000D03*
%TD*%
D13*
%TO.C,F4*%
X103100000Y-116375000D03*
X103100000Y-109425000D03*
%TD*%
D19*
%TO.C,R4*%
X133100000Y-123500000D03*
X131100000Y-123500000D03*
%TD*%
D32*
%TO.C,SW1*%
X123100000Y-102842500D03*
X120100000Y-102842500D03*
D33*
X123850000Y-104852500D03*
X120850000Y-104852500D03*
X119350000Y-104852500D03*
D34*
X125750000Y-103952500D03*
X125750000Y-101742500D03*
X117450000Y-103952500D03*
X117450000Y-101742500D03*
%TD*%
D35*
%TO.C,R3*%
X164100000Y-117450000D03*
X164100000Y-119450000D03*
%TD*%
D31*
%TO.C,C1*%
X160362500Y-137950000D03*
X157237500Y-137950000D03*
%TD*%
D36*
%TO.C,R1*%
X104550000Y-104200000D03*
X104550000Y-101100000D03*
%TD*%
D17*
%TO.C,C10*%
X114087500Y-117200000D03*
X112012500Y-117200000D03*
%TD*%
D37*
%TO.C,Q2*%
X126000000Y-122500000D03*
X126000000Y-124400000D03*
X129000000Y-123450000D03*
%TD*%
D13*
%TO.C,F3*%
X103100000Y-128275000D03*
X103100000Y-121325000D03*
%TD*%
D38*
%TO.C,U1*%
X161150000Y-145200000D03*
X161150000Y-142900000D03*
D39*
X154850000Y-142900000D03*
D38*
X161150000Y-140600000D03*
%TD*%
D15*
%TO.C,SW4*%
X172300000Y-148000000D03*
X165700000Y-148000000D03*
X172300000Y-144200000D03*
X165700000Y-144200000D03*
%TD*%
D40*
%TO.C,U7*%
X159250000Y-121295000D03*
X159250000Y-122565000D03*
X159250000Y-123835000D03*
X159250000Y-125105000D03*
X164450000Y-125105000D03*
X164450000Y-123835000D03*
X164450000Y-122565000D03*
X164450000Y-121295000D03*
%TD*%
D41*
%TO.C,J3*%
X158960000Y-110535000D03*
X164040000Y-109519000D03*
X164040000Y-111551000D03*
D42*
X160230000Y-111170000D03*
X160230000Y-109900000D03*
X161500000Y-111170000D03*
X161500000Y-109900000D03*
X162770000Y-111170000D03*
X162770000Y-109900000D03*
%TD*%
D29*
%TO.C,R11*%
X163350000Y-144100000D03*
X163350000Y-142100000D03*
%TD*%
D19*
%TO.C,R7*%
X133500000Y-111100000D03*
X131500000Y-111100000D03*
%TD*%
D20*
%TO.C,C8*%
X161162500Y-102050000D03*
X163237500Y-102050000D03*
%TD*%
D43*
%TO.C,U5*%
X126130000Y-118700000D03*
X127400000Y-118700000D03*
X128670000Y-118700000D03*
X129940000Y-118700000D03*
X129940000Y-113500000D03*
X128670000Y-113500000D03*
X127400000Y-113500000D03*
X126130000Y-113500000D03*
%TD*%
D16*
%TO.C,U4*%
X176675000Y-118710000D03*
X176675000Y-117440000D03*
X176675000Y-116170000D03*
X176675000Y-114900000D03*
X176675000Y-113630000D03*
X176675000Y-112360000D03*
X176675000Y-111090000D03*
X171325000Y-111090000D03*
X171325000Y-112360000D03*
X171325000Y-113630000D03*
X171325000Y-114900000D03*
X171325000Y-116170000D03*
X171325000Y-117440000D03*
X171325000Y-118710000D03*
%TD*%
D24*
%TO.C,C11*%
X169150000Y-119537500D03*
X169150000Y-117462500D03*
%TD*%
%TO.C,C6*%
X133495000Y-109237500D03*
X133495000Y-107162500D03*
%TD*%
D44*
%TO.C,D2*%
X149475000Y-137850000D03*
X151525000Y-137850000D03*
%TD*%
D29*
%TO.C,R14*%
X123800000Y-124700000D03*
X123800000Y-122700000D03*
%TD*%
D30*
%TO.C,R6*%
X167850000Y-109550000D03*
X165850000Y-109550000D03*
%TD*%
D45*
%TO.C,J7*%
X107995000Y-109450000D03*
D46*
X107995000Y-105950000D03*
X107995000Y-102450000D03*
%TD*%
D47*
%TO.C,J14*%
X181995000Y-114350000D03*
D46*
X181995000Y-117850000D03*
X181995000Y-121350000D03*
%TD*%
D48*
%TO.C,U6*%
X132500000Y-114000000D03*
D49*
X132500000Y-116540000D03*
X132500000Y-119080000D03*
X124480000Y-119080000D03*
X124480000Y-116540000D03*
X124480000Y-114000000D03*
%TD*%
D47*
%TO.C,J15*%
X181995000Y-126250000D03*
D46*
X181995000Y-129750000D03*
X181995000Y-133250000D03*
%TD*%
D45*
%TO.C,J1*%
X107995000Y-145200000D03*
D46*
X107995000Y-141700000D03*
X107995000Y-138200000D03*
%TD*%
D50*
%TO.C,J12*%
X131095000Y-142200000D03*
X177295000Y-142200000D03*
D51*
X131095000Y-134900000D03*
D52*
X135295000Y-134900000D03*
X139495000Y-134900000D03*
X143695000Y-134900000D03*
X147895000Y-134900000D03*
X152095000Y-134900000D03*
X156295000Y-134900000D03*
X160495000Y-134900000D03*
X164695000Y-134900000D03*
X168895000Y-134900000D03*
X173095000Y-134900000D03*
X177295000Y-134900000D03*
X131095000Y-129400000D03*
X135295000Y-129400000D03*
X139495000Y-129400000D03*
X143695000Y-129400000D03*
X147895000Y-129400000D03*
X152095000Y-129400000D03*
X156295000Y-129400000D03*
X160495000Y-129400000D03*
X164695000Y-129400000D03*
X168895000Y-129400000D03*
X173095000Y-129400000D03*
X177295000Y-129400000D03*
%TD*%
D45*
%TO.C,J2*%
X107995000Y-133250000D03*
D46*
X107995000Y-129750000D03*
X107995000Y-126250000D03*
%TD*%
D53*
%TO.C,U10*%
X119946000Y-111110000D03*
D54*
X119946000Y-113650000D03*
X119946000Y-116190000D03*
%TD*%
D47*
%TO.C,J13*%
X181995000Y-102450000D03*
D46*
X181995000Y-105950000D03*
X181995000Y-109450000D03*
%TD*%
D55*
%TO.C,J17*%
X157100000Y-115650000D03*
D56*
X157100000Y-118190000D03*
X157100000Y-120730000D03*
X157100000Y-123270000D03*
X157100000Y-125810000D03*
%TD*%
D47*
%TO.C,J5*%
X167700000Y-121317500D03*
D46*
X167700000Y-124817500D03*
%TD*%
D57*
%TO.C,U9*%
X119350000Y-123800000D03*
D58*
X121420000Y-122530000D03*
X119350000Y-121260000D03*
%TD*%
D59*
%TO.C,J11*%
X163350000Y-107672500D03*
X165850000Y-107672500D03*
X168350000Y-107672500D03*
X170850000Y-107672500D03*
%TD*%
D60*
%TO.C,J4*%
X119700000Y-107995000D03*
D61*
X123200000Y-107995000D03*
X126700000Y-107995000D03*
%TD*%
D45*
%TO.C,J6*%
X108000000Y-121350000D03*
D46*
X108000000Y-117850000D03*
X108000000Y-114350000D03*
%TD*%
D62*
%TO.C,J18*%
X168300000Y-114675000D03*
D56*
X165760000Y-114675000D03*
X163220000Y-114675000D03*
X160680000Y-114675000D03*
%TD*%
D47*
%TO.C,J16*%
X181995000Y-138150000D03*
D46*
X181995000Y-141650000D03*
X181995000Y-145150000D03*
%TD*%
D50*
%TO.C,J8*%
X112695000Y-142100000D03*
X125295000Y-142100000D03*
D51*
X112695000Y-134800000D03*
D52*
X116895000Y-134800000D03*
X121095000Y-134800000D03*
X125295000Y-134800000D03*
X112695000Y-129300000D03*
X116895000Y-129300000D03*
X121095000Y-129300000D03*
X125295000Y-129300000D03*
%TD*%
%LPD*%
M02*
