M48
; DRILL file {KiCad 8.0.4} date 2024-11-13T17:28:35+0100
; FORMAT={-:-/ absolute / inch / decimal}
; #@! TF.CreationDate,2024-11-13T17:28:35+01:00
; #@! TF.GenerationSoftware,Kicad,Pcbnew,8.0.4
; #@! TF.FileFunction,Plated,1,4,PTH
FMAT,2
INCH
; #@! TA.AperFunction,Plated,PTH,ViaDrill
T1C0.0118
; #@! TA.AperFunction,Plated,PTH,ViaDrill
T2C0.0157
; #@! TA.AperFunction,Plated,PTH,ComponentDrill
T3C0.0236
; #@! TA.AperFunction,Plated,PTH,ComponentDrill
T4C0.0256
; #@! TA.AperFunction,Plated,PTH,ComponentDrill
T5C0.0315
; #@! TA.AperFunction,Plated,PTH,ComponentDrill
T6C0.0374
; #@! TA.AperFunction,Plated,PTH,ComponentDrill
T7C0.0394
; #@! TA.AperFunction,Plated,PTH,ComponentDrill
T8C0.0433
; #@! TA.AperFunction,Plated,PTH,ComponentDrill
T9C0.0472
; #@! TA.AperFunction,Plated,PTH,ComponentDrill
T10C0.0709
; #@! TA.AperFunction,Plated,PTH,ComponentDrill
T11C0.1181
%
G90
G05
T1
X2.126Y-3.1693
X2.1453Y-2.4528
X3.1024Y-2.4739
T2
X2.0472Y-2.4016
X2.0709Y-3.1772
X2.0866Y-1.8898
X2.1654Y-2.7559
X2.1654Y-2.9134
X2.1654Y-3.0709
X2.2047Y-1.8898
X2.2047Y-3.1102
X2.2441Y-2.7165
X2.2835Y-3.1102
X2.3622Y-2.7165
X2.3622Y-3.1102
X2.3898Y-3.3425
X2.4803Y-2.7165
X2.4803Y-3.1102
X2.5197Y-3.311
X2.5697Y-3.311
X2.5984Y-2.7165
X2.5984Y-2.7953
X2.5984Y-2.874
X2.5984Y-2.9921
X2.5984Y-3.1102
X2.6181Y-2.4291
X2.6461Y-2.6575
X2.6461Y-3.063
X2.6535Y-2.1772
X2.6772Y-1.9685
X2.7008Y-2.5315
X2.7162Y-3.1768
X2.7678Y-3.2088
X2.815Y-2.9252
X2.8346Y-1.9685
X2.8819Y-2.4094
X2.9055Y-3.3504
X2.9134Y-2.3228
X2.9528Y-1.9685
X3.0236Y-2.6575
X3.0315Y-2.4055
X3.0315Y-3.0709
X3.1102Y-1.9685
X3.1102Y-3.6614
X3.1496Y-2.2441
X3.1535Y-2.3583
X3.1693Y-2.6447
X3.189Y-3.0709
X3.2283Y-3.6614
X3.2677Y-1.9685
X3.2677Y-2.2835
X3.3071Y-2.5787
X3.3465Y-3.0709
X3.3465Y-3.6614
X3.4553Y-2.5959
X3.4567Y-2.4803
X3.4646Y-1.9685
X3.4646Y-2.2441
X3.4646Y-3.6614
X3.5098Y-2.6457
X3.5827Y-2.4508
X3.5827Y-2.5098
X3.5827Y-2.5689
X3.5827Y-2.628
X3.5827Y-2.687
X3.5827Y-2.7559
X3.5827Y-2.874
X3.5827Y-3.6614
X3.622Y-1.9685
X3.6516Y-2.4508
X3.6516Y-2.5098
X3.6516Y-2.5689
X3.6516Y-2.628
X3.6516Y-2.687
X3.6516Y-2.7559
X3.6516Y-2.815
X3.6516Y-2.874
X3.7008Y-3.2677
X3.7008Y-3.6614
X3.7106Y-2.4508
X3.7106Y-2.5098
X3.7106Y-2.5689
X3.7106Y-2.628
X3.7106Y-2.687
X3.7106Y-2.7559
X3.7106Y-2.815
X3.7106Y-2.874
X3.7795Y-1.9685
X3.8091Y-2.4508
X3.8091Y-2.5098
X3.8091Y-2.5689
X3.8091Y-2.628
X3.8091Y-2.687
X3.8091Y-2.7559
X3.8091Y-2.815
X3.8091Y-2.874
X3.8189Y-3.6614
X3.8583Y-3.2677
X3.876Y-2.4508
X3.878Y-2.5098
X3.878Y-2.5689
X3.878Y-2.628
X3.878Y-2.687
X3.878Y-2.7559
X3.878Y-2.815
X3.878Y-2.874
X3.9331Y-2.4469
X3.937Y-3.6614
X3.9764Y-1.9685
X4.0157Y-3.2677
X4.0551Y-3.6614
X4.1339Y-1.9685
X4.1732Y-3.2677
X4.1732Y-3.6614
X4.252Y-2.4803
X4.2677Y-2.7874
X4.2913Y-1.9685
X4.2913Y-3.6614
X4.3307Y-3.2677
X4.4094Y-1.9685
X4.4094Y-3.6614
X4.4409Y-2.2028
X4.4882Y-2.6378
X4.5276Y-1.9685
X4.5276Y-3.3071
X4.5276Y-3.6614
X4.5394Y-2.4134
X4.5866Y-2.2008
X4.6457Y-3.6614
X4.685Y-1.9685
X4.685Y-3.3071
X4.689Y-2.4094
X4.7244Y-2.3622
X4.7402Y-2.2008
X4.7606Y-2.4951
X4.7638Y-2.7165
X4.7638Y-3.6614
X4.8031Y-3.0709
X4.8425Y-2.2835
X4.874Y-2.4016
X4.8819Y-1.9685
X4.8819Y-2.9134
X4.8819Y-2.9921
X4.8819Y-3.0709
X4.8819Y-3.1575
X4.8819Y-3.6614
X5.0Y-3.6614
X5.0079Y-2.6614
X5.0394Y-1.9685
X5.0394Y-2.4409
X5.0787Y-3.0709
X5.1181Y-3.6614
X5.1575Y-1.9685
X5.1575Y-2.4409
X5.1811Y-2.2598
X5.2283Y-2.7244
X5.2362Y-3.0709
X5.2362Y-3.6614
X5.2756Y-2.2441
X5.2756Y-2.4409
X5.315Y-1.9685
X5.3937Y-3.0709
X5.4567Y-2.2205
X5.5118Y-1.9685
X5.5906Y-3.0709
X5.6693Y-1.9685
X5.6929Y-2.4567
X5.7087Y-3.0709
X5.7087Y-3.2283
X5.7087Y-3.3858
X5.748Y-2.5197
X5.748Y-2.6772
X5.748Y-2.8346
X5.7874Y-1.9685
X5.8268Y-3.0709
T3
X5.3346Y-2.3386
X5.4331Y-2.3386
X5.5315Y-2.3386
T4
X2.3791Y-2.2388
X2.3791Y-2.2888
X2.4291Y-2.2388
X2.4291Y-2.2888
X2.4791Y-2.2388
X2.4791Y-2.2888
T5
X4.3465Y-2.6063
X4.3465Y-2.7047
T6
X2.2953Y-3.626
X2.3937Y-3.626
X2.4921Y-3.626
X2.5906Y-3.626
X2.689Y-3.626
T7
X3.7874Y-2.2323
X3.8874Y-2.2323
X3.9874Y-2.2323
X4.0874Y-2.2323
T8
X4.5965Y-2.6476
X4.5965Y-2.8248
X4.8524Y-2.6476
X4.8524Y-2.8248
X5.1083Y-2.6476
X5.1083Y-2.8248
X5.3642Y-2.6476
X5.3642Y-2.8248
T9
X2.1457Y-2.0866
X2.2835Y-2.0866
X2.4213Y-2.0866
X2.6181Y-2.0866
X2.7559Y-2.0866
X2.8937Y-2.0866
X3.0906Y-2.0866
X3.2283Y-2.0866
X3.3661Y-2.0866
X3.563Y-2.0866
X3.7008Y-2.0866
X3.8386Y-2.0866
X4.0354Y-2.0866
X4.1732Y-2.0866
X4.311Y-2.0866
X4.5079Y-2.0866
X4.6457Y-2.0866
X4.7835Y-2.0866
X4.9803Y-2.0866
X5.1181Y-2.0866
X5.2559Y-2.0866
X5.4528Y-2.0866
X5.5866Y-2.5236
X5.5866Y-2.6614
X5.5866Y-2.7992
X5.5906Y-2.0866
X5.7283Y-2.0866
T10
X2.9331Y-2.9724
X2.9331Y-3.189
X3.0984Y-2.9724
X3.0984Y-3.189
X3.2638Y-2.9724
X3.2638Y-3.189
X3.4291Y-2.9724
X3.4291Y-3.189
X3.5945Y-2.9724
X3.5945Y-3.189
X3.7598Y-2.9724
X3.7598Y-3.189
X3.9252Y-2.9724
X3.9252Y-3.189
X4.0906Y-2.9724
X4.0906Y-3.189
X4.2559Y-2.9724
X4.2559Y-3.189
X4.4213Y-2.9724
X4.4213Y-3.189
X4.5866Y-2.9724
X4.5866Y-3.189
X4.752Y-2.9724
X4.752Y-3.189
X5.0039Y-2.9724
X5.0039Y-3.189
X5.1693Y-2.9724
X5.1693Y-3.189
X5.3346Y-2.9724
X5.3346Y-3.189
X5.5Y-2.9724
X5.5Y-3.189
T11
X2.315Y-2.9291
M30
