%TF.GenerationSoftware,KiCad,Pcbnew,9.0.4*%
%TF.CreationDate,2026-01-11T12:06:53+01:00*%
%TF.ProjectId,esp32_octal_wled,65737033-325f-46f6-9374-616c5f776c65,rev?*%
%TF.SameCoordinates,Original*%
%TF.FileFunction,Soldermask,Bot*%
%TF.FilePolarity,Negative*%
%FSLAX46Y46*%
G04 Gerber Fmt 4.6, Leading zero omitted, Abs format (unit mm)*
G04 Created by KiCad (PCBNEW 9.0.4) date 2026-01-11 12:06:53*
%MOMM*%
%LPD*%
G01*
G04 APERTURE LIST*
G04 Aperture macros list*
%AMRoundRect*
0 Rectangle with rounded corners*
0 $1 Rounding radius*
0 $2 $3 $4 $5 $6 $7 $8 $9 X,Y pos of 4 corners*
0 Add a 4 corners polygon primitive as box body*
4,1,4,$2,$3,$4,$5,$6,$7,$8,$9,$2,$3,0*
0 Add four circle primitives for the rounded corners*
1,1,$1+$1,$2,$3*
1,1,$1+$1,$4,$5*
1,1,$1+$1,$6,$7*
1,1,$1+$1,$8,$9*
0 Add four rect primitives between the rounded corners*
20,1,$1+$1,$2,$3,$4,$5,0*
20,1,$1+$1,$4,$5,$6,$7,0*
20,1,$1+$1,$6,$7,$8,$9,0*
20,1,$1+$1,$8,$9,$2,$3,0*%
G04 Aperture macros list end*
%ADD10C,3.200000*%
%ADD11C,1.400000*%
%ADD12R,5.000000X5.000000*%
%ADD13C,0.900000*%
%ADD14R,1.000000X1.000000*%
%ADD15O,1.000000X1.000000*%
%ADD16RoundRect,0.250000X1.550000X-0.650000X1.550000X0.650000X-1.550000X0.650000X-1.550000X-0.650000X0*%
%ADD17O,3.600000X1.800000*%
%ADD18RoundRect,0.250000X-1.550000X0.650000X-1.550000X-0.650000X1.550000X-0.650000X1.550000X0.650000X0*%
%ADD19RoundRect,0.400000X0.400000X-0.600000X0.400000X0.600000X-0.400000X0.600000X-0.400000X-0.600000X0*%
%ADD20O,1.600000X2.000000*%
%ADD21C,3.000000*%
%ADD22RoundRect,0.250001X-1.099999X-1.599999X1.099999X-1.599999X1.099999X1.599999X-1.099999X1.599999X0*%
%ADD23O,2.700000X3.700000*%
%ADD24R,2.000000X1.905000*%
%ADD25O,2.000000X1.905000*%
%ADD26RoundRect,0.450000X-0.450000X0.450000X-0.450000X-0.450000X0.450000X-0.450000X0.450000X0.450000X0*%
%ADD27C,1.800000*%
%ADD28RoundRect,0.250000X0.600000X-0.600000X0.600000X0.600000X-0.600000X0.600000X-0.600000X-0.600000X0*%
%ADD29O,1.700000X1.700000*%
%ADD30RoundRect,0.250000X-1.000000X0.650000X-1.000000X-0.650000X1.000000X-0.650000X1.000000X0.650000X0*%
%ADD31O,2.500000X1.800000*%
%ADD32R,1.800000X1.100000*%
%ADD33RoundRect,0.275000X-0.625000X0.275000X-0.625000X-0.275000X0.625000X-0.275000X0.625000X0.275000X0*%
%ADD34RoundRect,0.250000X-0.650000X-1.550000X0.650000X-1.550000X0.650000X1.550000X-0.650000X1.550000X0*%
%ADD35O,1.800000X3.600000*%
%ADD36C,1.700000*%
G04 APERTURE END LIST*
D10*
%TO.C,H4*%
X113000000Y-124000000D03*
%TD*%
%TO.C,H2*%
X177000000Y-103500000D03*
%TD*%
D11*
%TO.C,J9*%
X156800000Y-110200000D03*
X156800000Y-112740000D03*
%TD*%
D12*
%TO.C,U2*%
X143995000Y-115190000D03*
%TD*%
D10*
%TO.C,H1*%
X113000000Y-103500000D03*
%TD*%
%TO.C,H3*%
X177000000Y-124000000D03*
%TD*%
D13*
%TO.C,SW1*%
X123100000Y-102842500D03*
X120100000Y-102842500D03*
%TD*%
D14*
%TO.C,J3*%
X163970000Y-113565000D03*
D15*
X163970000Y-114835000D03*
X162700000Y-113565000D03*
X162700000Y-114835000D03*
X161430000Y-113565000D03*
X161430000Y-114835000D03*
%TD*%
D16*
%TO.C,J7*%
X107995000Y-109450000D03*
D17*
X107995000Y-105950000D03*
X107995000Y-102450000D03*
%TD*%
D18*
%TO.C,J14*%
X181995000Y-114350000D03*
D17*
X181995000Y-117850000D03*
X181995000Y-121350000D03*
%TD*%
D19*
%TO.C,U6*%
X133140000Y-120110000D03*
D20*
X130600000Y-120110000D03*
X128060000Y-120110000D03*
X128060000Y-112090000D03*
X130600000Y-112090000D03*
X133140000Y-112090000D03*
%TD*%
D18*
%TO.C,J15*%
X181995000Y-126250000D03*
D17*
X181995000Y-129750000D03*
X181995000Y-133250000D03*
%TD*%
D16*
%TO.C,J1*%
X107995000Y-145200000D03*
D17*
X107995000Y-141700000D03*
X107995000Y-138200000D03*
%TD*%
D21*
%TO.C,J12*%
X131095000Y-142200000D03*
X177295000Y-142200000D03*
D22*
X131095000Y-134900000D03*
D23*
X135295000Y-134900000D03*
X139495000Y-134900000D03*
X143695000Y-134900000D03*
X147895000Y-134900000D03*
X152095000Y-134900000D03*
X156295000Y-134900000D03*
X160495000Y-134900000D03*
X164695000Y-134900000D03*
X168895000Y-134900000D03*
X173095000Y-134900000D03*
X177295000Y-134900000D03*
X131095000Y-129400000D03*
X135295000Y-129400000D03*
X139495000Y-129400000D03*
X143695000Y-129400000D03*
X147895000Y-129400000D03*
X152095000Y-129400000D03*
X156295000Y-129400000D03*
X160495000Y-129400000D03*
X164695000Y-129400000D03*
X168895000Y-129400000D03*
X173095000Y-129400000D03*
X177295000Y-129400000D03*
%TD*%
D24*
%TO.C,Q4*%
X121000000Y-117600000D03*
D25*
X121000000Y-115060000D03*
X121000000Y-112520000D03*
%TD*%
D16*
%TO.C,J2*%
X107995000Y-133250000D03*
D17*
X107995000Y-129750000D03*
X107995000Y-126250000D03*
%TD*%
D26*
%TO.C,U10*%
X111300000Y-107960000D03*
D27*
X111300000Y-110500000D03*
X111300000Y-113040000D03*
%TD*%
D18*
%TO.C,J13*%
X181995000Y-102450000D03*
D17*
X181995000Y-105950000D03*
X181995000Y-109450000D03*
%TD*%
D28*
%TO.C,J17*%
X169100000Y-110600000D03*
D29*
X166560000Y-110600000D03*
X164020000Y-110600000D03*
X161480000Y-110600000D03*
X158940000Y-110600000D03*
%TD*%
D30*
%TO.C,J5*%
X169242500Y-121967500D03*
D31*
X169242500Y-125467500D03*
%TD*%
D32*
%TO.C,U9*%
X133200000Y-124630000D03*
D33*
X131130000Y-125900000D03*
X133200000Y-127170000D03*
%TD*%
D20*
%TO.C,J11*%
X163350000Y-107672500D03*
X165850000Y-107672500D03*
X168350000Y-107672500D03*
X170850000Y-107672500D03*
%TD*%
D34*
%TO.C,J4*%
X119700000Y-107995000D03*
D35*
X123200000Y-107995000D03*
X126700000Y-107995000D03*
%TD*%
D16*
%TO.C,J6*%
X108000000Y-121350000D03*
D17*
X108000000Y-117850000D03*
X108000000Y-114350000D03*
%TD*%
D36*
%TO.C,J18*%
X157100000Y-115560000D03*
D29*
X157100000Y-118100000D03*
X157100000Y-120640000D03*
X157100000Y-123180000D03*
%TD*%
D18*
%TO.C,J16*%
X181995000Y-138150000D03*
D17*
X181995000Y-141650000D03*
X181995000Y-145150000D03*
%TD*%
D24*
%TO.C,Q3*%
X116100000Y-117600000D03*
D25*
X116100000Y-115060000D03*
X116100000Y-112520000D03*
%TD*%
D21*
%TO.C,J8*%
X112695000Y-142100000D03*
X125295000Y-142100000D03*
D22*
X112695000Y-134800000D03*
D23*
X116895000Y-134800000D03*
X121095000Y-134800000D03*
X125295000Y-134800000D03*
X112695000Y-129300000D03*
X116895000Y-129300000D03*
X121095000Y-129300000D03*
X125295000Y-129300000D03*
%TD*%
M02*
