M48
; DRILL file {KiCad 8.0.7} date 2025-01-14T22:55:28+0100
; FORMAT={-:-/ absolute / inch / decimal}
; #@! TF.CreationDate,2025-01-14T22:55:28+01:00
; #@! TF.GenerationSoftware,Kicad,Pcbnew,8.0.7
; #@! TF.FileFunction,Plated,1,2,PTH
FMAT,2
INCH
; #@! TA.AperFunction,Plated,PTH,ViaDrill
T1C0.0118
; #@! TA.AperFunction,Plated,PTH,ViaDrill
T2C0.0157
; #@! TA.AperFunction,Plated,PTH,ComponentDrill
T3C0.0295
; #@! TA.AperFunction,Plated,PTH,ViaDrill
T4C0.0315
; #@! TA.AperFunction,Plated,PTH,ComponentDrill
T5C0.0315
; #@! TA.AperFunction,Plated,PTH,ComponentDrill
T6C0.0374
; #@! TA.AperFunction,Plated,PTH,ComponentDrill
T7C0.0394
; #@! TA.AperFunction,Plated,PTH,ComponentDrill
T8C0.0472
; #@! TA.AperFunction,Plated,PTH,ComponentDrill
T9C0.0709
; #@! TA.AperFunction,Plated,PTH,ComponentDrill
T10C0.1181
%
G90
G05
T1
X4.9331Y-4.1378
X5.6654Y-4.3386
T2
X3.9724Y-4.0827
X3.9744Y-3.9803
X3.9764Y-4.1929
X4.0157Y-4.3898
X4.1142Y-4.1929
X4.1161Y-4.061
X4.1339Y-4.4488
X4.2795Y-4.2421
X4.2913Y-4.1024
X4.3031Y-4.3681
X4.3898Y-3.9961
X4.435Y-4.2437
X4.439Y-4.3937
X4.4409Y-4.3406
X4.4429Y-4.6122
X4.4783Y-4.2638
X4.5039Y-4.1594
X4.5217Y-4.3307
X4.5217Y-4.498
X4.5295Y-4.6831
X4.5315Y-4.3917
X4.5413Y-4.4437
X4.5472Y-3.9961
X4.6063Y-4.5768
X4.6083Y-4.7657
X4.626Y-4.0512
X4.626Y-4.1378
X4.7684Y-4.7553
X4.7835Y-3.9961
X4.7854Y-4.5748
X4.8051Y-4.3445
X4.813Y-4.4567
X4.8268Y-4.626
X4.8386Y-4.374
X4.874Y-3.9744
X4.9508Y-4.4154
X5.0197Y-4.0
X5.0768Y-4.3307
X5.1161Y-5.8169
X5.1181Y-4.9941
X5.122Y-4.0
X5.122Y-5.1969
X5.1339Y-4.2598
X5.1378Y-4.2165
X5.1555Y-4.6575
X5.1555Y-5.4862
X5.1772Y-4.252
X5.187Y-5.4252
X5.2008Y-4.9017
X5.2047Y-5.1969
X5.2087Y-5.689
X5.2165Y-4.219
X5.2402Y-5.4508
X5.248Y-5.5394
X5.25Y-5.0098
X5.2717Y-4.252
X5.2835Y-5.2106
X5.2854Y-5.6654
X5.315Y-5.4902
X5.3327Y-5.5807
X5.3543Y-4.2067
X5.4035Y-5.7008
X5.4055Y-5.0079
X5.4075Y-5.2047
X5.4114Y-5.378
X5.4291Y-4.2402
X5.4921Y-4.3898
X5.4921Y-4.4882
X5.4921Y-4.5866
X5.4921Y-4.685
X5.4921Y-4.7835
X5.5157Y-5.2047
X5.5315Y-4.2323
X5.5453Y-4.7264
X5.5906Y-4.685
X5.5906Y-4.7835
X5.6102Y-4.3898
X5.6142Y-4.2776
X5.6496Y-4.2323
X5.6555Y-5.2028
X5.689Y-4.685
X5.689Y-4.7835
X5.7362Y-5.0394
X5.748Y-4.3701
X5.7756Y-5.2126
X5.7874Y-4.685
X5.7874Y-4.7835
X5.7992Y-4.3268
X5.8465Y-4.2205
X5.8465Y-4.3701
X5.8465Y-4.4291
X5.8465Y-4.4882
X5.8465Y-4.5866
X5.8524Y-5.2008
X5.8858Y-4.7835
X5.9055Y-4.5689
X5.9094Y-4.6417
X5.9193Y-4.2106
X5.937Y-4.8189
X5.9604Y-4.626
X5.9646Y-4.8563
X5.9764Y-4.2087
X5.9793Y-4.7401
X5.9801Y-4.7987
X5.9823Y-4.935
X6.0256Y-5.1988
X6.0295Y-4.9882
X6.063Y-5.3976
X6.122Y-5.2008
X6.128Y-4.9054
X6.1535Y-4.2067
X6.1909Y-5.1969
X6.2146Y-4.252
X6.2146Y-4.3327
X6.25Y-4.7362
X6.2579Y-4.5197
X6.2835Y-5.0
X6.2913Y-5.2008
X6.3268Y-4.6575
X6.3524Y-4.9882
X6.3996Y-5.4921
X6.4016Y-5.2815
X6.4094Y-4.4173
X6.4154Y-4.6142
X6.4843Y-4.3524
X6.5094Y-5.4823
X6.5094Y-5.5669
X6.5094Y-5.6319
X6.5138Y-4.9803
X6.5157Y-5.2008
X6.5866Y-4.1555
X6.5906Y-5.748
X6.6142Y-4.6236
X6.6496Y-4.1181
X6.6535Y-5.748
X6.6575Y-4.8465
X6.6791Y-4.185
X6.7205Y-4.7146
X6.7347Y-4.1177
X6.748Y-4.813
X6.752Y-5.748
X6.7874Y-4.7618
X6.7894Y-4.1732
X6.7972Y-4.4744
X6.7972Y-4.624
X6.8031Y-4.0315
X6.8268Y-4.7281
X6.8642Y-4.6772
X6.872Y-3.9783
X6.8819Y-4.6378
X6.8976Y-4.7146
X6.8996Y-4.5236
X6.9035Y-4.374
X6.9173Y-5.8051
X6.9232Y-5.687
X7.002Y-4.1791
X7.0059Y-4.5728
X7.0236Y-4.3504
X7.0394Y-3.9843
X7.0394Y-5.7264
X7.0394Y-5.815
X7.0551Y-4.1417
X7.1732Y-4.2441
X7.2028Y-5.5059
X7.2441Y-5.8228
X7.2992Y-4.189
X7.3051Y-5.6575
X7.3071Y-4.2913
X7.378Y-3.9764
X7.4252Y-4.189
X7.4331Y-4.2677
X7.4449Y-5.5098
X7.4449Y-5.8169
T3
X4.7146Y-4.774
X4.7146Y-4.874
X4.7646Y-4.824
T4
X5.1387Y-4.389
X5.5217Y-5.7185
X5.5335Y-5.4508
X5.5335Y-5.5276
X5.6201Y-5.4232
X5.6201Y-5.502
X5.6201Y-5.6102
X5.6201Y-5.7185
X5.7185Y-5.502
X5.7185Y-5.6102
X5.7185Y-5.7185
X5.8169Y-5.502
X5.8169Y-5.6102
X5.8169Y-5.7185
X5.9154Y-5.502
X5.9154Y-5.6102
X5.9154Y-5.7185
X6.0138Y-5.502
X6.0138Y-5.6102
X6.0138Y-5.7185
X6.1142Y-5.502
X6.1555Y-5.6102
X6.1555Y-5.7185
X6.2106Y-5.5433
X6.2657Y-5.6102
X6.2707Y-5.7244
T5
X6.1614Y-4.3425
X6.1614Y-4.4425
T6
X6.4311Y-4.2391
X6.5295Y-4.2391
X6.628Y-4.2391
X6.7264Y-4.2391
T7
X4.7223Y-4.3744
X4.7223Y-4.4744
X4.7223Y-4.5744
X4.9087Y-4.4882
X4.9087Y-4.5882
X4.9087Y-4.6882
X5.2087Y-4.4882
X5.2087Y-4.5882
X5.2087Y-4.6882
X6.185Y-4.5531
X6.185Y-4.6531
X6.185Y-4.7531
X6.185Y-4.8531
X6.185Y-4.9531
X6.326Y-4.5148
X6.426Y-4.5148
X6.526Y-4.5148
X6.626Y-4.5148
T8
X4.2518Y-4.0335
X4.2518Y-4.1713
X4.2518Y-4.3091
X4.2518Y-4.9705
X4.2518Y-5.1083
X4.2518Y-5.2461
X4.2518Y-5.4409
X4.2518Y-5.5787
X4.2518Y-5.7165
X4.252Y-4.502
X4.252Y-4.6398
X4.252Y-4.7776
X4.7126Y-4.2518
X4.8504Y-4.2518
X4.9882Y-4.2518
X6.6024Y-4.7763
X6.6024Y-4.9141
X7.1652Y-4.0335
X7.1652Y-4.1713
X7.1652Y-4.3091
X7.1652Y-4.502
X7.1652Y-4.6398
X7.1652Y-4.7776
X7.1652Y-4.9705
X7.1652Y-5.1083
X7.1652Y-5.2461
X7.1652Y-5.439
X7.1652Y-5.5768
X7.1652Y-5.7146
T9
X4.4368Y-5.0906
X4.4368Y-5.3071
X4.6022Y-5.0906
X4.6022Y-5.3071
X4.7675Y-5.0906
X4.7675Y-5.3071
X4.9329Y-5.0906
X4.9329Y-5.3071
X5.1612Y-5.0945
X5.1612Y-5.311
X5.3266Y-5.0945
X5.3266Y-5.311
X5.4919Y-5.0945
X5.4919Y-5.311
X5.6573Y-5.0945
X5.6573Y-5.311
X5.8226Y-5.0945
X5.8226Y-5.311
X5.988Y-5.0945
X5.988Y-5.311
X6.1533Y-5.0945
X6.1533Y-5.311
X6.3187Y-5.0945
X6.3187Y-5.311
X6.4841Y-5.0945
X6.4841Y-5.311
X6.6494Y-5.0945
X6.6494Y-5.311
X6.8148Y-5.0945
X6.8148Y-5.311
X6.9801Y-5.0945
X6.9801Y-5.311
T10
X5.6691Y-4.535
M30
