%TF.GenerationSoftware,KiCad,Pcbnew,8.0.4*%
%TF.CreationDate,2024-11-13T17:28:35+01:00*%
%TF.ProjectId,esp32_octal_wled,65737033-325f-46f6-9374-616c5f776c65,rev?*%
%TF.SameCoordinates,Original*%
%TF.FileFunction,Other,Comment*%
%FSLAX46Y46*%
G04 Gerber Fmt 4.6, Leading zero omitted, Abs format (unit mm)*
G04 Created by KiCad (PCBNEW 8.0.4) date 2024-11-13 17:28:35*
%MOMM*%
%LPD*%
G01*
G04 APERTURE LIST*
%ADD10C,0.150000*%
%ADD11C,0.100000*%
G04 APERTURE END LIST*
D10*
X41009819Y-79471428D02*
X40009819Y-79471428D01*
X41009819Y-78900000D02*
X40438390Y-79328571D01*
X40009819Y-78900000D02*
X40581247Y-79471428D01*
X40486009Y-78471428D02*
X40486009Y-78138095D01*
X41009819Y-77995238D02*
X41009819Y-78471428D01*
X41009819Y-78471428D02*
X40009819Y-78471428D01*
X40009819Y-78471428D02*
X40009819Y-77995238D01*
X40486009Y-77566666D02*
X40486009Y-77233333D01*
X41009819Y-77090476D02*
X41009819Y-77566666D01*
X41009819Y-77566666D02*
X40009819Y-77566666D01*
X40009819Y-77566666D02*
X40009819Y-77090476D01*
X41009819Y-76661904D02*
X40009819Y-76661904D01*
X40009819Y-76661904D02*
X40009819Y-76280952D01*
X40009819Y-76280952D02*
X40057438Y-76185714D01*
X40057438Y-76185714D02*
X40105057Y-76138095D01*
X40105057Y-76138095D02*
X40200295Y-76090476D01*
X40200295Y-76090476D02*
X40343152Y-76090476D01*
X40343152Y-76090476D02*
X40438390Y-76138095D01*
X40438390Y-76138095D02*
X40486009Y-76185714D01*
X40486009Y-76185714D02*
X40533628Y-76280952D01*
X40533628Y-76280952D02*
X40533628Y-76661904D01*
X40628866Y-75661904D02*
X40628866Y-74900000D01*
X40009819Y-74233333D02*
X40009819Y-74042857D01*
X40009819Y-74042857D02*
X40057438Y-73947619D01*
X40057438Y-73947619D02*
X40152676Y-73852381D01*
X40152676Y-73852381D02*
X40343152Y-73804762D01*
X40343152Y-73804762D02*
X40676485Y-73804762D01*
X40676485Y-73804762D02*
X40866961Y-73852381D01*
X40866961Y-73852381D02*
X40962200Y-73947619D01*
X40962200Y-73947619D02*
X41009819Y-74042857D01*
X41009819Y-74042857D02*
X41009819Y-74233333D01*
X41009819Y-74233333D02*
X40962200Y-74328571D01*
X40962200Y-74328571D02*
X40866961Y-74423809D01*
X40866961Y-74423809D02*
X40676485Y-74471428D01*
X40676485Y-74471428D02*
X40343152Y-74471428D01*
X40343152Y-74471428D02*
X40152676Y-74423809D01*
X40152676Y-74423809D02*
X40057438Y-74328571D01*
X40057438Y-74328571D02*
X40009819Y-74233333D01*
X40009819Y-73376190D02*
X40819342Y-73376190D01*
X40819342Y-73376190D02*
X40914580Y-73328571D01*
X40914580Y-73328571D02*
X40962200Y-73280952D01*
X40962200Y-73280952D02*
X41009819Y-73185714D01*
X41009819Y-73185714D02*
X41009819Y-72995238D01*
X41009819Y-72995238D02*
X40962200Y-72900000D01*
X40962200Y-72900000D02*
X40914580Y-72852381D01*
X40914580Y-72852381D02*
X40819342Y-72804762D01*
X40819342Y-72804762D02*
X40009819Y-72804762D01*
X40009819Y-72471428D02*
X40009819Y-71900000D01*
X41009819Y-72185714D02*
X40009819Y-72185714D01*
X40009819Y-70899999D02*
X40009819Y-70233333D01*
X40009819Y-70233333D02*
X41009819Y-70899999D01*
X41009819Y-70899999D02*
X41009819Y-70233333D01*
X40009819Y-69661904D02*
X40009819Y-69471428D01*
X40009819Y-69471428D02*
X40057438Y-69376190D01*
X40057438Y-69376190D02*
X40152676Y-69280952D01*
X40152676Y-69280952D02*
X40343152Y-69233333D01*
X40343152Y-69233333D02*
X40676485Y-69233333D01*
X40676485Y-69233333D02*
X40866961Y-69280952D01*
X40866961Y-69280952D02*
X40962200Y-69376190D01*
X40962200Y-69376190D02*
X41009819Y-69471428D01*
X41009819Y-69471428D02*
X41009819Y-69661904D01*
X41009819Y-69661904D02*
X40962200Y-69757142D01*
X40962200Y-69757142D02*
X40866961Y-69852380D01*
X40866961Y-69852380D02*
X40676485Y-69899999D01*
X40676485Y-69899999D02*
X40343152Y-69899999D01*
X40343152Y-69899999D02*
X40152676Y-69852380D01*
X40152676Y-69852380D02*
X40057438Y-69757142D01*
X40057438Y-69757142D02*
X40009819Y-69661904D01*
X41009819Y-68804761D02*
X40009819Y-68804761D01*
X40009819Y-68804761D02*
X41009819Y-68233333D01*
X41009819Y-68233333D02*
X40009819Y-68233333D01*
X40486009Y-67757142D02*
X40486009Y-67423809D01*
X41009819Y-67280952D02*
X41009819Y-67757142D01*
X41009819Y-67757142D02*
X40009819Y-67757142D01*
X40009819Y-67757142D02*
X40009819Y-67280952D01*
X46724104Y-76161904D02*
X46724104Y-75685714D01*
X47009819Y-76257142D02*
X46009819Y-75923809D01*
X46009819Y-75923809D02*
X47009819Y-75590476D01*
X46343152Y-75257142D02*
X47009819Y-75257142D01*
X46438390Y-75257142D02*
X46390771Y-75209523D01*
X46390771Y-75209523D02*
X46343152Y-75114285D01*
X46343152Y-75114285D02*
X46343152Y-74971428D01*
X46343152Y-74971428D02*
X46390771Y-74876190D01*
X46390771Y-74876190D02*
X46486009Y-74828571D01*
X46486009Y-74828571D02*
X47009819Y-74828571D01*
X46343152Y-74495237D02*
X46343152Y-74114285D01*
X46009819Y-74352380D02*
X46866961Y-74352380D01*
X46866961Y-74352380D02*
X46962200Y-74304761D01*
X46962200Y-74304761D02*
X47009819Y-74209523D01*
X47009819Y-74209523D02*
X47009819Y-74114285D01*
X46962200Y-73399999D02*
X47009819Y-73495237D01*
X47009819Y-73495237D02*
X47009819Y-73685713D01*
X47009819Y-73685713D02*
X46962200Y-73780951D01*
X46962200Y-73780951D02*
X46866961Y-73828570D01*
X46866961Y-73828570D02*
X46486009Y-73828570D01*
X46486009Y-73828570D02*
X46390771Y-73780951D01*
X46390771Y-73780951D02*
X46343152Y-73685713D01*
X46343152Y-73685713D02*
X46343152Y-73495237D01*
X46343152Y-73495237D02*
X46390771Y-73399999D01*
X46390771Y-73399999D02*
X46486009Y-73352380D01*
X46486009Y-73352380D02*
X46581247Y-73352380D01*
X46581247Y-73352380D02*
X46676485Y-73828570D01*
X46343152Y-72923808D02*
X47009819Y-72923808D01*
X46438390Y-72923808D02*
X46390771Y-72876189D01*
X46390771Y-72876189D02*
X46343152Y-72780951D01*
X46343152Y-72780951D02*
X46343152Y-72638094D01*
X46343152Y-72638094D02*
X46390771Y-72542856D01*
X46390771Y-72542856D02*
X46486009Y-72495237D01*
X46486009Y-72495237D02*
X47009819Y-72495237D01*
X46343152Y-72019046D02*
X47009819Y-72019046D01*
X46438390Y-72019046D02*
X46390771Y-71971427D01*
X46390771Y-71971427D02*
X46343152Y-71876189D01*
X46343152Y-71876189D02*
X46343152Y-71733332D01*
X46343152Y-71733332D02*
X46390771Y-71638094D01*
X46390771Y-71638094D02*
X46486009Y-71590475D01*
X46486009Y-71590475D02*
X47009819Y-71590475D01*
X47009819Y-70685713D02*
X46486009Y-70685713D01*
X46486009Y-70685713D02*
X46390771Y-70733332D01*
X46390771Y-70733332D02*
X46343152Y-70828570D01*
X46343152Y-70828570D02*
X46343152Y-71019046D01*
X46343152Y-71019046D02*
X46390771Y-71114284D01*
X46962200Y-70685713D02*
X47009819Y-70780951D01*
X47009819Y-70780951D02*
X47009819Y-71019046D01*
X47009819Y-71019046D02*
X46962200Y-71114284D01*
X46962200Y-71114284D02*
X46866961Y-71161903D01*
X46866961Y-71161903D02*
X46771723Y-71161903D01*
X46771723Y-71161903D02*
X46676485Y-71114284D01*
X46676485Y-71114284D02*
X46628866Y-71019046D01*
X46628866Y-71019046D02*
X46628866Y-70780951D01*
X46628866Y-70780951D02*
X46581247Y-70685713D01*
D11*
X44906109Y-62338095D02*
X44906109Y-62576190D01*
X44906109Y-62576190D02*
X45144204Y-62599999D01*
X45144204Y-62599999D02*
X45120395Y-62576190D01*
X45120395Y-62576190D02*
X45096585Y-62528571D01*
X45096585Y-62528571D02*
X45096585Y-62409523D01*
X45096585Y-62409523D02*
X45120395Y-62361904D01*
X45120395Y-62361904D02*
X45144204Y-62338095D01*
X45144204Y-62338095D02*
X45191823Y-62314285D01*
X45191823Y-62314285D02*
X45310871Y-62314285D01*
X45310871Y-62314285D02*
X45358490Y-62338095D01*
X45358490Y-62338095D02*
X45382300Y-62361904D01*
X45382300Y-62361904D02*
X45406109Y-62409523D01*
X45406109Y-62409523D02*
X45406109Y-62528571D01*
X45406109Y-62528571D02*
X45382300Y-62576190D01*
X45382300Y-62576190D02*
X45358490Y-62599999D01*
X45406109Y-61719048D02*
X45072776Y-61719048D01*
X45120395Y-61719048D02*
X45096585Y-61695238D01*
X45096585Y-61695238D02*
X45072776Y-61647619D01*
X45072776Y-61647619D02*
X45072776Y-61576191D01*
X45072776Y-61576191D02*
X45096585Y-61528572D01*
X45096585Y-61528572D02*
X45144204Y-61504762D01*
X45144204Y-61504762D02*
X45406109Y-61504762D01*
X45144204Y-61504762D02*
X45096585Y-61480953D01*
X45096585Y-61480953D02*
X45072776Y-61433334D01*
X45072776Y-61433334D02*
X45072776Y-61361905D01*
X45072776Y-61361905D02*
X45096585Y-61314286D01*
X45096585Y-61314286D02*
X45144204Y-61290476D01*
X45144204Y-61290476D02*
X45406109Y-61290476D01*
X45406109Y-61052381D02*
X45072776Y-61052381D01*
X45120395Y-61052381D02*
X45096585Y-61028571D01*
X45096585Y-61028571D02*
X45072776Y-60980952D01*
X45072776Y-60980952D02*
X45072776Y-60909524D01*
X45072776Y-60909524D02*
X45096585Y-60861905D01*
X45096585Y-60861905D02*
X45144204Y-60838095D01*
X45144204Y-60838095D02*
X45406109Y-60838095D01*
X45144204Y-60838095D02*
X45096585Y-60814286D01*
X45096585Y-60814286D02*
X45072776Y-60766667D01*
X45072776Y-60766667D02*
X45072776Y-60695238D01*
X45072776Y-60695238D02*
X45096585Y-60647619D01*
X45096585Y-60647619D02*
X45144204Y-60623809D01*
X45144204Y-60623809D02*
X45406109Y-60623809D01*
X44906109Y-85338095D02*
X44906109Y-85576190D01*
X44906109Y-85576190D02*
X45144204Y-85599999D01*
X45144204Y-85599999D02*
X45120395Y-85576190D01*
X45120395Y-85576190D02*
X45096585Y-85528571D01*
X45096585Y-85528571D02*
X45096585Y-85409523D01*
X45096585Y-85409523D02*
X45120395Y-85361904D01*
X45120395Y-85361904D02*
X45144204Y-85338095D01*
X45144204Y-85338095D02*
X45191823Y-85314285D01*
X45191823Y-85314285D02*
X45310871Y-85314285D01*
X45310871Y-85314285D02*
X45358490Y-85338095D01*
X45358490Y-85338095D02*
X45382300Y-85361904D01*
X45382300Y-85361904D02*
X45406109Y-85409523D01*
X45406109Y-85409523D02*
X45406109Y-85528571D01*
X45406109Y-85528571D02*
X45382300Y-85576190D01*
X45382300Y-85576190D02*
X45358490Y-85599999D01*
X45406109Y-84719048D02*
X45072776Y-84719048D01*
X45120395Y-84719048D02*
X45096585Y-84695238D01*
X45096585Y-84695238D02*
X45072776Y-84647619D01*
X45072776Y-84647619D02*
X45072776Y-84576191D01*
X45072776Y-84576191D02*
X45096585Y-84528572D01*
X45096585Y-84528572D02*
X45144204Y-84504762D01*
X45144204Y-84504762D02*
X45406109Y-84504762D01*
X45144204Y-84504762D02*
X45096585Y-84480953D01*
X45096585Y-84480953D02*
X45072776Y-84433334D01*
X45072776Y-84433334D02*
X45072776Y-84361905D01*
X45072776Y-84361905D02*
X45096585Y-84314286D01*
X45096585Y-84314286D02*
X45144204Y-84290476D01*
X45144204Y-84290476D02*
X45406109Y-84290476D01*
X45406109Y-84052381D02*
X45072776Y-84052381D01*
X45120395Y-84052381D02*
X45096585Y-84028571D01*
X45096585Y-84028571D02*
X45072776Y-83980952D01*
X45072776Y-83980952D02*
X45072776Y-83909524D01*
X45072776Y-83909524D02*
X45096585Y-83861905D01*
X45096585Y-83861905D02*
X45144204Y-83838095D01*
X45144204Y-83838095D02*
X45406109Y-83838095D01*
X45144204Y-83838095D02*
X45096585Y-83814286D01*
X45096585Y-83814286D02*
X45072776Y-83766667D01*
X45072776Y-83766667D02*
X45072776Y-83695238D01*
X45072776Y-83695238D02*
X45096585Y-83647619D01*
X45096585Y-83647619D02*
X45144204Y-83623809D01*
X45144204Y-83623809D02*
X45406109Y-83623809D01*
X39741904Y-65326109D02*
X39503809Y-65326109D01*
X39503809Y-65326109D02*
X39480000Y-65564204D01*
X39480000Y-65564204D02*
X39503809Y-65540395D01*
X39503809Y-65540395D02*
X39551428Y-65516585D01*
X39551428Y-65516585D02*
X39670476Y-65516585D01*
X39670476Y-65516585D02*
X39718095Y-65540395D01*
X39718095Y-65540395D02*
X39741904Y-65564204D01*
X39741904Y-65564204D02*
X39765714Y-65611823D01*
X39765714Y-65611823D02*
X39765714Y-65730871D01*
X39765714Y-65730871D02*
X39741904Y-65778490D01*
X39741904Y-65778490D02*
X39718095Y-65802300D01*
X39718095Y-65802300D02*
X39670476Y-65826109D01*
X39670476Y-65826109D02*
X39551428Y-65826109D01*
X39551428Y-65826109D02*
X39503809Y-65802300D01*
X39503809Y-65802300D02*
X39480000Y-65778490D01*
X40360951Y-65826109D02*
X40360951Y-65492776D01*
X40360951Y-65540395D02*
X40384761Y-65516585D01*
X40384761Y-65516585D02*
X40432380Y-65492776D01*
X40432380Y-65492776D02*
X40503808Y-65492776D01*
X40503808Y-65492776D02*
X40551427Y-65516585D01*
X40551427Y-65516585D02*
X40575237Y-65564204D01*
X40575237Y-65564204D02*
X40575237Y-65826109D01*
X40575237Y-65564204D02*
X40599046Y-65516585D01*
X40599046Y-65516585D02*
X40646665Y-65492776D01*
X40646665Y-65492776D02*
X40718094Y-65492776D01*
X40718094Y-65492776D02*
X40765713Y-65516585D01*
X40765713Y-65516585D02*
X40789523Y-65564204D01*
X40789523Y-65564204D02*
X40789523Y-65826109D01*
X41027618Y-65826109D02*
X41027618Y-65492776D01*
X41027618Y-65540395D02*
X41051428Y-65516585D01*
X41051428Y-65516585D02*
X41099047Y-65492776D01*
X41099047Y-65492776D02*
X41170475Y-65492776D01*
X41170475Y-65492776D02*
X41218094Y-65516585D01*
X41218094Y-65516585D02*
X41241904Y-65564204D01*
X41241904Y-65564204D02*
X41241904Y-65826109D01*
X41241904Y-65564204D02*
X41265713Y-65516585D01*
X41265713Y-65516585D02*
X41313332Y-65492776D01*
X41313332Y-65492776D02*
X41384761Y-65492776D01*
X41384761Y-65492776D02*
X41432380Y-65516585D01*
X41432380Y-65516585D02*
X41456190Y-65564204D01*
X41456190Y-65564204D02*
X41456190Y-65826109D01*
D10*
%TO.C,H4*%
X56800000Y-91400000D02*
G75*
G02*
X50400000Y-91400000I-3200000J0D01*
G01*
X50400000Y-91400000D02*
G75*
G02*
X56800000Y-91400000I3200000J0D01*
G01*
%TO.C,H2*%
X149600000Y-58000000D02*
G75*
G02*
X143200000Y-58000000I-3200000J0D01*
G01*
X143200000Y-58000000D02*
G75*
G02*
X149600000Y-58000000I3200000J0D01*
G01*
D11*
%TO.C,U2*%
X38955000Y-65000000D02*
X39155000Y-64800000D01*
X38955000Y-65000000D02*
X39155000Y-65200000D01*
X43555000Y-65000000D02*
X38955000Y-65000000D01*
X43555000Y-65000000D02*
X43355000Y-64800000D01*
X43555000Y-65000000D02*
X43355000Y-65200000D01*
X45680000Y-59600000D02*
X45480000Y-59800000D01*
X45680000Y-59600000D02*
X45880000Y-59800000D01*
X45680000Y-64200000D02*
X45480000Y-64000000D01*
X45680000Y-64200000D02*
X45680000Y-59600000D01*
X45680000Y-64200000D02*
X45880000Y-64000000D01*
X45680000Y-82600000D02*
X45480000Y-82800000D01*
X45680000Y-82600000D02*
X45880000Y-82800000D01*
X45680000Y-87200000D02*
X45480000Y-87000000D01*
X45680000Y-87200000D02*
X45680000Y-82600000D01*
X45680000Y-87200000D02*
X45880000Y-87000000D01*
D10*
%TO.C,H1*%
X56800000Y-58000000D02*
G75*
G02*
X50400000Y-58000000I-3200000J0D01*
G01*
X50400000Y-58000000D02*
G75*
G02*
X56800000Y-58000000I3200000J0D01*
G01*
%TO.C,H3*%
X149600000Y-91400000D02*
G75*
G02*
X143200000Y-91400000I-3200000J0D01*
G01*
X143200000Y-91400000D02*
G75*
G02*
X149600000Y-91400000I3200000J0D01*
G01*
%TD*%
M02*
