%TF.GenerationSoftware,KiCad,Pcbnew,8.0.4*%
%TF.CreationDate,2024-11-13T17:28:34+01:00*%
%TF.ProjectId,esp32_octal_wled,65737033-325f-46f6-9374-616c5f776c65,rev?*%
%TF.SameCoordinates,Original*%
%TF.FileFunction,Soldermask,Top*%
%TF.FilePolarity,Negative*%
%FSLAX46Y46*%
G04 Gerber Fmt 4.6, Leading zero omitted, Abs format (unit mm)*
G04 Created by KiCad (PCBNEW 8.0.4) date 2024-11-13 17:28:34*
%MOMM*%
%LPD*%
G01*
G04 APERTURE LIST*
G04 Aperture macros list*
%AMRoundRect*
0 Rectangle with rounded corners*
0 $1 Rounding radius*
0 $2 $3 $4 $5 $6 $7 $8 $9 X,Y pos of 4 corners*
0 Add a 4 corners polygon primitive as box body*
4,1,4,$2,$3,$4,$5,$6,$7,$8,$9,$2,$3,0*
0 Add four circle primitives for the rounded corners*
1,1,$1+$1,$2,$3*
1,1,$1+$1,$4,$5*
1,1,$1+$1,$6,$7*
1,1,$1+$1,$8,$9*
0 Add four rect primitives between the rounded corners*
20,1,$1+$1,$2,$3,$4,$5,0*
20,1,$1+$1,$4,$5,$6,$7,0*
20,1,$1+$1,$6,$7,$8,$9,0*
20,1,$1+$1,$8,$9,$2,$3,0*%
G04 Aperture macros list end*
%ADD10C,2.000000*%
%ADD11RoundRect,0.250000X0.650000X1.550000X-0.650000X1.550000X-0.650000X-1.550000X0.650000X-1.550000X0*%
%ADD12O,1.800000X3.600000*%
%ADD13RoundRect,0.150000X-0.150000X0.950000X-0.150000X-0.950000X0.150000X-0.950000X0.150000X0.950000X0*%
%ADD14RoundRect,0.250000X-0.337500X-0.475000X0.337500X-0.475000X0.337500X0.475000X-0.337500X0.475000X0*%
%ADD15C,3.200000*%
%ADD16RoundRect,0.250000X0.350000X0.450000X-0.350000X0.450000X-0.350000X-0.450000X0.350000X-0.450000X0*%
%ADD17C,3.000000*%
%ADD18RoundRect,0.250001X1.099999X1.599999X-1.099999X1.599999X-1.099999X-1.599999X1.099999X-1.599999X0*%
%ADD19O,2.700000X3.700000*%
%ADD20RoundRect,0.200000X-0.750000X-0.200000X0.750000X-0.200000X0.750000X0.200000X-0.750000X0.200000X0*%
%ADD21RoundRect,0.225000X0.225000X-1.275000X0.225000X1.275000X-0.225000X1.275000X-0.225000X-1.275000X0*%
%ADD22RoundRect,0.225000X1.275000X0.225000X-1.275000X0.225000X-1.275000X-0.225000X1.275000X-0.225000X0*%
%ADD23RoundRect,0.225000X-0.225000X1.275000X-0.225000X-1.275000X0.225000X-1.275000X0.225000X1.275000X0*%
%ADD24R,5.000000X5.000000*%
%ADD25RoundRect,0.250000X0.337500X0.475000X-0.337500X0.475000X-0.337500X-0.475000X0.337500X-0.475000X0*%
%ADD26RoundRect,0.250000X0.450000X-0.350000X0.450000X0.350000X-0.450000X0.350000X-0.450000X-0.350000X0*%
%ADD27RoundRect,0.250000X-0.412500X-0.650000X0.412500X-0.650000X0.412500X0.650000X-0.412500X0.650000X0*%
%ADD28C,1.600000*%
%ADD29RoundRect,0.250000X-0.350000X-0.450000X0.350000X-0.450000X0.350000X0.450000X-0.350000X0.450000X0*%
%ADD30O,1.400000X1.800000*%
%ADD31RoundRect,0.250000X0.412500X0.650000X-0.412500X0.650000X-0.412500X-0.650000X0.412500X-0.650000X0*%
%ADD32RoundRect,0.250000X0.625000X-0.400000X0.625000X0.400000X-0.625000X0.400000X-0.625000X-0.400000X0*%
%ADD33RoundRect,0.250000X0.475000X-0.337500X0.475000X0.337500X-0.475000X0.337500X-0.475000X-0.337500X0*%
%ADD34RoundRect,0.200000X0.750000X0.200000X-0.750000X0.200000X-0.750000X-0.200000X0.750000X-0.200000X0*%
%ADD35RoundRect,0.375000X-0.625000X-0.375000X0.625000X-0.375000X0.625000X0.375000X-0.625000X0.375000X0*%
%ADD36RoundRect,0.500000X-0.500000X-1.400000X0.500000X-1.400000X0.500000X1.400000X-0.500000X1.400000X0*%
%ADD37R,1.000000X1.000000*%
%ADD38O,1.000000X1.000000*%
%ADD39R,1.700000X1.700000*%
%ADD40O,1.700000X1.700000*%
%ADD41RoundRect,0.250000X-0.450000X0.350000X-0.450000X-0.350000X0.450000X-0.350000X0.450000X0.350000X0*%
%ADD42RoundRect,0.250000X1.550000X-0.650000X1.550000X0.650000X-1.550000X0.650000X-1.550000X-0.650000X0*%
%ADD43O,3.600000X1.800000*%
%ADD44RoundRect,0.250000X0.600000X0.725000X-0.600000X0.725000X-0.600000X-0.725000X0.600000X-0.725000X0*%
%ADD45O,1.700000X1.950000*%
%ADD46RoundRect,0.150000X-0.950000X-0.150000X0.950000X-0.150000X0.950000X0.150000X-0.950000X0.150000X0*%
%ADD47RoundRect,0.250000X0.450000X-0.325000X0.450000X0.325000X-0.450000X0.325000X-0.450000X-0.325000X0*%
G04 APERTURE END LIST*
D10*
%TO.C,SW2*%
X136250000Y-71750000D03*
X129750000Y-71750000D03*
X136250000Y-67250000D03*
X129750000Y-67250000D03*
%TD*%
D11*
%TO.C,J7*%
X97500000Y-53000000D03*
D12*
X94000000Y-53000000D03*
X90500000Y-53000000D03*
%TD*%
D13*
%TO.C,U3*%
X78310000Y-57125000D03*
X77040000Y-57125000D03*
X75770000Y-57125000D03*
X74500000Y-57125000D03*
X73230000Y-57125000D03*
X71960000Y-57125000D03*
X70690000Y-57125000D03*
X70690000Y-62475000D03*
X71960000Y-62475000D03*
X73230000Y-62475000D03*
X74500000Y-62475000D03*
X75770000Y-62475000D03*
X77040000Y-62475000D03*
X78310000Y-62475000D03*
%TD*%
D11*
%TO.C,J14*%
X121500000Y-53000000D03*
D12*
X118000000Y-53000000D03*
X114500000Y-53000000D03*
%TD*%
D14*
%TO.C,C4*%
X106062500Y-65000000D03*
X108137500Y-65000000D03*
%TD*%
%TO.C,C3*%
X106062500Y-67000000D03*
X108137500Y-67000000D03*
%TD*%
D11*
%TO.C,J15*%
X133500000Y-53000000D03*
D12*
X130000000Y-53000000D03*
X126500000Y-53000000D03*
%TD*%
D15*
%TO.C,H4*%
X53600000Y-91400000D03*
%TD*%
D16*
%TO.C,R8*%
X127850000Y-71900000D03*
X125850000Y-71900000D03*
%TD*%
D15*
%TO.C,H2*%
X146400000Y-58000000D03*
%TD*%
D14*
%TO.C,C9*%
X112812500Y-69900000D03*
X114887500Y-69900000D03*
%TD*%
D11*
%TO.C,J1*%
X61500000Y-53000000D03*
D12*
X58000000Y-53000000D03*
X54500000Y-53000000D03*
%TD*%
D17*
%TO.C,J12*%
X120700000Y-88300000D03*
X74500000Y-88300000D03*
D18*
X120700000Y-81000000D03*
D19*
X116500000Y-81000000D03*
X112300000Y-81000000D03*
X108100000Y-81000000D03*
X103900000Y-81000000D03*
X99700000Y-81000000D03*
X95500000Y-81000000D03*
X91300000Y-81000000D03*
X87100000Y-81000000D03*
X82900000Y-81000000D03*
X78700000Y-81000000D03*
X74500000Y-81000000D03*
X120700000Y-75500000D03*
X116500000Y-75500000D03*
X112300000Y-75500000D03*
X108100000Y-75500000D03*
X103900000Y-75500000D03*
X99700000Y-75500000D03*
X95500000Y-75500000D03*
X91300000Y-75500000D03*
X87100000Y-75500000D03*
X82900000Y-75500000D03*
X78700000Y-75500000D03*
X74500000Y-75500000D03*
%TD*%
D20*
%TO.C,D1*%
X81600000Y-70050000D03*
X81600000Y-71950000D03*
X84600000Y-71000000D03*
%TD*%
D21*
%TO.C,U2*%
X51300000Y-82400000D03*
X52570000Y-82400000D03*
X53840000Y-82400000D03*
X55110000Y-82400000D03*
X56380000Y-82400000D03*
X57650000Y-82400000D03*
X58920000Y-82400000D03*
X60190000Y-82400000D03*
X61460000Y-82400000D03*
X62730000Y-82400000D03*
X64000000Y-82400000D03*
X65270000Y-82400000D03*
X66540000Y-82400000D03*
X67810000Y-82400000D03*
D22*
X69310000Y-79115000D03*
X69310000Y-77845000D03*
X69310000Y-76575000D03*
X69310000Y-75305000D03*
X69310000Y-74035000D03*
X69310000Y-72765000D03*
X69310000Y-71495000D03*
X69310000Y-70225000D03*
X69310000Y-68955000D03*
X69310000Y-67685000D03*
D23*
X67810000Y-64400000D03*
X66540000Y-64400000D03*
X65270000Y-64400000D03*
X64000000Y-64400000D03*
X62730000Y-64400000D03*
X61460000Y-64400000D03*
X60190000Y-64400000D03*
X58920000Y-64400000D03*
X57650000Y-64400000D03*
X56380000Y-64400000D03*
X55110000Y-64400000D03*
X53840000Y-64400000D03*
X52570000Y-64400000D03*
X51300000Y-64400000D03*
D24*
X58800000Y-74400000D03*
%TD*%
D11*
%TO.C,J2*%
X73500000Y-53000000D03*
D12*
X70000000Y-53000000D03*
X66500000Y-53000000D03*
%TD*%
D16*
%TO.C,R12*%
X114900000Y-71900000D03*
X112900000Y-71900000D03*
%TD*%
D25*
%TO.C,C7*%
X53437500Y-86900000D03*
X51362500Y-86900000D03*
%TD*%
D16*
%TO.C,R2*%
X59800000Y-84900000D03*
X57800000Y-84900000D03*
%TD*%
D15*
%TO.C,H1*%
X53600000Y-58000000D03*
%TD*%
D26*
%TO.C,R5*%
X109100000Y-57700000D03*
X109100000Y-55700000D03*
%TD*%
D25*
%TO.C,C2*%
X89337500Y-69500000D03*
X87262500Y-69500000D03*
%TD*%
D27*
%TO.C,C5*%
X106137500Y-62800000D03*
X109262500Y-62800000D03*
%TD*%
D11*
%TO.C,J13*%
X109500000Y-53000000D03*
D12*
X106000000Y-53000000D03*
X102500000Y-53000000D03*
%TD*%
D15*
%TO.C,H3*%
X146400000Y-91400000D03*
%TD*%
D28*
%TO.C,TH1*%
X110400000Y-68700000D03*
X110400000Y-66200000D03*
%TD*%
D14*
%TO.C,C12*%
X81562500Y-67500000D03*
X83637500Y-67500000D03*
%TD*%
D26*
%TO.C,R9*%
X71800000Y-73300000D03*
X71800000Y-71300000D03*
%TD*%
D29*
%TO.C,R13*%
X106100000Y-69000000D03*
X108100000Y-69000000D03*
%TD*%
%TO.C,R4*%
X66800000Y-85000000D03*
X68800000Y-85000000D03*
%TD*%
D30*
%TO.C,SW1*%
X140500000Y-59400000D03*
X138000000Y-59400000D03*
X135500000Y-59400000D03*
%TD*%
D29*
%TO.C,R3*%
X57800000Y-86900000D03*
X59800000Y-86900000D03*
%TD*%
D31*
%TO.C,C1*%
X89862500Y-71700000D03*
X86737500Y-71700000D03*
%TD*%
D32*
%TO.C,R1*%
X137000000Y-65150000D03*
X137000000Y-62050000D03*
%TD*%
D33*
%TO.C,C10*%
X122200000Y-62937500D03*
X122200000Y-60862500D03*
%TD*%
D34*
%TO.C,Q2*%
X109600000Y-72650000D03*
X109600000Y-70750000D03*
X106600000Y-71700000D03*
%TD*%
D35*
%TO.C,U1*%
X89150000Y-62600000D03*
X89150000Y-64900000D03*
D36*
X95450000Y-64900000D03*
D35*
X89150000Y-67200000D03*
%TD*%
D10*
%TO.C,SW4*%
X123250000Y-71750000D03*
X116750000Y-71750000D03*
X123250000Y-67250000D03*
X116750000Y-67250000D03*
%TD*%
D37*
%TO.C,J3*%
X60430000Y-58135000D03*
D38*
X60430000Y-56865000D03*
X61700000Y-58135000D03*
X61700000Y-56865000D03*
X62970000Y-58135000D03*
X62970000Y-56865000D03*
%TD*%
D39*
%TO.C,J11*%
X96200000Y-56700000D03*
D40*
X98740000Y-56700000D03*
X101280000Y-56700000D03*
X103820000Y-56700000D03*
%TD*%
D26*
%TO.C,R11*%
X67400000Y-58200000D03*
X67400000Y-56200000D03*
%TD*%
D41*
%TO.C,R7*%
X55300000Y-84800000D03*
X55300000Y-86800000D03*
%TD*%
D42*
%TO.C,J4*%
X141900000Y-71100000D03*
D43*
X141900000Y-67600000D03*
X141900000Y-64100000D03*
%TD*%
D44*
%TO.C,J5*%
X68300000Y-92100000D03*
D45*
X65800000Y-92100000D03*
X63300000Y-92100000D03*
X60800000Y-92100000D03*
X58300000Y-92100000D03*
%TD*%
D11*
%TO.C,J6*%
X85500000Y-53000000D03*
D12*
X82000000Y-53000000D03*
X78500000Y-53000000D03*
%TD*%
D14*
%TO.C,C8*%
X125812500Y-69900000D03*
X127887500Y-69900000D03*
%TD*%
D46*
%TO.C,U5*%
X74000000Y-67095000D03*
X74000000Y-68365000D03*
X74000000Y-69635000D03*
X74000000Y-70905000D03*
X79200000Y-70905000D03*
X79200000Y-69635000D03*
X79200000Y-68365000D03*
X79200000Y-67095000D03*
%TD*%
D13*
%TO.C,U4*%
X120410000Y-57325000D03*
X119140000Y-57325000D03*
X117870000Y-57325000D03*
X116600000Y-57325000D03*
X115330000Y-57325000D03*
X114060000Y-57325000D03*
X112790000Y-57325000D03*
X112790000Y-62675000D03*
X114060000Y-62675000D03*
X115330000Y-62675000D03*
X116600000Y-62675000D03*
X117870000Y-62675000D03*
X119140000Y-62675000D03*
X120410000Y-62675000D03*
%TD*%
D33*
%TO.C,C11*%
X80100000Y-62837500D03*
X80100000Y-60762500D03*
%TD*%
D25*
%TO.C,C6*%
X53437500Y-84900000D03*
X51362500Y-84900000D03*
%TD*%
D11*
%TO.C,J16*%
X145500000Y-53000000D03*
D12*
X142000000Y-53000000D03*
X138500000Y-53000000D03*
%TD*%
D47*
%TO.C,D2*%
X71800000Y-69625000D03*
X71800000Y-67575000D03*
%TD*%
D17*
%TO.C,J8*%
X139700000Y-88300000D03*
X127100000Y-88300000D03*
D18*
X139700000Y-81000000D03*
D19*
X135500000Y-81000000D03*
X131300000Y-81000000D03*
X127100000Y-81000000D03*
X139700000Y-75500000D03*
X135500000Y-75500000D03*
X131300000Y-75500000D03*
X127100000Y-75500000D03*
%TD*%
D26*
%TO.C,R6*%
X111000000Y-57700000D03*
X111000000Y-55700000D03*
%TD*%
M02*
