%TF.GenerationSoftware,KiCad,Pcbnew,8.0.4*%
%TF.CreationDate,2024-11-13T17:28:34+01:00*%
%TF.ProjectId,esp32_octal_wled,65737033-325f-46f6-9374-616c5f776c65,rev?*%
%TF.SameCoordinates,Original*%
%TF.FileFunction,Soldermask,Bot*%
%TF.FilePolarity,Negative*%
%FSLAX46Y46*%
G04 Gerber Fmt 4.6, Leading zero omitted, Abs format (unit mm)*
G04 Created by KiCad (PCBNEW 8.0.4) date 2024-11-13 17:28:34*
%MOMM*%
%LPD*%
G01*
G04 APERTURE LIST*
G04 Aperture macros list*
%AMRoundRect*
0 Rectangle with rounded corners*
0 $1 Rounding radius*
0 $2 $3 $4 $5 $6 $7 $8 $9 X,Y pos of 4 corners*
0 Add a 4 corners polygon primitive as box body*
4,1,4,$2,$3,$4,$5,$6,$7,$8,$9,$2,$3,0*
0 Add four circle primitives for the rounded corners*
1,1,$1+$1,$2,$3*
1,1,$1+$1,$4,$5*
1,1,$1+$1,$6,$7*
1,1,$1+$1,$8,$9*
0 Add four rect primitives between the rounded corners*
20,1,$1+$1,$2,$3,$4,$5,0*
20,1,$1+$1,$4,$5,$6,$7,0*
20,1,$1+$1,$6,$7,$8,$9,0*
20,1,$1+$1,$8,$9,$2,$3,0*%
G04 Aperture macros list end*
%ADD10C,2.000000*%
%ADD11RoundRect,0.250000X0.650000X1.550000X-0.650000X1.550000X-0.650000X-1.550000X0.650000X-1.550000X0*%
%ADD12O,1.800000X3.600000*%
%ADD13C,3.200000*%
%ADD14C,3.000000*%
%ADD15RoundRect,0.250001X1.099999X1.599999X-1.099999X1.599999X-1.099999X-1.599999X1.099999X-1.599999X0*%
%ADD16O,2.700000X3.700000*%
%ADD17R,5.000000X5.000000*%
%ADD18C,1.600000*%
%ADD19O,1.400000X1.800000*%
%ADD20R,1.000000X1.000000*%
%ADD21O,1.000000X1.000000*%
%ADD22R,1.700000X1.700000*%
%ADD23O,1.700000X1.700000*%
%ADD24RoundRect,0.250000X1.550000X-0.650000X1.550000X0.650000X-1.550000X0.650000X-1.550000X-0.650000X0*%
%ADD25O,3.600000X1.800000*%
%ADD26RoundRect,0.250000X0.600000X0.725000X-0.600000X0.725000X-0.600000X-0.725000X0.600000X-0.725000X0*%
%ADD27O,1.700000X1.950000*%
G04 APERTURE END LIST*
D10*
%TO.C,SW2*%
X136250000Y-71750000D03*
X129750000Y-71750000D03*
X136250000Y-67250000D03*
X129750000Y-67250000D03*
%TD*%
D11*
%TO.C,J7*%
X97500000Y-53000000D03*
D12*
X94000000Y-53000000D03*
X90500000Y-53000000D03*
%TD*%
D11*
%TO.C,J14*%
X121500000Y-53000000D03*
D12*
X118000000Y-53000000D03*
X114500000Y-53000000D03*
%TD*%
D11*
%TO.C,J15*%
X133500000Y-53000000D03*
D12*
X130000000Y-53000000D03*
X126500000Y-53000000D03*
%TD*%
D13*
%TO.C,H4*%
X53600000Y-91400000D03*
%TD*%
%TO.C,H2*%
X146400000Y-58000000D03*
%TD*%
D11*
%TO.C,J1*%
X61500000Y-53000000D03*
D12*
X58000000Y-53000000D03*
X54500000Y-53000000D03*
%TD*%
D14*
%TO.C,J12*%
X120700000Y-88300000D03*
X74500000Y-88300000D03*
D15*
X120700000Y-81000000D03*
D16*
X116500000Y-81000000D03*
X112300000Y-81000000D03*
X108100000Y-81000000D03*
X103900000Y-81000000D03*
X99700000Y-81000000D03*
X95500000Y-81000000D03*
X91300000Y-81000000D03*
X87100000Y-81000000D03*
X82900000Y-81000000D03*
X78700000Y-81000000D03*
X74500000Y-81000000D03*
X120700000Y-75500000D03*
X116500000Y-75500000D03*
X112300000Y-75500000D03*
X108100000Y-75500000D03*
X103900000Y-75500000D03*
X99700000Y-75500000D03*
X95500000Y-75500000D03*
X91300000Y-75500000D03*
X87100000Y-75500000D03*
X82900000Y-75500000D03*
X78700000Y-75500000D03*
X74500000Y-75500000D03*
%TD*%
D17*
%TO.C,U2*%
X58800000Y-74400000D03*
%TD*%
D11*
%TO.C,J2*%
X73500000Y-53000000D03*
D12*
X70000000Y-53000000D03*
X66500000Y-53000000D03*
%TD*%
D13*
%TO.C,H1*%
X53600000Y-58000000D03*
%TD*%
D11*
%TO.C,J13*%
X109500000Y-53000000D03*
D12*
X106000000Y-53000000D03*
X102500000Y-53000000D03*
%TD*%
D13*
%TO.C,H3*%
X146400000Y-91400000D03*
%TD*%
D18*
%TO.C,TH1*%
X110400000Y-68700000D03*
X110400000Y-66200000D03*
%TD*%
D19*
%TO.C,SW1*%
X140500000Y-59400000D03*
X138000000Y-59400000D03*
X135500000Y-59400000D03*
%TD*%
D10*
%TO.C,SW4*%
X123250000Y-71750000D03*
X116750000Y-71750000D03*
X123250000Y-67250000D03*
X116750000Y-67250000D03*
%TD*%
D20*
%TO.C,J3*%
X60430000Y-58135000D03*
D21*
X60430000Y-56865000D03*
X61700000Y-58135000D03*
X61700000Y-56865000D03*
X62970000Y-58135000D03*
X62970000Y-56865000D03*
%TD*%
D22*
%TO.C,J11*%
X96200000Y-56700000D03*
D23*
X98740000Y-56700000D03*
X101280000Y-56700000D03*
X103820000Y-56700000D03*
%TD*%
D24*
%TO.C,J4*%
X141900000Y-71100000D03*
D25*
X141900000Y-67600000D03*
X141900000Y-64100000D03*
%TD*%
D26*
%TO.C,J5*%
X68300000Y-92100000D03*
D27*
X65800000Y-92100000D03*
X63300000Y-92100000D03*
X60800000Y-92100000D03*
X58300000Y-92100000D03*
%TD*%
D11*
%TO.C,J6*%
X85500000Y-53000000D03*
D12*
X82000000Y-53000000D03*
X78500000Y-53000000D03*
%TD*%
D11*
%TO.C,J16*%
X145500000Y-53000000D03*
D12*
X142000000Y-53000000D03*
X138500000Y-53000000D03*
%TD*%
D14*
%TO.C,J8*%
X139700000Y-88300000D03*
X127100000Y-88300000D03*
D15*
X139700000Y-81000000D03*
D16*
X135500000Y-81000000D03*
X131300000Y-81000000D03*
X127100000Y-81000000D03*
X139700000Y-75500000D03*
X135500000Y-75500000D03*
X131300000Y-75500000D03*
X127100000Y-75500000D03*
%TD*%
M02*
