M48
; DRILL file {KiCad 9.0.4} date 2026-01-11T12:06:53+0100
; FORMAT={-:-/ absolute / inch / decimal}
; #@! TF.CreationDate,2026-01-11T12:06:53+01:00
; #@! TF.GenerationSoftware,Kicad,Pcbnew,9.0.4
; #@! TF.FileFunction,Plated,1,2,PTH
FMAT,2
INCH
; #@! TA.AperFunction,Plated,PTH,ViaDrill
T1C0.0118
; #@! TA.AperFunction,Plated,PTH,ViaDrill
T2C0.0157
; #@! TA.AperFunction,Plated,PTH,ViaDrill
T3C0.0236
; #@! TA.AperFunction,Plated,PTH,ComponentDrill
T4C0.0256
; #@! TA.AperFunction,Plated,PTH,ComponentDrill
T5C0.0295
; #@! TA.AperFunction,Plated,PTH,ViaDrill
T6C0.0315
; #@! TA.AperFunction,Plated,PTH,ComponentDrill
T7C0.0315
; #@! TA.AperFunction,Plated,PTH,ComponentDrill
T8C0.0374
; #@! TA.AperFunction,Plated,PTH,ComponentDrill
T9C0.0394
; #@! TA.AperFunction,Plated,PTH,ComponentDrill
T10C0.0433
; #@! TA.AperFunction,Plated,PTH,ComponentDrill
T11C0.0472
; #@! TA.AperFunction,Plated,PTH,ComponentDrill
T12C0.0709
; #@! TA.AperFunction,Plated,PTH,ComponentDrill
T13C0.1181
%
G90
G05
T1
X3.9961Y-4.5
X4.1181Y-4.378
X4.4409Y-4.3307
X4.4606Y-4.5709
X4.4606Y-4.7175
X4.4843Y-4.4567
X4.5427Y-4.7261
X4.5906Y-4.7047
X4.7205Y-4.815
X4.7598Y-4.8819
X4.7992Y-4.8819
X4.811Y-4.1024
X4.8543Y-4.7795
X4.9252Y-4.1181
X4.9311Y-4.4606
X4.9764Y-4.7559
X4.9803Y-4.689
X5.0787Y-5.1732
X5.0866Y-4.2677
X5.1024Y-5.2087
X5.1142Y-4.5591
X5.1142Y-4.6496
X5.126Y-4.5157
X5.1575Y-4.6535
X5.1614Y-5.7047
X5.1654Y-5.4449
X5.1811Y-4.3504
X5.2598Y-5.2008
X5.4094Y-5.0472
X5.4213Y-4.689
X5.4252Y-4.5394
X5.4331Y-4.9409
X5.4449Y-4.752
X5.4646Y-4.563
X5.4646Y-4.626
X5.4646Y-4.6969
X5.5157Y-4.8189
X5.626Y-4.7598
X5.6654Y-4.3386
X5.8071Y-4.8583
X6.2244Y-4.2913
X6.2953Y-4.6772
X6.3976Y-5.2953
X6.4134Y-5.0315
X6.4173Y-5.1693
X6.4646Y-4.8661
X6.4685Y-4.9055
X6.4764Y-4.8071
X6.5118Y-4.3976
X6.5472Y-5.0276
X6.5827Y-4.5
X6.5827Y-4.6654
X6.5866Y-4.4094
X6.5866Y-4.9646
X6.6142Y-5.6614
X6.6496Y-5.4803
X6.6535Y-5.5591
X6.6614Y-5.4567
X6.6654Y-4.8701
X6.6929Y-5.8228
X6.6969Y-5.4803
X6.7126Y-4.3346
X6.7165Y-5.4094
X6.7205Y-4.6102
X6.7244Y-4.748
X6.7283Y-5.4567
X6.7441Y-4.5236
X6.748Y-5.5
X6.7717Y-5.7756
X6.7756Y-4.4016
X6.7874Y-4.5236
X6.8031Y-5.7244
X6.8701Y-4.5906
X6.8976Y-4.3937
X6.9035Y-5.5138
X6.9055Y-4.1772
X6.9213Y-4.5512
X6.937Y-4.3071
X6.9764Y-4.4646
X7.0118Y-4.2362
X7.0433Y-4.3346
X7.2953Y-5.8031
T2
X3.9724Y-4.0827
X3.9744Y-3.9803
X3.9764Y-4.1929
X4.0157Y-4.3898
X4.1142Y-4.1929
X4.1339Y-4.4488
X4.2441Y-4.1024
X4.2795Y-4.2421
X4.3189Y-4.3898
X4.3898Y-3.9961
X4.5039Y-4.1594
X4.5472Y-3.9961
X4.626Y-4.0512
X4.626Y-4.1378
X4.7835Y-3.9961
X4.874Y-3.9744
X5.0197Y-4.0
X5.1181Y-4.2126
X5.122Y-4.0
X5.1772Y-4.252
X5.2165Y-4.219
X5.2717Y-4.252
X5.3543Y-4.2067
X5.4291Y-4.2402
X5.4921Y-4.3898
X5.5236Y-4.2992
X5.5315Y-4.2323
X5.5906Y-4.685
X5.6102Y-4.3898
X5.6142Y-4.2776
X5.6496Y-4.2323
X5.6555Y-5.2028
X5.689Y-4.685
X5.689Y-4.7835
X5.748Y-4.3701
X5.7874Y-4.685
X5.7874Y-4.7835
X5.7992Y-4.3268
X5.8465Y-4.2205
X5.8465Y-4.3701
X5.8465Y-4.4291
X5.8465Y-4.4882
X5.8465Y-4.5866
X5.8858Y-4.7835
X5.9055Y-4.5689
X5.9094Y-4.6417
X5.9094Y-4.7205
X5.9193Y-4.2106
X5.937Y-4.8189
X5.9764Y-4.2087
X5.9764Y-4.7165
X5.9808Y-4.6744
X6.0256Y-5.1988
X6.0295Y-4.9882
X6.0333Y-4.9311
X6.1457Y-4.2087
X6.1655Y-5.2155
X6.2493Y-4.9648
X6.3071Y-4.8096
X6.3071Y-4.8596
X6.3143Y-4.2238
X6.3445Y-4.1417
X6.3543Y-4.6438
X6.4213Y-4.9803
X6.5512Y-4.437
X6.5902Y-4.5807
X6.626Y-4.7165
X6.6496Y-4.1181
X6.6535Y-4.6071
X6.689Y-4.185
X6.7347Y-4.1177
X6.7756Y-4.6102
X6.8031Y-4.0315
X6.8268Y-4.5079
X6.8346Y-4.3189
X6.8583Y-5.6575
X6.872Y-3.9783
X6.9094Y-5.4646
X6.9646Y-4.2205
X6.9843Y-5.5079
X7.0276Y-3.9803
X7.0551Y-5.5118
X7.0709Y-4.1024
X7.1732Y-4.2441
X7.2992Y-4.189
X7.3071Y-4.2913
X7.378Y-3.9764
X7.3858Y-5.7913
X7.4252Y-4.189
X7.4331Y-4.2677
T3
X6.4291Y-5.5984
T4
X6.3555Y-4.4711
X6.3555Y-4.5211
X6.4055Y-4.4711
X6.4055Y-4.5211
X6.4555Y-4.4711
X6.4555Y-4.5211
T5
X5.1783Y-4.9567
X5.2283Y-4.9067
X5.2283Y-5.0067
T6
X5.4606Y-5.6732
X5.5551Y-5.6772
X5.6201Y-5.6102
X5.7185Y-5.6102
X5.7323Y-5.6811
X5.8169Y-5.6102
X5.8307Y-5.5315
X5.874Y-5.6772
X5.9154Y-5.6102
X5.9213Y-5.4764
X5.9882Y-5.4291
X5.9882Y-5.5197
X6.0138Y-5.6102
X6.0669Y-5.5315
X6.0669Y-5.6811
X6.1417Y-5.626
X6.1457Y-5.5315
X6.1929Y-5.6772
X6.2323Y-5.6024
X6.2953Y-5.6772
X6.3031Y-5.5039
X6.3386Y-5.5906
X6.3937Y-5.6772
X6.4016Y-5.4173
X6.4843Y-5.6772
T7
X6.1732Y-4.3386
X6.1732Y-4.4386
T8
X6.4311Y-4.2391
X6.5295Y-4.2391
X6.628Y-4.2391
X6.7264Y-4.2391
T9
X4.3819Y-4.2504
X4.3819Y-4.3504
X4.3819Y-4.4504
X5.0417Y-4.4209
X5.0417Y-4.7209
X5.1417Y-4.4209
X5.1417Y-4.7209
X5.2417Y-4.4209
X5.2417Y-4.7209
X6.185Y-4.5496
X6.185Y-4.6496
X6.185Y-4.7496
X6.185Y-4.8496
X6.2575Y-4.3543
X6.3575Y-4.3543
X6.4575Y-4.3543
X6.5575Y-4.3543
X6.6575Y-4.3543
T10
X4.5709Y-4.4299
X4.5709Y-4.5299
X4.5709Y-4.6299
X4.7638Y-4.4299
X4.7638Y-4.5299
X4.7638Y-4.6299
T11
X4.2518Y-4.0335
X4.2518Y-4.1713
X4.2518Y-4.3091
X4.2518Y-4.9705
X4.2518Y-5.1083
X4.2518Y-5.2461
X4.2518Y-5.4409
X4.2518Y-5.5787
X4.2518Y-5.7165
X4.252Y-4.502
X4.252Y-4.6398
X4.252Y-4.7776
X4.7126Y-4.2518
X4.8504Y-4.2518
X4.9882Y-4.2518
X6.6631Y-4.8019
X6.6631Y-4.9397
X7.1652Y-4.0335
X7.1652Y-4.1713
X7.1652Y-4.3091
X7.1652Y-4.502
X7.1652Y-4.6398
X7.1652Y-4.7776
X7.1652Y-4.9705
X7.1652Y-5.1083
X7.1652Y-5.2461
X7.1652Y-5.439
X7.1652Y-5.5768
X7.1652Y-5.7146
T12
X4.4368Y-5.0906
X4.4368Y-5.3071
X4.6022Y-5.0906
X4.6022Y-5.3071
X4.7675Y-5.0906
X4.7675Y-5.3071
X4.9329Y-5.0906
X4.9329Y-5.3071
X5.1612Y-5.0945
X5.1612Y-5.311
X5.3266Y-5.0945
X5.3266Y-5.311
X5.4919Y-5.0945
X5.4919Y-5.311
X5.6573Y-5.0945
X5.6573Y-5.311
X5.8226Y-5.0945
X5.8226Y-5.311
X5.988Y-5.0945
X5.988Y-5.311
X6.1533Y-5.0945
X6.1533Y-5.311
X6.3187Y-5.0945
X6.3187Y-5.311
X6.4841Y-5.0945
X6.4841Y-5.311
X6.6494Y-5.0945
X6.6494Y-5.311
X6.8148Y-5.0945
X6.8148Y-5.311
X6.9801Y-5.0945
X6.9801Y-5.311
T13
X5.6691Y-4.535
M30
