%TF.GenerationSoftware,KiCad,Pcbnew,9.0.4*%
%TF.CreationDate,2026-01-11T12:06:53+01:00*%
%TF.ProjectId,esp32_octal_wled,65737033-325f-46f6-9374-616c5f776c65,rev?*%
%TF.SameCoordinates,Original*%
%TF.FileFunction,Legend,Top*%
%TF.FilePolarity,Positive*%
%FSLAX46Y46*%
G04 Gerber Fmt 4.6, Leading zero omitted, Abs format (unit mm)*
G04 Created by KiCad (PCBNEW 9.0.4) date 2026-01-11 12:06:53*
%MOMM*%
%LPD*%
G01*
G04 APERTURE LIST*
G04 Aperture macros list*
%AMRoundRect*
0 Rectangle with rounded corners*
0 $1 Rounding radius*
0 $2 $3 $4 $5 $6 $7 $8 $9 X,Y pos of 4 corners*
0 Add a 4 corners polygon primitive as box body*
4,1,4,$2,$3,$4,$5,$6,$7,$8,$9,$2,$3,0*
0 Add four circle primitives for the rounded corners*
1,1,$1+$1,$2,$3*
1,1,$1+$1,$4,$5*
1,1,$1+$1,$6,$7*
1,1,$1+$1,$8,$9*
0 Add four rect primitives between the rounded corners*
20,1,$1+$1,$2,$3,$4,$5,0*
20,1,$1+$1,$4,$5,$6,$7,0*
20,1,$1+$1,$6,$7,$8,$9,0*
20,1,$1+$1,$8,$9,$2,$3,0*%
%AMRotRect*
0 Rectangle, with rotation*
0 The origin of the aperture is its center*
0 $1 length*
0 $2 width*
0 $3 Rotation angle, in degrees counterclockwise*
0 Add horizontal line*
21,1,$1,$2,0,0,$3*%
G04 Aperture macros list end*
%ADD10C,0.150000*%
%ADD11C,0.300000*%
%ADD12C,0.120000*%
%ADD13RoundRect,0.250001X-2.474999X0.799999X-2.474999X-0.799999X2.474999X-0.799999X2.474999X0.799999X0*%
%ADD14RoundRect,0.250001X2.474999X-0.799999X2.474999X0.799999X-2.474999X0.799999X-2.474999X-0.799999X0*%
%ADD15R,2.000000X1.000000*%
%ADD16R,1.500000X1.000000*%
%ADD17RoundRect,0.250000X-0.450000X0.350000X-0.450000X-0.350000X0.450000X-0.350000X0.450000X0.350000X0*%
%ADD18RoundRect,0.150000X-0.150000X0.950000X-0.150000X-0.950000X0.150000X-0.950000X0.150000X0.950000X0*%
%ADD19RoundRect,0.250000X0.475000X-0.337500X0.475000X0.337500X-0.475000X0.337500X-0.475000X-0.337500X0*%
%ADD20C,3.200000*%
%ADD21RoundRect,0.250000X0.350000X0.450000X-0.350000X0.450000X-0.350000X-0.450000X0.350000X-0.450000X0*%
%ADD22RoundRect,0.250000X-0.337500X-0.475000X0.337500X-0.475000X0.337500X0.475000X-0.337500X0.475000X0*%
%ADD23C,1.400000*%
%ADD24RoundRect,0.200000X0.200000X-0.750000X0.200000X0.750000X-0.200000X0.750000X-0.200000X-0.750000X0*%
%ADD25RoundRect,0.250000X0.450000X-0.350000X0.450000X0.350000X-0.450000X0.350000X-0.450000X-0.350000X0*%
%ADD26RoundRect,0.225000X-1.275000X-0.225000X1.275000X-0.225000X1.275000X0.225000X-1.275000X0.225000X0*%
%ADD27RoundRect,0.225000X0.225000X-1.275000X0.225000X1.275000X-0.225000X1.275000X-0.225000X-1.275000X0*%
%ADD28RoundRect,0.225000X1.275000X0.225000X-1.275000X0.225000X-1.275000X-0.225000X1.275000X-0.225000X0*%
%ADD29R,5.000000X5.000000*%
%ADD30RoundRect,0.250000X-0.350000X-0.450000X0.350000X-0.450000X0.350000X0.450000X-0.350000X0.450000X0*%
%ADD31RoundRect,0.200000X0.750000X0.200000X-0.750000X0.200000X-0.750000X-0.200000X0.750000X-0.200000X0*%
%ADD32RoundRect,0.250000X0.337500X0.475000X-0.337500X0.475000X-0.337500X-0.475000X0.337500X-0.475000X0*%
%ADD33C,0.900000*%
%ADD34R,0.700000X2.000000*%
%ADD35R,2.000000X0.800000*%
%ADD36RoundRect,0.250000X0.400000X0.625000X-0.400000X0.625000X-0.400000X-0.625000X0.400000X-0.625000X0*%
%ADD37RoundRect,0.250000X-0.475000X0.337500X-0.475000X-0.337500X0.475000X-0.337500X0.475000X0.337500X0*%
%ADD38RoundRect,0.375000X0.625000X0.375000X-0.625000X0.375000X-0.625000X-0.375000X0.625000X-0.375000X0*%
%ADD39RoundRect,0.500000X0.500000X1.400000X-0.500000X1.400000X-0.500000X-1.400000X0.500000X-1.400000X0*%
%ADD40RotRect,2.000000X1.000000X135.000000*%
%ADD41RoundRect,0.150000X-0.950000X-0.150000X0.950000X-0.150000X0.950000X0.150000X-0.950000X0.150000X0*%
%ADD42R,1.000000X1.000000*%
%ADD43O,1.000000X1.000000*%
%ADD44RoundRect,0.150000X0.950000X0.150000X-0.950000X0.150000X-0.950000X-0.150000X0.950000X-0.150000X0*%
%ADD45RoundRect,0.250000X-0.325000X-0.450000X0.325000X-0.450000X0.325000X0.450000X-0.325000X0.450000X0*%
%ADD46RoundRect,0.250000X1.550000X-0.650000X1.550000X0.650000X-1.550000X0.650000X-1.550000X-0.650000X0*%
%ADD47O,3.600000X1.800000*%
%ADD48RoundRect,0.250000X-1.550000X0.650000X-1.550000X-0.650000X1.550000X-0.650000X1.550000X0.650000X0*%
%ADD49RoundRect,0.400000X0.400000X-0.600000X0.400000X0.600000X-0.400000X0.600000X-0.400000X-0.600000X0*%
%ADD50O,1.600000X2.000000*%
%ADD51C,3.000000*%
%ADD52RoundRect,0.250001X-1.099999X-1.599999X1.099999X-1.599999X1.099999X1.599999X-1.099999X1.599999X0*%
%ADD53O,2.700000X3.700000*%
%ADD54R,2.000000X1.905000*%
%ADD55O,2.000000X1.905000*%
%ADD56RoundRect,0.450000X-0.450000X0.450000X-0.450000X-0.450000X0.450000X-0.450000X0.450000X0.450000X0*%
%ADD57C,1.800000*%
%ADD58RoundRect,0.250000X0.600000X-0.600000X0.600000X0.600000X-0.600000X0.600000X-0.600000X-0.600000X0*%
%ADD59O,1.700000X1.700000*%
%ADD60RoundRect,0.250000X-1.000000X0.650000X-1.000000X-0.650000X1.000000X-0.650000X1.000000X0.650000X0*%
%ADD61O,2.500000X1.800000*%
%ADD62R,1.800000X1.100000*%
%ADD63RoundRect,0.275000X-0.625000X0.275000X-0.625000X-0.275000X0.625000X-0.275000X0.625000X0.275000X0*%
%ADD64RoundRect,0.250000X-0.650000X-1.550000X0.650000X-1.550000X0.650000X1.550000X-0.650000X1.550000X0*%
%ADD65O,1.800000X3.600000*%
%ADD66C,1.700000*%
G04 APERTURE END LIST*
D10*
X156038095Y-106554819D02*
X156609523Y-106554819D01*
X156323809Y-107554819D02*
X156323809Y-106554819D01*
X156847619Y-106554819D02*
X157514285Y-107554819D01*
X157514285Y-106554819D02*
X156847619Y-107554819D01*
X110822200Y-132228571D02*
X110869819Y-132085714D01*
X110869819Y-132085714D02*
X110869819Y-131847619D01*
X110869819Y-131847619D02*
X110822200Y-131752381D01*
X110822200Y-131752381D02*
X110774580Y-131704762D01*
X110774580Y-131704762D02*
X110679342Y-131657143D01*
X110679342Y-131657143D02*
X110584104Y-131657143D01*
X110584104Y-131657143D02*
X110488866Y-131704762D01*
X110488866Y-131704762D02*
X110441247Y-131752381D01*
X110441247Y-131752381D02*
X110393628Y-131847619D01*
X110393628Y-131847619D02*
X110346009Y-132038095D01*
X110346009Y-132038095D02*
X110298390Y-132133333D01*
X110298390Y-132133333D02*
X110250771Y-132180952D01*
X110250771Y-132180952D02*
X110155533Y-132228571D01*
X110155533Y-132228571D02*
X110060295Y-132228571D01*
X110060295Y-132228571D02*
X109965057Y-132180952D01*
X109965057Y-132180952D02*
X109917438Y-132133333D01*
X109917438Y-132133333D02*
X109869819Y-132038095D01*
X109869819Y-132038095D02*
X109869819Y-131800000D01*
X109869819Y-131800000D02*
X109917438Y-131657143D01*
X110203152Y-131371428D02*
X110203152Y-130990476D01*
X109869819Y-131228571D02*
X110726961Y-131228571D01*
X110726961Y-131228571D02*
X110822200Y-131180952D01*
X110822200Y-131180952D02*
X110869819Y-131085714D01*
X110869819Y-131085714D02*
X110869819Y-130990476D01*
X110869819Y-130657142D02*
X110203152Y-130657142D01*
X110393628Y-130657142D02*
X110298390Y-130609523D01*
X110298390Y-130609523D02*
X110250771Y-130561904D01*
X110250771Y-130561904D02*
X110203152Y-130466666D01*
X110203152Y-130466666D02*
X110203152Y-130371428D01*
X110869819Y-130038094D02*
X110203152Y-130038094D01*
X109869819Y-130038094D02*
X109917438Y-130085713D01*
X109917438Y-130085713D02*
X109965057Y-130038094D01*
X109965057Y-130038094D02*
X109917438Y-129990475D01*
X109917438Y-129990475D02*
X109869819Y-130038094D01*
X109869819Y-130038094D02*
X109965057Y-130038094D01*
X110203152Y-129561904D02*
X111203152Y-129561904D01*
X110250771Y-129561904D02*
X110203152Y-129466666D01*
X110203152Y-129466666D02*
X110203152Y-129276190D01*
X110203152Y-129276190D02*
X110250771Y-129180952D01*
X110250771Y-129180952D02*
X110298390Y-129133333D01*
X110298390Y-129133333D02*
X110393628Y-129085714D01*
X110393628Y-129085714D02*
X110679342Y-129085714D01*
X110679342Y-129085714D02*
X110774580Y-129133333D01*
X110774580Y-129133333D02*
X110822200Y-129180952D01*
X110822200Y-129180952D02*
X110869819Y-129276190D01*
X110869819Y-129276190D02*
X110869819Y-129466666D01*
X110869819Y-129466666D02*
X110822200Y-129561904D01*
X109965057Y-127942856D02*
X109917438Y-127895237D01*
X109917438Y-127895237D02*
X109869819Y-127799999D01*
X109869819Y-127799999D02*
X109869819Y-127561904D01*
X109869819Y-127561904D02*
X109917438Y-127466666D01*
X109917438Y-127466666D02*
X109965057Y-127419047D01*
X109965057Y-127419047D02*
X110060295Y-127371428D01*
X110060295Y-127371428D02*
X110155533Y-127371428D01*
X110155533Y-127371428D02*
X110298390Y-127419047D01*
X110298390Y-127419047D02*
X110869819Y-127990475D01*
X110869819Y-127990475D02*
X110869819Y-127371428D01*
X110822200Y-144128571D02*
X110869819Y-143985714D01*
X110869819Y-143985714D02*
X110869819Y-143747619D01*
X110869819Y-143747619D02*
X110822200Y-143652381D01*
X110822200Y-143652381D02*
X110774580Y-143604762D01*
X110774580Y-143604762D02*
X110679342Y-143557143D01*
X110679342Y-143557143D02*
X110584104Y-143557143D01*
X110584104Y-143557143D02*
X110488866Y-143604762D01*
X110488866Y-143604762D02*
X110441247Y-143652381D01*
X110441247Y-143652381D02*
X110393628Y-143747619D01*
X110393628Y-143747619D02*
X110346009Y-143938095D01*
X110346009Y-143938095D02*
X110298390Y-144033333D01*
X110298390Y-144033333D02*
X110250771Y-144080952D01*
X110250771Y-144080952D02*
X110155533Y-144128571D01*
X110155533Y-144128571D02*
X110060295Y-144128571D01*
X110060295Y-144128571D02*
X109965057Y-144080952D01*
X109965057Y-144080952D02*
X109917438Y-144033333D01*
X109917438Y-144033333D02*
X109869819Y-143938095D01*
X109869819Y-143938095D02*
X109869819Y-143700000D01*
X109869819Y-143700000D02*
X109917438Y-143557143D01*
X110203152Y-143271428D02*
X110203152Y-142890476D01*
X109869819Y-143128571D02*
X110726961Y-143128571D01*
X110726961Y-143128571D02*
X110822200Y-143080952D01*
X110822200Y-143080952D02*
X110869819Y-142985714D01*
X110869819Y-142985714D02*
X110869819Y-142890476D01*
X110869819Y-142557142D02*
X110203152Y-142557142D01*
X110393628Y-142557142D02*
X110298390Y-142509523D01*
X110298390Y-142509523D02*
X110250771Y-142461904D01*
X110250771Y-142461904D02*
X110203152Y-142366666D01*
X110203152Y-142366666D02*
X110203152Y-142271428D01*
X110869819Y-141938094D02*
X110203152Y-141938094D01*
X109869819Y-141938094D02*
X109917438Y-141985713D01*
X109917438Y-141985713D02*
X109965057Y-141938094D01*
X109965057Y-141938094D02*
X109917438Y-141890475D01*
X109917438Y-141890475D02*
X109869819Y-141938094D01*
X109869819Y-141938094D02*
X109965057Y-141938094D01*
X110203152Y-141461904D02*
X111203152Y-141461904D01*
X110250771Y-141461904D02*
X110203152Y-141366666D01*
X110203152Y-141366666D02*
X110203152Y-141176190D01*
X110203152Y-141176190D02*
X110250771Y-141080952D01*
X110250771Y-141080952D02*
X110298390Y-141033333D01*
X110298390Y-141033333D02*
X110393628Y-140985714D01*
X110393628Y-140985714D02*
X110679342Y-140985714D01*
X110679342Y-140985714D02*
X110774580Y-141033333D01*
X110774580Y-141033333D02*
X110822200Y-141080952D01*
X110822200Y-141080952D02*
X110869819Y-141176190D01*
X110869819Y-141176190D02*
X110869819Y-141366666D01*
X110869819Y-141366666D02*
X110822200Y-141461904D01*
X110869819Y-139271428D02*
X110869819Y-139842856D01*
X110869819Y-139557142D02*
X109869819Y-139557142D01*
X109869819Y-139557142D02*
X110012676Y-139652380D01*
X110012676Y-139652380D02*
X110107914Y-139747618D01*
X110107914Y-139747618D02*
X110155533Y-139842856D01*
X110922200Y-106928571D02*
X110969819Y-106785714D01*
X110969819Y-106785714D02*
X110969819Y-106547619D01*
X110969819Y-106547619D02*
X110922200Y-106452381D01*
X110922200Y-106452381D02*
X110874580Y-106404762D01*
X110874580Y-106404762D02*
X110779342Y-106357143D01*
X110779342Y-106357143D02*
X110684104Y-106357143D01*
X110684104Y-106357143D02*
X110588866Y-106404762D01*
X110588866Y-106404762D02*
X110541247Y-106452381D01*
X110541247Y-106452381D02*
X110493628Y-106547619D01*
X110493628Y-106547619D02*
X110446009Y-106738095D01*
X110446009Y-106738095D02*
X110398390Y-106833333D01*
X110398390Y-106833333D02*
X110350771Y-106880952D01*
X110350771Y-106880952D02*
X110255533Y-106928571D01*
X110255533Y-106928571D02*
X110160295Y-106928571D01*
X110160295Y-106928571D02*
X110065057Y-106880952D01*
X110065057Y-106880952D02*
X110017438Y-106833333D01*
X110017438Y-106833333D02*
X109969819Y-106738095D01*
X109969819Y-106738095D02*
X109969819Y-106500000D01*
X109969819Y-106500000D02*
X110017438Y-106357143D01*
X110303152Y-106071428D02*
X110303152Y-105690476D01*
X109969819Y-105928571D02*
X110826961Y-105928571D01*
X110826961Y-105928571D02*
X110922200Y-105880952D01*
X110922200Y-105880952D02*
X110969819Y-105785714D01*
X110969819Y-105785714D02*
X110969819Y-105690476D01*
X110969819Y-105357142D02*
X110303152Y-105357142D01*
X110493628Y-105357142D02*
X110398390Y-105309523D01*
X110398390Y-105309523D02*
X110350771Y-105261904D01*
X110350771Y-105261904D02*
X110303152Y-105166666D01*
X110303152Y-105166666D02*
X110303152Y-105071428D01*
X110969819Y-104738094D02*
X110303152Y-104738094D01*
X109969819Y-104738094D02*
X110017438Y-104785713D01*
X110017438Y-104785713D02*
X110065057Y-104738094D01*
X110065057Y-104738094D02*
X110017438Y-104690475D01*
X110017438Y-104690475D02*
X109969819Y-104738094D01*
X109969819Y-104738094D02*
X110065057Y-104738094D01*
X110303152Y-104261904D02*
X111303152Y-104261904D01*
X110350771Y-104261904D02*
X110303152Y-104166666D01*
X110303152Y-104166666D02*
X110303152Y-103976190D01*
X110303152Y-103976190D02*
X110350771Y-103880952D01*
X110350771Y-103880952D02*
X110398390Y-103833333D01*
X110398390Y-103833333D02*
X110493628Y-103785714D01*
X110493628Y-103785714D02*
X110779342Y-103785714D01*
X110779342Y-103785714D02*
X110874580Y-103833333D01*
X110874580Y-103833333D02*
X110922200Y-103880952D01*
X110922200Y-103880952D02*
X110969819Y-103976190D01*
X110969819Y-103976190D02*
X110969819Y-104166666D01*
X110969819Y-104166666D02*
X110922200Y-104261904D01*
X110303152Y-102166666D02*
X110969819Y-102166666D01*
X109922200Y-102404761D02*
X110636485Y-102642856D01*
X110636485Y-102642856D02*
X110636485Y-102023809D01*
X179722200Y-132228571D02*
X179769819Y-132085714D01*
X179769819Y-132085714D02*
X179769819Y-131847619D01*
X179769819Y-131847619D02*
X179722200Y-131752381D01*
X179722200Y-131752381D02*
X179674580Y-131704762D01*
X179674580Y-131704762D02*
X179579342Y-131657143D01*
X179579342Y-131657143D02*
X179484104Y-131657143D01*
X179484104Y-131657143D02*
X179388866Y-131704762D01*
X179388866Y-131704762D02*
X179341247Y-131752381D01*
X179341247Y-131752381D02*
X179293628Y-131847619D01*
X179293628Y-131847619D02*
X179246009Y-132038095D01*
X179246009Y-132038095D02*
X179198390Y-132133333D01*
X179198390Y-132133333D02*
X179150771Y-132180952D01*
X179150771Y-132180952D02*
X179055533Y-132228571D01*
X179055533Y-132228571D02*
X178960295Y-132228571D01*
X178960295Y-132228571D02*
X178865057Y-132180952D01*
X178865057Y-132180952D02*
X178817438Y-132133333D01*
X178817438Y-132133333D02*
X178769819Y-132038095D01*
X178769819Y-132038095D02*
X178769819Y-131800000D01*
X178769819Y-131800000D02*
X178817438Y-131657143D01*
X179103152Y-131371428D02*
X179103152Y-130990476D01*
X178769819Y-131228571D02*
X179626961Y-131228571D01*
X179626961Y-131228571D02*
X179722200Y-131180952D01*
X179722200Y-131180952D02*
X179769819Y-131085714D01*
X179769819Y-131085714D02*
X179769819Y-130990476D01*
X179769819Y-130657142D02*
X179103152Y-130657142D01*
X179293628Y-130657142D02*
X179198390Y-130609523D01*
X179198390Y-130609523D02*
X179150771Y-130561904D01*
X179150771Y-130561904D02*
X179103152Y-130466666D01*
X179103152Y-130466666D02*
X179103152Y-130371428D01*
X179769819Y-130038094D02*
X179103152Y-130038094D01*
X178769819Y-130038094D02*
X178817438Y-130085713D01*
X178817438Y-130085713D02*
X178865057Y-130038094D01*
X178865057Y-130038094D02*
X178817438Y-129990475D01*
X178817438Y-129990475D02*
X178769819Y-130038094D01*
X178769819Y-130038094D02*
X178865057Y-130038094D01*
X179103152Y-129561904D02*
X180103152Y-129561904D01*
X179150771Y-129561904D02*
X179103152Y-129466666D01*
X179103152Y-129466666D02*
X179103152Y-129276190D01*
X179103152Y-129276190D02*
X179150771Y-129180952D01*
X179150771Y-129180952D02*
X179198390Y-129133333D01*
X179198390Y-129133333D02*
X179293628Y-129085714D01*
X179293628Y-129085714D02*
X179579342Y-129085714D01*
X179579342Y-129085714D02*
X179674580Y-129133333D01*
X179674580Y-129133333D02*
X179722200Y-129180952D01*
X179722200Y-129180952D02*
X179769819Y-129276190D01*
X179769819Y-129276190D02*
X179769819Y-129466666D01*
X179769819Y-129466666D02*
X179722200Y-129561904D01*
X178769819Y-127990475D02*
X178769819Y-127323809D01*
X178769819Y-127323809D02*
X179769819Y-127752380D01*
X113090477Y-105669819D02*
X113661905Y-105669819D01*
X113376191Y-106669819D02*
X113376191Y-105669819D01*
X113995239Y-106146009D02*
X114328572Y-106146009D01*
X114471429Y-106669819D02*
X113995239Y-106669819D01*
X113995239Y-106669819D02*
X113995239Y-105669819D01*
X113995239Y-105669819D02*
X114471429Y-105669819D01*
X115471429Y-106669819D02*
X115138096Y-106193628D01*
X114900001Y-106669819D02*
X114900001Y-105669819D01*
X114900001Y-105669819D02*
X115280953Y-105669819D01*
X115280953Y-105669819D02*
X115376191Y-105717438D01*
X115376191Y-105717438D02*
X115423810Y-105765057D01*
X115423810Y-105765057D02*
X115471429Y-105860295D01*
X115471429Y-105860295D02*
X115471429Y-106003152D01*
X115471429Y-106003152D02*
X115423810Y-106098390D01*
X115423810Y-106098390D02*
X115376191Y-106146009D01*
X115376191Y-106146009D02*
X115280953Y-106193628D01*
X115280953Y-106193628D02*
X114900001Y-106193628D01*
X115900001Y-106669819D02*
X115900001Y-105669819D01*
X115900001Y-105669819D02*
X116233334Y-106384104D01*
X116233334Y-106384104D02*
X116566667Y-105669819D01*
X116566667Y-105669819D02*
X116566667Y-106669819D01*
X117042858Y-106669819D02*
X117042858Y-105669819D01*
X117519048Y-106669819D02*
X117519048Y-105669819D01*
X117519048Y-105669819D02*
X118090476Y-106669819D01*
X118090476Y-106669819D02*
X118090476Y-105669819D01*
X118566667Y-106574580D02*
X118614286Y-106622200D01*
X118614286Y-106622200D02*
X118566667Y-106669819D01*
X118566667Y-106669819D02*
X118519048Y-106622200D01*
X118519048Y-106622200D02*
X118566667Y-106574580D01*
X118566667Y-106574580D02*
X118566667Y-106669819D01*
X100919048Y-106302228D02*
X101061905Y-106349847D01*
X101061905Y-106349847D02*
X101300000Y-106349847D01*
X101300000Y-106349847D02*
X101395238Y-106302228D01*
X101395238Y-106302228D02*
X101442857Y-106254608D01*
X101442857Y-106254608D02*
X101490476Y-106159370D01*
X101490476Y-106159370D02*
X101490476Y-106064132D01*
X101490476Y-106064132D02*
X101442857Y-105968894D01*
X101442857Y-105968894D02*
X101395238Y-105921275D01*
X101395238Y-105921275D02*
X101300000Y-105873656D01*
X101300000Y-105873656D02*
X101109524Y-105826037D01*
X101109524Y-105826037D02*
X101014286Y-105778418D01*
X101014286Y-105778418D02*
X100966667Y-105730799D01*
X100966667Y-105730799D02*
X100919048Y-105635561D01*
X100919048Y-105635561D02*
X100919048Y-105540323D01*
X100919048Y-105540323D02*
X100966667Y-105445085D01*
X100966667Y-105445085D02*
X101014286Y-105397466D01*
X101014286Y-105397466D02*
X101109524Y-105349847D01*
X101109524Y-105349847D02*
X101347619Y-105349847D01*
X101347619Y-105349847D02*
X101490476Y-105397466D01*
X101776191Y-105349847D02*
X102347619Y-105349847D01*
X102061905Y-106349847D02*
X102061905Y-105349847D01*
X103252381Y-106349847D02*
X102919048Y-105873656D01*
X102680953Y-106349847D02*
X102680953Y-105349847D01*
X102680953Y-105349847D02*
X103061905Y-105349847D01*
X103061905Y-105349847D02*
X103157143Y-105397466D01*
X103157143Y-105397466D02*
X103204762Y-105445085D01*
X103204762Y-105445085D02*
X103252381Y-105540323D01*
X103252381Y-105540323D02*
X103252381Y-105683180D01*
X103252381Y-105683180D02*
X103204762Y-105778418D01*
X103204762Y-105778418D02*
X103157143Y-105826037D01*
X103157143Y-105826037D02*
X103061905Y-105873656D01*
X103061905Y-105873656D02*
X102680953Y-105873656D01*
X103680953Y-106349847D02*
X103680953Y-105349847D01*
X104157143Y-106349847D02*
X104157143Y-105349847D01*
X104157143Y-105349847D02*
X104538095Y-105349847D01*
X104538095Y-105349847D02*
X104633333Y-105397466D01*
X104633333Y-105397466D02*
X104680952Y-105445085D01*
X104680952Y-105445085D02*
X104728571Y-105540323D01*
X104728571Y-105540323D02*
X104728571Y-105683180D01*
X104728571Y-105683180D02*
X104680952Y-105778418D01*
X104680952Y-105778418D02*
X104633333Y-105826037D01*
X104633333Y-105826037D02*
X104538095Y-105873656D01*
X104538095Y-105873656D02*
X104157143Y-105873656D01*
X105061905Y-105349847D02*
X105680952Y-105349847D01*
X105680952Y-105349847D02*
X105347619Y-105730799D01*
X105347619Y-105730799D02*
X105490476Y-105730799D01*
X105490476Y-105730799D02*
X105585714Y-105778418D01*
X105585714Y-105778418D02*
X105633333Y-105826037D01*
X105633333Y-105826037D02*
X105680952Y-105921275D01*
X105680952Y-105921275D02*
X105680952Y-106159370D01*
X105680952Y-106159370D02*
X105633333Y-106254608D01*
X105633333Y-106254608D02*
X105585714Y-106302228D01*
X105585714Y-106302228D02*
X105490476Y-106349847D01*
X105490476Y-106349847D02*
X105204762Y-106349847D01*
X105204762Y-106349847D02*
X105109524Y-106302228D01*
X105109524Y-106302228D02*
X105061905Y-106254608D01*
X102538095Y-107007410D02*
X102442857Y-106959791D01*
X102442857Y-106959791D02*
X102300000Y-106959791D01*
X102300000Y-106959791D02*
X102157143Y-107007410D01*
X102157143Y-107007410D02*
X102061905Y-107102648D01*
X102061905Y-107102648D02*
X102014286Y-107197886D01*
X102014286Y-107197886D02*
X101966667Y-107388362D01*
X101966667Y-107388362D02*
X101966667Y-107531219D01*
X101966667Y-107531219D02*
X102014286Y-107721695D01*
X102014286Y-107721695D02*
X102061905Y-107816933D01*
X102061905Y-107816933D02*
X102157143Y-107912172D01*
X102157143Y-107912172D02*
X102300000Y-107959791D01*
X102300000Y-107959791D02*
X102395238Y-107959791D01*
X102395238Y-107959791D02*
X102538095Y-107912172D01*
X102538095Y-107912172D02*
X102585714Y-107864552D01*
X102585714Y-107864552D02*
X102585714Y-107531219D01*
X102585714Y-107531219D02*
X102395238Y-107531219D01*
X103014286Y-107959791D02*
X103014286Y-106959791D01*
X103014286Y-106959791D02*
X103585714Y-107959791D01*
X103585714Y-107959791D02*
X103585714Y-106959791D01*
X104061905Y-107959791D02*
X104061905Y-106959791D01*
X104061905Y-106959791D02*
X104300000Y-106959791D01*
X104300000Y-106959791D02*
X104442857Y-107007410D01*
X104442857Y-107007410D02*
X104538095Y-107102648D01*
X104538095Y-107102648D02*
X104585714Y-107197886D01*
X104585714Y-107197886D02*
X104633333Y-107388362D01*
X104633333Y-107388362D02*
X104633333Y-107531219D01*
X104633333Y-107531219D02*
X104585714Y-107721695D01*
X104585714Y-107721695D02*
X104538095Y-107816933D01*
X104538095Y-107816933D02*
X104442857Y-107912172D01*
X104442857Y-107912172D02*
X104300000Y-107959791D01*
X104300000Y-107959791D02*
X104061905Y-107959791D01*
X179722200Y-144128571D02*
X179769819Y-143985714D01*
X179769819Y-143985714D02*
X179769819Y-143747619D01*
X179769819Y-143747619D02*
X179722200Y-143652381D01*
X179722200Y-143652381D02*
X179674580Y-143604762D01*
X179674580Y-143604762D02*
X179579342Y-143557143D01*
X179579342Y-143557143D02*
X179484104Y-143557143D01*
X179484104Y-143557143D02*
X179388866Y-143604762D01*
X179388866Y-143604762D02*
X179341247Y-143652381D01*
X179341247Y-143652381D02*
X179293628Y-143747619D01*
X179293628Y-143747619D02*
X179246009Y-143938095D01*
X179246009Y-143938095D02*
X179198390Y-144033333D01*
X179198390Y-144033333D02*
X179150771Y-144080952D01*
X179150771Y-144080952D02*
X179055533Y-144128571D01*
X179055533Y-144128571D02*
X178960295Y-144128571D01*
X178960295Y-144128571D02*
X178865057Y-144080952D01*
X178865057Y-144080952D02*
X178817438Y-144033333D01*
X178817438Y-144033333D02*
X178769819Y-143938095D01*
X178769819Y-143938095D02*
X178769819Y-143700000D01*
X178769819Y-143700000D02*
X178817438Y-143557143D01*
X179103152Y-143271428D02*
X179103152Y-142890476D01*
X178769819Y-143128571D02*
X179626961Y-143128571D01*
X179626961Y-143128571D02*
X179722200Y-143080952D01*
X179722200Y-143080952D02*
X179769819Y-142985714D01*
X179769819Y-142985714D02*
X179769819Y-142890476D01*
X179769819Y-142557142D02*
X179103152Y-142557142D01*
X179293628Y-142557142D02*
X179198390Y-142509523D01*
X179198390Y-142509523D02*
X179150771Y-142461904D01*
X179150771Y-142461904D02*
X179103152Y-142366666D01*
X179103152Y-142366666D02*
X179103152Y-142271428D01*
X179769819Y-141938094D02*
X179103152Y-141938094D01*
X178769819Y-141938094D02*
X178817438Y-141985713D01*
X178817438Y-141985713D02*
X178865057Y-141938094D01*
X178865057Y-141938094D02*
X178817438Y-141890475D01*
X178817438Y-141890475D02*
X178769819Y-141938094D01*
X178769819Y-141938094D02*
X178865057Y-141938094D01*
X179103152Y-141461904D02*
X180103152Y-141461904D01*
X179150771Y-141461904D02*
X179103152Y-141366666D01*
X179103152Y-141366666D02*
X179103152Y-141176190D01*
X179103152Y-141176190D02*
X179150771Y-141080952D01*
X179150771Y-141080952D02*
X179198390Y-141033333D01*
X179198390Y-141033333D02*
X179293628Y-140985714D01*
X179293628Y-140985714D02*
X179579342Y-140985714D01*
X179579342Y-140985714D02*
X179674580Y-141033333D01*
X179674580Y-141033333D02*
X179722200Y-141080952D01*
X179722200Y-141080952D02*
X179769819Y-141176190D01*
X179769819Y-141176190D02*
X179769819Y-141366666D01*
X179769819Y-141366666D02*
X179722200Y-141461904D01*
X179198390Y-139652380D02*
X179150771Y-139747618D01*
X179150771Y-139747618D02*
X179103152Y-139795237D01*
X179103152Y-139795237D02*
X179007914Y-139842856D01*
X179007914Y-139842856D02*
X178960295Y-139842856D01*
X178960295Y-139842856D02*
X178865057Y-139795237D01*
X178865057Y-139795237D02*
X178817438Y-139747618D01*
X178817438Y-139747618D02*
X178769819Y-139652380D01*
X178769819Y-139652380D02*
X178769819Y-139461904D01*
X178769819Y-139461904D02*
X178817438Y-139366666D01*
X178817438Y-139366666D02*
X178865057Y-139319047D01*
X178865057Y-139319047D02*
X178960295Y-139271428D01*
X178960295Y-139271428D02*
X179007914Y-139271428D01*
X179007914Y-139271428D02*
X179103152Y-139319047D01*
X179103152Y-139319047D02*
X179150771Y-139366666D01*
X179150771Y-139366666D02*
X179198390Y-139461904D01*
X179198390Y-139461904D02*
X179198390Y-139652380D01*
X179198390Y-139652380D02*
X179246009Y-139747618D01*
X179246009Y-139747618D02*
X179293628Y-139795237D01*
X179293628Y-139795237D02*
X179388866Y-139842856D01*
X179388866Y-139842856D02*
X179579342Y-139842856D01*
X179579342Y-139842856D02*
X179674580Y-139795237D01*
X179674580Y-139795237D02*
X179722200Y-139747618D01*
X179722200Y-139747618D02*
X179769819Y-139652380D01*
X179769819Y-139652380D02*
X179769819Y-139461904D01*
X179769819Y-139461904D02*
X179722200Y-139366666D01*
X179722200Y-139366666D02*
X179674580Y-139319047D01*
X179674580Y-139319047D02*
X179579342Y-139271428D01*
X179579342Y-139271428D02*
X179388866Y-139271428D01*
X179388866Y-139271428D02*
X179293628Y-139319047D01*
X179293628Y-139319047D02*
X179246009Y-139366666D01*
X179246009Y-139366666D02*
X179198390Y-139461904D01*
X110922200Y-120328571D02*
X110969819Y-120185714D01*
X110969819Y-120185714D02*
X110969819Y-119947619D01*
X110969819Y-119947619D02*
X110922200Y-119852381D01*
X110922200Y-119852381D02*
X110874580Y-119804762D01*
X110874580Y-119804762D02*
X110779342Y-119757143D01*
X110779342Y-119757143D02*
X110684104Y-119757143D01*
X110684104Y-119757143D02*
X110588866Y-119804762D01*
X110588866Y-119804762D02*
X110541247Y-119852381D01*
X110541247Y-119852381D02*
X110493628Y-119947619D01*
X110493628Y-119947619D02*
X110446009Y-120138095D01*
X110446009Y-120138095D02*
X110398390Y-120233333D01*
X110398390Y-120233333D02*
X110350771Y-120280952D01*
X110350771Y-120280952D02*
X110255533Y-120328571D01*
X110255533Y-120328571D02*
X110160295Y-120328571D01*
X110160295Y-120328571D02*
X110065057Y-120280952D01*
X110065057Y-120280952D02*
X110017438Y-120233333D01*
X110017438Y-120233333D02*
X109969819Y-120138095D01*
X109969819Y-120138095D02*
X109969819Y-119900000D01*
X109969819Y-119900000D02*
X110017438Y-119757143D01*
X110303152Y-119471428D02*
X110303152Y-119090476D01*
X109969819Y-119328571D02*
X110826961Y-119328571D01*
X110826961Y-119328571D02*
X110922200Y-119280952D01*
X110922200Y-119280952D02*
X110969819Y-119185714D01*
X110969819Y-119185714D02*
X110969819Y-119090476D01*
X110969819Y-118757142D02*
X110303152Y-118757142D01*
X110493628Y-118757142D02*
X110398390Y-118709523D01*
X110398390Y-118709523D02*
X110350771Y-118661904D01*
X110350771Y-118661904D02*
X110303152Y-118566666D01*
X110303152Y-118566666D02*
X110303152Y-118471428D01*
X110969819Y-118138094D02*
X110303152Y-118138094D01*
X109969819Y-118138094D02*
X110017438Y-118185713D01*
X110017438Y-118185713D02*
X110065057Y-118138094D01*
X110065057Y-118138094D02*
X110017438Y-118090475D01*
X110017438Y-118090475D02*
X109969819Y-118138094D01*
X109969819Y-118138094D02*
X110065057Y-118138094D01*
X110303152Y-117661904D02*
X111303152Y-117661904D01*
X110350771Y-117661904D02*
X110303152Y-117566666D01*
X110303152Y-117566666D02*
X110303152Y-117376190D01*
X110303152Y-117376190D02*
X110350771Y-117280952D01*
X110350771Y-117280952D02*
X110398390Y-117233333D01*
X110398390Y-117233333D02*
X110493628Y-117185714D01*
X110493628Y-117185714D02*
X110779342Y-117185714D01*
X110779342Y-117185714D02*
X110874580Y-117233333D01*
X110874580Y-117233333D02*
X110922200Y-117280952D01*
X110922200Y-117280952D02*
X110969819Y-117376190D01*
X110969819Y-117376190D02*
X110969819Y-117566666D01*
X110969819Y-117566666D02*
X110922200Y-117661904D01*
X109969819Y-116090475D02*
X109969819Y-115471428D01*
X109969819Y-115471428D02*
X110350771Y-115804761D01*
X110350771Y-115804761D02*
X110350771Y-115661904D01*
X110350771Y-115661904D02*
X110398390Y-115566666D01*
X110398390Y-115566666D02*
X110446009Y-115519047D01*
X110446009Y-115519047D02*
X110541247Y-115471428D01*
X110541247Y-115471428D02*
X110779342Y-115471428D01*
X110779342Y-115471428D02*
X110874580Y-115519047D01*
X110874580Y-115519047D02*
X110922200Y-115566666D01*
X110922200Y-115566666D02*
X110969819Y-115661904D01*
X110969819Y-115661904D02*
X110969819Y-115947618D01*
X110969819Y-115947618D02*
X110922200Y-116042856D01*
X110922200Y-116042856D02*
X110874580Y-116090475D01*
X124369819Y-108619047D02*
X124369819Y-108428571D01*
X124369819Y-108428571D02*
X124417438Y-108333333D01*
X124417438Y-108333333D02*
X124512676Y-108238095D01*
X124512676Y-108238095D02*
X124703152Y-108190476D01*
X124703152Y-108190476D02*
X125036485Y-108190476D01*
X125036485Y-108190476D02*
X125226961Y-108238095D01*
X125226961Y-108238095D02*
X125322200Y-108333333D01*
X125322200Y-108333333D02*
X125369819Y-108428571D01*
X125369819Y-108428571D02*
X125369819Y-108619047D01*
X125369819Y-108619047D02*
X125322200Y-108714285D01*
X125322200Y-108714285D02*
X125226961Y-108809523D01*
X125226961Y-108809523D02*
X125036485Y-108857142D01*
X125036485Y-108857142D02*
X124703152Y-108857142D01*
X124703152Y-108857142D02*
X124512676Y-108809523D01*
X124512676Y-108809523D02*
X124417438Y-108714285D01*
X124417438Y-108714285D02*
X124369819Y-108619047D01*
X125369819Y-107761904D02*
X124369819Y-107761904D01*
X124369819Y-107761904D02*
X125369819Y-107190476D01*
X125369819Y-107190476D02*
X124369819Y-107190476D01*
X179722200Y-120328571D02*
X179769819Y-120185714D01*
X179769819Y-120185714D02*
X179769819Y-119947619D01*
X179769819Y-119947619D02*
X179722200Y-119852381D01*
X179722200Y-119852381D02*
X179674580Y-119804762D01*
X179674580Y-119804762D02*
X179579342Y-119757143D01*
X179579342Y-119757143D02*
X179484104Y-119757143D01*
X179484104Y-119757143D02*
X179388866Y-119804762D01*
X179388866Y-119804762D02*
X179341247Y-119852381D01*
X179341247Y-119852381D02*
X179293628Y-119947619D01*
X179293628Y-119947619D02*
X179246009Y-120138095D01*
X179246009Y-120138095D02*
X179198390Y-120233333D01*
X179198390Y-120233333D02*
X179150771Y-120280952D01*
X179150771Y-120280952D02*
X179055533Y-120328571D01*
X179055533Y-120328571D02*
X178960295Y-120328571D01*
X178960295Y-120328571D02*
X178865057Y-120280952D01*
X178865057Y-120280952D02*
X178817438Y-120233333D01*
X178817438Y-120233333D02*
X178769819Y-120138095D01*
X178769819Y-120138095D02*
X178769819Y-119900000D01*
X178769819Y-119900000D02*
X178817438Y-119757143D01*
X179103152Y-119471428D02*
X179103152Y-119090476D01*
X178769819Y-119328571D02*
X179626961Y-119328571D01*
X179626961Y-119328571D02*
X179722200Y-119280952D01*
X179722200Y-119280952D02*
X179769819Y-119185714D01*
X179769819Y-119185714D02*
X179769819Y-119090476D01*
X179769819Y-118757142D02*
X179103152Y-118757142D01*
X179293628Y-118757142D02*
X179198390Y-118709523D01*
X179198390Y-118709523D02*
X179150771Y-118661904D01*
X179150771Y-118661904D02*
X179103152Y-118566666D01*
X179103152Y-118566666D02*
X179103152Y-118471428D01*
X179769819Y-118138094D02*
X179103152Y-118138094D01*
X178769819Y-118138094D02*
X178817438Y-118185713D01*
X178817438Y-118185713D02*
X178865057Y-118138094D01*
X178865057Y-118138094D02*
X178817438Y-118090475D01*
X178817438Y-118090475D02*
X178769819Y-118138094D01*
X178769819Y-118138094D02*
X178865057Y-118138094D01*
X179103152Y-117661904D02*
X180103152Y-117661904D01*
X179150771Y-117661904D02*
X179103152Y-117566666D01*
X179103152Y-117566666D02*
X179103152Y-117376190D01*
X179103152Y-117376190D02*
X179150771Y-117280952D01*
X179150771Y-117280952D02*
X179198390Y-117233333D01*
X179198390Y-117233333D02*
X179293628Y-117185714D01*
X179293628Y-117185714D02*
X179579342Y-117185714D01*
X179579342Y-117185714D02*
X179674580Y-117233333D01*
X179674580Y-117233333D02*
X179722200Y-117280952D01*
X179722200Y-117280952D02*
X179769819Y-117376190D01*
X179769819Y-117376190D02*
X179769819Y-117566666D01*
X179769819Y-117566666D02*
X179722200Y-117661904D01*
X178769819Y-115566666D02*
X178769819Y-115757142D01*
X178769819Y-115757142D02*
X178817438Y-115852380D01*
X178817438Y-115852380D02*
X178865057Y-115899999D01*
X178865057Y-115899999D02*
X179007914Y-115995237D01*
X179007914Y-115995237D02*
X179198390Y-116042856D01*
X179198390Y-116042856D02*
X179579342Y-116042856D01*
X179579342Y-116042856D02*
X179674580Y-115995237D01*
X179674580Y-115995237D02*
X179722200Y-115947618D01*
X179722200Y-115947618D02*
X179769819Y-115852380D01*
X179769819Y-115852380D02*
X179769819Y-115661904D01*
X179769819Y-115661904D02*
X179722200Y-115566666D01*
X179722200Y-115566666D02*
X179674580Y-115519047D01*
X179674580Y-115519047D02*
X179579342Y-115471428D01*
X179579342Y-115471428D02*
X179341247Y-115471428D01*
X179341247Y-115471428D02*
X179246009Y-115519047D01*
X179246009Y-115519047D02*
X179198390Y-115566666D01*
X179198390Y-115566666D02*
X179150771Y-115661904D01*
X179150771Y-115661904D02*
X179150771Y-115852380D01*
X179150771Y-115852380D02*
X179198390Y-115947618D01*
X179198390Y-115947618D02*
X179246009Y-115995237D01*
X179246009Y-115995237D02*
X179341247Y-116042856D01*
X179722200Y-108328571D02*
X179769819Y-108185714D01*
X179769819Y-108185714D02*
X179769819Y-107947619D01*
X179769819Y-107947619D02*
X179722200Y-107852381D01*
X179722200Y-107852381D02*
X179674580Y-107804762D01*
X179674580Y-107804762D02*
X179579342Y-107757143D01*
X179579342Y-107757143D02*
X179484104Y-107757143D01*
X179484104Y-107757143D02*
X179388866Y-107804762D01*
X179388866Y-107804762D02*
X179341247Y-107852381D01*
X179341247Y-107852381D02*
X179293628Y-107947619D01*
X179293628Y-107947619D02*
X179246009Y-108138095D01*
X179246009Y-108138095D02*
X179198390Y-108233333D01*
X179198390Y-108233333D02*
X179150771Y-108280952D01*
X179150771Y-108280952D02*
X179055533Y-108328571D01*
X179055533Y-108328571D02*
X178960295Y-108328571D01*
X178960295Y-108328571D02*
X178865057Y-108280952D01*
X178865057Y-108280952D02*
X178817438Y-108233333D01*
X178817438Y-108233333D02*
X178769819Y-108138095D01*
X178769819Y-108138095D02*
X178769819Y-107900000D01*
X178769819Y-107900000D02*
X178817438Y-107757143D01*
X179103152Y-107471428D02*
X179103152Y-107090476D01*
X178769819Y-107328571D02*
X179626961Y-107328571D01*
X179626961Y-107328571D02*
X179722200Y-107280952D01*
X179722200Y-107280952D02*
X179769819Y-107185714D01*
X179769819Y-107185714D02*
X179769819Y-107090476D01*
X179769819Y-106757142D02*
X179103152Y-106757142D01*
X179293628Y-106757142D02*
X179198390Y-106709523D01*
X179198390Y-106709523D02*
X179150771Y-106661904D01*
X179150771Y-106661904D02*
X179103152Y-106566666D01*
X179103152Y-106566666D02*
X179103152Y-106471428D01*
X179769819Y-106138094D02*
X179103152Y-106138094D01*
X178769819Y-106138094D02*
X178817438Y-106185713D01*
X178817438Y-106185713D02*
X178865057Y-106138094D01*
X178865057Y-106138094D02*
X178817438Y-106090475D01*
X178817438Y-106090475D02*
X178769819Y-106138094D01*
X178769819Y-106138094D02*
X178865057Y-106138094D01*
X179103152Y-105661904D02*
X180103152Y-105661904D01*
X179150771Y-105661904D02*
X179103152Y-105566666D01*
X179103152Y-105566666D02*
X179103152Y-105376190D01*
X179103152Y-105376190D02*
X179150771Y-105280952D01*
X179150771Y-105280952D02*
X179198390Y-105233333D01*
X179198390Y-105233333D02*
X179293628Y-105185714D01*
X179293628Y-105185714D02*
X179579342Y-105185714D01*
X179579342Y-105185714D02*
X179674580Y-105233333D01*
X179674580Y-105233333D02*
X179722200Y-105280952D01*
X179722200Y-105280952D02*
X179769819Y-105376190D01*
X179769819Y-105376190D02*
X179769819Y-105566666D01*
X179769819Y-105566666D02*
X179722200Y-105661904D01*
X178769819Y-103519047D02*
X178769819Y-103995237D01*
X178769819Y-103995237D02*
X179246009Y-104042856D01*
X179246009Y-104042856D02*
X179198390Y-103995237D01*
X179198390Y-103995237D02*
X179150771Y-103899999D01*
X179150771Y-103899999D02*
X179150771Y-103661904D01*
X179150771Y-103661904D02*
X179198390Y-103566666D01*
X179198390Y-103566666D02*
X179246009Y-103519047D01*
X179246009Y-103519047D02*
X179341247Y-103471428D01*
X179341247Y-103471428D02*
X179579342Y-103471428D01*
X179579342Y-103471428D02*
X179674580Y-103519047D01*
X179674580Y-103519047D02*
X179722200Y-103566666D01*
X179722200Y-103566666D02*
X179769819Y-103661904D01*
X179769819Y-103661904D02*
X179769819Y-103899999D01*
X179769819Y-103899999D02*
X179722200Y-103995237D01*
X179722200Y-103995237D02*
X179674580Y-104042856D01*
D11*
X101050000Y-146678328D02*
X101335714Y-146678328D01*
X101335714Y-146678328D02*
X101478571Y-146749757D01*
X101478571Y-146749757D02*
X101621428Y-146892614D01*
X101621428Y-146892614D02*
X101692857Y-147178328D01*
X101692857Y-147178328D02*
X101692857Y-147678328D01*
X101692857Y-147678328D02*
X101621428Y-147964042D01*
X101621428Y-147964042D02*
X101478571Y-148106900D01*
X101478571Y-148106900D02*
X101335714Y-148178328D01*
X101335714Y-148178328D02*
X101050000Y-148178328D01*
X101050000Y-148178328D02*
X100907143Y-148106900D01*
X100907143Y-148106900D02*
X100764285Y-147964042D01*
X100764285Y-147964042D02*
X100692857Y-147678328D01*
X100692857Y-147678328D02*
X100692857Y-147178328D01*
X100692857Y-147178328D02*
X100764285Y-146892614D01*
X100764285Y-146892614D02*
X100907143Y-146749757D01*
X100907143Y-146749757D02*
X101050000Y-146678328D01*
X102978572Y-148106900D02*
X102835714Y-148178328D01*
X102835714Y-148178328D02*
X102550000Y-148178328D01*
X102550000Y-148178328D02*
X102407143Y-148106900D01*
X102407143Y-148106900D02*
X102335714Y-148035471D01*
X102335714Y-148035471D02*
X102264286Y-147892614D01*
X102264286Y-147892614D02*
X102264286Y-147464042D01*
X102264286Y-147464042D02*
X102335714Y-147321185D01*
X102335714Y-147321185D02*
X102407143Y-147249757D01*
X102407143Y-147249757D02*
X102550000Y-147178328D01*
X102550000Y-147178328D02*
X102835714Y-147178328D01*
X102835714Y-147178328D02*
X102978572Y-147249757D01*
X103407143Y-147178328D02*
X103978571Y-147178328D01*
X103621428Y-146678328D02*
X103621428Y-147964042D01*
X103621428Y-147964042D02*
X103692857Y-148106900D01*
X103692857Y-148106900D02*
X103835714Y-148178328D01*
X103835714Y-148178328D02*
X103978571Y-148178328D01*
X105121429Y-148178328D02*
X105121429Y-147392614D01*
X105121429Y-147392614D02*
X105050000Y-147249757D01*
X105050000Y-147249757D02*
X104907143Y-147178328D01*
X104907143Y-147178328D02*
X104621429Y-147178328D01*
X104621429Y-147178328D02*
X104478571Y-147249757D01*
X105121429Y-148106900D02*
X104978571Y-148178328D01*
X104978571Y-148178328D02*
X104621429Y-148178328D01*
X104621429Y-148178328D02*
X104478571Y-148106900D01*
X104478571Y-148106900D02*
X104407143Y-147964042D01*
X104407143Y-147964042D02*
X104407143Y-147821185D01*
X104407143Y-147821185D02*
X104478571Y-147678328D01*
X104478571Y-147678328D02*
X104621429Y-147606900D01*
X104621429Y-147606900D02*
X104978571Y-147606900D01*
X104978571Y-147606900D02*
X105121429Y-147535471D01*
X106050000Y-148178328D02*
X105907143Y-148106900D01*
X105907143Y-148106900D02*
X105835714Y-147964042D01*
X105835714Y-147964042D02*
X105835714Y-146678328D01*
X107621428Y-146678328D02*
X107978571Y-148178328D01*
X107978571Y-148178328D02*
X108264285Y-147106900D01*
X108264285Y-147106900D02*
X108550000Y-148178328D01*
X108550000Y-148178328D02*
X108907143Y-146678328D01*
X110192857Y-148178328D02*
X109478571Y-148178328D01*
X109478571Y-148178328D02*
X109478571Y-146678328D01*
X110692857Y-147392614D02*
X111192857Y-147392614D01*
X111407143Y-148178328D02*
X110692857Y-148178328D01*
X110692857Y-148178328D02*
X110692857Y-146678328D01*
X110692857Y-146678328D02*
X111407143Y-146678328D01*
X112050000Y-148178328D02*
X112050000Y-146678328D01*
X112050000Y-146678328D02*
X112407143Y-146678328D01*
X112407143Y-146678328D02*
X112621429Y-146749757D01*
X112621429Y-146749757D02*
X112764286Y-146892614D01*
X112764286Y-146892614D02*
X112835715Y-147035471D01*
X112835715Y-147035471D02*
X112907143Y-147321185D01*
X112907143Y-147321185D02*
X112907143Y-147535471D01*
X112907143Y-147535471D02*
X112835715Y-147821185D01*
X112835715Y-147821185D02*
X112764286Y-147964042D01*
X112764286Y-147964042D02*
X112621429Y-148106900D01*
X112621429Y-148106900D02*
X112407143Y-148178328D01*
X112407143Y-148178328D02*
X112050000Y-148178328D01*
X114692857Y-148178328D02*
X114692857Y-146678328D01*
X114692857Y-146678328D02*
X115192857Y-147749757D01*
X115192857Y-147749757D02*
X115692857Y-146678328D01*
X115692857Y-146678328D02*
X115692857Y-148178328D01*
X116621429Y-148178328D02*
X116478572Y-148106900D01*
X116478572Y-148106900D02*
X116407143Y-148035471D01*
X116407143Y-148035471D02*
X116335715Y-147892614D01*
X116335715Y-147892614D02*
X116335715Y-147464042D01*
X116335715Y-147464042D02*
X116407143Y-147321185D01*
X116407143Y-147321185D02*
X116478572Y-147249757D01*
X116478572Y-147249757D02*
X116621429Y-147178328D01*
X116621429Y-147178328D02*
X116835715Y-147178328D01*
X116835715Y-147178328D02*
X116978572Y-147249757D01*
X116978572Y-147249757D02*
X117050001Y-147321185D01*
X117050001Y-147321185D02*
X117121429Y-147464042D01*
X117121429Y-147464042D02*
X117121429Y-147892614D01*
X117121429Y-147892614D02*
X117050001Y-148035471D01*
X117050001Y-148035471D02*
X116978572Y-148106900D01*
X116978572Y-148106900D02*
X116835715Y-148178328D01*
X116835715Y-148178328D02*
X116621429Y-148178328D01*
X118407144Y-148178328D02*
X118407144Y-146678328D01*
X118407144Y-148106900D02*
X118264286Y-148178328D01*
X118264286Y-148178328D02*
X117978572Y-148178328D01*
X117978572Y-148178328D02*
X117835715Y-148106900D01*
X117835715Y-148106900D02*
X117764286Y-148035471D01*
X117764286Y-148035471D02*
X117692858Y-147892614D01*
X117692858Y-147892614D02*
X117692858Y-147464042D01*
X117692858Y-147464042D02*
X117764286Y-147321185D01*
X117764286Y-147321185D02*
X117835715Y-147249757D01*
X117835715Y-147249757D02*
X117978572Y-147178328D01*
X117978572Y-147178328D02*
X118264286Y-147178328D01*
X118264286Y-147178328D02*
X118407144Y-147249757D01*
X119764287Y-147178328D02*
X119764287Y-148178328D01*
X119121429Y-147178328D02*
X119121429Y-147964042D01*
X119121429Y-147964042D02*
X119192858Y-148106900D01*
X119192858Y-148106900D02*
X119335715Y-148178328D01*
X119335715Y-148178328D02*
X119550001Y-148178328D01*
X119550001Y-148178328D02*
X119692858Y-148106900D01*
X119692858Y-148106900D02*
X119764287Y-148035471D01*
X120692858Y-148178328D02*
X120550001Y-148106900D01*
X120550001Y-148106900D02*
X120478572Y-147964042D01*
X120478572Y-147964042D02*
X120478572Y-146678328D01*
X121835715Y-148106900D02*
X121692858Y-148178328D01*
X121692858Y-148178328D02*
X121407144Y-148178328D01*
X121407144Y-148178328D02*
X121264286Y-148106900D01*
X121264286Y-148106900D02*
X121192858Y-147964042D01*
X121192858Y-147964042D02*
X121192858Y-147392614D01*
X121192858Y-147392614D02*
X121264286Y-147249757D01*
X121264286Y-147249757D02*
X121407144Y-147178328D01*
X121407144Y-147178328D02*
X121692858Y-147178328D01*
X121692858Y-147178328D02*
X121835715Y-147249757D01*
X121835715Y-147249757D02*
X121907144Y-147392614D01*
X121907144Y-147392614D02*
X121907144Y-147535471D01*
X121907144Y-147535471D02*
X121192858Y-147678328D01*
D10*
X120969819Y-108952380D02*
X120969819Y-108761904D01*
X120969819Y-108761904D02*
X121017438Y-108666666D01*
X121017438Y-108666666D02*
X121112676Y-108571428D01*
X121112676Y-108571428D02*
X121303152Y-108523809D01*
X121303152Y-108523809D02*
X121636485Y-108523809D01*
X121636485Y-108523809D02*
X121826961Y-108571428D01*
X121826961Y-108571428D02*
X121922200Y-108666666D01*
X121922200Y-108666666D02*
X121969819Y-108761904D01*
X121969819Y-108761904D02*
X121969819Y-108952380D01*
X121969819Y-108952380D02*
X121922200Y-109047618D01*
X121922200Y-109047618D02*
X121826961Y-109142856D01*
X121826961Y-109142856D02*
X121636485Y-109190475D01*
X121636485Y-109190475D02*
X121303152Y-109190475D01*
X121303152Y-109190475D02*
X121112676Y-109142856D01*
X121112676Y-109142856D02*
X121017438Y-109047618D01*
X121017438Y-109047618D02*
X120969819Y-108952380D01*
X121446009Y-107761904D02*
X121446009Y-108095237D01*
X121969819Y-108095237D02*
X120969819Y-108095237D01*
X120969819Y-108095237D02*
X120969819Y-107619047D01*
X121446009Y-106904761D02*
X121446009Y-107238094D01*
X121969819Y-107238094D02*
X120969819Y-107238094D01*
X120969819Y-107238094D02*
X120969819Y-106761904D01*
X105619048Y-135302228D02*
X105761905Y-135349847D01*
X105761905Y-135349847D02*
X106000000Y-135349847D01*
X106000000Y-135349847D02*
X106095238Y-135302228D01*
X106095238Y-135302228D02*
X106142857Y-135254608D01*
X106142857Y-135254608D02*
X106190476Y-135159370D01*
X106190476Y-135159370D02*
X106190476Y-135064132D01*
X106190476Y-135064132D02*
X106142857Y-134968894D01*
X106142857Y-134968894D02*
X106095238Y-134921275D01*
X106095238Y-134921275D02*
X106000000Y-134873656D01*
X106000000Y-134873656D02*
X105809524Y-134826037D01*
X105809524Y-134826037D02*
X105714286Y-134778418D01*
X105714286Y-134778418D02*
X105666667Y-134730799D01*
X105666667Y-134730799D02*
X105619048Y-134635561D01*
X105619048Y-134635561D02*
X105619048Y-134540323D01*
X105619048Y-134540323D02*
X105666667Y-134445085D01*
X105666667Y-134445085D02*
X105714286Y-134397466D01*
X105714286Y-134397466D02*
X105809524Y-134349847D01*
X105809524Y-134349847D02*
X106047619Y-134349847D01*
X106047619Y-134349847D02*
X106190476Y-134397466D01*
X106476191Y-134349847D02*
X107047619Y-134349847D01*
X106761905Y-135349847D02*
X106761905Y-134349847D01*
X107952381Y-135349847D02*
X107619048Y-134873656D01*
X107380953Y-135349847D02*
X107380953Y-134349847D01*
X107380953Y-134349847D02*
X107761905Y-134349847D01*
X107761905Y-134349847D02*
X107857143Y-134397466D01*
X107857143Y-134397466D02*
X107904762Y-134445085D01*
X107904762Y-134445085D02*
X107952381Y-134540323D01*
X107952381Y-134540323D02*
X107952381Y-134683180D01*
X107952381Y-134683180D02*
X107904762Y-134778418D01*
X107904762Y-134778418D02*
X107857143Y-134826037D01*
X107857143Y-134826037D02*
X107761905Y-134873656D01*
X107761905Y-134873656D02*
X107380953Y-134873656D01*
X108380953Y-135349847D02*
X108380953Y-134349847D01*
X108857143Y-135349847D02*
X108857143Y-134349847D01*
X108857143Y-134349847D02*
X109238095Y-134349847D01*
X109238095Y-134349847D02*
X109333333Y-134397466D01*
X109333333Y-134397466D02*
X109380952Y-134445085D01*
X109380952Y-134445085D02*
X109428571Y-134540323D01*
X109428571Y-134540323D02*
X109428571Y-134683180D01*
X109428571Y-134683180D02*
X109380952Y-134778418D01*
X109380952Y-134778418D02*
X109333333Y-134826037D01*
X109333333Y-134826037D02*
X109238095Y-134873656D01*
X109238095Y-134873656D02*
X108857143Y-134873656D01*
X110380952Y-135349847D02*
X109809524Y-135349847D01*
X110095238Y-135349847D02*
X110095238Y-134349847D01*
X110095238Y-134349847D02*
X110000000Y-134492704D01*
X110000000Y-134492704D02*
X109904762Y-134587942D01*
X109904762Y-134587942D02*
X109809524Y-134635561D01*
X107238095Y-136007410D02*
X107142857Y-135959791D01*
X107142857Y-135959791D02*
X107000000Y-135959791D01*
X107000000Y-135959791D02*
X106857143Y-136007410D01*
X106857143Y-136007410D02*
X106761905Y-136102648D01*
X106761905Y-136102648D02*
X106714286Y-136197886D01*
X106714286Y-136197886D02*
X106666667Y-136388362D01*
X106666667Y-136388362D02*
X106666667Y-136531219D01*
X106666667Y-136531219D02*
X106714286Y-136721695D01*
X106714286Y-136721695D02*
X106761905Y-136816933D01*
X106761905Y-136816933D02*
X106857143Y-136912172D01*
X106857143Y-136912172D02*
X107000000Y-136959791D01*
X107000000Y-136959791D02*
X107095238Y-136959791D01*
X107095238Y-136959791D02*
X107238095Y-136912172D01*
X107238095Y-136912172D02*
X107285714Y-136864552D01*
X107285714Y-136864552D02*
X107285714Y-136531219D01*
X107285714Y-136531219D02*
X107095238Y-136531219D01*
X107714286Y-136959791D02*
X107714286Y-135959791D01*
X107714286Y-135959791D02*
X108285714Y-136959791D01*
X108285714Y-136959791D02*
X108285714Y-135959791D01*
X108761905Y-136959791D02*
X108761905Y-135959791D01*
X108761905Y-135959791D02*
X109000000Y-135959791D01*
X109000000Y-135959791D02*
X109142857Y-136007410D01*
X109142857Y-136007410D02*
X109238095Y-136102648D01*
X109238095Y-136102648D02*
X109285714Y-136197886D01*
X109285714Y-136197886D02*
X109333333Y-136388362D01*
X109333333Y-136388362D02*
X109333333Y-136531219D01*
X109333333Y-136531219D02*
X109285714Y-136721695D01*
X109285714Y-136721695D02*
X109238095Y-136816933D01*
X109238095Y-136816933D02*
X109142857Y-136912172D01*
X109142857Y-136912172D02*
X109000000Y-136959791D01*
X109000000Y-136959791D02*
X108761905Y-136959791D01*
X156633333Y-108954819D02*
X156300000Y-108478628D01*
X156061905Y-108954819D02*
X156061905Y-107954819D01*
X156061905Y-107954819D02*
X156442857Y-107954819D01*
X156442857Y-107954819D02*
X156538095Y-108002438D01*
X156538095Y-108002438D02*
X156585714Y-108050057D01*
X156585714Y-108050057D02*
X156633333Y-108145295D01*
X156633333Y-108145295D02*
X156633333Y-108288152D01*
X156633333Y-108288152D02*
X156585714Y-108383390D01*
X156585714Y-108383390D02*
X156538095Y-108431009D01*
X156538095Y-108431009D02*
X156442857Y-108478628D01*
X156442857Y-108478628D02*
X156061905Y-108478628D01*
X156966667Y-107954819D02*
X157633333Y-108954819D01*
X157633333Y-107954819D02*
X156966667Y-108954819D01*
D11*
X172931203Y-106978328D02*
X172431203Y-106264042D01*
X172074060Y-106978328D02*
X172074060Y-105478328D01*
X172074060Y-105478328D02*
X172645489Y-105478328D01*
X172645489Y-105478328D02*
X172788346Y-105549757D01*
X172788346Y-105549757D02*
X172859775Y-105621185D01*
X172859775Y-105621185D02*
X172931203Y-105764042D01*
X172931203Y-105764042D02*
X172931203Y-105978328D01*
X172931203Y-105978328D02*
X172859775Y-106121185D01*
X172859775Y-106121185D02*
X172788346Y-106192614D01*
X172788346Y-106192614D02*
X172645489Y-106264042D01*
X172645489Y-106264042D02*
X172074060Y-106264042D01*
X173574060Y-106192614D02*
X174074060Y-106192614D01*
X174288346Y-106978328D02*
X173574060Y-106978328D01*
X173574060Y-106978328D02*
X173574060Y-105478328D01*
X173574060Y-105478328D02*
X174288346Y-105478328D01*
X174859775Y-106906900D02*
X175074061Y-106978328D01*
X175074061Y-106978328D02*
X175431203Y-106978328D01*
X175431203Y-106978328D02*
X175574061Y-106906900D01*
X175574061Y-106906900D02*
X175645489Y-106835471D01*
X175645489Y-106835471D02*
X175716918Y-106692614D01*
X175716918Y-106692614D02*
X175716918Y-106549757D01*
X175716918Y-106549757D02*
X175645489Y-106406900D01*
X175645489Y-106406900D02*
X175574061Y-106335471D01*
X175574061Y-106335471D02*
X175431203Y-106264042D01*
X175431203Y-106264042D02*
X175145489Y-106192614D01*
X175145489Y-106192614D02*
X175002632Y-106121185D01*
X175002632Y-106121185D02*
X174931203Y-106049757D01*
X174931203Y-106049757D02*
X174859775Y-105906900D01*
X174859775Y-105906900D02*
X174859775Y-105764042D01*
X174859775Y-105764042D02*
X174931203Y-105621185D01*
X174931203Y-105621185D02*
X175002632Y-105549757D01*
X175002632Y-105549757D02*
X175145489Y-105478328D01*
X175145489Y-105478328D02*
X175502632Y-105478328D01*
X175502632Y-105478328D02*
X175716918Y-105549757D01*
X176359774Y-106192614D02*
X176859774Y-106192614D01*
X177074060Y-106978328D02*
X176359774Y-106978328D01*
X176359774Y-106978328D02*
X176359774Y-105478328D01*
X176359774Y-105478328D02*
X177074060Y-105478328D01*
X177502632Y-105478328D02*
X178359775Y-105478328D01*
X177931203Y-106978328D02*
X177931203Y-105478328D01*
D10*
X118157143Y-114654819D02*
X118157143Y-113654819D01*
X118252381Y-114273866D02*
X118538095Y-114654819D01*
X118538095Y-113988152D02*
X118157143Y-114369104D01*
X119490476Y-114654819D02*
X118919048Y-114654819D01*
X119204762Y-114654819D02*
X119204762Y-113654819D01*
X119204762Y-113654819D02*
X119109524Y-113797676D01*
X119109524Y-113797676D02*
X119014286Y-113892914D01*
X119014286Y-113892914D02*
X118919048Y-113940533D01*
X154554819Y-142842857D02*
X154554819Y-143414285D01*
X154554819Y-143128571D02*
X153554819Y-143128571D01*
X153554819Y-143128571D02*
X153697676Y-143223809D01*
X153697676Y-143223809D02*
X153792914Y-143319047D01*
X153792914Y-143319047D02*
X153840533Y-143414285D01*
X153554819Y-142223809D02*
X153554819Y-142128571D01*
X153554819Y-142128571D02*
X153602438Y-142033333D01*
X153602438Y-142033333D02*
X153650057Y-141985714D01*
X153650057Y-141985714D02*
X153745295Y-141938095D01*
X153745295Y-141938095D02*
X153935771Y-141890476D01*
X153935771Y-141890476D02*
X154173866Y-141890476D01*
X154173866Y-141890476D02*
X154364342Y-141938095D01*
X154364342Y-141938095D02*
X154459580Y-141985714D01*
X154459580Y-141985714D02*
X154507200Y-142033333D01*
X154507200Y-142033333D02*
X154554819Y-142128571D01*
X154554819Y-142128571D02*
X154554819Y-142223809D01*
X154554819Y-142223809D02*
X154507200Y-142319047D01*
X154507200Y-142319047D02*
X154459580Y-142366666D01*
X154459580Y-142366666D02*
X154364342Y-142414285D01*
X154364342Y-142414285D02*
X154173866Y-142461904D01*
X154173866Y-142461904D02*
X153935771Y-142461904D01*
X153935771Y-142461904D02*
X153745295Y-142414285D01*
X153745295Y-142414285D02*
X153650057Y-142366666D01*
X153650057Y-142366666D02*
X153602438Y-142319047D01*
X153602438Y-142319047D02*
X153554819Y-142223809D01*
X153888152Y-141033333D02*
X154554819Y-141033333D01*
X153888152Y-141461904D02*
X154411961Y-141461904D01*
X154411961Y-141461904D02*
X154507200Y-141414285D01*
X154507200Y-141414285D02*
X154554819Y-141319047D01*
X154554819Y-141319047D02*
X154554819Y-141176190D01*
X154554819Y-141176190D02*
X154507200Y-141080952D01*
X154507200Y-141080952D02*
X154459580Y-141033333D01*
X155888152Y-141861904D02*
X156554819Y-141861904D01*
X155888152Y-142290475D02*
X156411961Y-142290475D01*
X156411961Y-142290475D02*
X156507200Y-142242856D01*
X156507200Y-142242856D02*
X156554819Y-142147618D01*
X156554819Y-142147618D02*
X156554819Y-142004761D01*
X156554819Y-142004761D02*
X156507200Y-141909523D01*
X156507200Y-141909523D02*
X156459580Y-141861904D01*
X156554819Y-140861904D02*
X156554819Y-141433332D01*
X156554819Y-141147618D02*
X155554819Y-141147618D01*
X155554819Y-141147618D02*
X155697676Y-141242856D01*
X155697676Y-141242856D02*
X155792914Y-141338094D01*
X155792914Y-141338094D02*
X155840533Y-141433332D01*
X118354819Y-142295238D02*
X118354819Y-142866666D01*
X118354819Y-142580952D02*
X117354819Y-142580952D01*
X117354819Y-142580952D02*
X117497676Y-142676190D01*
X117497676Y-142676190D02*
X117592914Y-142771428D01*
X117592914Y-142771428D02*
X117640533Y-142866666D01*
X117354819Y-141676190D02*
X117354819Y-141580952D01*
X117354819Y-141580952D02*
X117402438Y-141485714D01*
X117402438Y-141485714D02*
X117450057Y-141438095D01*
X117450057Y-141438095D02*
X117545295Y-141390476D01*
X117545295Y-141390476D02*
X117735771Y-141342857D01*
X117735771Y-141342857D02*
X117973866Y-141342857D01*
X117973866Y-141342857D02*
X118164342Y-141390476D01*
X118164342Y-141390476D02*
X118259580Y-141438095D01*
X118259580Y-141438095D02*
X118307200Y-141485714D01*
X118307200Y-141485714D02*
X118354819Y-141580952D01*
X118354819Y-141580952D02*
X118354819Y-141676190D01*
X118354819Y-141676190D02*
X118307200Y-141771428D01*
X118307200Y-141771428D02*
X118259580Y-141819047D01*
X118259580Y-141819047D02*
X118164342Y-141866666D01*
X118164342Y-141866666D02*
X117973866Y-141914285D01*
X117973866Y-141914285D02*
X117735771Y-141914285D01*
X117735771Y-141914285D02*
X117545295Y-141866666D01*
X117545295Y-141866666D02*
X117450057Y-141819047D01*
X117450057Y-141819047D02*
X117402438Y-141771428D01*
X117402438Y-141771428D02*
X117354819Y-141676190D01*
X118354819Y-140914285D02*
X117354819Y-140914285D01*
X117973866Y-140819047D02*
X118354819Y-140533333D01*
X117688152Y-140533333D02*
X118069104Y-140914285D01*
X160454819Y-104892856D02*
X159454819Y-104892856D01*
X160073866Y-104797618D02*
X160454819Y-104511904D01*
X159788152Y-104511904D02*
X160169104Y-104892856D01*
X160454819Y-103559523D02*
X160454819Y-104130951D01*
X160454819Y-103845237D02*
X159454819Y-103845237D01*
X159454819Y-103845237D02*
X159597676Y-103940475D01*
X159597676Y-103940475D02*
X159692914Y-104035713D01*
X159692914Y-104035713D02*
X159740533Y-104130951D01*
X178738095Y-145888152D02*
X178738095Y-146554819D01*
X178309524Y-145888152D02*
X178309524Y-146411961D01*
X178309524Y-146411961D02*
X178357143Y-146507200D01*
X178357143Y-146507200D02*
X178452381Y-146554819D01*
X178452381Y-146554819D02*
X178595238Y-146554819D01*
X178595238Y-146554819D02*
X178690476Y-146507200D01*
X178690476Y-146507200D02*
X178738095Y-146459580D01*
X179738095Y-146554819D02*
X179166667Y-146554819D01*
X179452381Y-146554819D02*
X179452381Y-145554819D01*
X179452381Y-145554819D02*
X179357143Y-145697676D01*
X179357143Y-145697676D02*
X179261905Y-145792914D01*
X179261905Y-145792914D02*
X179166667Y-145840533D01*
X120254819Y-141842856D02*
X119254819Y-141842856D01*
X119873866Y-141747618D02*
X120254819Y-141461904D01*
X119588152Y-141461904D02*
X119969104Y-141842856D01*
X120254819Y-140509523D02*
X120254819Y-141080951D01*
X120254819Y-140795237D02*
X119254819Y-140795237D01*
X119254819Y-140795237D02*
X119397676Y-140890475D01*
X119397676Y-140890475D02*
X119492914Y-140985713D01*
X119492914Y-140985713D02*
X119540533Y-141080951D01*
X114640230Y-116485480D02*
X113640230Y-116485480D01*
X114259277Y-116390242D02*
X114640230Y-116104528D01*
X113973563Y-116104528D02*
X114354515Y-116485480D01*
X114640230Y-115152147D02*
X114640230Y-115723575D01*
X114640230Y-115437861D02*
X113640230Y-115437861D01*
X113640230Y-115437861D02*
X113783087Y-115533099D01*
X113783087Y-115533099D02*
X113878325Y-115628337D01*
X113878325Y-115628337D02*
X113925944Y-115723575D01*
X158788152Y-120361904D02*
X159454819Y-120361904D01*
X158788152Y-120790475D02*
X159311961Y-120790475D01*
X159311961Y-120790475D02*
X159407200Y-120742856D01*
X159407200Y-120742856D02*
X159454819Y-120647618D01*
X159454819Y-120647618D02*
X159454819Y-120504761D01*
X159454819Y-120504761D02*
X159407200Y-120409523D01*
X159407200Y-120409523D02*
X159359580Y-120361904D01*
X159454819Y-119361904D02*
X159454819Y-119933332D01*
X159454819Y-119647618D02*
X158454819Y-119647618D01*
X158454819Y-119647618D02*
X158597676Y-119742856D01*
X158597676Y-119742856D02*
X158692914Y-119838094D01*
X158692914Y-119838094D02*
X158740533Y-119933332D01*
X176657143Y-146554819D02*
X176657143Y-145554819D01*
X176752381Y-146173866D02*
X177038095Y-146554819D01*
X177038095Y-145888152D02*
X176657143Y-146269104D01*
X177990476Y-146554819D02*
X177419048Y-146554819D01*
X177704762Y-146554819D02*
X177704762Y-145554819D01*
X177704762Y-145554819D02*
X177609524Y-145697676D01*
X177609524Y-145697676D02*
X177514286Y-145792914D01*
X177514286Y-145792914D02*
X177419048Y-145840533D01*
X112004762Y-132269104D02*
X112480952Y-132269104D01*
X111909524Y-132554819D02*
X112242857Y-131554819D01*
X112242857Y-131554819D02*
X112576190Y-132554819D01*
X113100000Y-131554819D02*
X113290476Y-131554819D01*
X113290476Y-131554819D02*
X113385714Y-131602438D01*
X113385714Y-131602438D02*
X113480952Y-131697676D01*
X113480952Y-131697676D02*
X113528571Y-131888152D01*
X113528571Y-131888152D02*
X113528571Y-132221485D01*
X113528571Y-132221485D02*
X113480952Y-132411961D01*
X113480952Y-132411961D02*
X113385714Y-132507200D01*
X113385714Y-132507200D02*
X113290476Y-132554819D01*
X113290476Y-132554819D02*
X113100000Y-132554819D01*
X113100000Y-132554819D02*
X113004762Y-132507200D01*
X113004762Y-132507200D02*
X112909524Y-132411961D01*
X112909524Y-132411961D02*
X112861905Y-132221485D01*
X112861905Y-132221485D02*
X112861905Y-131888152D01*
X112861905Y-131888152D02*
X112909524Y-131697676D01*
X112909524Y-131697676D02*
X113004762Y-131602438D01*
X113004762Y-131602438D02*
X113100000Y-131554819D01*
X113861905Y-131554819D02*
X114480952Y-131554819D01*
X114480952Y-131554819D02*
X114147619Y-131935771D01*
X114147619Y-131935771D02*
X114290476Y-131935771D01*
X114290476Y-131935771D02*
X114385714Y-131983390D01*
X114385714Y-131983390D02*
X114433333Y-132031009D01*
X114433333Y-132031009D02*
X114480952Y-132126247D01*
X114480952Y-132126247D02*
X114480952Y-132364342D01*
X114480952Y-132364342D02*
X114433333Y-132459580D01*
X114433333Y-132459580D02*
X114385714Y-132507200D01*
X114385714Y-132507200D02*
X114290476Y-132554819D01*
X114290476Y-132554819D02*
X114004762Y-132554819D01*
X114004762Y-132554819D02*
X113909524Y-132507200D01*
X113909524Y-132507200D02*
X113861905Y-132459580D01*
X115338095Y-131888152D02*
X115338095Y-132554819D01*
X115100000Y-131507200D02*
X114861905Y-132221485D01*
X114861905Y-132221485D02*
X115480952Y-132221485D01*
X116052381Y-131554819D02*
X116147619Y-131554819D01*
X116147619Y-131554819D02*
X116242857Y-131602438D01*
X116242857Y-131602438D02*
X116290476Y-131650057D01*
X116290476Y-131650057D02*
X116338095Y-131745295D01*
X116338095Y-131745295D02*
X116385714Y-131935771D01*
X116385714Y-131935771D02*
X116385714Y-132173866D01*
X116385714Y-132173866D02*
X116338095Y-132364342D01*
X116338095Y-132364342D02*
X116290476Y-132459580D01*
X116290476Y-132459580D02*
X116242857Y-132507200D01*
X116242857Y-132507200D02*
X116147619Y-132554819D01*
X116147619Y-132554819D02*
X116052381Y-132554819D01*
X116052381Y-132554819D02*
X115957143Y-132507200D01*
X115957143Y-132507200D02*
X115909524Y-132459580D01*
X115909524Y-132459580D02*
X115861905Y-132364342D01*
X115861905Y-132364342D02*
X115814286Y-132173866D01*
X115814286Y-132173866D02*
X115814286Y-131935771D01*
X115814286Y-131935771D02*
X115861905Y-131745295D01*
X115861905Y-131745295D02*
X115909524Y-131650057D01*
X115909524Y-131650057D02*
X115957143Y-131602438D01*
X115957143Y-131602438D02*
X116052381Y-131554819D01*
X117004762Y-131554819D02*
X117100000Y-131554819D01*
X117100000Y-131554819D02*
X117195238Y-131602438D01*
X117195238Y-131602438D02*
X117242857Y-131650057D01*
X117242857Y-131650057D02*
X117290476Y-131745295D01*
X117290476Y-131745295D02*
X117338095Y-131935771D01*
X117338095Y-131935771D02*
X117338095Y-132173866D01*
X117338095Y-132173866D02*
X117290476Y-132364342D01*
X117290476Y-132364342D02*
X117242857Y-132459580D01*
X117242857Y-132459580D02*
X117195238Y-132507200D01*
X117195238Y-132507200D02*
X117100000Y-132554819D01*
X117100000Y-132554819D02*
X117004762Y-132554819D01*
X117004762Y-132554819D02*
X116909524Y-132507200D01*
X116909524Y-132507200D02*
X116861905Y-132459580D01*
X116861905Y-132459580D02*
X116814286Y-132364342D01*
X116814286Y-132364342D02*
X116766667Y-132173866D01*
X116766667Y-132173866D02*
X116766667Y-131935771D01*
X116766667Y-131935771D02*
X116814286Y-131745295D01*
X116814286Y-131745295D02*
X116861905Y-131650057D01*
X116861905Y-131650057D02*
X116909524Y-131602438D01*
X116909524Y-131602438D02*
X117004762Y-131554819D01*
X117719048Y-132269104D02*
X118195238Y-132269104D01*
X117623810Y-132554819D02*
X117957143Y-131554819D01*
X117957143Y-131554819D02*
X118290476Y-132554819D01*
X127850057Y-108964285D02*
X127802438Y-108916666D01*
X127802438Y-108916666D02*
X127754819Y-108821428D01*
X127754819Y-108821428D02*
X127754819Y-108583333D01*
X127754819Y-108583333D02*
X127802438Y-108488095D01*
X127802438Y-108488095D02*
X127850057Y-108440476D01*
X127850057Y-108440476D02*
X127945295Y-108392857D01*
X127945295Y-108392857D02*
X128040533Y-108392857D01*
X128040533Y-108392857D02*
X128183390Y-108440476D01*
X128183390Y-108440476D02*
X128754819Y-109011904D01*
X128754819Y-109011904D02*
X128754819Y-108392857D01*
X127850057Y-108011904D02*
X127802438Y-107964285D01*
X127802438Y-107964285D02*
X127754819Y-107869047D01*
X127754819Y-107869047D02*
X127754819Y-107630952D01*
X127754819Y-107630952D02*
X127802438Y-107535714D01*
X127802438Y-107535714D02*
X127850057Y-107488095D01*
X127850057Y-107488095D02*
X127945295Y-107440476D01*
X127945295Y-107440476D02*
X128040533Y-107440476D01*
X128040533Y-107440476D02*
X128183390Y-107488095D01*
X128183390Y-107488095D02*
X128754819Y-108059523D01*
X128754819Y-108059523D02*
X128754819Y-107440476D01*
X128088152Y-106583333D02*
X128754819Y-106583333D01*
X128088152Y-107011904D02*
X128611961Y-107011904D01*
X128611961Y-107011904D02*
X128707200Y-106964285D01*
X128707200Y-106964285D02*
X128754819Y-106869047D01*
X128754819Y-106869047D02*
X128754819Y-106726190D01*
X128754819Y-106726190D02*
X128707200Y-106630952D01*
X128707200Y-106630952D02*
X128659580Y-106583333D01*
X164404761Y-132454819D02*
X163833333Y-132454819D01*
X164119047Y-132454819D02*
X164119047Y-131454819D01*
X164119047Y-131454819D02*
X164023809Y-131597676D01*
X164023809Y-131597676D02*
X163928571Y-131692914D01*
X163928571Y-131692914D02*
X163833333Y-131740533D01*
X165309523Y-131454819D02*
X164833333Y-131454819D01*
X164833333Y-131454819D02*
X164785714Y-131931009D01*
X164785714Y-131931009D02*
X164833333Y-131883390D01*
X164833333Y-131883390D02*
X164928571Y-131835771D01*
X164928571Y-131835771D02*
X165166666Y-131835771D01*
X165166666Y-131835771D02*
X165261904Y-131883390D01*
X165261904Y-131883390D02*
X165309523Y-131931009D01*
X165309523Y-131931009D02*
X165357142Y-132026247D01*
X165357142Y-132026247D02*
X165357142Y-132264342D01*
X165357142Y-132264342D02*
X165309523Y-132359580D01*
X165309523Y-132359580D02*
X165261904Y-132407200D01*
X165261904Y-132407200D02*
X165166666Y-132454819D01*
X165166666Y-132454819D02*
X164928571Y-132454819D01*
X164928571Y-132454819D02*
X164833333Y-132407200D01*
X164833333Y-132407200D02*
X164785714Y-132359580D01*
X165785714Y-132454819D02*
X165785714Y-131454819D01*
X165880952Y-132073866D02*
X166166666Y-132454819D01*
X166166666Y-131788152D02*
X165785714Y-132169104D01*
X175788152Y-109390476D02*
X176454819Y-109390476D01*
X175407200Y-109628571D02*
X176121485Y-109866666D01*
X176121485Y-109866666D02*
X176121485Y-109247619D01*
X176454819Y-108866666D02*
X175454819Y-108866666D01*
X176073866Y-108771428D02*
X176454819Y-108485714D01*
X175788152Y-108485714D02*
X176169104Y-108866666D01*
X175454819Y-108152380D02*
X175454819Y-107485714D01*
X175454819Y-107485714D02*
X176454819Y-107914285D01*
X168938095Y-141388152D02*
X168938095Y-142054819D01*
X168509524Y-141388152D02*
X168509524Y-141911961D01*
X168509524Y-141911961D02*
X168557143Y-142007200D01*
X168557143Y-142007200D02*
X168652381Y-142054819D01*
X168652381Y-142054819D02*
X168795238Y-142054819D01*
X168795238Y-142054819D02*
X168890476Y-142007200D01*
X168890476Y-142007200D02*
X168938095Y-141959580D01*
X169938095Y-142054819D02*
X169366667Y-142054819D01*
X169652381Y-142054819D02*
X169652381Y-141054819D01*
X169652381Y-141054819D02*
X169557143Y-141197676D01*
X169557143Y-141197676D02*
X169461905Y-141292914D01*
X169461905Y-141292914D02*
X169366667Y-141340533D01*
X123304761Y-114654819D02*
X122733333Y-114654819D01*
X123019047Y-114654819D02*
X123019047Y-113654819D01*
X123019047Y-113654819D02*
X122923809Y-113797676D01*
X122923809Y-113797676D02*
X122828571Y-113892914D01*
X122828571Y-113892914D02*
X122733333Y-113940533D01*
X123923809Y-113654819D02*
X124019047Y-113654819D01*
X124019047Y-113654819D02*
X124114285Y-113702438D01*
X124114285Y-113702438D02*
X124161904Y-113750057D01*
X124161904Y-113750057D02*
X124209523Y-113845295D01*
X124209523Y-113845295D02*
X124257142Y-114035771D01*
X124257142Y-114035771D02*
X124257142Y-114273866D01*
X124257142Y-114273866D02*
X124209523Y-114464342D01*
X124209523Y-114464342D02*
X124161904Y-114559580D01*
X124161904Y-114559580D02*
X124114285Y-114607200D01*
X124114285Y-114607200D02*
X124019047Y-114654819D01*
X124019047Y-114654819D02*
X123923809Y-114654819D01*
X123923809Y-114654819D02*
X123828571Y-114607200D01*
X123828571Y-114607200D02*
X123780952Y-114559580D01*
X123780952Y-114559580D02*
X123733333Y-114464342D01*
X123733333Y-114464342D02*
X123685714Y-114273866D01*
X123685714Y-114273866D02*
X123685714Y-114035771D01*
X123685714Y-114035771D02*
X123733333Y-113845295D01*
X123733333Y-113845295D02*
X123780952Y-113750057D01*
X123780952Y-113750057D02*
X123828571Y-113702438D01*
X123828571Y-113702438D02*
X123923809Y-113654819D01*
X124685714Y-114654819D02*
X124685714Y-113654819D01*
X124780952Y-114273866D02*
X125066666Y-114654819D01*
X125066666Y-113988152D02*
X124685714Y-114369104D01*
X123638095Y-112488152D02*
X123638095Y-113154819D01*
X123209524Y-112488152D02*
X123209524Y-113011961D01*
X123209524Y-113011961D02*
X123257143Y-113107200D01*
X123257143Y-113107200D02*
X123352381Y-113154819D01*
X123352381Y-113154819D02*
X123495238Y-113154819D01*
X123495238Y-113154819D02*
X123590476Y-113107200D01*
X123590476Y-113107200D02*
X123638095Y-113059580D01*
X124638095Y-113154819D02*
X124066667Y-113154819D01*
X124352381Y-113154819D02*
X124352381Y-112154819D01*
X124352381Y-112154819D02*
X124257143Y-112297676D01*
X124257143Y-112297676D02*
X124161905Y-112392914D01*
X124161905Y-112392914D02*
X124066667Y-112440533D01*
X140380952Y-141654819D02*
X139809524Y-141654819D01*
X140095238Y-141654819D02*
X140095238Y-140654819D01*
X140095238Y-140654819D02*
X140000000Y-140797676D01*
X140000000Y-140797676D02*
X139904762Y-140892914D01*
X139904762Y-140892914D02*
X139809524Y-140940533D01*
X140809524Y-141654819D02*
X140809524Y-140654819D01*
X140904762Y-141273866D02*
X141190476Y-141654819D01*
X141190476Y-140988152D02*
X140809524Y-141369104D01*
X161104761Y-119454819D02*
X160533333Y-119454819D01*
X160819047Y-119454819D02*
X160819047Y-118454819D01*
X160819047Y-118454819D02*
X160723809Y-118597676D01*
X160723809Y-118597676D02*
X160628571Y-118692914D01*
X160628571Y-118692914D02*
X160533333Y-118740533D01*
X161723809Y-118454819D02*
X161819047Y-118454819D01*
X161819047Y-118454819D02*
X161914285Y-118502438D01*
X161914285Y-118502438D02*
X161961904Y-118550057D01*
X161961904Y-118550057D02*
X162009523Y-118645295D01*
X162009523Y-118645295D02*
X162057142Y-118835771D01*
X162057142Y-118835771D02*
X162057142Y-119073866D01*
X162057142Y-119073866D02*
X162009523Y-119264342D01*
X162009523Y-119264342D02*
X161961904Y-119359580D01*
X161961904Y-119359580D02*
X161914285Y-119407200D01*
X161914285Y-119407200D02*
X161819047Y-119454819D01*
X161819047Y-119454819D02*
X161723809Y-119454819D01*
X161723809Y-119454819D02*
X161628571Y-119407200D01*
X161628571Y-119407200D02*
X161580952Y-119359580D01*
X161580952Y-119359580D02*
X161533333Y-119264342D01*
X161533333Y-119264342D02*
X161485714Y-119073866D01*
X161485714Y-119073866D02*
X161485714Y-118835771D01*
X161485714Y-118835771D02*
X161533333Y-118645295D01*
X161533333Y-118645295D02*
X161580952Y-118550057D01*
X161580952Y-118550057D02*
X161628571Y-118502438D01*
X161628571Y-118502438D02*
X161723809Y-118454819D01*
X162485714Y-119454819D02*
X162485714Y-118454819D01*
X162580952Y-119073866D02*
X162866666Y-119454819D01*
X162866666Y-118788152D02*
X162485714Y-119169104D01*
X140380952Y-143154819D02*
X139809524Y-143154819D01*
X140095238Y-143154819D02*
X140095238Y-142154819D01*
X140095238Y-142154819D02*
X140000000Y-142297676D01*
X140000000Y-142297676D02*
X139904762Y-142392914D01*
X139904762Y-142392914D02*
X139809524Y-142440533D01*
X140809524Y-143154819D02*
X140809524Y-142154819D01*
X140904762Y-142773866D02*
X141190476Y-143154819D01*
X141190476Y-142488152D02*
X140809524Y-142869104D01*
X112754819Y-121095238D02*
X112754819Y-121666666D01*
X112754819Y-121380952D02*
X111754819Y-121380952D01*
X111754819Y-121380952D02*
X111897676Y-121476190D01*
X111897676Y-121476190D02*
X111992914Y-121571428D01*
X111992914Y-121571428D02*
X112040533Y-121666666D01*
X111754819Y-120476190D02*
X111754819Y-120380952D01*
X111754819Y-120380952D02*
X111802438Y-120285714D01*
X111802438Y-120285714D02*
X111850057Y-120238095D01*
X111850057Y-120238095D02*
X111945295Y-120190476D01*
X111945295Y-120190476D02*
X112135771Y-120142857D01*
X112135771Y-120142857D02*
X112373866Y-120142857D01*
X112373866Y-120142857D02*
X112564342Y-120190476D01*
X112564342Y-120190476D02*
X112659580Y-120238095D01*
X112659580Y-120238095D02*
X112707200Y-120285714D01*
X112707200Y-120285714D02*
X112754819Y-120380952D01*
X112754819Y-120380952D02*
X112754819Y-120476190D01*
X112754819Y-120476190D02*
X112707200Y-120571428D01*
X112707200Y-120571428D02*
X112659580Y-120619047D01*
X112659580Y-120619047D02*
X112564342Y-120666666D01*
X112564342Y-120666666D02*
X112373866Y-120714285D01*
X112373866Y-120714285D02*
X112135771Y-120714285D01*
X112135771Y-120714285D02*
X111945295Y-120666666D01*
X111945295Y-120666666D02*
X111850057Y-120619047D01*
X111850057Y-120619047D02*
X111802438Y-120571428D01*
X111802438Y-120571428D02*
X111754819Y-120476190D01*
X112754819Y-119714285D02*
X111754819Y-119714285D01*
X112373866Y-119619047D02*
X112754819Y-119333333D01*
X112088152Y-119333333D02*
X112469104Y-119714285D01*
X160704761Y-132454819D02*
X160133333Y-132454819D01*
X160419047Y-132454819D02*
X160419047Y-131454819D01*
X160419047Y-131454819D02*
X160323809Y-131597676D01*
X160323809Y-131597676D02*
X160228571Y-131692914D01*
X160228571Y-131692914D02*
X160133333Y-131740533D01*
X161323809Y-131454819D02*
X161419047Y-131454819D01*
X161419047Y-131454819D02*
X161514285Y-131502438D01*
X161514285Y-131502438D02*
X161561904Y-131550057D01*
X161561904Y-131550057D02*
X161609523Y-131645295D01*
X161609523Y-131645295D02*
X161657142Y-131835771D01*
X161657142Y-131835771D02*
X161657142Y-132073866D01*
X161657142Y-132073866D02*
X161609523Y-132264342D01*
X161609523Y-132264342D02*
X161561904Y-132359580D01*
X161561904Y-132359580D02*
X161514285Y-132407200D01*
X161514285Y-132407200D02*
X161419047Y-132454819D01*
X161419047Y-132454819D02*
X161323809Y-132454819D01*
X161323809Y-132454819D02*
X161228571Y-132407200D01*
X161228571Y-132407200D02*
X161180952Y-132359580D01*
X161180952Y-132359580D02*
X161133333Y-132264342D01*
X161133333Y-132264342D02*
X161085714Y-132073866D01*
X161085714Y-132073866D02*
X161085714Y-131835771D01*
X161085714Y-131835771D02*
X161133333Y-131645295D01*
X161133333Y-131645295D02*
X161180952Y-131550057D01*
X161180952Y-131550057D02*
X161228571Y-131502438D01*
X161228571Y-131502438D02*
X161323809Y-131454819D01*
X162085714Y-132454819D02*
X162085714Y-131454819D01*
X162180952Y-132073866D02*
X162466666Y-132454819D01*
X162466666Y-131788152D02*
X162085714Y-132169104D01*
X170457142Y-138354819D02*
X169885714Y-138354819D01*
X170171428Y-138354819D02*
X170171428Y-137354819D01*
X170171428Y-137354819D02*
X170076190Y-137497676D01*
X170076190Y-137497676D02*
X169980952Y-137592914D01*
X169980952Y-137592914D02*
X169885714Y-137640533D01*
X171076190Y-137354819D02*
X171171428Y-137354819D01*
X171171428Y-137354819D02*
X171266666Y-137402438D01*
X171266666Y-137402438D02*
X171314285Y-137450057D01*
X171314285Y-137450057D02*
X171361904Y-137545295D01*
X171361904Y-137545295D02*
X171409523Y-137735771D01*
X171409523Y-137735771D02*
X171409523Y-137973866D01*
X171409523Y-137973866D02*
X171361904Y-138164342D01*
X171361904Y-138164342D02*
X171314285Y-138259580D01*
X171314285Y-138259580D02*
X171266666Y-138307200D01*
X171266666Y-138307200D02*
X171171428Y-138354819D01*
X171171428Y-138354819D02*
X171076190Y-138354819D01*
X171076190Y-138354819D02*
X170980952Y-138307200D01*
X170980952Y-138307200D02*
X170933333Y-138259580D01*
X170933333Y-138259580D02*
X170885714Y-138164342D01*
X170885714Y-138164342D02*
X170838095Y-137973866D01*
X170838095Y-137973866D02*
X170838095Y-137735771D01*
X170838095Y-137735771D02*
X170885714Y-137545295D01*
X170885714Y-137545295D02*
X170933333Y-137450057D01*
X170933333Y-137450057D02*
X170980952Y-137402438D01*
X170980952Y-137402438D02*
X171076190Y-137354819D01*
X172266666Y-137688152D02*
X172266666Y-138354819D01*
X171838095Y-137688152D02*
X171838095Y-138211961D01*
X171838095Y-138211961D02*
X171885714Y-138307200D01*
X171885714Y-138307200D02*
X171980952Y-138354819D01*
X171980952Y-138354819D02*
X172123809Y-138354819D01*
X172123809Y-138354819D02*
X172219047Y-138307200D01*
X172219047Y-138307200D02*
X172266666Y-138259580D01*
X119685714Y-111154819D02*
X119685714Y-110154819D01*
X120257142Y-111154819D02*
X119828571Y-110583390D01*
X120257142Y-110154819D02*
X119685714Y-110726247D01*
X121209523Y-111154819D02*
X120638095Y-111154819D01*
X120923809Y-111154819D02*
X120923809Y-110154819D01*
X120923809Y-110154819D02*
X120828571Y-110297676D01*
X120828571Y-110297676D02*
X120733333Y-110392914D01*
X120733333Y-110392914D02*
X120638095Y-110440533D01*
X121590476Y-110250057D02*
X121638095Y-110202438D01*
X121638095Y-110202438D02*
X121733333Y-110154819D01*
X121733333Y-110154819D02*
X121971428Y-110154819D01*
X121971428Y-110154819D02*
X122066666Y-110202438D01*
X122066666Y-110202438D02*
X122114285Y-110250057D01*
X122114285Y-110250057D02*
X122161904Y-110345295D01*
X122161904Y-110345295D02*
X122161904Y-110440533D01*
X122161904Y-110440533D02*
X122114285Y-110583390D01*
X122114285Y-110583390D02*
X121542857Y-111154819D01*
X121542857Y-111154819D02*
X122161904Y-111154819D01*
X127938095Y-130888152D02*
X127938095Y-131554819D01*
X127509524Y-130888152D02*
X127509524Y-131411961D01*
X127509524Y-131411961D02*
X127557143Y-131507200D01*
X127557143Y-131507200D02*
X127652381Y-131554819D01*
X127652381Y-131554819D02*
X127795238Y-131554819D01*
X127795238Y-131554819D02*
X127890476Y-131507200D01*
X127890476Y-131507200D02*
X127938095Y-131459580D01*
X128938095Y-131554819D02*
X128366667Y-131554819D01*
X128652381Y-131554819D02*
X128652381Y-130554819D01*
X128652381Y-130554819D02*
X128557143Y-130697676D01*
X128557143Y-130697676D02*
X128461905Y-130792914D01*
X128461905Y-130792914D02*
X128366667Y-130840533D01*
X134042857Y-141131009D02*
X134185714Y-141178628D01*
X134185714Y-141178628D02*
X134233333Y-141226247D01*
X134233333Y-141226247D02*
X134280952Y-141321485D01*
X134280952Y-141321485D02*
X134280952Y-141464342D01*
X134280952Y-141464342D02*
X134233333Y-141559580D01*
X134233333Y-141559580D02*
X134185714Y-141607200D01*
X134185714Y-141607200D02*
X134090476Y-141654819D01*
X134090476Y-141654819D02*
X133709524Y-141654819D01*
X133709524Y-141654819D02*
X133709524Y-140654819D01*
X133709524Y-140654819D02*
X134042857Y-140654819D01*
X134042857Y-140654819D02*
X134138095Y-140702438D01*
X134138095Y-140702438D02*
X134185714Y-140750057D01*
X134185714Y-140750057D02*
X134233333Y-140845295D01*
X134233333Y-140845295D02*
X134233333Y-140940533D01*
X134233333Y-140940533D02*
X134185714Y-141035771D01*
X134185714Y-141035771D02*
X134138095Y-141083390D01*
X134138095Y-141083390D02*
X134042857Y-141131009D01*
X134042857Y-141131009D02*
X133709524Y-141131009D01*
X135280952Y-141559580D02*
X135233333Y-141607200D01*
X135233333Y-141607200D02*
X135090476Y-141654819D01*
X135090476Y-141654819D02*
X134995238Y-141654819D01*
X134995238Y-141654819D02*
X134852381Y-141607200D01*
X134852381Y-141607200D02*
X134757143Y-141511961D01*
X134757143Y-141511961D02*
X134709524Y-141416723D01*
X134709524Y-141416723D02*
X134661905Y-141226247D01*
X134661905Y-141226247D02*
X134661905Y-141083390D01*
X134661905Y-141083390D02*
X134709524Y-140892914D01*
X134709524Y-140892914D02*
X134757143Y-140797676D01*
X134757143Y-140797676D02*
X134852381Y-140702438D01*
X134852381Y-140702438D02*
X134995238Y-140654819D01*
X134995238Y-140654819D02*
X135090476Y-140654819D01*
X135090476Y-140654819D02*
X135233333Y-140702438D01*
X135233333Y-140702438D02*
X135280952Y-140750057D01*
X135852381Y-141083390D02*
X135757143Y-141035771D01*
X135757143Y-141035771D02*
X135709524Y-140988152D01*
X135709524Y-140988152D02*
X135661905Y-140892914D01*
X135661905Y-140892914D02*
X135661905Y-140845295D01*
X135661905Y-140845295D02*
X135709524Y-140750057D01*
X135709524Y-140750057D02*
X135757143Y-140702438D01*
X135757143Y-140702438D02*
X135852381Y-140654819D01*
X135852381Y-140654819D02*
X136042857Y-140654819D01*
X136042857Y-140654819D02*
X136138095Y-140702438D01*
X136138095Y-140702438D02*
X136185714Y-140750057D01*
X136185714Y-140750057D02*
X136233333Y-140845295D01*
X136233333Y-140845295D02*
X136233333Y-140892914D01*
X136233333Y-140892914D02*
X136185714Y-140988152D01*
X136185714Y-140988152D02*
X136138095Y-141035771D01*
X136138095Y-141035771D02*
X136042857Y-141083390D01*
X136042857Y-141083390D02*
X135852381Y-141083390D01*
X135852381Y-141083390D02*
X135757143Y-141131009D01*
X135757143Y-141131009D02*
X135709524Y-141178628D01*
X135709524Y-141178628D02*
X135661905Y-141273866D01*
X135661905Y-141273866D02*
X135661905Y-141464342D01*
X135661905Y-141464342D02*
X135709524Y-141559580D01*
X135709524Y-141559580D02*
X135757143Y-141607200D01*
X135757143Y-141607200D02*
X135852381Y-141654819D01*
X135852381Y-141654819D02*
X136042857Y-141654819D01*
X136042857Y-141654819D02*
X136138095Y-141607200D01*
X136138095Y-141607200D02*
X136185714Y-141559580D01*
X136185714Y-141559580D02*
X136233333Y-141464342D01*
X136233333Y-141464342D02*
X136233333Y-141273866D01*
X136233333Y-141273866D02*
X136185714Y-141178628D01*
X136185714Y-141178628D02*
X136138095Y-141131009D01*
X136138095Y-141131009D02*
X136042857Y-141083390D01*
X137090476Y-140988152D02*
X137090476Y-141654819D01*
X136852381Y-140607200D02*
X136614286Y-141321485D01*
X136614286Y-141321485D02*
X137233333Y-141321485D01*
X137519048Y-140654819D02*
X138185714Y-140654819D01*
X138185714Y-140654819D02*
X137757143Y-141654819D01*
D11*
X163988345Y-147878328D02*
X163988345Y-146378328D01*
X163988345Y-146378328D02*
X164559774Y-146378328D01*
X164559774Y-146378328D02*
X164702631Y-146449757D01*
X164702631Y-146449757D02*
X164774060Y-146521185D01*
X164774060Y-146521185D02*
X164845488Y-146664042D01*
X164845488Y-146664042D02*
X164845488Y-146878328D01*
X164845488Y-146878328D02*
X164774060Y-147021185D01*
X164774060Y-147021185D02*
X164702631Y-147092614D01*
X164702631Y-147092614D02*
X164559774Y-147164042D01*
X164559774Y-147164042D02*
X163988345Y-147164042D01*
X166345488Y-147878328D02*
X165845488Y-147164042D01*
X165488345Y-147878328D02*
X165488345Y-146378328D01*
X165488345Y-146378328D02*
X166059774Y-146378328D01*
X166059774Y-146378328D02*
X166202631Y-146449757D01*
X166202631Y-146449757D02*
X166274060Y-146521185D01*
X166274060Y-146521185D02*
X166345488Y-146664042D01*
X166345488Y-146664042D02*
X166345488Y-146878328D01*
X166345488Y-146878328D02*
X166274060Y-147021185D01*
X166274060Y-147021185D02*
X166202631Y-147092614D01*
X166202631Y-147092614D02*
X166059774Y-147164042D01*
X166059774Y-147164042D02*
X165488345Y-147164042D01*
X167274060Y-146378328D02*
X167559774Y-146378328D01*
X167559774Y-146378328D02*
X167702631Y-146449757D01*
X167702631Y-146449757D02*
X167845488Y-146592614D01*
X167845488Y-146592614D02*
X167916917Y-146878328D01*
X167916917Y-146878328D02*
X167916917Y-147378328D01*
X167916917Y-147378328D02*
X167845488Y-147664042D01*
X167845488Y-147664042D02*
X167702631Y-147806900D01*
X167702631Y-147806900D02*
X167559774Y-147878328D01*
X167559774Y-147878328D02*
X167274060Y-147878328D01*
X167274060Y-147878328D02*
X167131203Y-147806900D01*
X167131203Y-147806900D02*
X166988345Y-147664042D01*
X166988345Y-147664042D02*
X166916917Y-147378328D01*
X166916917Y-147378328D02*
X166916917Y-146878328D01*
X166916917Y-146878328D02*
X166988345Y-146592614D01*
X166988345Y-146592614D02*
X167131203Y-146449757D01*
X167131203Y-146449757D02*
X167274060Y-146378328D01*
X169345489Y-146449757D02*
X169202632Y-146378328D01*
X169202632Y-146378328D02*
X168988346Y-146378328D01*
X168988346Y-146378328D02*
X168774060Y-146449757D01*
X168774060Y-146449757D02*
X168631203Y-146592614D01*
X168631203Y-146592614D02*
X168559774Y-146735471D01*
X168559774Y-146735471D02*
X168488346Y-147021185D01*
X168488346Y-147021185D02*
X168488346Y-147235471D01*
X168488346Y-147235471D02*
X168559774Y-147521185D01*
X168559774Y-147521185D02*
X168631203Y-147664042D01*
X168631203Y-147664042D02*
X168774060Y-147806900D01*
X168774060Y-147806900D02*
X168988346Y-147878328D01*
X168988346Y-147878328D02*
X169131203Y-147878328D01*
X169131203Y-147878328D02*
X169345489Y-147806900D01*
X169345489Y-147806900D02*
X169416917Y-147735471D01*
X169416917Y-147735471D02*
X169416917Y-147235471D01*
X169416917Y-147235471D02*
X169131203Y-147235471D01*
D10*
X156104761Y-132554819D02*
X155533333Y-132554819D01*
X155819047Y-132554819D02*
X155819047Y-131554819D01*
X155819047Y-131554819D02*
X155723809Y-131697676D01*
X155723809Y-131697676D02*
X155628571Y-131792914D01*
X155628571Y-131792914D02*
X155533333Y-131840533D01*
X156723809Y-131554819D02*
X156819047Y-131554819D01*
X156819047Y-131554819D02*
X156914285Y-131602438D01*
X156914285Y-131602438D02*
X156961904Y-131650057D01*
X156961904Y-131650057D02*
X157009523Y-131745295D01*
X157009523Y-131745295D02*
X157057142Y-131935771D01*
X157057142Y-131935771D02*
X157057142Y-132173866D01*
X157057142Y-132173866D02*
X157009523Y-132364342D01*
X157009523Y-132364342D02*
X156961904Y-132459580D01*
X156961904Y-132459580D02*
X156914285Y-132507200D01*
X156914285Y-132507200D02*
X156819047Y-132554819D01*
X156819047Y-132554819D02*
X156723809Y-132554819D01*
X156723809Y-132554819D02*
X156628571Y-132507200D01*
X156628571Y-132507200D02*
X156580952Y-132459580D01*
X156580952Y-132459580D02*
X156533333Y-132364342D01*
X156533333Y-132364342D02*
X156485714Y-132173866D01*
X156485714Y-132173866D02*
X156485714Y-131935771D01*
X156485714Y-131935771D02*
X156533333Y-131745295D01*
X156533333Y-131745295D02*
X156580952Y-131650057D01*
X156580952Y-131650057D02*
X156628571Y-131602438D01*
X156628571Y-131602438D02*
X156723809Y-131554819D01*
X157485714Y-132554819D02*
X157485714Y-131554819D01*
X157580952Y-132173866D02*
X157866666Y-132554819D01*
X157866666Y-131888152D02*
X157485714Y-132269104D01*
X159904761Y-107454819D02*
X159333333Y-107454819D01*
X159619047Y-107454819D02*
X159619047Y-106454819D01*
X159619047Y-106454819D02*
X159523809Y-106597676D01*
X159523809Y-106597676D02*
X159428571Y-106692914D01*
X159428571Y-106692914D02*
X159333333Y-106740533D01*
X160523809Y-106454819D02*
X160619047Y-106454819D01*
X160619047Y-106454819D02*
X160714285Y-106502438D01*
X160714285Y-106502438D02*
X160761904Y-106550057D01*
X160761904Y-106550057D02*
X160809523Y-106645295D01*
X160809523Y-106645295D02*
X160857142Y-106835771D01*
X160857142Y-106835771D02*
X160857142Y-107073866D01*
X160857142Y-107073866D02*
X160809523Y-107264342D01*
X160809523Y-107264342D02*
X160761904Y-107359580D01*
X160761904Y-107359580D02*
X160714285Y-107407200D01*
X160714285Y-107407200D02*
X160619047Y-107454819D01*
X160619047Y-107454819D02*
X160523809Y-107454819D01*
X160523809Y-107454819D02*
X160428571Y-107407200D01*
X160428571Y-107407200D02*
X160380952Y-107359580D01*
X160380952Y-107359580D02*
X160333333Y-107264342D01*
X160333333Y-107264342D02*
X160285714Y-107073866D01*
X160285714Y-107073866D02*
X160285714Y-106835771D01*
X160285714Y-106835771D02*
X160333333Y-106645295D01*
X160333333Y-106645295D02*
X160380952Y-106550057D01*
X160380952Y-106550057D02*
X160428571Y-106502438D01*
X160428571Y-106502438D02*
X160523809Y-106454819D01*
X161285714Y-107454819D02*
X161285714Y-106454819D01*
X161380952Y-107073866D02*
X161666666Y-107454819D01*
X161666666Y-106788152D02*
X161285714Y-107169104D01*
X159788152Y-102311904D02*
X160454819Y-102311904D01*
X159788152Y-102740475D02*
X160311961Y-102740475D01*
X160311961Y-102740475D02*
X160407200Y-102692856D01*
X160407200Y-102692856D02*
X160454819Y-102597618D01*
X160454819Y-102597618D02*
X160454819Y-102454761D01*
X160454819Y-102454761D02*
X160407200Y-102359523D01*
X160407200Y-102359523D02*
X160359580Y-102311904D01*
X160454819Y-101311904D02*
X160454819Y-101883332D01*
X160454819Y-101597618D02*
X159454819Y-101597618D01*
X159454819Y-101597618D02*
X159597676Y-101692856D01*
X159597676Y-101692856D02*
X159692914Y-101788094D01*
X159692914Y-101788094D02*
X159740533Y-101883332D01*
X172338095Y-121788152D02*
X172338095Y-122454819D01*
X171909524Y-121788152D02*
X171909524Y-122311961D01*
X171909524Y-122311961D02*
X171957143Y-122407200D01*
X171957143Y-122407200D02*
X172052381Y-122454819D01*
X172052381Y-122454819D02*
X172195238Y-122454819D01*
X172195238Y-122454819D02*
X172290476Y-122407200D01*
X172290476Y-122407200D02*
X172338095Y-122359580D01*
X173338095Y-122454819D02*
X172766667Y-122454819D01*
X173052381Y-122454819D02*
X173052381Y-121454819D01*
X173052381Y-121454819D02*
X172957143Y-121597676D01*
X172957143Y-121597676D02*
X172861905Y-121692914D01*
X172861905Y-121692914D02*
X172766667Y-121740533D01*
X129338152Y-108461904D02*
X130004819Y-108461904D01*
X129338152Y-108890475D02*
X129861961Y-108890475D01*
X129861961Y-108890475D02*
X129957200Y-108842856D01*
X129957200Y-108842856D02*
X130004819Y-108747618D01*
X130004819Y-108747618D02*
X130004819Y-108604761D01*
X130004819Y-108604761D02*
X129957200Y-108509523D01*
X129957200Y-108509523D02*
X129909580Y-108461904D01*
X130004819Y-107461904D02*
X130004819Y-108033332D01*
X130004819Y-107747618D02*
X129004819Y-107747618D01*
X129004819Y-107747618D02*
X129147676Y-107842856D01*
X129147676Y-107842856D02*
X129242914Y-107938094D01*
X129242914Y-107938094D02*
X129290533Y-108033332D01*
D11*
X141985713Y-142178328D02*
X141985713Y-140678328D01*
X142699999Y-142178328D02*
X142699999Y-140678328D01*
X142699999Y-140678328D02*
X143557142Y-142178328D01*
X143557142Y-142178328D02*
X143557142Y-140678328D01*
X144771428Y-141392614D02*
X144271428Y-141392614D01*
X144271428Y-142178328D02*
X144271428Y-140678328D01*
X144271428Y-140678328D02*
X144985714Y-140678328D01*
X145842857Y-140678328D02*
X146128571Y-140678328D01*
X146128571Y-140678328D02*
X146271428Y-140749757D01*
X146271428Y-140749757D02*
X146414285Y-140892614D01*
X146414285Y-140892614D02*
X146485714Y-141178328D01*
X146485714Y-141178328D02*
X146485714Y-141678328D01*
X146485714Y-141678328D02*
X146414285Y-141964042D01*
X146414285Y-141964042D02*
X146271428Y-142106900D01*
X146271428Y-142106900D02*
X146128571Y-142178328D01*
X146128571Y-142178328D02*
X145842857Y-142178328D01*
X145842857Y-142178328D02*
X145700000Y-142106900D01*
X145700000Y-142106900D02*
X145557142Y-141964042D01*
X145557142Y-141964042D02*
X145485714Y-141678328D01*
X145485714Y-141678328D02*
X145485714Y-141178328D01*
X145485714Y-141178328D02*
X145557142Y-140892614D01*
X145557142Y-140892614D02*
X145700000Y-140749757D01*
X145700000Y-140749757D02*
X145842857Y-140678328D01*
D10*
X128580952Y-124654819D02*
X128009524Y-124654819D01*
X128295238Y-124654819D02*
X128295238Y-123654819D01*
X128295238Y-123654819D02*
X128200000Y-123797676D01*
X128200000Y-123797676D02*
X128104762Y-123892914D01*
X128104762Y-123892914D02*
X128009524Y-123940533D01*
X129009524Y-124654819D02*
X129009524Y-123654819D01*
X129104762Y-124273866D02*
X129390476Y-124654819D01*
X129390476Y-123988152D02*
X129009524Y-124369104D01*
X177088152Y-109390476D02*
X177754819Y-109390476D01*
X176707200Y-109628571D02*
X177421485Y-109866666D01*
X177421485Y-109866666D02*
X177421485Y-109247619D01*
X177754819Y-108866666D02*
X176754819Y-108866666D01*
X177373866Y-108771428D02*
X177754819Y-108485714D01*
X177088152Y-108485714D02*
X177469104Y-108866666D01*
X176754819Y-108152380D02*
X176754819Y-107485714D01*
X176754819Y-107485714D02*
X177754819Y-107914285D01*
D12*
%TO.C,F2*%
X100430000Y-131496248D02*
X100430000Y-135903752D01*
X105770000Y-131496248D02*
X105770000Y-135903752D01*
%TO.C,F1*%
X100430000Y-146003752D02*
X100430000Y-141596248D01*
X105770000Y-146003752D02*
X105770000Y-141596248D01*
%TO.C,SW2*%
X166250000Y-103700000D02*
X166250000Y-101700000D01*
X167300000Y-100400000D02*
X167750000Y-99950000D01*
X167300000Y-105000000D02*
X167750000Y-105450000D01*
X170250000Y-99950000D02*
X167750000Y-99950000D01*
X170250000Y-105450000D02*
X167750000Y-105450000D01*
X170700000Y-100400000D02*
X170250000Y-99950000D01*
X170700000Y-105000000D02*
X170250000Y-105450000D01*
X171750000Y-103700000D02*
X171750000Y-101700000D01*
%TO.C,JP1*%
X109600000Y-135900000D02*
X111600000Y-135900000D01*
X109600000Y-138700000D02*
X109600000Y-135900000D01*
X111600000Y-135900000D02*
X111600000Y-138700000D01*
X111600000Y-138700000D02*
X109600000Y-138700000D01*
%TO.C,R18*%
X118065000Y-116672936D02*
X118065000Y-117127064D01*
X119535000Y-116672936D02*
X119535000Y-117127064D01*
%TO.C,U3*%
X117765000Y-122700000D02*
X117765000Y-120750000D01*
X117765000Y-122700000D02*
X117765000Y-124650000D01*
X126635000Y-122700000D02*
X126635000Y-119250000D01*
X126635000Y-122700000D02*
X126635000Y-124650000D01*
%TO.C,C4*%
X153365000Y-138671171D02*
X153365000Y-138148667D01*
X154835000Y-138671171D02*
X154835000Y-138148667D01*
%TO.C,C3*%
X155365000Y-138671171D02*
X155365000Y-138148667D01*
X156835000Y-138671171D02*
X156835000Y-138148667D01*
%TO.C,R13*%
X117165000Y-138372936D02*
X117165000Y-138827064D01*
X118635000Y-138372936D02*
X118635000Y-138827064D01*
%TO.C,R8*%
X162377064Y-103515000D02*
X161922936Y-103515000D01*
X162377064Y-104985000D02*
X161922936Y-104985000D01*
%TO.C,C9*%
X179638748Y-146965000D02*
X180161252Y-146965000D01*
X179638748Y-148435000D02*
X180161252Y-148435000D01*
D10*
%TO.C,J9*%
X155900000Y-109670000D02*
X156400000Y-109170000D01*
X155900000Y-113270000D02*
X155900000Y-109670000D01*
X156400000Y-109170000D02*
X157200000Y-109170000D01*
X156400000Y-113770000D02*
X155900000Y-113270000D01*
X157200000Y-109170000D02*
X157700000Y-109670000D01*
X157200000Y-113770000D02*
X156400000Y-113770000D01*
X157700000Y-109670000D02*
X157700000Y-113270000D01*
X157700000Y-113270000D02*
X157200000Y-113770000D01*
D12*
%TO.C,D1*%
X126920000Y-102340000D02*
X127850000Y-102340000D01*
X126920000Y-103140000D02*
X126920000Y-102340000D01*
X126920000Y-103140000D02*
X126920000Y-103940000D01*
X130080000Y-102340000D02*
X129150000Y-102340000D01*
X130080000Y-102340000D02*
X130080000Y-103800000D01*
X126890000Y-104440000D02*
X126560000Y-104680000D01*
X126560000Y-104200000D01*
X126890000Y-104440000D01*
G36*
X126890000Y-104440000D02*
G01*
X126560000Y-104680000D01*
X126560000Y-104200000D01*
X126890000Y-104440000D01*
G37*
%TO.C,R15*%
X119065000Y-138827064D02*
X119065000Y-138372936D01*
X120535000Y-138827064D02*
X120535000Y-138372936D01*
%TO.C,F5*%
X184230000Y-109903752D02*
X184230000Y-105496248D01*
X189570000Y-109903752D02*
X189570000Y-105496248D01*
%TO.C,R16*%
X113450411Y-118315560D02*
X113450411Y-118769688D01*
X114920411Y-118315560D02*
X114920411Y-118769688D01*
%TO.C,F8*%
X184230000Y-138796248D02*
X184230000Y-143203752D01*
X189570000Y-138796248D02*
X189570000Y-143203752D01*
%TO.C,C13*%
X158565000Y-123061252D02*
X158565000Y-122538748D01*
X160035000Y-123061252D02*
X160035000Y-122538748D01*
%TO.C,U2*%
X135875000Y-100080000D02*
X135875000Y-106500000D01*
X135875000Y-100080000D02*
X154115000Y-100080000D01*
X135875000Y-106500000D02*
X135495000Y-106500000D01*
X135875000Y-125045000D02*
X135875000Y-125825000D01*
X135875000Y-125825000D02*
X136875000Y-125825000D01*
X154115000Y-100080000D02*
X154115000Y-106500000D01*
X154115000Y-125045000D02*
X154115000Y-125825000D01*
X154115000Y-125825000D02*
X153115000Y-125825000D01*
%TO.C,R12*%
X175872936Y-146965000D02*
X176327064Y-146965000D01*
X175872936Y-148435000D02*
X176327064Y-148435000D01*
%TO.C,Q1*%
X113440000Y-137020000D02*
X113440000Y-137950000D01*
X113440000Y-137020000D02*
X114900000Y-137020000D01*
X113440000Y-140180000D02*
X113440000Y-139250000D01*
X114240000Y-140180000D02*
X113440000Y-140180000D01*
X114240000Y-140180000D02*
X115040000Y-140180000D01*
X115780000Y-140540000D02*
X115300000Y-140540000D01*
X115540000Y-140210000D01*
X115780000Y-140540000D01*
G36*
X115780000Y-140540000D02*
G01*
X115300000Y-140540000D01*
X115540000Y-140210000D01*
X115780000Y-140540000D01*
G37*
%TO.C,C7*%
X130760000Y-108461252D02*
X130760000Y-107938748D01*
X132230000Y-108461252D02*
X132230000Y-107938748D01*
%TO.C,R2*%
X165227064Y-125765000D02*
X164772936Y-125765000D01*
X165227064Y-127235000D02*
X164772936Y-127235000D01*
%TO.C,F7*%
X184230000Y-133603752D02*
X184230000Y-129196248D01*
X189570000Y-133603752D02*
X189570000Y-129196248D01*
%TO.C,R5*%
X171865000Y-108927064D02*
X171865000Y-108472936D01*
X173335000Y-108927064D02*
X173335000Y-108472936D01*
%TO.C,C2*%
X167638748Y-139465000D02*
X168161252Y-139465000D01*
X167638748Y-140935000D02*
X168161252Y-140935000D01*
%TO.C,F6*%
X184230000Y-121803752D02*
X184230000Y-117396248D01*
X189570000Y-121803752D02*
X189570000Y-117396248D01*
%TO.C,R19*%
X124127064Y-116965000D02*
X123672936Y-116965000D01*
X124127064Y-118435000D02*
X123672936Y-118435000D01*
%TO.C,C12*%
X124161252Y-114965000D02*
X123638748Y-114965000D01*
X124161252Y-116435000D02*
X123638748Y-116435000D01*
%TO.C,R9*%
X140272936Y-137065000D02*
X140727064Y-137065000D01*
X140272936Y-138535000D02*
X140727064Y-138535000D01*
%TO.C,R10*%
X164927064Y-118265000D02*
X164472936Y-118265000D01*
X164927064Y-119735000D02*
X164472936Y-119735000D01*
%TO.C,F4*%
X100430000Y-115103752D02*
X100430000Y-110696248D01*
X105770000Y-115103752D02*
X105770000Y-110696248D01*
%TO.C,R4*%
X140727064Y-138965000D02*
X140272936Y-138965000D01*
X140727064Y-140435000D02*
X140272936Y-140435000D01*
%TO.C,R17*%
X111550411Y-117072936D02*
X111550411Y-117527064D01*
X113020411Y-117072936D02*
X113020411Y-117527064D01*
%TO.C,SW1*%
X118150000Y-102452500D02*
X118150000Y-103242500D01*
X120200000Y-104292500D02*
X120000000Y-104292500D01*
X121700000Y-100152500D02*
X121700000Y-101442500D01*
X121700000Y-100152500D02*
X121900000Y-99942500D01*
X122800000Y-99942500D02*
X121900000Y-99942500D01*
X123000000Y-100152500D02*
X122800000Y-99942500D01*
X123000000Y-101442500D02*
X123000000Y-100152500D01*
X123200000Y-104292500D02*
X121500000Y-104292500D01*
X124450000Y-101442500D02*
X118750000Y-101442500D01*
X125050000Y-103242500D02*
X125050000Y-102452500D01*
%TO.C,R3*%
X161527064Y-125765000D02*
X161072936Y-125765000D01*
X161527064Y-127235000D02*
X161072936Y-127235000D01*
%TO.C,C1*%
X167638748Y-137165000D02*
X168161252Y-137165000D01*
X167638748Y-138635000D02*
X168161252Y-138635000D01*
%TO.C,R1*%
X125327064Y-110390000D02*
X123872936Y-110390000D01*
X125327064Y-112210000D02*
X123872936Y-112210000D01*
%TO.C,C10*%
X127465000Y-128538748D02*
X127465000Y-129061252D01*
X128935000Y-128538748D02*
X128935000Y-129061252D01*
%TO.C,Q2*%
X135140000Y-137120000D02*
X135140000Y-138050000D01*
X135140000Y-137120000D02*
X136600000Y-137120000D01*
X135140000Y-140280000D02*
X135140000Y-139350000D01*
X135940000Y-140280000D02*
X135140000Y-140280000D01*
X135940000Y-140280000D02*
X136740000Y-140280000D01*
X137480000Y-140640000D02*
X137000000Y-140640000D01*
X137240000Y-140310000D01*
X137480000Y-140640000D01*
G36*
X137480000Y-140640000D02*
G01*
X137000000Y-140640000D01*
X137240000Y-140310000D01*
X137480000Y-140640000D01*
G37*
%TO.C,F3*%
X100430000Y-126303752D02*
X100430000Y-121896248D01*
X105770000Y-126303752D02*
X105770000Y-121896248D01*
%TO.C,U1*%
X159590000Y-136490000D02*
X159590000Y-137750000D01*
X159590000Y-143310000D02*
X159590000Y-142050000D01*
X163350000Y-136490000D02*
X159590000Y-136490000D01*
X163350000Y-143310000D02*
X159590000Y-143310000D01*
X164870000Y-143540000D02*
X164390000Y-143540000D01*
X164630000Y-143210000D01*
X164870000Y-143540000D01*
G36*
X164870000Y-143540000D02*
G01*
X164390000Y-143540000D01*
X164630000Y-143210000D01*
X164870000Y-143540000D01*
G37*
%TO.C,SW4*%
X169071573Y-144324264D02*
X169071573Y-144960660D01*
X169248350Y-142662563D02*
X170662563Y-141248350D01*
X170839340Y-146728427D02*
X169071573Y-144960660D01*
X171475736Y-146728427D02*
X170839340Y-146728427D01*
X172324264Y-141071573D02*
X172960660Y-141071573D01*
X173137437Y-146551650D02*
X174551650Y-145137437D01*
X174728427Y-142839340D02*
X172960660Y-141071573D01*
X174728427Y-143475736D02*
X174728427Y-142839340D01*
%TO.C,U7*%
X164000000Y-120240000D02*
X160550000Y-120240000D01*
X164000000Y-120240000D02*
X165950000Y-120240000D01*
X164000000Y-125360000D02*
X162050000Y-125360000D01*
X164000000Y-125360000D02*
X165950000Y-125360000D01*
%TO.C,J3*%
X158300000Y-111700000D02*
X158300000Y-116700000D01*
X158300000Y-116700000D02*
X162700000Y-116700000D01*
X161500000Y-112500000D02*
X161500000Y-111700000D01*
X162700000Y-116700000D02*
X167100000Y-116700000D01*
X163900000Y-111700000D02*
X163900000Y-112500000D01*
X163900000Y-112500000D02*
X161500000Y-112500000D01*
X167100000Y-111700000D02*
X158300000Y-111700000D01*
X167100000Y-116700000D02*
X167100000Y-111700000D01*
%TO.C,R11*%
X156472936Y-125765000D02*
X156927064Y-125765000D01*
X156472936Y-127235000D02*
X156927064Y-127235000D01*
%TO.C,R7*%
X160727064Y-107765000D02*
X160272936Y-107765000D01*
X160727064Y-109235000D02*
X160272936Y-109235000D01*
%TO.C,C8*%
X161938748Y-101315000D02*
X162461252Y-101315000D01*
X161938748Y-102785000D02*
X162461252Y-102785000D01*
%TO.C,U5*%
X130500000Y-113840000D02*
X128550000Y-113840000D01*
X130500000Y-113840000D02*
X132450000Y-113840000D01*
X130500000Y-118960000D02*
X128550000Y-118960000D01*
X130500000Y-118960000D02*
X133950000Y-118960000D01*
%TO.C,U4*%
X167565000Y-115800000D02*
X167565000Y-113850000D01*
X167565000Y-115800000D02*
X167565000Y-117750000D01*
X176435000Y-115800000D02*
X176435000Y-112350000D01*
X176435000Y-115800000D02*
X176435000Y-117750000D01*
%TO.C,C11*%
X172861252Y-119865000D02*
X172338748Y-119865000D01*
X172861252Y-121335000D02*
X172338748Y-121335000D01*
%TO.C,C6*%
X132760000Y-108461252D02*
X132760000Y-107938748D01*
X134230000Y-108461252D02*
X134230000Y-107938748D01*
%TO.C,D2*%
X142340000Y-136840000D02*
X142340000Y-138760000D01*
X142340000Y-138760000D02*
X145200000Y-138760000D01*
X145200000Y-136840000D02*
X142340000Y-136840000D01*
%TO.C,R14*%
X128927064Y-124865000D02*
X128472936Y-124865000D01*
X128927064Y-126335000D02*
X128472936Y-126335000D01*
%TO.C,R6*%
X173765000Y-108927064D02*
X173765000Y-108472936D01*
X175235000Y-108927064D02*
X175235000Y-108472936D01*
%TD*%
%LPC*%
%TO.C,JP1*%
G36*
X111350000Y-137150000D02*
G01*
X109850000Y-137150000D01*
X109850000Y-137450000D01*
X111350000Y-137450000D01*
X111350000Y-137150000D01*
G37*
%TD*%
D13*
%TO.C,F2*%
X103100000Y-130225000D03*
X103100000Y-137175000D03*
%TD*%
D14*
%TO.C,F1*%
X103100000Y-147275000D03*
X103100000Y-140325000D03*
%TD*%
D15*
%TO.C,SW2*%
X172300000Y-104600000D03*
X165700000Y-104600000D03*
X172300000Y-100800000D03*
X165700000Y-100800000D03*
%TD*%
D16*
%TO.C,JP1*%
X110600000Y-136650000D03*
X110600000Y-137950000D03*
%TD*%
D17*
%TO.C,R18*%
X118800000Y-115900000D03*
X118800000Y-117900000D03*
%TD*%
D18*
%TO.C,U3*%
X126010000Y-120025000D03*
X124740000Y-120025000D03*
X123470000Y-120025000D03*
X122200000Y-120025000D03*
X120930000Y-120025000D03*
X119660000Y-120025000D03*
X118390000Y-120025000D03*
X118390000Y-125375000D03*
X119660000Y-125375000D03*
X120930000Y-125375000D03*
X122200000Y-125375000D03*
X123470000Y-125375000D03*
X124740000Y-125375000D03*
X126010000Y-125375000D03*
%TD*%
D19*
%TO.C,C4*%
X154100000Y-139447419D03*
X154100000Y-137372419D03*
%TD*%
%TO.C,C3*%
X156100000Y-139447419D03*
X156100000Y-137372419D03*
%TD*%
D17*
%TO.C,R13*%
X117900000Y-137600000D03*
X117900000Y-139600000D03*
%TD*%
D20*
%TO.C,H4*%
X113000000Y-124000000D03*
%TD*%
D21*
%TO.C,R8*%
X163150000Y-104250000D03*
X161150000Y-104250000D03*
%TD*%
D20*
%TO.C,H2*%
X177000000Y-103500000D03*
%TD*%
D22*
%TO.C,C9*%
X178862500Y-147700000D03*
X180937500Y-147700000D03*
%TD*%
D23*
%TO.C,J9*%
X156800000Y-110200000D03*
X156800000Y-112740000D03*
%TD*%
D24*
%TO.C,D1*%
X127550000Y-104600000D03*
X129450000Y-104600000D03*
X128500000Y-101600000D03*
%TD*%
D25*
%TO.C,R15*%
X119800000Y-139600000D03*
X119800000Y-137600000D03*
%TD*%
D14*
%TO.C,F5*%
X186900000Y-111175000D03*
X186900000Y-104225000D03*
%TD*%
D17*
%TO.C,R16*%
X114185411Y-117542624D03*
X114185411Y-119542624D03*
%TD*%
D13*
%TO.C,F8*%
X186900000Y-137525000D03*
X186900000Y-144475000D03*
%TD*%
D19*
%TO.C,C13*%
X159300000Y-123837500D03*
X159300000Y-121762500D03*
%TD*%
D26*
%TO.C,U2*%
X135995000Y-107690000D03*
X135995000Y-108960000D03*
X135995000Y-110230000D03*
X135995000Y-111500000D03*
X135995000Y-112770000D03*
X135995000Y-114040000D03*
X135995000Y-115310000D03*
X135995000Y-116580000D03*
X135995000Y-117850000D03*
X135995000Y-119120000D03*
X135995000Y-120390000D03*
X135995000Y-121660000D03*
X135995000Y-122930000D03*
X135995000Y-124200000D03*
D27*
X139280000Y-125700000D03*
X140550000Y-125700000D03*
X141820000Y-125700000D03*
X143090000Y-125700000D03*
X144360000Y-125700000D03*
X145630000Y-125700000D03*
X146900000Y-125700000D03*
X148170000Y-125700000D03*
X149440000Y-125700000D03*
X150710000Y-125700000D03*
D28*
X153995000Y-124200000D03*
X153995000Y-122930000D03*
X153995000Y-121660000D03*
X153995000Y-120390000D03*
X153995000Y-119120000D03*
X153995000Y-117850000D03*
X153995000Y-116580000D03*
X153995000Y-115310000D03*
X153995000Y-114040000D03*
X153995000Y-112770000D03*
X153995000Y-111500000D03*
X153995000Y-110230000D03*
X153995000Y-108960000D03*
X153995000Y-107690000D03*
D29*
X143995000Y-115190000D03*
%TD*%
D30*
%TO.C,R12*%
X175100000Y-147700000D03*
X177100000Y-147700000D03*
%TD*%
D31*
%TO.C,Q1*%
X115700000Y-139550000D03*
X115700000Y-137650000D03*
X112700000Y-138600000D03*
%TD*%
D19*
%TO.C,C7*%
X131495000Y-109237500D03*
X131495000Y-107162500D03*
%TD*%
D21*
%TO.C,R2*%
X166000000Y-126500000D03*
X164000000Y-126500000D03*
%TD*%
D20*
%TO.C,H1*%
X113000000Y-103500000D03*
%TD*%
D14*
%TO.C,F7*%
X186900000Y-134875000D03*
X186900000Y-127925000D03*
%TD*%
D25*
%TO.C,R5*%
X172600000Y-109700000D03*
X172600000Y-107700000D03*
%TD*%
D22*
%TO.C,C2*%
X166862500Y-140200000D03*
X168937500Y-140200000D03*
%TD*%
D14*
%TO.C,F6*%
X186900000Y-123075000D03*
X186900000Y-116125000D03*
%TD*%
D20*
%TO.C,H3*%
X177000000Y-124000000D03*
%TD*%
D21*
%TO.C,R19*%
X124900000Y-117700000D03*
X122900000Y-117700000D03*
%TD*%
D32*
%TO.C,C12*%
X124937500Y-115700000D03*
X122862500Y-115700000D03*
%TD*%
D30*
%TO.C,R9*%
X139500000Y-137800000D03*
X141500000Y-137800000D03*
%TD*%
D21*
%TO.C,R10*%
X165700000Y-119000000D03*
X163700000Y-119000000D03*
%TD*%
D14*
%TO.C,F4*%
X103100000Y-116375000D03*
X103100000Y-109425000D03*
%TD*%
D21*
%TO.C,R4*%
X141500000Y-139700000D03*
X139500000Y-139700000D03*
%TD*%
D17*
%TO.C,R17*%
X112285411Y-116300000D03*
X112285411Y-118300000D03*
%TD*%
D33*
%TO.C,SW1*%
X123100000Y-102842500D03*
X120100000Y-102842500D03*
D34*
X123850000Y-104852500D03*
X120850000Y-104852500D03*
X119350000Y-104852500D03*
D35*
X125750000Y-103952500D03*
X125750000Y-101742500D03*
X117450000Y-103952500D03*
X117450000Y-101742500D03*
%TD*%
D21*
%TO.C,R3*%
X162300000Y-126500000D03*
X160300000Y-126500000D03*
%TD*%
D22*
%TO.C,C1*%
X166862500Y-137900000D03*
X168937500Y-137900000D03*
%TD*%
D36*
%TO.C,R1*%
X126150001Y-111300000D03*
X123049999Y-111300000D03*
%TD*%
D37*
%TO.C,C10*%
X128200000Y-127762500D03*
X128200000Y-129837500D03*
%TD*%
D31*
%TO.C,Q2*%
X137400000Y-139650000D03*
X137400000Y-137750000D03*
X134400000Y-138700000D03*
%TD*%
D14*
%TO.C,F3*%
X103100000Y-127575000D03*
X103100000Y-120625000D03*
%TD*%
D38*
%TO.C,U1*%
X164650000Y-142200000D03*
X164650000Y-139900000D03*
D39*
X158350000Y-139900000D03*
D38*
X164650000Y-137600000D03*
%TD*%
D40*
%TO.C,SW4*%
X172889949Y-147576955D03*
X168223045Y-142910051D03*
X175576955Y-144889949D03*
X170910051Y-140223045D03*
%TD*%
D41*
%TO.C,U7*%
X161400000Y-120895000D03*
X161400000Y-122165000D03*
X161400000Y-123435000D03*
X161400000Y-124705000D03*
X166600000Y-124705000D03*
X166600000Y-123435000D03*
X166600000Y-122165000D03*
X166600000Y-120895000D03*
%TD*%
D42*
%TO.C,J3*%
X163970000Y-113565000D03*
D43*
X163970000Y-114835000D03*
X162700000Y-113565000D03*
X162700000Y-114835000D03*
X161430000Y-113565000D03*
X161430000Y-114835000D03*
%TD*%
D30*
%TO.C,R11*%
X155700000Y-126500000D03*
X157700000Y-126500000D03*
%TD*%
D21*
%TO.C,R7*%
X161500000Y-108500000D03*
X159500000Y-108500000D03*
%TD*%
D22*
%TO.C,C8*%
X161162500Y-102050000D03*
X163237500Y-102050000D03*
%TD*%
D44*
%TO.C,U5*%
X133100000Y-118305000D03*
X133100000Y-117035000D03*
X133100000Y-115765000D03*
X133100000Y-114495000D03*
X127900000Y-114495000D03*
X127900000Y-115765000D03*
X127900000Y-117035000D03*
X127900000Y-118305000D03*
%TD*%
D18*
%TO.C,U4*%
X175810000Y-113125000D03*
X174540000Y-113125000D03*
X173270000Y-113125000D03*
X172000000Y-113125000D03*
X170730000Y-113125000D03*
X169460000Y-113125000D03*
X168190000Y-113125000D03*
X168190000Y-118475000D03*
X169460000Y-118475000D03*
X170730000Y-118475000D03*
X172000000Y-118475000D03*
X173270000Y-118475000D03*
X174540000Y-118475000D03*
X175810000Y-118475000D03*
%TD*%
D32*
%TO.C,C11*%
X173637500Y-120600000D03*
X171562500Y-120600000D03*
%TD*%
D19*
%TO.C,C6*%
X133495000Y-109237500D03*
X133495000Y-107162500D03*
%TD*%
D45*
%TO.C,D2*%
X143175000Y-137800000D03*
X145225000Y-137800000D03*
%TD*%
D21*
%TO.C,R14*%
X129700000Y-125600000D03*
X127700000Y-125600000D03*
%TD*%
D25*
%TO.C,R6*%
X174500000Y-109700000D03*
X174500000Y-107700000D03*
%TD*%
D46*
%TO.C,J7*%
X107995000Y-109450000D03*
D47*
X107995000Y-105950000D03*
X107995000Y-102450000D03*
%TD*%
D48*
%TO.C,J14*%
X181995000Y-114350000D03*
D47*
X181995000Y-117850000D03*
X181995000Y-121350000D03*
%TD*%
D49*
%TO.C,U6*%
X133140000Y-120110000D03*
D50*
X130600000Y-120110000D03*
X128060000Y-120110000D03*
X128060000Y-112090000D03*
X130600000Y-112090000D03*
X133140000Y-112090000D03*
%TD*%
D48*
%TO.C,J15*%
X181995000Y-126250000D03*
D47*
X181995000Y-129750000D03*
X181995000Y-133250000D03*
%TD*%
D46*
%TO.C,J1*%
X107995000Y-145200000D03*
D47*
X107995000Y-141700000D03*
X107995000Y-138200000D03*
%TD*%
D51*
%TO.C,J12*%
X131095000Y-142200000D03*
X177295000Y-142200000D03*
D52*
X131095000Y-134900000D03*
D53*
X135295000Y-134900000D03*
X139495000Y-134900000D03*
X143695000Y-134900000D03*
X147895000Y-134900000D03*
X152095000Y-134900000D03*
X156295000Y-134900000D03*
X160495000Y-134900000D03*
X164695000Y-134900000D03*
X168895000Y-134900000D03*
X173095000Y-134900000D03*
X177295000Y-134900000D03*
X131095000Y-129400000D03*
X135295000Y-129400000D03*
X139495000Y-129400000D03*
X143695000Y-129400000D03*
X147895000Y-129400000D03*
X152095000Y-129400000D03*
X156295000Y-129400000D03*
X160495000Y-129400000D03*
X164695000Y-129400000D03*
X168895000Y-129400000D03*
X173095000Y-129400000D03*
X177295000Y-129400000D03*
%TD*%
D54*
%TO.C,Q4*%
X121000000Y-117600000D03*
D55*
X121000000Y-115060000D03*
X121000000Y-112520000D03*
%TD*%
D46*
%TO.C,J2*%
X107995000Y-133250000D03*
D47*
X107995000Y-129750000D03*
X107995000Y-126250000D03*
%TD*%
D56*
%TO.C,U10*%
X111300000Y-107960000D03*
D57*
X111300000Y-110500000D03*
X111300000Y-113040000D03*
%TD*%
D48*
%TO.C,J13*%
X181995000Y-102450000D03*
D47*
X181995000Y-105950000D03*
X181995000Y-109450000D03*
%TD*%
D58*
%TO.C,J17*%
X169100000Y-110600000D03*
D59*
X166560000Y-110600000D03*
X164020000Y-110600000D03*
X161480000Y-110600000D03*
X158940000Y-110600000D03*
%TD*%
D60*
%TO.C,J5*%
X169242500Y-121967500D03*
D61*
X169242500Y-125467500D03*
%TD*%
D62*
%TO.C,U9*%
X133200000Y-124630000D03*
D63*
X131130000Y-125900000D03*
X133200000Y-127170000D03*
%TD*%
D50*
%TO.C,J11*%
X163350000Y-107672500D03*
X165850000Y-107672500D03*
X168350000Y-107672500D03*
X170850000Y-107672500D03*
%TD*%
D64*
%TO.C,J4*%
X119700000Y-107995000D03*
D65*
X123200000Y-107995000D03*
X126700000Y-107995000D03*
%TD*%
D46*
%TO.C,J6*%
X108000000Y-121350000D03*
D47*
X108000000Y-117850000D03*
X108000000Y-114350000D03*
%TD*%
D66*
%TO.C,J18*%
X157100000Y-115560000D03*
D59*
X157100000Y-118100000D03*
X157100000Y-120640000D03*
X157100000Y-123180000D03*
%TD*%
D48*
%TO.C,J16*%
X181995000Y-138150000D03*
D47*
X181995000Y-141650000D03*
X181995000Y-145150000D03*
%TD*%
D54*
%TO.C,Q3*%
X116100000Y-117600000D03*
D55*
X116100000Y-115060000D03*
X116100000Y-112520000D03*
%TD*%
D51*
%TO.C,J8*%
X112695000Y-142100000D03*
X125295000Y-142100000D03*
D52*
X112695000Y-134800000D03*
D53*
X116895000Y-134800000D03*
X121095000Y-134800000D03*
X125295000Y-134800000D03*
X112695000Y-129300000D03*
X116895000Y-129300000D03*
X121095000Y-129300000D03*
X125295000Y-129300000D03*
%TD*%
%LPD*%
M02*
