%TF.GenerationSoftware,KiCad,Pcbnew,9.0.4*%
%TF.CreationDate,2026-01-11T12:06:53+01:00*%
%TF.ProjectId,esp32_octal_wled,65737033-325f-46f6-9374-616c5f776c65,rev?*%
%TF.SameCoordinates,Original*%
%TF.FileFunction,Legend,Bot*%
%TF.FilePolarity,Positive*%
%FSLAX46Y46*%
G04 Gerber Fmt 4.6, Leading zero omitted, Abs format (unit mm)*
G04 Created by KiCad (PCBNEW 9.0.4) date 2026-01-11 12:06:53*
%MOMM*%
%LPD*%
G01*
G04 APERTURE LIST*
G04 Aperture macros list*
%AMRoundRect*
0 Rectangle with rounded corners*
0 $1 Rounding radius*
0 $2 $3 $4 $5 $6 $7 $8 $9 X,Y pos of 4 corners*
0 Add a 4 corners polygon primitive as box body*
4,1,4,$2,$3,$4,$5,$6,$7,$8,$9,$2,$3,0*
0 Add four circle primitives for the rounded corners*
1,1,$1+$1,$2,$3*
1,1,$1+$1,$4,$5*
1,1,$1+$1,$6,$7*
1,1,$1+$1,$8,$9*
0 Add four rect primitives between the rounded corners*
20,1,$1+$1,$2,$3,$4,$5,0*
20,1,$1+$1,$4,$5,$6,$7,0*
20,1,$1+$1,$6,$7,$8,$9,0*
20,1,$1+$1,$8,$9,$2,$3,0*%
G04 Aperture macros list end*
%ADD10C,0.150000*%
%ADD11C,0.300000*%
%ADD12C,0.200000*%
%ADD13C,0.120000*%
%ADD14C,0.100000*%
%ADD15C,3.200000*%
%ADD16C,1.400000*%
%ADD17R,5.000000X5.000000*%
%ADD18C,0.900000*%
%ADD19R,1.000000X1.000000*%
%ADD20O,1.000000X1.000000*%
%ADD21RoundRect,0.250000X1.550000X-0.650000X1.550000X0.650000X-1.550000X0.650000X-1.550000X-0.650000X0*%
%ADD22O,3.600000X1.800000*%
%ADD23RoundRect,0.250000X-1.550000X0.650000X-1.550000X-0.650000X1.550000X-0.650000X1.550000X0.650000X0*%
%ADD24RoundRect,0.400000X0.400000X-0.600000X0.400000X0.600000X-0.400000X0.600000X-0.400000X-0.600000X0*%
%ADD25O,1.600000X2.000000*%
%ADD26C,3.000000*%
%ADD27RoundRect,0.250001X-1.099999X-1.599999X1.099999X-1.599999X1.099999X1.599999X-1.099999X1.599999X0*%
%ADD28O,2.700000X3.700000*%
%ADD29R,2.000000X1.905000*%
%ADD30O,2.000000X1.905000*%
%ADD31RoundRect,0.450000X-0.450000X0.450000X-0.450000X-0.450000X0.450000X-0.450000X0.450000X0.450000X0*%
%ADD32C,1.800000*%
%ADD33RoundRect,0.250000X0.600000X-0.600000X0.600000X0.600000X-0.600000X0.600000X-0.600000X-0.600000X0*%
%ADD34O,1.700000X1.700000*%
%ADD35RoundRect,0.250000X-1.000000X0.650000X-1.000000X-0.650000X1.000000X-0.650000X1.000000X0.650000X0*%
%ADD36O,2.500000X1.800000*%
%ADD37R,1.800000X1.100000*%
%ADD38RoundRect,0.275000X-0.625000X0.275000X-0.625000X-0.275000X0.625000X-0.275000X0.625000X0.275000X0*%
%ADD39RoundRect,0.250000X-0.650000X-1.550000X0.650000X-1.550000X0.650000X1.550000X-0.650000X1.550000X0*%
%ADD40O,1.800000X3.600000*%
%ADD41C,1.700000*%
G04 APERTURE END LIST*
D10*
X129161904Y-126102438D02*
X129257142Y-126054819D01*
X129257142Y-126054819D02*
X129399999Y-126054819D01*
X129399999Y-126054819D02*
X129542856Y-126102438D01*
X129542856Y-126102438D02*
X129638094Y-126197676D01*
X129638094Y-126197676D02*
X129685713Y-126292914D01*
X129685713Y-126292914D02*
X129733332Y-126483390D01*
X129733332Y-126483390D02*
X129733332Y-126626247D01*
X129733332Y-126626247D02*
X129685713Y-126816723D01*
X129685713Y-126816723D02*
X129638094Y-126911961D01*
X129638094Y-126911961D02*
X129542856Y-127007200D01*
X129542856Y-127007200D02*
X129399999Y-127054819D01*
X129399999Y-127054819D02*
X129304761Y-127054819D01*
X129304761Y-127054819D02*
X129161904Y-127007200D01*
X129161904Y-127007200D02*
X129114285Y-126959580D01*
X129114285Y-126959580D02*
X129114285Y-126626247D01*
X129114285Y-126626247D02*
X129304761Y-126626247D01*
X128685713Y-127054819D02*
X128685713Y-126054819D01*
X128685713Y-126054819D02*
X128114285Y-127054819D01*
X128114285Y-127054819D02*
X128114285Y-126054819D01*
X127638094Y-127054819D02*
X127638094Y-126054819D01*
X127638094Y-126054819D02*
X127399999Y-126054819D01*
X127399999Y-126054819D02*
X127257142Y-126102438D01*
X127257142Y-126102438D02*
X127161904Y-126197676D01*
X127161904Y-126197676D02*
X127114285Y-126292914D01*
X127114285Y-126292914D02*
X127066666Y-126483390D01*
X127066666Y-126483390D02*
X127066666Y-126626247D01*
X127066666Y-126626247D02*
X127114285Y-126816723D01*
X127114285Y-126816723D02*
X127161904Y-126911961D01*
X127161904Y-126911961D02*
X127257142Y-127007200D01*
X127257142Y-127007200D02*
X127399999Y-127054819D01*
X127399999Y-127054819D02*
X127638094Y-127054819D01*
D11*
X139800242Y-109725939D02*
X139871671Y-109868797D01*
X139871671Y-109868797D02*
X139871671Y-110083082D01*
X139871671Y-110083082D02*
X139800242Y-110297368D01*
X139800242Y-110297368D02*
X139657385Y-110440225D01*
X139657385Y-110440225D02*
X139514528Y-110511654D01*
X139514528Y-110511654D02*
X139228814Y-110583082D01*
X139228814Y-110583082D02*
X139014528Y-110583082D01*
X139014528Y-110583082D02*
X138728814Y-110511654D01*
X138728814Y-110511654D02*
X138585957Y-110440225D01*
X138585957Y-110440225D02*
X138443100Y-110297368D01*
X138443100Y-110297368D02*
X138371671Y-110083082D01*
X138371671Y-110083082D02*
X138371671Y-109940225D01*
X138371671Y-109940225D02*
X138443100Y-109725939D01*
X138443100Y-109725939D02*
X138514528Y-109654511D01*
X138514528Y-109654511D02*
X139014528Y-109654511D01*
X139014528Y-109654511D02*
X139014528Y-109940225D01*
X138371671Y-109011654D02*
X139871671Y-109011654D01*
X139871671Y-109011654D02*
X138371671Y-108154511D01*
X138371671Y-108154511D02*
X139871671Y-108154511D01*
X138371671Y-107440225D02*
X139871671Y-107440225D01*
X139871671Y-107440225D02*
X139871671Y-107083082D01*
X139871671Y-107083082D02*
X139800242Y-106868796D01*
X139800242Y-106868796D02*
X139657385Y-106725939D01*
X139657385Y-106725939D02*
X139514528Y-106654510D01*
X139514528Y-106654510D02*
X139228814Y-106583082D01*
X139228814Y-106583082D02*
X139014528Y-106583082D01*
X139014528Y-106583082D02*
X138728814Y-106654510D01*
X138728814Y-106654510D02*
X138585957Y-106725939D01*
X138585957Y-106725939D02*
X138443100Y-106868796D01*
X138443100Y-106868796D02*
X138371671Y-107083082D01*
X138371671Y-107083082D02*
X138371671Y-107440225D01*
D10*
X176084398Y-111031009D02*
X175941541Y-111078628D01*
X175941541Y-111078628D02*
X175893922Y-111126247D01*
X175893922Y-111126247D02*
X175846303Y-111221485D01*
X175846303Y-111221485D02*
X175846303Y-111364342D01*
X175846303Y-111364342D02*
X175893922Y-111459580D01*
X175893922Y-111459580D02*
X175941541Y-111507200D01*
X175941541Y-111507200D02*
X176036779Y-111554819D01*
X176036779Y-111554819D02*
X176417731Y-111554819D01*
X176417731Y-111554819D02*
X176417731Y-110554819D01*
X176417731Y-110554819D02*
X176084398Y-110554819D01*
X176084398Y-110554819D02*
X175989160Y-110602438D01*
X175989160Y-110602438D02*
X175941541Y-110650057D01*
X175941541Y-110650057D02*
X175893922Y-110745295D01*
X175893922Y-110745295D02*
X175893922Y-110840533D01*
X175893922Y-110840533D02*
X175941541Y-110935771D01*
X175941541Y-110935771D02*
X175989160Y-110983390D01*
X175989160Y-110983390D02*
X176084398Y-111031009D01*
X176084398Y-111031009D02*
X176417731Y-111031009D01*
X175417731Y-111554819D02*
X175417731Y-110554819D01*
X175417731Y-111031009D02*
X174846303Y-111031009D01*
X174846303Y-111554819D02*
X174846303Y-110554819D01*
X173846303Y-111554819D02*
X174417731Y-111554819D01*
X174132017Y-111554819D02*
X174132017Y-110554819D01*
X174132017Y-110554819D02*
X174227255Y-110697676D01*
X174227255Y-110697676D02*
X174322493Y-110792914D01*
X174322493Y-110792914D02*
X174417731Y-110840533D01*
X173512969Y-110554819D02*
X172846303Y-110554819D01*
X172846303Y-110554819D02*
X173274874Y-111554819D01*
X171989160Y-110554819D02*
X172465350Y-110554819D01*
X172465350Y-110554819D02*
X172512969Y-111031009D01*
X172512969Y-111031009D02*
X172465350Y-110983390D01*
X172465350Y-110983390D02*
X172370112Y-110935771D01*
X172370112Y-110935771D02*
X172132017Y-110935771D01*
X172132017Y-110935771D02*
X172036779Y-110983390D01*
X172036779Y-110983390D02*
X171989160Y-111031009D01*
X171989160Y-111031009D02*
X171941541Y-111126247D01*
X171941541Y-111126247D02*
X171941541Y-111364342D01*
X171941541Y-111364342D02*
X171989160Y-111459580D01*
X171989160Y-111459580D02*
X172036779Y-111507200D01*
X172036779Y-111507200D02*
X172132017Y-111554819D01*
X172132017Y-111554819D02*
X172370112Y-111554819D01*
X172370112Y-111554819D02*
X172465350Y-111507200D01*
X172465350Y-111507200D02*
X172512969Y-111459580D01*
X171322493Y-110554819D02*
X171227255Y-110554819D01*
X171227255Y-110554819D02*
X171132017Y-110602438D01*
X171132017Y-110602438D02*
X171084398Y-110650057D01*
X171084398Y-110650057D02*
X171036779Y-110745295D01*
X171036779Y-110745295D02*
X170989160Y-110935771D01*
X170989160Y-110935771D02*
X170989160Y-111173866D01*
X170989160Y-111173866D02*
X171036779Y-111364342D01*
X171036779Y-111364342D02*
X171084398Y-111459580D01*
X171084398Y-111459580D02*
X171132017Y-111507200D01*
X171132017Y-111507200D02*
X171227255Y-111554819D01*
X171227255Y-111554819D02*
X171322493Y-111554819D01*
X171322493Y-111554819D02*
X171417731Y-111507200D01*
X171417731Y-111507200D02*
X171465350Y-111459580D01*
X171465350Y-111459580D02*
X171512969Y-111364342D01*
X171512969Y-111364342D02*
X171560588Y-111173866D01*
X171560588Y-111173866D02*
X171560588Y-110935771D01*
X171560588Y-110935771D02*
X171512969Y-110745295D01*
X171512969Y-110745295D02*
X171465350Y-110650057D01*
X171465350Y-110650057D02*
X171417731Y-110602438D01*
X171417731Y-110602438D02*
X171322493Y-110554819D01*
D11*
X179516917Y-118506900D02*
X179302632Y-118578328D01*
X179302632Y-118578328D02*
X178945489Y-118578328D01*
X178945489Y-118578328D02*
X178802632Y-118506900D01*
X178802632Y-118506900D02*
X178731203Y-118435471D01*
X178731203Y-118435471D02*
X178659774Y-118292614D01*
X178659774Y-118292614D02*
X178659774Y-118149757D01*
X178659774Y-118149757D02*
X178731203Y-118006900D01*
X178731203Y-118006900D02*
X178802632Y-117935471D01*
X178802632Y-117935471D02*
X178945489Y-117864042D01*
X178945489Y-117864042D02*
X179231203Y-117792614D01*
X179231203Y-117792614D02*
X179374060Y-117721185D01*
X179374060Y-117721185D02*
X179445489Y-117649757D01*
X179445489Y-117649757D02*
X179516917Y-117506900D01*
X179516917Y-117506900D02*
X179516917Y-117364042D01*
X179516917Y-117364042D02*
X179445489Y-117221185D01*
X179445489Y-117221185D02*
X179374060Y-117149757D01*
X179374060Y-117149757D02*
X179231203Y-117078328D01*
X179231203Y-117078328D02*
X178874060Y-117078328D01*
X178874060Y-117078328D02*
X178659774Y-117149757D01*
X177374061Y-117078328D02*
X177659775Y-117078328D01*
X177659775Y-117078328D02*
X177802632Y-117149757D01*
X177802632Y-117149757D02*
X177874061Y-117221185D01*
X177874061Y-117221185D02*
X178016918Y-117435471D01*
X178016918Y-117435471D02*
X178088346Y-117721185D01*
X178088346Y-117721185D02*
X178088346Y-118292614D01*
X178088346Y-118292614D02*
X178016918Y-118435471D01*
X178016918Y-118435471D02*
X177945489Y-118506900D01*
X177945489Y-118506900D02*
X177802632Y-118578328D01*
X177802632Y-118578328D02*
X177516918Y-118578328D01*
X177516918Y-118578328D02*
X177374061Y-118506900D01*
X177374061Y-118506900D02*
X177302632Y-118435471D01*
X177302632Y-118435471D02*
X177231203Y-118292614D01*
X177231203Y-118292614D02*
X177231203Y-117935471D01*
X177231203Y-117935471D02*
X177302632Y-117792614D01*
X177302632Y-117792614D02*
X177374061Y-117721185D01*
X177374061Y-117721185D02*
X177516918Y-117649757D01*
X177516918Y-117649757D02*
X177802632Y-117649757D01*
X177802632Y-117649757D02*
X177945489Y-117721185D01*
X177945489Y-117721185D02*
X178016918Y-117792614D01*
X178016918Y-117792614D02*
X178088346Y-117935471D01*
X110254510Y-114149757D02*
X110397368Y-114078328D01*
X110397368Y-114078328D02*
X110611653Y-114078328D01*
X110611653Y-114078328D02*
X110825939Y-114149757D01*
X110825939Y-114149757D02*
X110968796Y-114292614D01*
X110968796Y-114292614D02*
X111040225Y-114435471D01*
X111040225Y-114435471D02*
X111111653Y-114721185D01*
X111111653Y-114721185D02*
X111111653Y-114935471D01*
X111111653Y-114935471D02*
X111040225Y-115221185D01*
X111040225Y-115221185D02*
X110968796Y-115364042D01*
X110968796Y-115364042D02*
X110825939Y-115506900D01*
X110825939Y-115506900D02*
X110611653Y-115578328D01*
X110611653Y-115578328D02*
X110468796Y-115578328D01*
X110468796Y-115578328D02*
X110254510Y-115506900D01*
X110254510Y-115506900D02*
X110183082Y-115435471D01*
X110183082Y-115435471D02*
X110183082Y-114935471D01*
X110183082Y-114935471D02*
X110468796Y-114935471D01*
D10*
X154988095Y-117602438D02*
X155083333Y-117554819D01*
X155083333Y-117554819D02*
X155226190Y-117554819D01*
X155226190Y-117554819D02*
X155369047Y-117602438D01*
X155369047Y-117602438D02*
X155464285Y-117697676D01*
X155464285Y-117697676D02*
X155511904Y-117792914D01*
X155511904Y-117792914D02*
X155559523Y-117983390D01*
X155559523Y-117983390D02*
X155559523Y-118126247D01*
X155559523Y-118126247D02*
X155511904Y-118316723D01*
X155511904Y-118316723D02*
X155464285Y-118411961D01*
X155464285Y-118411961D02*
X155369047Y-118507200D01*
X155369047Y-118507200D02*
X155226190Y-118554819D01*
X155226190Y-118554819D02*
X155130952Y-118554819D01*
X155130952Y-118554819D02*
X154988095Y-118507200D01*
X154988095Y-118507200D02*
X154940476Y-118459580D01*
X154940476Y-118459580D02*
X154940476Y-118126247D01*
X154940476Y-118126247D02*
X155130952Y-118126247D01*
D11*
X112768795Y-106606900D02*
X112554510Y-106678328D01*
X112554510Y-106678328D02*
X112197367Y-106678328D01*
X112197367Y-106678328D02*
X112054510Y-106606900D01*
X112054510Y-106606900D02*
X111983081Y-106535471D01*
X111983081Y-106535471D02*
X111911652Y-106392614D01*
X111911652Y-106392614D02*
X111911652Y-106249757D01*
X111911652Y-106249757D02*
X111983081Y-106106900D01*
X111983081Y-106106900D02*
X112054510Y-106035471D01*
X112054510Y-106035471D02*
X112197367Y-105964042D01*
X112197367Y-105964042D02*
X112483081Y-105892614D01*
X112483081Y-105892614D02*
X112625938Y-105821185D01*
X112625938Y-105821185D02*
X112697367Y-105749757D01*
X112697367Y-105749757D02*
X112768795Y-105606900D01*
X112768795Y-105606900D02*
X112768795Y-105464042D01*
X112768795Y-105464042D02*
X112697367Y-105321185D01*
X112697367Y-105321185D02*
X112625938Y-105249757D01*
X112625938Y-105249757D02*
X112483081Y-105178328D01*
X112483081Y-105178328D02*
X112125938Y-105178328D01*
X112125938Y-105178328D02*
X111911652Y-105249757D01*
X110625939Y-105678328D02*
X110625939Y-106678328D01*
X110983081Y-105106900D02*
X111340224Y-106178328D01*
X111340224Y-106178328D02*
X110411653Y-106178328D01*
D10*
X155533332Y-115054819D02*
X154914285Y-115054819D01*
X154914285Y-115054819D02*
X155247618Y-115435771D01*
X155247618Y-115435771D02*
X155104761Y-115435771D01*
X155104761Y-115435771D02*
X155009523Y-115483390D01*
X155009523Y-115483390D02*
X154961904Y-115531009D01*
X154961904Y-115531009D02*
X154914285Y-115626247D01*
X154914285Y-115626247D02*
X154914285Y-115864342D01*
X154914285Y-115864342D02*
X154961904Y-115959580D01*
X154961904Y-115959580D02*
X155009523Y-116007200D01*
X155009523Y-116007200D02*
X155104761Y-116054819D01*
X155104761Y-116054819D02*
X155390475Y-116054819D01*
X155390475Y-116054819D02*
X155485713Y-116007200D01*
X155485713Y-116007200D02*
X155533332Y-115959580D01*
D11*
X163311654Y-121935471D02*
X163383082Y-122006900D01*
X163383082Y-122006900D02*
X163597368Y-122078328D01*
X163597368Y-122078328D02*
X163740225Y-122078328D01*
X163740225Y-122078328D02*
X163954511Y-122006900D01*
X163954511Y-122006900D02*
X164097368Y-121864042D01*
X164097368Y-121864042D02*
X164168797Y-121721185D01*
X164168797Y-121721185D02*
X164240225Y-121435471D01*
X164240225Y-121435471D02*
X164240225Y-121221185D01*
X164240225Y-121221185D02*
X164168797Y-120935471D01*
X164168797Y-120935471D02*
X164097368Y-120792614D01*
X164097368Y-120792614D02*
X163954511Y-120649757D01*
X163954511Y-120649757D02*
X163740225Y-120578328D01*
X163740225Y-120578328D02*
X163597368Y-120578328D01*
X163597368Y-120578328D02*
X163383082Y-120649757D01*
X163383082Y-120649757D02*
X163311654Y-120721185D01*
X162740225Y-121649757D02*
X162025940Y-121649757D01*
X162883082Y-122078328D02*
X162383082Y-120578328D01*
X162383082Y-120578328D02*
X161883082Y-122078328D01*
X161383083Y-122078328D02*
X161383083Y-120578328D01*
X161383083Y-120578328D02*
X160525940Y-122078328D01*
X160525940Y-122078328D02*
X160525940Y-120578328D01*
X159811654Y-122078328D02*
X159811654Y-120578328D01*
X159811654Y-121292614D02*
X158954511Y-121292614D01*
X158954511Y-122078328D02*
X158954511Y-120578328D01*
X163254511Y-125435471D02*
X163325939Y-125506900D01*
X163325939Y-125506900D02*
X163540225Y-125578328D01*
X163540225Y-125578328D02*
X163683082Y-125578328D01*
X163683082Y-125578328D02*
X163897368Y-125506900D01*
X163897368Y-125506900D02*
X164040225Y-125364042D01*
X164040225Y-125364042D02*
X164111654Y-125221185D01*
X164111654Y-125221185D02*
X164183082Y-124935471D01*
X164183082Y-124935471D02*
X164183082Y-124721185D01*
X164183082Y-124721185D02*
X164111654Y-124435471D01*
X164111654Y-124435471D02*
X164040225Y-124292614D01*
X164040225Y-124292614D02*
X163897368Y-124149757D01*
X163897368Y-124149757D02*
X163683082Y-124078328D01*
X163683082Y-124078328D02*
X163540225Y-124078328D01*
X163540225Y-124078328D02*
X163325939Y-124149757D01*
X163325939Y-124149757D02*
X163254511Y-124221185D01*
X162683082Y-125149757D02*
X161968797Y-125149757D01*
X162825939Y-125578328D02*
X162325939Y-124078328D01*
X162325939Y-124078328D02*
X161825939Y-125578328D01*
X161325940Y-125578328D02*
X161325940Y-124078328D01*
X161325940Y-124078328D02*
X160468797Y-125578328D01*
X160468797Y-125578328D02*
X160468797Y-124078328D01*
X159040225Y-125578328D02*
X159754511Y-125578328D01*
X159754511Y-125578328D02*
X159754511Y-124078328D01*
X113597366Y-122078328D02*
X114454509Y-122078328D01*
X114025938Y-122078328D02*
X114025938Y-120578328D01*
X114025938Y-120578328D02*
X114168795Y-120792614D01*
X114168795Y-120792614D02*
X114311652Y-120935471D01*
X114311652Y-120935471D02*
X114454509Y-121006900D01*
X113025938Y-120721185D02*
X112954510Y-120649757D01*
X112954510Y-120649757D02*
X112811653Y-120578328D01*
X112811653Y-120578328D02*
X112454510Y-120578328D01*
X112454510Y-120578328D02*
X112311653Y-120649757D01*
X112311653Y-120649757D02*
X112240224Y-120721185D01*
X112240224Y-120721185D02*
X112168795Y-120864042D01*
X112168795Y-120864042D02*
X112168795Y-121006900D01*
X112168795Y-121006900D02*
X112240224Y-121221185D01*
X112240224Y-121221185D02*
X113097367Y-122078328D01*
X113097367Y-122078328D02*
X112168795Y-122078328D01*
X111740224Y-120578328D02*
X111240224Y-122078328D01*
X111240224Y-122078328D02*
X110740224Y-120578328D01*
X113025939Y-100349757D02*
X113168797Y-100278328D01*
X113168797Y-100278328D02*
X113383082Y-100278328D01*
X113383082Y-100278328D02*
X113597368Y-100349757D01*
X113597368Y-100349757D02*
X113740225Y-100492614D01*
X113740225Y-100492614D02*
X113811654Y-100635471D01*
X113811654Y-100635471D02*
X113883082Y-100921185D01*
X113883082Y-100921185D02*
X113883082Y-101135471D01*
X113883082Y-101135471D02*
X113811654Y-101421185D01*
X113811654Y-101421185D02*
X113740225Y-101564042D01*
X113740225Y-101564042D02*
X113597368Y-101706900D01*
X113597368Y-101706900D02*
X113383082Y-101778328D01*
X113383082Y-101778328D02*
X113240225Y-101778328D01*
X113240225Y-101778328D02*
X113025939Y-101706900D01*
X113025939Y-101706900D02*
X112954511Y-101635471D01*
X112954511Y-101635471D02*
X112954511Y-101135471D01*
X112954511Y-101135471D02*
X113240225Y-101135471D01*
X112311654Y-101778328D02*
X112311654Y-100278328D01*
X112311654Y-100278328D02*
X111454511Y-101778328D01*
X111454511Y-101778328D02*
X111454511Y-100278328D01*
X110740225Y-101778328D02*
X110740225Y-100278328D01*
X110740225Y-100278328D02*
X110383082Y-100278328D01*
X110383082Y-100278328D02*
X110168796Y-100349757D01*
X110168796Y-100349757D02*
X110025939Y-100492614D01*
X110025939Y-100492614D02*
X109954510Y-100635471D01*
X109954510Y-100635471D02*
X109883082Y-100921185D01*
X109883082Y-100921185D02*
X109883082Y-101135471D01*
X109883082Y-101135471D02*
X109954510Y-101421185D01*
X109954510Y-101421185D02*
X110025939Y-101564042D01*
X110025939Y-101564042D02*
X110168796Y-101706900D01*
X110168796Y-101706900D02*
X110383082Y-101778328D01*
X110383082Y-101778328D02*
X110740225Y-101778328D01*
D10*
X155611904Y-109754819D02*
X155040476Y-109754819D01*
X155326190Y-110754819D02*
X155326190Y-109754819D01*
X154802380Y-109754819D02*
X154135714Y-110754819D01*
X154135714Y-109754819D02*
X154802380Y-110754819D01*
D11*
X178759774Y-101778328D02*
X179616917Y-101778328D01*
X179188346Y-101778328D02*
X179188346Y-100278328D01*
X179188346Y-100278328D02*
X179331203Y-100492614D01*
X179331203Y-100492614D02*
X179474060Y-100635471D01*
X179474060Y-100635471D02*
X179616917Y-100706900D01*
X178188346Y-100421185D02*
X178116918Y-100349757D01*
X178116918Y-100349757D02*
X177974061Y-100278328D01*
X177974061Y-100278328D02*
X177616918Y-100278328D01*
X177616918Y-100278328D02*
X177474061Y-100349757D01*
X177474061Y-100349757D02*
X177402632Y-100421185D01*
X177402632Y-100421185D02*
X177331203Y-100564042D01*
X177331203Y-100564042D02*
X177331203Y-100706900D01*
X177331203Y-100706900D02*
X177402632Y-100921185D01*
X177402632Y-100921185D02*
X178259775Y-101778328D01*
X178259775Y-101778328D02*
X177331203Y-101778328D01*
X176902632Y-100278328D02*
X176402632Y-101778328D01*
X176402632Y-101778328D02*
X175902632Y-100278328D01*
X109893100Y-119068795D02*
X109821671Y-118854510D01*
X109821671Y-118854510D02*
X109821671Y-118497367D01*
X109821671Y-118497367D02*
X109893100Y-118354510D01*
X109893100Y-118354510D02*
X109964528Y-118283081D01*
X109964528Y-118283081D02*
X110107385Y-118211652D01*
X110107385Y-118211652D02*
X110250242Y-118211652D01*
X110250242Y-118211652D02*
X110393100Y-118283081D01*
X110393100Y-118283081D02*
X110464528Y-118354510D01*
X110464528Y-118354510D02*
X110535957Y-118497367D01*
X110535957Y-118497367D02*
X110607385Y-118783081D01*
X110607385Y-118783081D02*
X110678814Y-118925938D01*
X110678814Y-118925938D02*
X110750242Y-118997367D01*
X110750242Y-118997367D02*
X110893100Y-119068795D01*
X110893100Y-119068795D02*
X111035957Y-119068795D01*
X111035957Y-119068795D02*
X111178814Y-118997367D01*
X111178814Y-118997367D02*
X111250242Y-118925938D01*
X111250242Y-118925938D02*
X111321671Y-118783081D01*
X111321671Y-118783081D02*
X111321671Y-118425938D01*
X111321671Y-118425938D02*
X111250242Y-118211652D01*
X111321671Y-117711653D02*
X111321671Y-116783081D01*
X111321671Y-116783081D02*
X110750242Y-117283081D01*
X110750242Y-117283081D02*
X110750242Y-117068796D01*
X110750242Y-117068796D02*
X110678814Y-116925939D01*
X110678814Y-116925939D02*
X110607385Y-116854510D01*
X110607385Y-116854510D02*
X110464528Y-116783081D01*
X110464528Y-116783081D02*
X110107385Y-116783081D01*
X110107385Y-116783081D02*
X109964528Y-116854510D01*
X109964528Y-116854510D02*
X109893100Y-116925939D01*
X109893100Y-116925939D02*
X109821671Y-117068796D01*
X109821671Y-117068796D02*
X109821671Y-117497367D01*
X109821671Y-117497367D02*
X109893100Y-117640224D01*
X109893100Y-117640224D02*
X109964528Y-117711653D01*
X178659774Y-144449757D02*
X178802632Y-144378328D01*
X178802632Y-144378328D02*
X179016917Y-144378328D01*
X179016917Y-144378328D02*
X179231203Y-144449757D01*
X179231203Y-144449757D02*
X179374060Y-144592614D01*
X179374060Y-144592614D02*
X179445489Y-144735471D01*
X179445489Y-144735471D02*
X179516917Y-145021185D01*
X179516917Y-145021185D02*
X179516917Y-145235471D01*
X179516917Y-145235471D02*
X179445489Y-145521185D01*
X179445489Y-145521185D02*
X179374060Y-145664042D01*
X179374060Y-145664042D02*
X179231203Y-145806900D01*
X179231203Y-145806900D02*
X179016917Y-145878328D01*
X179016917Y-145878328D02*
X178874060Y-145878328D01*
X178874060Y-145878328D02*
X178659774Y-145806900D01*
X178659774Y-145806900D02*
X178588346Y-145735471D01*
X178588346Y-145735471D02*
X178588346Y-145235471D01*
X178588346Y-145235471D02*
X178874060Y-145235471D01*
X177945489Y-145878328D02*
X177945489Y-144378328D01*
X177945489Y-144378328D02*
X177088346Y-145878328D01*
X177088346Y-145878328D02*
X177088346Y-144378328D01*
X176374060Y-145878328D02*
X176374060Y-144378328D01*
X176374060Y-144378328D02*
X176016917Y-144378328D01*
X176016917Y-144378328D02*
X175802631Y-144449757D01*
X175802631Y-144449757D02*
X175659774Y-144592614D01*
X175659774Y-144592614D02*
X175588345Y-144735471D01*
X175588345Y-144735471D02*
X175516917Y-145021185D01*
X175516917Y-145021185D02*
X175516917Y-145235471D01*
X175516917Y-145235471D02*
X175588345Y-145521185D01*
X175588345Y-145521185D02*
X175659774Y-145664042D01*
X175659774Y-145664042D02*
X175802631Y-145806900D01*
X175802631Y-145806900D02*
X176016917Y-145878328D01*
X176016917Y-145878328D02*
X176374060Y-145878328D01*
D10*
X155461904Y-123654819D02*
X155461904Y-122654819D01*
X155461904Y-122654819D02*
X155223809Y-122654819D01*
X155223809Y-122654819D02*
X155080952Y-122702438D01*
X155080952Y-122702438D02*
X154985714Y-122797676D01*
X154985714Y-122797676D02*
X154938095Y-122892914D01*
X154938095Y-122892914D02*
X154890476Y-123083390D01*
X154890476Y-123083390D02*
X154890476Y-123226247D01*
X154890476Y-123226247D02*
X154938095Y-123416723D01*
X154938095Y-123416723D02*
X154985714Y-123511961D01*
X154985714Y-123511961D02*
X155080952Y-123607200D01*
X155080952Y-123607200D02*
X155223809Y-123654819D01*
X155223809Y-123654819D02*
X155461904Y-123654819D01*
X115398684Y-132554819D02*
X115970112Y-132554819D01*
X115684398Y-132554819D02*
X115684398Y-131554819D01*
X115684398Y-131554819D02*
X115779636Y-131697676D01*
X115779636Y-131697676D02*
X115874874Y-131792914D01*
X115874874Y-131792914D02*
X115970112Y-131840533D01*
X115017731Y-131650057D02*
X114970112Y-131602438D01*
X114970112Y-131602438D02*
X114874874Y-131554819D01*
X114874874Y-131554819D02*
X114636779Y-131554819D01*
X114636779Y-131554819D02*
X114541541Y-131602438D01*
X114541541Y-131602438D02*
X114493922Y-131650057D01*
X114493922Y-131650057D02*
X114446303Y-131745295D01*
X114446303Y-131745295D02*
X114446303Y-131840533D01*
X114446303Y-131840533D02*
X114493922Y-131983390D01*
X114493922Y-131983390D02*
X115065350Y-132554819D01*
X115065350Y-132554819D02*
X114446303Y-132554819D01*
X114160588Y-131554819D02*
X113827255Y-132554819D01*
X113827255Y-132554819D02*
X113493922Y-131554819D01*
X128785713Y-118707200D02*
X128642856Y-118754819D01*
X128642856Y-118754819D02*
X128404761Y-118754819D01*
X128404761Y-118754819D02*
X128309523Y-118707200D01*
X128309523Y-118707200D02*
X128261904Y-118659580D01*
X128261904Y-118659580D02*
X128214285Y-118564342D01*
X128214285Y-118564342D02*
X128214285Y-118469104D01*
X128214285Y-118469104D02*
X128261904Y-118373866D01*
X128261904Y-118373866D02*
X128309523Y-118326247D01*
X128309523Y-118326247D02*
X128404761Y-118278628D01*
X128404761Y-118278628D02*
X128595237Y-118231009D01*
X128595237Y-118231009D02*
X128690475Y-118183390D01*
X128690475Y-118183390D02*
X128738094Y-118135771D01*
X128738094Y-118135771D02*
X128785713Y-118040533D01*
X128785713Y-118040533D02*
X128785713Y-117945295D01*
X128785713Y-117945295D02*
X128738094Y-117850057D01*
X128738094Y-117850057D02*
X128690475Y-117802438D01*
X128690475Y-117802438D02*
X128595237Y-117754819D01*
X128595237Y-117754819D02*
X128357142Y-117754819D01*
X128357142Y-117754819D02*
X128214285Y-117802438D01*
X127214285Y-118659580D02*
X127261904Y-118707200D01*
X127261904Y-118707200D02*
X127404761Y-118754819D01*
X127404761Y-118754819D02*
X127499999Y-118754819D01*
X127499999Y-118754819D02*
X127642856Y-118707200D01*
X127642856Y-118707200D02*
X127738094Y-118611961D01*
X127738094Y-118611961D02*
X127785713Y-118516723D01*
X127785713Y-118516723D02*
X127833332Y-118326247D01*
X127833332Y-118326247D02*
X127833332Y-118183390D01*
X127833332Y-118183390D02*
X127785713Y-117992914D01*
X127785713Y-117992914D02*
X127738094Y-117897676D01*
X127738094Y-117897676D02*
X127642856Y-117802438D01*
X127642856Y-117802438D02*
X127499999Y-117754819D01*
X127499999Y-117754819D02*
X127404761Y-117754819D01*
X127404761Y-117754819D02*
X127261904Y-117802438D01*
X127261904Y-117802438D02*
X127214285Y-117850057D01*
D11*
X113225939Y-137549757D02*
X113368797Y-137478328D01*
X113368797Y-137478328D02*
X113583082Y-137478328D01*
X113583082Y-137478328D02*
X113797368Y-137549757D01*
X113797368Y-137549757D02*
X113940225Y-137692614D01*
X113940225Y-137692614D02*
X114011654Y-137835471D01*
X114011654Y-137835471D02*
X114083082Y-138121185D01*
X114083082Y-138121185D02*
X114083082Y-138335471D01*
X114083082Y-138335471D02*
X114011654Y-138621185D01*
X114011654Y-138621185D02*
X113940225Y-138764042D01*
X113940225Y-138764042D02*
X113797368Y-138906900D01*
X113797368Y-138906900D02*
X113583082Y-138978328D01*
X113583082Y-138978328D02*
X113440225Y-138978328D01*
X113440225Y-138978328D02*
X113225939Y-138906900D01*
X113225939Y-138906900D02*
X113154511Y-138835471D01*
X113154511Y-138835471D02*
X113154511Y-138335471D01*
X113154511Y-138335471D02*
X113440225Y-138335471D01*
X112511654Y-138978328D02*
X112511654Y-137478328D01*
X112511654Y-137478328D02*
X111654511Y-138978328D01*
X111654511Y-138978328D02*
X111654511Y-137478328D01*
X110940225Y-138978328D02*
X110940225Y-137478328D01*
X110940225Y-137478328D02*
X110583082Y-137478328D01*
X110583082Y-137478328D02*
X110368796Y-137549757D01*
X110368796Y-137549757D02*
X110225939Y-137692614D01*
X110225939Y-137692614D02*
X110154510Y-137835471D01*
X110154510Y-137835471D02*
X110083082Y-138121185D01*
X110083082Y-138121185D02*
X110083082Y-138335471D01*
X110083082Y-138335471D02*
X110154510Y-138621185D01*
X110154510Y-138621185D02*
X110225939Y-138764042D01*
X110225939Y-138764042D02*
X110368796Y-138906900D01*
X110368796Y-138906900D02*
X110583082Y-138978328D01*
X110583082Y-138978328D02*
X110940225Y-138978328D01*
X179516917Y-106506900D02*
X179302632Y-106578328D01*
X179302632Y-106578328D02*
X178945489Y-106578328D01*
X178945489Y-106578328D02*
X178802632Y-106506900D01*
X178802632Y-106506900D02*
X178731203Y-106435471D01*
X178731203Y-106435471D02*
X178659774Y-106292614D01*
X178659774Y-106292614D02*
X178659774Y-106149757D01*
X178659774Y-106149757D02*
X178731203Y-106006900D01*
X178731203Y-106006900D02*
X178802632Y-105935471D01*
X178802632Y-105935471D02*
X178945489Y-105864042D01*
X178945489Y-105864042D02*
X179231203Y-105792614D01*
X179231203Y-105792614D02*
X179374060Y-105721185D01*
X179374060Y-105721185D02*
X179445489Y-105649757D01*
X179445489Y-105649757D02*
X179516917Y-105506900D01*
X179516917Y-105506900D02*
X179516917Y-105364042D01*
X179516917Y-105364042D02*
X179445489Y-105221185D01*
X179445489Y-105221185D02*
X179374060Y-105149757D01*
X179374060Y-105149757D02*
X179231203Y-105078328D01*
X179231203Y-105078328D02*
X178874060Y-105078328D01*
X178874060Y-105078328D02*
X178659774Y-105149757D01*
X177302632Y-105078328D02*
X178016918Y-105078328D01*
X178016918Y-105078328D02*
X178088346Y-105792614D01*
X178088346Y-105792614D02*
X178016918Y-105721185D01*
X178016918Y-105721185D02*
X177874061Y-105649757D01*
X177874061Y-105649757D02*
X177516918Y-105649757D01*
X177516918Y-105649757D02*
X177374061Y-105721185D01*
X177374061Y-105721185D02*
X177302632Y-105792614D01*
X177302632Y-105792614D02*
X177231203Y-105935471D01*
X177231203Y-105935471D02*
X177231203Y-106292614D01*
X177231203Y-106292614D02*
X177302632Y-106435471D01*
X177302632Y-106435471D02*
X177374061Y-106506900D01*
X177374061Y-106506900D02*
X177516918Y-106578328D01*
X177516918Y-106578328D02*
X177874061Y-106578328D01*
X177874061Y-106578328D02*
X178016918Y-106506900D01*
X178016918Y-106506900D02*
X178088346Y-106435471D01*
X137121671Y-111083081D02*
X136121671Y-111083081D01*
X137693100Y-111440223D02*
X136621671Y-111797366D01*
X136621671Y-111797366D02*
X136621671Y-110868795D01*
X136978814Y-110083081D02*
X137050242Y-110225938D01*
X137050242Y-110225938D02*
X137121671Y-110297367D01*
X137121671Y-110297367D02*
X137264528Y-110368795D01*
X137264528Y-110368795D02*
X137335957Y-110368795D01*
X137335957Y-110368795D02*
X137478814Y-110297367D01*
X137478814Y-110297367D02*
X137550242Y-110225938D01*
X137550242Y-110225938D02*
X137621671Y-110083081D01*
X137621671Y-110083081D02*
X137621671Y-109797367D01*
X137621671Y-109797367D02*
X137550242Y-109654510D01*
X137550242Y-109654510D02*
X137478814Y-109583081D01*
X137478814Y-109583081D02*
X137335957Y-109511652D01*
X137335957Y-109511652D02*
X137264528Y-109511652D01*
X137264528Y-109511652D02*
X137121671Y-109583081D01*
X137121671Y-109583081D02*
X137050242Y-109654510D01*
X137050242Y-109654510D02*
X136978814Y-109797367D01*
X136978814Y-109797367D02*
X136978814Y-110083081D01*
X136978814Y-110083081D02*
X136907385Y-110225938D01*
X136907385Y-110225938D02*
X136835957Y-110297367D01*
X136835957Y-110297367D02*
X136693100Y-110368795D01*
X136693100Y-110368795D02*
X136407385Y-110368795D01*
X136407385Y-110368795D02*
X136264528Y-110297367D01*
X136264528Y-110297367D02*
X136193100Y-110225938D01*
X136193100Y-110225938D02*
X136121671Y-110083081D01*
X136121671Y-110083081D02*
X136121671Y-109797367D01*
X136121671Y-109797367D02*
X136193100Y-109654510D01*
X136193100Y-109654510D02*
X136264528Y-109583081D01*
X136264528Y-109583081D02*
X136407385Y-109511652D01*
X136407385Y-109511652D02*
X136693100Y-109511652D01*
X136693100Y-109511652D02*
X136835957Y-109583081D01*
X136835957Y-109583081D02*
X136907385Y-109654510D01*
X136907385Y-109654510D02*
X136978814Y-109797367D01*
X137621671Y-108154510D02*
X137621671Y-108868796D01*
X137621671Y-108868796D02*
X136907385Y-108940224D01*
X136907385Y-108940224D02*
X136978814Y-108868796D01*
X136978814Y-108868796D02*
X137050242Y-108725939D01*
X137050242Y-108725939D02*
X137050242Y-108368796D01*
X137050242Y-108368796D02*
X136978814Y-108225939D01*
X136978814Y-108225939D02*
X136907385Y-108154510D01*
X136907385Y-108154510D02*
X136764528Y-108083081D01*
X136764528Y-108083081D02*
X136407385Y-108083081D01*
X136407385Y-108083081D02*
X136264528Y-108154510D01*
X136264528Y-108154510D02*
X136193100Y-108225939D01*
X136193100Y-108225939D02*
X136121671Y-108368796D01*
X136121671Y-108368796D02*
X136121671Y-108725939D01*
X136121671Y-108725939D02*
X136193100Y-108868796D01*
X136193100Y-108868796D02*
X136264528Y-108940224D01*
X136907385Y-106940225D02*
X136835957Y-106725939D01*
X136835957Y-106725939D02*
X136764528Y-106654510D01*
X136764528Y-106654510D02*
X136621671Y-106583082D01*
X136621671Y-106583082D02*
X136407385Y-106583082D01*
X136407385Y-106583082D02*
X136264528Y-106654510D01*
X136264528Y-106654510D02*
X136193100Y-106725939D01*
X136193100Y-106725939D02*
X136121671Y-106868796D01*
X136121671Y-106868796D02*
X136121671Y-107440225D01*
X136121671Y-107440225D02*
X137621671Y-107440225D01*
X137621671Y-107440225D02*
X137621671Y-106940225D01*
X137621671Y-106940225D02*
X137550242Y-106797368D01*
X137550242Y-106797368D02*
X137478814Y-106725939D01*
X137478814Y-106725939D02*
X137335957Y-106654510D01*
X137335957Y-106654510D02*
X137193100Y-106654510D01*
X137193100Y-106654510D02*
X137050242Y-106725939D01*
X137050242Y-106725939D02*
X136978814Y-106797368D01*
X136978814Y-106797368D02*
X136907385Y-106940225D01*
X136907385Y-106940225D02*
X136907385Y-107440225D01*
D10*
X110092800Y-130512969D02*
X110045180Y-130370112D01*
X110045180Y-130370112D02*
X110045180Y-130132017D01*
X110045180Y-130132017D02*
X110092800Y-130036779D01*
X110092800Y-130036779D02*
X110140419Y-129989160D01*
X110140419Y-129989160D02*
X110235657Y-129941541D01*
X110235657Y-129941541D02*
X110330895Y-129941541D01*
X110330895Y-129941541D02*
X110426133Y-129989160D01*
X110426133Y-129989160D02*
X110473752Y-130036779D01*
X110473752Y-130036779D02*
X110521371Y-130132017D01*
X110521371Y-130132017D02*
X110568990Y-130322493D01*
X110568990Y-130322493D02*
X110616609Y-130417731D01*
X110616609Y-130417731D02*
X110664228Y-130465350D01*
X110664228Y-130465350D02*
X110759466Y-130512969D01*
X110759466Y-130512969D02*
X110854704Y-130512969D01*
X110854704Y-130512969D02*
X110949942Y-130465350D01*
X110949942Y-130465350D02*
X110997561Y-130417731D01*
X110997561Y-130417731D02*
X111045180Y-130322493D01*
X111045180Y-130322493D02*
X111045180Y-130084398D01*
X111045180Y-130084398D02*
X110997561Y-129941541D01*
X110949942Y-129560588D02*
X110997561Y-129512969D01*
X110997561Y-129512969D02*
X111045180Y-129417731D01*
X111045180Y-129417731D02*
X111045180Y-129179636D01*
X111045180Y-129179636D02*
X110997561Y-129084398D01*
X110997561Y-129084398D02*
X110949942Y-129036779D01*
X110949942Y-129036779D02*
X110854704Y-128989160D01*
X110854704Y-128989160D02*
X110759466Y-128989160D01*
X110759466Y-128989160D02*
X110616609Y-129036779D01*
X110616609Y-129036779D02*
X110045180Y-129608207D01*
X110045180Y-129608207D02*
X110045180Y-128989160D01*
D11*
X167893100Y-115685713D02*
X167821671Y-115471428D01*
X167821671Y-115471428D02*
X167821671Y-115114285D01*
X167821671Y-115114285D02*
X167893100Y-114971428D01*
X167893100Y-114971428D02*
X167964528Y-114899999D01*
X167964528Y-114899999D02*
X168107385Y-114828570D01*
X168107385Y-114828570D02*
X168250242Y-114828570D01*
X168250242Y-114828570D02*
X168393100Y-114899999D01*
X168393100Y-114899999D02*
X168464528Y-114971428D01*
X168464528Y-114971428D02*
X168535957Y-115114285D01*
X168535957Y-115114285D02*
X168607385Y-115399999D01*
X168607385Y-115399999D02*
X168678814Y-115542856D01*
X168678814Y-115542856D02*
X168750242Y-115614285D01*
X168750242Y-115614285D02*
X168893100Y-115685713D01*
X168893100Y-115685713D02*
X169035957Y-115685713D01*
X169035957Y-115685713D02*
X169178814Y-115614285D01*
X169178814Y-115614285D02*
X169250242Y-115542856D01*
X169250242Y-115542856D02*
X169321671Y-115399999D01*
X169321671Y-115399999D02*
X169321671Y-115042856D01*
X169321671Y-115042856D02*
X169250242Y-114828570D01*
X167964528Y-113328571D02*
X167893100Y-113399999D01*
X167893100Y-113399999D02*
X167821671Y-113614285D01*
X167821671Y-113614285D02*
X167821671Y-113757142D01*
X167821671Y-113757142D02*
X167893100Y-113971428D01*
X167893100Y-113971428D02*
X168035957Y-114114285D01*
X168035957Y-114114285D02*
X168178814Y-114185714D01*
X168178814Y-114185714D02*
X168464528Y-114257142D01*
X168464528Y-114257142D02*
X168678814Y-114257142D01*
X168678814Y-114257142D02*
X168964528Y-114185714D01*
X168964528Y-114185714D02*
X169107385Y-114114285D01*
X169107385Y-114114285D02*
X169250242Y-113971428D01*
X169250242Y-113971428D02*
X169321671Y-113757142D01*
X169321671Y-113757142D02*
X169321671Y-113614285D01*
X169321671Y-113614285D02*
X169250242Y-113399999D01*
X169250242Y-113399999D02*
X169178814Y-113328571D01*
X167821671Y-111971428D02*
X167821671Y-112685714D01*
X167821671Y-112685714D02*
X169321671Y-112685714D01*
X178659774Y-131549757D02*
X178802632Y-131478328D01*
X178802632Y-131478328D02*
X179016917Y-131478328D01*
X179016917Y-131478328D02*
X179231203Y-131549757D01*
X179231203Y-131549757D02*
X179374060Y-131692614D01*
X179374060Y-131692614D02*
X179445489Y-131835471D01*
X179445489Y-131835471D02*
X179516917Y-132121185D01*
X179516917Y-132121185D02*
X179516917Y-132335471D01*
X179516917Y-132335471D02*
X179445489Y-132621185D01*
X179445489Y-132621185D02*
X179374060Y-132764042D01*
X179374060Y-132764042D02*
X179231203Y-132906900D01*
X179231203Y-132906900D02*
X179016917Y-132978328D01*
X179016917Y-132978328D02*
X178874060Y-132978328D01*
X178874060Y-132978328D02*
X178659774Y-132906900D01*
X178659774Y-132906900D02*
X178588346Y-132835471D01*
X178588346Y-132835471D02*
X178588346Y-132335471D01*
X178588346Y-132335471D02*
X178874060Y-132335471D01*
X177945489Y-132978328D02*
X177945489Y-131478328D01*
X177945489Y-131478328D02*
X177088346Y-132978328D01*
X177088346Y-132978328D02*
X177088346Y-131478328D01*
X176374060Y-132978328D02*
X176374060Y-131478328D01*
X176374060Y-131478328D02*
X176016917Y-131478328D01*
X176016917Y-131478328D02*
X175802631Y-131549757D01*
X175802631Y-131549757D02*
X175659774Y-131692614D01*
X175659774Y-131692614D02*
X175588345Y-131835471D01*
X175588345Y-131835471D02*
X175516917Y-132121185D01*
X175516917Y-132121185D02*
X175516917Y-132335471D01*
X175516917Y-132335471D02*
X175588345Y-132621185D01*
X175588345Y-132621185D02*
X175659774Y-132764042D01*
X175659774Y-132764042D02*
X175802631Y-132906900D01*
X175802631Y-132906900D02*
X176016917Y-132978328D01*
X176016917Y-132978328D02*
X176374060Y-132978328D01*
D10*
X163640419Y-108390476D02*
X163592800Y-108438095D01*
X163592800Y-108438095D02*
X163545180Y-108580952D01*
X163545180Y-108580952D02*
X163545180Y-108676190D01*
X163545180Y-108676190D02*
X163592800Y-108819047D01*
X163592800Y-108819047D02*
X163688038Y-108914285D01*
X163688038Y-108914285D02*
X163783276Y-108961904D01*
X163783276Y-108961904D02*
X163973752Y-109009523D01*
X163973752Y-109009523D02*
X164116609Y-109009523D01*
X164116609Y-109009523D02*
X164307085Y-108961904D01*
X164307085Y-108961904D02*
X164402323Y-108914285D01*
X164402323Y-108914285D02*
X164497561Y-108819047D01*
X164497561Y-108819047D02*
X164545180Y-108676190D01*
X164545180Y-108676190D02*
X164545180Y-108580952D01*
X164545180Y-108580952D02*
X164497561Y-108438095D01*
X164497561Y-108438095D02*
X164449942Y-108390476D01*
D11*
X178659774Y-138878328D02*
X179516917Y-138878328D01*
X179088346Y-138878328D02*
X179088346Y-137378328D01*
X179088346Y-137378328D02*
X179231203Y-137592614D01*
X179231203Y-137592614D02*
X179374060Y-137735471D01*
X179374060Y-137735471D02*
X179516917Y-137806900D01*
X178088346Y-137521185D02*
X178016918Y-137449757D01*
X178016918Y-137449757D02*
X177874061Y-137378328D01*
X177874061Y-137378328D02*
X177516918Y-137378328D01*
X177516918Y-137378328D02*
X177374061Y-137449757D01*
X177374061Y-137449757D02*
X177302632Y-137521185D01*
X177302632Y-137521185D02*
X177231203Y-137664042D01*
X177231203Y-137664042D02*
X177231203Y-137806900D01*
X177231203Y-137806900D02*
X177302632Y-138021185D01*
X177302632Y-138021185D02*
X178159775Y-138878328D01*
X178159775Y-138878328D02*
X177231203Y-138878328D01*
X176802632Y-137378328D02*
X176302632Y-138878328D01*
X176302632Y-138878328D02*
X175802632Y-137378328D01*
D10*
X128585713Y-114307200D02*
X128442856Y-114354819D01*
X128442856Y-114354819D02*
X128204761Y-114354819D01*
X128204761Y-114354819D02*
X128109523Y-114307200D01*
X128109523Y-114307200D02*
X128061904Y-114259580D01*
X128061904Y-114259580D02*
X128014285Y-114164342D01*
X128014285Y-114164342D02*
X128014285Y-114069104D01*
X128014285Y-114069104D02*
X128061904Y-113973866D01*
X128061904Y-113973866D02*
X128109523Y-113926247D01*
X128109523Y-113926247D02*
X128204761Y-113878628D01*
X128204761Y-113878628D02*
X128395237Y-113831009D01*
X128395237Y-113831009D02*
X128490475Y-113783390D01*
X128490475Y-113783390D02*
X128538094Y-113735771D01*
X128538094Y-113735771D02*
X128585713Y-113640533D01*
X128585713Y-113640533D02*
X128585713Y-113545295D01*
X128585713Y-113545295D02*
X128538094Y-113450057D01*
X128538094Y-113450057D02*
X128490475Y-113402438D01*
X128490475Y-113402438D02*
X128395237Y-113354819D01*
X128395237Y-113354819D02*
X128157142Y-113354819D01*
X128157142Y-113354819D02*
X128014285Y-113402438D01*
X127585713Y-114354819D02*
X127585713Y-113354819D01*
X127585713Y-113354819D02*
X127347618Y-113354819D01*
X127347618Y-113354819D02*
X127204761Y-113402438D01*
X127204761Y-113402438D02*
X127109523Y-113497676D01*
X127109523Y-113497676D02*
X127061904Y-113592914D01*
X127061904Y-113592914D02*
X127014285Y-113783390D01*
X127014285Y-113783390D02*
X127014285Y-113926247D01*
X127014285Y-113926247D02*
X127061904Y-114116723D01*
X127061904Y-114116723D02*
X127109523Y-114211961D01*
X127109523Y-114211961D02*
X127204761Y-114307200D01*
X127204761Y-114307200D02*
X127347618Y-114354819D01*
X127347618Y-114354819D02*
X127585713Y-114354819D01*
X131504761Y-117754819D02*
X131266666Y-118754819D01*
X131266666Y-118754819D02*
X131076190Y-118040533D01*
X131076190Y-118040533D02*
X130885714Y-118754819D01*
X130885714Y-118754819D02*
X130647619Y-117754819D01*
X130314285Y-118707200D02*
X130171428Y-118754819D01*
X130171428Y-118754819D02*
X129933333Y-118754819D01*
X129933333Y-118754819D02*
X129838095Y-118707200D01*
X129838095Y-118707200D02*
X129790476Y-118659580D01*
X129790476Y-118659580D02*
X129742857Y-118564342D01*
X129742857Y-118564342D02*
X129742857Y-118469104D01*
X129742857Y-118469104D02*
X129790476Y-118373866D01*
X129790476Y-118373866D02*
X129838095Y-118326247D01*
X129838095Y-118326247D02*
X129933333Y-118278628D01*
X129933333Y-118278628D02*
X130123809Y-118231009D01*
X130123809Y-118231009D02*
X130219047Y-118183390D01*
X130219047Y-118183390D02*
X130266666Y-118135771D01*
X130266666Y-118135771D02*
X130314285Y-118040533D01*
X130314285Y-118040533D02*
X130314285Y-117945295D01*
X130314285Y-117945295D02*
X130266666Y-117850057D01*
X130266666Y-117850057D02*
X130219047Y-117802438D01*
X130219047Y-117802438D02*
X130123809Y-117754819D01*
X130123809Y-117754819D02*
X129885714Y-117754819D01*
X129885714Y-117754819D02*
X129742857Y-117802438D01*
X109638095Y-107502438D02*
X109733333Y-107454819D01*
X109733333Y-107454819D02*
X109876190Y-107454819D01*
X109876190Y-107454819D02*
X110019047Y-107502438D01*
X110019047Y-107502438D02*
X110114285Y-107597676D01*
X110114285Y-107597676D02*
X110161904Y-107692914D01*
X110161904Y-107692914D02*
X110209523Y-107883390D01*
X110209523Y-107883390D02*
X110209523Y-108026247D01*
X110209523Y-108026247D02*
X110161904Y-108216723D01*
X110161904Y-108216723D02*
X110114285Y-108311961D01*
X110114285Y-108311961D02*
X110019047Y-108407200D01*
X110019047Y-108407200D02*
X109876190Y-108454819D01*
X109876190Y-108454819D02*
X109780952Y-108454819D01*
X109780952Y-108454819D02*
X109638095Y-108407200D01*
X109638095Y-108407200D02*
X109590476Y-108359580D01*
X109590476Y-108359580D02*
X109590476Y-108026247D01*
X109590476Y-108026247D02*
X109780952Y-108026247D01*
D11*
X178659774Y-120549757D02*
X178802632Y-120478328D01*
X178802632Y-120478328D02*
X179016917Y-120478328D01*
X179016917Y-120478328D02*
X179231203Y-120549757D01*
X179231203Y-120549757D02*
X179374060Y-120692614D01*
X179374060Y-120692614D02*
X179445489Y-120835471D01*
X179445489Y-120835471D02*
X179516917Y-121121185D01*
X179516917Y-121121185D02*
X179516917Y-121335471D01*
X179516917Y-121335471D02*
X179445489Y-121621185D01*
X179445489Y-121621185D02*
X179374060Y-121764042D01*
X179374060Y-121764042D02*
X179231203Y-121906900D01*
X179231203Y-121906900D02*
X179016917Y-121978328D01*
X179016917Y-121978328D02*
X178874060Y-121978328D01*
X178874060Y-121978328D02*
X178659774Y-121906900D01*
X178659774Y-121906900D02*
X178588346Y-121835471D01*
X178588346Y-121835471D02*
X178588346Y-121335471D01*
X178588346Y-121335471D02*
X178874060Y-121335471D01*
X177945489Y-121978328D02*
X177945489Y-120478328D01*
X177945489Y-120478328D02*
X177088346Y-121978328D01*
X177088346Y-121978328D02*
X177088346Y-120478328D01*
X176374060Y-121978328D02*
X176374060Y-120478328D01*
X176374060Y-120478328D02*
X176016917Y-120478328D01*
X176016917Y-120478328D02*
X175802631Y-120549757D01*
X175802631Y-120549757D02*
X175659774Y-120692614D01*
X175659774Y-120692614D02*
X175588345Y-120835471D01*
X175588345Y-120835471D02*
X175516917Y-121121185D01*
X175516917Y-121121185D02*
X175516917Y-121335471D01*
X175516917Y-121335471D02*
X175588345Y-121621185D01*
X175588345Y-121621185D02*
X175659774Y-121764042D01*
X175659774Y-121764042D02*
X175802631Y-121906900D01*
X175802631Y-121906900D02*
X176016917Y-121978328D01*
X176016917Y-121978328D02*
X176374060Y-121978328D01*
D10*
X154916666Y-112904819D02*
X155249999Y-112428628D01*
X155488094Y-112904819D02*
X155488094Y-111904819D01*
X155488094Y-111904819D02*
X155107142Y-111904819D01*
X155107142Y-111904819D02*
X155011904Y-111952438D01*
X155011904Y-111952438D02*
X154964285Y-112000057D01*
X154964285Y-112000057D02*
X154916666Y-112095295D01*
X154916666Y-112095295D02*
X154916666Y-112238152D01*
X154916666Y-112238152D02*
X154964285Y-112333390D01*
X154964285Y-112333390D02*
X155011904Y-112381009D01*
X155011904Y-112381009D02*
X155107142Y-112428628D01*
X155107142Y-112428628D02*
X155488094Y-112428628D01*
X154583332Y-111904819D02*
X153916666Y-112904819D01*
X153916666Y-111904819D02*
X154583332Y-112904819D01*
X161997561Y-108438095D02*
X162045180Y-108533333D01*
X162045180Y-108533333D02*
X162045180Y-108676190D01*
X162045180Y-108676190D02*
X161997561Y-108819047D01*
X161997561Y-108819047D02*
X161902323Y-108914285D01*
X161902323Y-108914285D02*
X161807085Y-108961904D01*
X161807085Y-108961904D02*
X161616609Y-109009523D01*
X161616609Y-109009523D02*
X161473752Y-109009523D01*
X161473752Y-109009523D02*
X161283276Y-108961904D01*
X161283276Y-108961904D02*
X161188038Y-108914285D01*
X161188038Y-108914285D02*
X161092800Y-108819047D01*
X161092800Y-108819047D02*
X161045180Y-108676190D01*
X161045180Y-108676190D02*
X161045180Y-108580952D01*
X161045180Y-108580952D02*
X161092800Y-108438095D01*
X161092800Y-108438095D02*
X161140419Y-108390476D01*
X161140419Y-108390476D02*
X161473752Y-108390476D01*
X161473752Y-108390476D02*
X161473752Y-108580952D01*
X166345180Y-109061904D02*
X167345180Y-109061904D01*
X167345180Y-109061904D02*
X167345180Y-108823809D01*
X167345180Y-108823809D02*
X167297561Y-108680952D01*
X167297561Y-108680952D02*
X167202323Y-108585714D01*
X167202323Y-108585714D02*
X167107085Y-108538095D01*
X167107085Y-108538095D02*
X166916609Y-108490476D01*
X166916609Y-108490476D02*
X166773752Y-108490476D01*
X166773752Y-108490476D02*
X166583276Y-108538095D01*
X166583276Y-108538095D02*
X166488038Y-108585714D01*
X166488038Y-108585714D02*
X166392800Y-108680952D01*
X166392800Y-108680952D02*
X166345180Y-108823809D01*
X166345180Y-108823809D02*
X166345180Y-109061904D01*
D12*
X151954136Y-119796943D02*
X151725564Y-119796943D01*
X151725564Y-119796943D02*
X151611279Y-119854086D01*
X151611279Y-119854086D02*
X151496993Y-119968372D01*
X151496993Y-119968372D02*
X151439850Y-120196943D01*
X151439850Y-120196943D02*
X151439850Y-120596943D01*
X151439850Y-120596943D02*
X151496993Y-120825515D01*
X151496993Y-120825515D02*
X151611279Y-120939801D01*
X151611279Y-120939801D02*
X151725564Y-120996943D01*
X151725564Y-120996943D02*
X151954136Y-120996943D01*
X151954136Y-120996943D02*
X152068422Y-120939801D01*
X152068422Y-120939801D02*
X152182707Y-120825515D01*
X152182707Y-120825515D02*
X152239850Y-120596943D01*
X152239850Y-120596943D02*
X152239850Y-120196943D01*
X152239850Y-120196943D02*
X152182707Y-119968372D01*
X152182707Y-119968372D02*
X152068422Y-119854086D01*
X152068422Y-119854086D02*
X151954136Y-119796943D01*
X150411279Y-120939801D02*
X150525564Y-120996943D01*
X150525564Y-120996943D02*
X150754136Y-120996943D01*
X150754136Y-120996943D02*
X150868421Y-120939801D01*
X150868421Y-120939801D02*
X150925564Y-120882658D01*
X150925564Y-120882658D02*
X150982707Y-120768372D01*
X150982707Y-120768372D02*
X150982707Y-120425515D01*
X150982707Y-120425515D02*
X150925564Y-120311229D01*
X150925564Y-120311229D02*
X150868421Y-120254086D01*
X150868421Y-120254086D02*
X150754136Y-120196943D01*
X150754136Y-120196943D02*
X150525564Y-120196943D01*
X150525564Y-120196943D02*
X150411279Y-120254086D01*
X150068422Y-120196943D02*
X149611279Y-120196943D01*
X149896993Y-119796943D02*
X149896993Y-120825515D01*
X149896993Y-120825515D02*
X149839850Y-120939801D01*
X149839850Y-120939801D02*
X149725565Y-120996943D01*
X149725565Y-120996943D02*
X149611279Y-120996943D01*
X148696994Y-120996943D02*
X148696994Y-120368372D01*
X148696994Y-120368372D02*
X148754136Y-120254086D01*
X148754136Y-120254086D02*
X148868422Y-120196943D01*
X148868422Y-120196943D02*
X149096994Y-120196943D01*
X149096994Y-120196943D02*
X149211279Y-120254086D01*
X148696994Y-120939801D02*
X148811279Y-120996943D01*
X148811279Y-120996943D02*
X149096994Y-120996943D01*
X149096994Y-120996943D02*
X149211279Y-120939801D01*
X149211279Y-120939801D02*
X149268422Y-120825515D01*
X149268422Y-120825515D02*
X149268422Y-120711229D01*
X149268422Y-120711229D02*
X149211279Y-120596943D01*
X149211279Y-120596943D02*
X149096994Y-120539801D01*
X149096994Y-120539801D02*
X148811279Y-120539801D01*
X148811279Y-120539801D02*
X148696994Y-120482658D01*
X147954137Y-120996943D02*
X148068422Y-120939801D01*
X148068422Y-120939801D02*
X148125565Y-120825515D01*
X148125565Y-120825515D02*
X148125565Y-119796943D01*
X146696994Y-119796943D02*
X146411280Y-120996943D01*
X146411280Y-120996943D02*
X146182708Y-120139801D01*
X146182708Y-120139801D02*
X145954137Y-120996943D01*
X145954137Y-120996943D02*
X145668423Y-119796943D01*
X144639851Y-120996943D02*
X145211279Y-120996943D01*
X145211279Y-120996943D02*
X145211279Y-119796943D01*
X144239850Y-120368372D02*
X143839850Y-120368372D01*
X143668422Y-120996943D02*
X144239850Y-120996943D01*
X144239850Y-120996943D02*
X144239850Y-119796943D01*
X144239850Y-119796943D02*
X143668422Y-119796943D01*
X143154136Y-120996943D02*
X143154136Y-119796943D01*
X143154136Y-119796943D02*
X142868422Y-119796943D01*
X142868422Y-119796943D02*
X142696993Y-119854086D01*
X142696993Y-119854086D02*
X142582708Y-119968372D01*
X142582708Y-119968372D02*
X142525565Y-120082658D01*
X142525565Y-120082658D02*
X142468422Y-120311229D01*
X142468422Y-120311229D02*
X142468422Y-120482658D01*
X142468422Y-120482658D02*
X142525565Y-120711229D01*
X142525565Y-120711229D02*
X142582708Y-120825515D01*
X142582708Y-120825515D02*
X142696993Y-120939801D01*
X142696993Y-120939801D02*
X142868422Y-120996943D01*
X142868422Y-120996943D02*
X143154136Y-120996943D01*
X141039850Y-120996943D02*
X141039850Y-119796943D01*
X141039850Y-119796943D02*
X140639850Y-120654086D01*
X140639850Y-120654086D02*
X140239850Y-119796943D01*
X140239850Y-119796943D02*
X140239850Y-120996943D01*
X139496993Y-120996943D02*
X139611278Y-120939801D01*
X139611278Y-120939801D02*
X139668421Y-120882658D01*
X139668421Y-120882658D02*
X139725564Y-120768372D01*
X139725564Y-120768372D02*
X139725564Y-120425515D01*
X139725564Y-120425515D02*
X139668421Y-120311229D01*
X139668421Y-120311229D02*
X139611278Y-120254086D01*
X139611278Y-120254086D02*
X139496993Y-120196943D01*
X139496993Y-120196943D02*
X139325564Y-120196943D01*
X139325564Y-120196943D02*
X139211278Y-120254086D01*
X139211278Y-120254086D02*
X139154136Y-120311229D01*
X139154136Y-120311229D02*
X139096993Y-120425515D01*
X139096993Y-120425515D02*
X139096993Y-120768372D01*
X139096993Y-120768372D02*
X139154136Y-120882658D01*
X139154136Y-120882658D02*
X139211278Y-120939801D01*
X139211278Y-120939801D02*
X139325564Y-120996943D01*
X139325564Y-120996943D02*
X139496993Y-120996943D01*
X138068422Y-120996943D02*
X138068422Y-119796943D01*
X138068422Y-120939801D02*
X138182707Y-120996943D01*
X138182707Y-120996943D02*
X138411279Y-120996943D01*
X138411279Y-120996943D02*
X138525564Y-120939801D01*
X138525564Y-120939801D02*
X138582707Y-120882658D01*
X138582707Y-120882658D02*
X138639850Y-120768372D01*
X138639850Y-120768372D02*
X138639850Y-120425515D01*
X138639850Y-120425515D02*
X138582707Y-120311229D01*
X138582707Y-120311229D02*
X138525564Y-120254086D01*
X138525564Y-120254086D02*
X138411279Y-120196943D01*
X138411279Y-120196943D02*
X138182707Y-120196943D01*
X138182707Y-120196943D02*
X138068422Y-120254086D01*
X136982708Y-120196943D02*
X136982708Y-120996943D01*
X137496993Y-120196943D02*
X137496993Y-120825515D01*
X137496993Y-120825515D02*
X137439850Y-120939801D01*
X137439850Y-120939801D02*
X137325565Y-120996943D01*
X137325565Y-120996943D02*
X137154136Y-120996943D01*
X137154136Y-120996943D02*
X137039850Y-120939801D01*
X137039850Y-120939801D02*
X136982708Y-120882658D01*
X136239851Y-120996943D02*
X136354136Y-120939801D01*
X136354136Y-120939801D02*
X136411279Y-120825515D01*
X136411279Y-120825515D02*
X136411279Y-119796943D01*
X135325565Y-120939801D02*
X135439851Y-120996943D01*
X135439851Y-120996943D02*
X135668423Y-120996943D01*
X135668423Y-120996943D02*
X135782708Y-120939801D01*
X135782708Y-120939801D02*
X135839851Y-120825515D01*
X135839851Y-120825515D02*
X135839851Y-120368372D01*
X135839851Y-120368372D02*
X135782708Y-120254086D01*
X135782708Y-120254086D02*
X135668423Y-120196943D01*
X135668423Y-120196943D02*
X135439851Y-120196943D01*
X135439851Y-120196943D02*
X135325565Y-120254086D01*
X135325565Y-120254086D02*
X135268423Y-120368372D01*
X135268423Y-120368372D02*
X135268423Y-120482658D01*
X135268423Y-120482658D02*
X135839851Y-120596943D01*
X152182707Y-122928876D02*
X152182707Y-121728876D01*
X151496993Y-122928876D02*
X152011279Y-122243162D01*
X151496993Y-121728876D02*
X152182707Y-122414591D01*
X150811279Y-122928876D02*
X150925564Y-122871734D01*
X150925564Y-122871734D02*
X150982707Y-122757448D01*
X150982707Y-122757448D02*
X150982707Y-121728876D01*
X149839851Y-122928876D02*
X149839851Y-122300305D01*
X149839851Y-122300305D02*
X149896993Y-122186019D01*
X149896993Y-122186019D02*
X150011279Y-122128876D01*
X150011279Y-122128876D02*
X150239851Y-122128876D01*
X150239851Y-122128876D02*
X150354136Y-122186019D01*
X149839851Y-122871734D02*
X149954136Y-122928876D01*
X149954136Y-122928876D02*
X150239851Y-122928876D01*
X150239851Y-122928876D02*
X150354136Y-122871734D01*
X150354136Y-122871734D02*
X150411279Y-122757448D01*
X150411279Y-122757448D02*
X150411279Y-122643162D01*
X150411279Y-122643162D02*
X150354136Y-122528876D01*
X150354136Y-122528876D02*
X150239851Y-122471734D01*
X150239851Y-122471734D02*
X149954136Y-122471734D01*
X149954136Y-122471734D02*
X149839851Y-122414591D01*
X148754137Y-122128876D02*
X148754137Y-122928876D01*
X149268422Y-122128876D02*
X149268422Y-122757448D01*
X149268422Y-122757448D02*
X149211279Y-122871734D01*
X149211279Y-122871734D02*
X149096994Y-122928876D01*
X149096994Y-122928876D02*
X148925565Y-122928876D01*
X148925565Y-122928876D02*
X148811279Y-122871734D01*
X148811279Y-122871734D02*
X148754137Y-122814591D01*
X148239851Y-122871734D02*
X148125565Y-122928876D01*
X148125565Y-122928876D02*
X147896994Y-122928876D01*
X147896994Y-122928876D02*
X147782708Y-122871734D01*
X147782708Y-122871734D02*
X147725565Y-122757448D01*
X147725565Y-122757448D02*
X147725565Y-122700305D01*
X147725565Y-122700305D02*
X147782708Y-122586019D01*
X147782708Y-122586019D02*
X147896994Y-122528876D01*
X147896994Y-122528876D02*
X148068423Y-122528876D01*
X148068423Y-122528876D02*
X148182708Y-122471734D01*
X148182708Y-122471734D02*
X148239851Y-122357448D01*
X148239851Y-122357448D02*
X148239851Y-122300305D01*
X148239851Y-122300305D02*
X148182708Y-122186019D01*
X148182708Y-122186019D02*
X148068423Y-122128876D01*
X148068423Y-122128876D02*
X147896994Y-122128876D01*
X147896994Y-122128876D02*
X147782708Y-122186019D01*
X145725565Y-122928876D02*
X146296993Y-122928876D01*
X146296993Y-122928876D02*
X146296993Y-121728876D01*
X145325564Y-122928876D02*
X145325564Y-122128876D01*
X145325564Y-121728876D02*
X145382707Y-121786019D01*
X145382707Y-121786019D02*
X145325564Y-121843162D01*
X145325564Y-121843162D02*
X145268421Y-121786019D01*
X145268421Y-121786019D02*
X145325564Y-121728876D01*
X145325564Y-121728876D02*
X145325564Y-121843162D01*
X144296992Y-122871734D02*
X144411278Y-122928876D01*
X144411278Y-122928876D02*
X144639850Y-122928876D01*
X144639850Y-122928876D02*
X144754135Y-122871734D01*
X144754135Y-122871734D02*
X144811278Y-122757448D01*
X144811278Y-122757448D02*
X144811278Y-122300305D01*
X144811278Y-122300305D02*
X144754135Y-122186019D01*
X144754135Y-122186019D02*
X144639850Y-122128876D01*
X144639850Y-122128876D02*
X144411278Y-122128876D01*
X144411278Y-122128876D02*
X144296992Y-122186019D01*
X144296992Y-122186019D02*
X144239850Y-122300305D01*
X144239850Y-122300305D02*
X144239850Y-122414591D01*
X144239850Y-122414591D02*
X144811278Y-122528876D01*
X143725564Y-122928876D02*
X143725564Y-121728876D01*
X143725564Y-122186019D02*
X143611279Y-122128876D01*
X143611279Y-122128876D02*
X143382707Y-122128876D01*
X143382707Y-122128876D02*
X143268421Y-122186019D01*
X143268421Y-122186019D02*
X143211279Y-122243162D01*
X143211279Y-122243162D02*
X143154136Y-122357448D01*
X143154136Y-122357448D02*
X143154136Y-122700305D01*
X143154136Y-122700305D02*
X143211279Y-122814591D01*
X143211279Y-122814591D02*
X143268421Y-122871734D01*
X143268421Y-122871734D02*
X143382707Y-122928876D01*
X143382707Y-122928876D02*
X143611279Y-122928876D01*
X143611279Y-122928876D02*
X143725564Y-122871734D01*
X142468422Y-122928876D02*
X142582707Y-122871734D01*
X142582707Y-122871734D02*
X142639850Y-122757448D01*
X142639850Y-122757448D02*
X142639850Y-121728876D01*
X141554136Y-122871734D02*
X141668422Y-122928876D01*
X141668422Y-122928876D02*
X141896994Y-122928876D01*
X141896994Y-122928876D02*
X142011279Y-122871734D01*
X142011279Y-122871734D02*
X142068422Y-122757448D01*
X142068422Y-122757448D02*
X142068422Y-122300305D01*
X142068422Y-122300305D02*
X142011279Y-122186019D01*
X142011279Y-122186019D02*
X141896994Y-122128876D01*
X141896994Y-122128876D02*
X141668422Y-122128876D01*
X141668422Y-122128876D02*
X141554136Y-122186019D01*
X141554136Y-122186019D02*
X141496994Y-122300305D01*
X141496994Y-122300305D02*
X141496994Y-122414591D01*
X141496994Y-122414591D02*
X142068422Y-122528876D01*
X140982708Y-122928876D02*
X140982708Y-122128876D01*
X140982708Y-122357448D02*
X140925565Y-122243162D01*
X140925565Y-122243162D02*
X140868423Y-122186019D01*
X140868423Y-122186019D02*
X140754137Y-122128876D01*
X140754137Y-122128876D02*
X140639851Y-122128876D01*
X152239850Y-123775095D02*
X152182707Y-123717952D01*
X152182707Y-123717952D02*
X152068422Y-123660809D01*
X152068422Y-123660809D02*
X151782707Y-123660809D01*
X151782707Y-123660809D02*
X151668422Y-123717952D01*
X151668422Y-123717952D02*
X151611279Y-123775095D01*
X151611279Y-123775095D02*
X151554136Y-123889381D01*
X151554136Y-123889381D02*
X151554136Y-124003667D01*
X151554136Y-124003667D02*
X151611279Y-124175095D01*
X151611279Y-124175095D02*
X152296993Y-124860809D01*
X152296993Y-124860809D02*
X151554136Y-124860809D01*
X150811279Y-123660809D02*
X150696993Y-123660809D01*
X150696993Y-123660809D02*
X150582707Y-123717952D01*
X150582707Y-123717952D02*
X150525565Y-123775095D01*
X150525565Y-123775095D02*
X150468422Y-123889381D01*
X150468422Y-123889381D02*
X150411279Y-124117952D01*
X150411279Y-124117952D02*
X150411279Y-124403667D01*
X150411279Y-124403667D02*
X150468422Y-124632238D01*
X150468422Y-124632238D02*
X150525565Y-124746524D01*
X150525565Y-124746524D02*
X150582707Y-124803667D01*
X150582707Y-124803667D02*
X150696993Y-124860809D01*
X150696993Y-124860809D02*
X150811279Y-124860809D01*
X150811279Y-124860809D02*
X150925565Y-124803667D01*
X150925565Y-124803667D02*
X150982707Y-124746524D01*
X150982707Y-124746524D02*
X151039850Y-124632238D01*
X151039850Y-124632238D02*
X151096993Y-124403667D01*
X151096993Y-124403667D02*
X151096993Y-124117952D01*
X151096993Y-124117952D02*
X151039850Y-123889381D01*
X151039850Y-123889381D02*
X150982707Y-123775095D01*
X150982707Y-123775095D02*
X150925565Y-123717952D01*
X150925565Y-123717952D02*
X150811279Y-123660809D01*
X149954136Y-123775095D02*
X149896993Y-123717952D01*
X149896993Y-123717952D02*
X149782708Y-123660809D01*
X149782708Y-123660809D02*
X149496993Y-123660809D01*
X149496993Y-123660809D02*
X149382708Y-123717952D01*
X149382708Y-123717952D02*
X149325565Y-123775095D01*
X149325565Y-123775095D02*
X149268422Y-123889381D01*
X149268422Y-123889381D02*
X149268422Y-124003667D01*
X149268422Y-124003667D02*
X149325565Y-124175095D01*
X149325565Y-124175095D02*
X150011279Y-124860809D01*
X150011279Y-124860809D02*
X149268422Y-124860809D01*
X148239851Y-123660809D02*
X148468422Y-123660809D01*
X148468422Y-123660809D02*
X148582708Y-123717952D01*
X148582708Y-123717952D02*
X148639851Y-123775095D01*
X148639851Y-123775095D02*
X148754136Y-123946524D01*
X148754136Y-123946524D02*
X148811279Y-124175095D01*
X148811279Y-124175095D02*
X148811279Y-124632238D01*
X148811279Y-124632238D02*
X148754136Y-124746524D01*
X148754136Y-124746524D02*
X148696993Y-124803667D01*
X148696993Y-124803667D02*
X148582708Y-124860809D01*
X148582708Y-124860809D02*
X148354136Y-124860809D01*
X148354136Y-124860809D02*
X148239851Y-124803667D01*
X148239851Y-124803667D02*
X148182708Y-124746524D01*
X148182708Y-124746524D02*
X148125565Y-124632238D01*
X148125565Y-124632238D02*
X148125565Y-124346524D01*
X148125565Y-124346524D02*
X148182708Y-124232238D01*
X148182708Y-124232238D02*
X148239851Y-124175095D01*
X148239851Y-124175095D02*
X148354136Y-124117952D01*
X148354136Y-124117952D02*
X148582708Y-124117952D01*
X148582708Y-124117952D02*
X148696993Y-124175095D01*
X148696993Y-124175095D02*
X148754136Y-124232238D01*
X148754136Y-124232238D02*
X148811279Y-124346524D01*
X147611279Y-124403667D02*
X146696994Y-124403667D01*
X145896994Y-123660809D02*
X145782708Y-123660809D01*
X145782708Y-123660809D02*
X145668422Y-123717952D01*
X145668422Y-123717952D02*
X145611280Y-123775095D01*
X145611280Y-123775095D02*
X145554137Y-123889381D01*
X145554137Y-123889381D02*
X145496994Y-124117952D01*
X145496994Y-124117952D02*
X145496994Y-124403667D01*
X145496994Y-124403667D02*
X145554137Y-124632238D01*
X145554137Y-124632238D02*
X145611280Y-124746524D01*
X145611280Y-124746524D02*
X145668422Y-124803667D01*
X145668422Y-124803667D02*
X145782708Y-124860809D01*
X145782708Y-124860809D02*
X145896994Y-124860809D01*
X145896994Y-124860809D02*
X146011280Y-124803667D01*
X146011280Y-124803667D02*
X146068422Y-124746524D01*
X146068422Y-124746524D02*
X146125565Y-124632238D01*
X146125565Y-124632238D02*
X146182708Y-124403667D01*
X146182708Y-124403667D02*
X146182708Y-124117952D01*
X146182708Y-124117952D02*
X146125565Y-123889381D01*
X146125565Y-123889381D02*
X146068422Y-123775095D01*
X146068422Y-123775095D02*
X146011280Y-123717952D01*
X146011280Y-123717952D02*
X145896994Y-123660809D01*
X144354137Y-124860809D02*
X145039851Y-124860809D01*
X144696994Y-124860809D02*
X144696994Y-123660809D01*
X144696994Y-123660809D02*
X144811280Y-123832238D01*
X144811280Y-123832238D02*
X144925565Y-123946524D01*
X144925565Y-123946524D02*
X145039851Y-124003667D01*
X143839851Y-124403667D02*
X142925566Y-124403667D01*
X142125566Y-123660809D02*
X142011280Y-123660809D01*
X142011280Y-123660809D02*
X141896994Y-123717952D01*
X141896994Y-123717952D02*
X141839852Y-123775095D01*
X141839852Y-123775095D02*
X141782709Y-123889381D01*
X141782709Y-123889381D02*
X141725566Y-124117952D01*
X141725566Y-124117952D02*
X141725566Y-124403667D01*
X141725566Y-124403667D02*
X141782709Y-124632238D01*
X141782709Y-124632238D02*
X141839852Y-124746524D01*
X141839852Y-124746524D02*
X141896994Y-124803667D01*
X141896994Y-124803667D02*
X142011280Y-124860809D01*
X142011280Y-124860809D02*
X142125566Y-124860809D01*
X142125566Y-124860809D02*
X142239852Y-124803667D01*
X142239852Y-124803667D02*
X142296994Y-124746524D01*
X142296994Y-124746524D02*
X142354137Y-124632238D01*
X142354137Y-124632238D02*
X142411280Y-124403667D01*
X142411280Y-124403667D02*
X142411280Y-124117952D01*
X142411280Y-124117952D02*
X142354137Y-123889381D01*
X142354137Y-123889381D02*
X142296994Y-123775095D01*
X142296994Y-123775095D02*
X142239852Y-123717952D01*
X142239852Y-123717952D02*
X142125566Y-123660809D01*
X141154137Y-124860809D02*
X140925566Y-124860809D01*
X140925566Y-124860809D02*
X140811280Y-124803667D01*
X140811280Y-124803667D02*
X140754137Y-124746524D01*
X140754137Y-124746524D02*
X140639852Y-124575095D01*
X140639852Y-124575095D02*
X140582709Y-124346524D01*
X140582709Y-124346524D02*
X140582709Y-123889381D01*
X140582709Y-123889381D02*
X140639852Y-123775095D01*
X140639852Y-123775095D02*
X140696995Y-123717952D01*
X140696995Y-123717952D02*
X140811280Y-123660809D01*
X140811280Y-123660809D02*
X141039852Y-123660809D01*
X141039852Y-123660809D02*
X141154137Y-123717952D01*
X141154137Y-123717952D02*
X141211280Y-123775095D01*
X141211280Y-123775095D02*
X141268423Y-123889381D01*
X141268423Y-123889381D02*
X141268423Y-124175095D01*
X141268423Y-124175095D02*
X141211280Y-124289381D01*
X141211280Y-124289381D02*
X141154137Y-124346524D01*
X141154137Y-124346524D02*
X141039852Y-124403667D01*
X141039852Y-124403667D02*
X140811280Y-124403667D01*
X140811280Y-124403667D02*
X140696995Y-124346524D01*
X140696995Y-124346524D02*
X140639852Y-124289381D01*
X140639852Y-124289381D02*
X140582709Y-124175095D01*
X152182707Y-126792742D02*
X152182707Y-125592742D01*
X152182707Y-125592742D02*
X151782707Y-126449885D01*
X151782707Y-126449885D02*
X151382707Y-125592742D01*
X151382707Y-125592742D02*
X151382707Y-126792742D01*
X150811278Y-126792742D02*
X150811278Y-125592742D01*
X150411278Y-125592742D02*
X149725564Y-125592742D01*
X150068421Y-126792742D02*
X150068421Y-125592742D01*
X147839849Y-126792742D02*
X148411277Y-126792742D01*
X148411277Y-126792742D02*
X148411277Y-125592742D01*
X147439848Y-126792742D02*
X147439848Y-125992742D01*
X147439848Y-125592742D02*
X147496991Y-125649885D01*
X147496991Y-125649885D02*
X147439848Y-125707028D01*
X147439848Y-125707028D02*
X147382705Y-125649885D01*
X147382705Y-125649885D02*
X147439848Y-125592742D01*
X147439848Y-125592742D02*
X147439848Y-125707028D01*
X146354134Y-126735600D02*
X146468419Y-126792742D01*
X146468419Y-126792742D02*
X146696991Y-126792742D01*
X146696991Y-126792742D02*
X146811276Y-126735600D01*
X146811276Y-126735600D02*
X146868419Y-126678457D01*
X146868419Y-126678457D02*
X146925562Y-126564171D01*
X146925562Y-126564171D02*
X146925562Y-126221314D01*
X146925562Y-126221314D02*
X146868419Y-126107028D01*
X146868419Y-126107028D02*
X146811276Y-126049885D01*
X146811276Y-126049885D02*
X146696991Y-125992742D01*
X146696991Y-125992742D02*
X146468419Y-125992742D01*
X146468419Y-125992742D02*
X146354134Y-126049885D01*
X145382705Y-126735600D02*
X145496991Y-126792742D01*
X145496991Y-126792742D02*
X145725563Y-126792742D01*
X145725563Y-126792742D02*
X145839848Y-126735600D01*
X145839848Y-126735600D02*
X145896991Y-126621314D01*
X145896991Y-126621314D02*
X145896991Y-126164171D01*
X145896991Y-126164171D02*
X145839848Y-126049885D01*
X145839848Y-126049885D02*
X145725563Y-125992742D01*
X145725563Y-125992742D02*
X145496991Y-125992742D01*
X145496991Y-125992742D02*
X145382705Y-126049885D01*
X145382705Y-126049885D02*
X145325563Y-126164171D01*
X145325563Y-126164171D02*
X145325563Y-126278457D01*
X145325563Y-126278457D02*
X145896991Y-126392742D01*
X144811277Y-125992742D02*
X144811277Y-126792742D01*
X144811277Y-126107028D02*
X144754134Y-126049885D01*
X144754134Y-126049885D02*
X144639849Y-125992742D01*
X144639849Y-125992742D02*
X144468420Y-125992742D01*
X144468420Y-125992742D02*
X144354134Y-126049885D01*
X144354134Y-126049885D02*
X144296992Y-126164171D01*
X144296992Y-126164171D02*
X144296992Y-126792742D01*
X143782706Y-126735600D02*
X143668420Y-126792742D01*
X143668420Y-126792742D02*
X143439849Y-126792742D01*
X143439849Y-126792742D02*
X143325563Y-126735600D01*
X143325563Y-126735600D02*
X143268420Y-126621314D01*
X143268420Y-126621314D02*
X143268420Y-126564171D01*
X143268420Y-126564171D02*
X143325563Y-126449885D01*
X143325563Y-126449885D02*
X143439849Y-126392742D01*
X143439849Y-126392742D02*
X143611278Y-126392742D01*
X143611278Y-126392742D02*
X143725563Y-126335600D01*
X143725563Y-126335600D02*
X143782706Y-126221314D01*
X143782706Y-126221314D02*
X143782706Y-126164171D01*
X143782706Y-126164171D02*
X143725563Y-126049885D01*
X143725563Y-126049885D02*
X143611278Y-125992742D01*
X143611278Y-125992742D02*
X143439849Y-125992742D01*
X143439849Y-125992742D02*
X143325563Y-126049885D01*
X142296991Y-126735600D02*
X142411277Y-126792742D01*
X142411277Y-126792742D02*
X142639849Y-126792742D01*
X142639849Y-126792742D02*
X142754134Y-126735600D01*
X142754134Y-126735600D02*
X142811277Y-126621314D01*
X142811277Y-126621314D02*
X142811277Y-126164171D01*
X142811277Y-126164171D02*
X142754134Y-126049885D01*
X142754134Y-126049885D02*
X142639849Y-125992742D01*
X142639849Y-125992742D02*
X142411277Y-125992742D01*
X142411277Y-125992742D02*
X142296991Y-126049885D01*
X142296991Y-126049885D02*
X142239849Y-126164171D01*
X142239849Y-126164171D02*
X142239849Y-126278457D01*
X142239849Y-126278457D02*
X142811277Y-126392742D01*
D11*
X113325939Y-125749757D02*
X113468797Y-125678328D01*
X113468797Y-125678328D02*
X113683082Y-125678328D01*
X113683082Y-125678328D02*
X113897368Y-125749757D01*
X113897368Y-125749757D02*
X114040225Y-125892614D01*
X114040225Y-125892614D02*
X114111654Y-126035471D01*
X114111654Y-126035471D02*
X114183082Y-126321185D01*
X114183082Y-126321185D02*
X114183082Y-126535471D01*
X114183082Y-126535471D02*
X114111654Y-126821185D01*
X114111654Y-126821185D02*
X114040225Y-126964042D01*
X114040225Y-126964042D02*
X113897368Y-127106900D01*
X113897368Y-127106900D02*
X113683082Y-127178328D01*
X113683082Y-127178328D02*
X113540225Y-127178328D01*
X113540225Y-127178328D02*
X113325939Y-127106900D01*
X113325939Y-127106900D02*
X113254511Y-127035471D01*
X113254511Y-127035471D02*
X113254511Y-126535471D01*
X113254511Y-126535471D02*
X113540225Y-126535471D01*
X112611654Y-127178328D02*
X112611654Y-125678328D01*
X112611654Y-125678328D02*
X111754511Y-127178328D01*
X111754511Y-127178328D02*
X111754511Y-125678328D01*
X111040225Y-127178328D02*
X111040225Y-125678328D01*
X111040225Y-125678328D02*
X110683082Y-125678328D01*
X110683082Y-125678328D02*
X110468796Y-125749757D01*
X110468796Y-125749757D02*
X110325939Y-125892614D01*
X110325939Y-125892614D02*
X110254510Y-126035471D01*
X110254510Y-126035471D02*
X110183082Y-126321185D01*
X110183082Y-126321185D02*
X110183082Y-126535471D01*
X110183082Y-126535471D02*
X110254510Y-126821185D01*
X110254510Y-126821185D02*
X110325939Y-126964042D01*
X110325939Y-126964042D02*
X110468796Y-127106900D01*
X110468796Y-127106900D02*
X110683082Y-127178328D01*
X110683082Y-127178328D02*
X111040225Y-127178328D01*
X116968795Y-142306900D02*
X116754510Y-142378328D01*
X116754510Y-142378328D02*
X116397367Y-142378328D01*
X116397367Y-142378328D02*
X116254510Y-142306900D01*
X116254510Y-142306900D02*
X116183081Y-142235471D01*
X116183081Y-142235471D02*
X116111652Y-142092614D01*
X116111652Y-142092614D02*
X116111652Y-141949757D01*
X116111652Y-141949757D02*
X116183081Y-141806900D01*
X116183081Y-141806900D02*
X116254510Y-141735471D01*
X116254510Y-141735471D02*
X116397367Y-141664042D01*
X116397367Y-141664042D02*
X116683081Y-141592614D01*
X116683081Y-141592614D02*
X116825938Y-141521185D01*
X116825938Y-141521185D02*
X116897367Y-141449757D01*
X116897367Y-141449757D02*
X116968795Y-141306900D01*
X116968795Y-141306900D02*
X116968795Y-141164042D01*
X116968795Y-141164042D02*
X116897367Y-141021185D01*
X116897367Y-141021185D02*
X116825938Y-140949757D01*
X116825938Y-140949757D02*
X116683081Y-140878328D01*
X116683081Y-140878328D02*
X116325938Y-140878328D01*
X116325938Y-140878328D02*
X116111652Y-140949757D01*
X114683081Y-142378328D02*
X115540224Y-142378328D01*
X115111653Y-142378328D02*
X115111653Y-140878328D01*
X115111653Y-140878328D02*
X115254510Y-141092614D01*
X115254510Y-141092614D02*
X115397367Y-141235471D01*
X115397367Y-141235471D02*
X115540224Y-141306900D01*
X170293100Y-115821427D02*
X170221671Y-115607142D01*
X170221671Y-115607142D02*
X170221671Y-115249999D01*
X170221671Y-115249999D02*
X170293100Y-115107142D01*
X170293100Y-115107142D02*
X170364528Y-115035713D01*
X170364528Y-115035713D02*
X170507385Y-114964284D01*
X170507385Y-114964284D02*
X170650242Y-114964284D01*
X170650242Y-114964284D02*
X170793100Y-115035713D01*
X170793100Y-115035713D02*
X170864528Y-115107142D01*
X170864528Y-115107142D02*
X170935957Y-115249999D01*
X170935957Y-115249999D02*
X171007385Y-115535713D01*
X171007385Y-115535713D02*
X171078814Y-115678570D01*
X171078814Y-115678570D02*
X171150242Y-115749999D01*
X171150242Y-115749999D02*
X171293100Y-115821427D01*
X171293100Y-115821427D02*
X171435957Y-115821427D01*
X171435957Y-115821427D02*
X171578814Y-115749999D01*
X171578814Y-115749999D02*
X171650242Y-115678570D01*
X171650242Y-115678570D02*
X171721671Y-115535713D01*
X171721671Y-115535713D02*
X171721671Y-115178570D01*
X171721671Y-115178570D02*
X171650242Y-114964284D01*
X170221671Y-114321428D02*
X171721671Y-114321428D01*
X171721671Y-114321428D02*
X171721671Y-113964285D01*
X171721671Y-113964285D02*
X171650242Y-113749999D01*
X171650242Y-113749999D02*
X171507385Y-113607142D01*
X171507385Y-113607142D02*
X171364528Y-113535713D01*
X171364528Y-113535713D02*
X171078814Y-113464285D01*
X171078814Y-113464285D02*
X170864528Y-113464285D01*
X170864528Y-113464285D02*
X170578814Y-113535713D01*
X170578814Y-113535713D02*
X170435957Y-113607142D01*
X170435957Y-113607142D02*
X170293100Y-113749999D01*
X170293100Y-113749999D02*
X170221671Y-113964285D01*
X170221671Y-113964285D02*
X170221671Y-114321428D01*
X170650242Y-112892856D02*
X170650242Y-112178571D01*
X170221671Y-113035713D02*
X171721671Y-112535713D01*
X171721671Y-112535713D02*
X170221671Y-112035713D01*
D10*
X153868990Y-121529887D02*
X153821371Y-121387030D01*
X153821371Y-121387030D02*
X153773752Y-121339411D01*
X153773752Y-121339411D02*
X153678514Y-121291792D01*
X153678514Y-121291792D02*
X153535657Y-121291792D01*
X153535657Y-121291792D02*
X153440419Y-121339411D01*
X153440419Y-121339411D02*
X153392800Y-121387030D01*
X153392800Y-121387030D02*
X153345180Y-121482268D01*
X153345180Y-121482268D02*
X153345180Y-121863220D01*
X153345180Y-121863220D02*
X154345180Y-121863220D01*
X154345180Y-121863220D02*
X154345180Y-121529887D01*
X154345180Y-121529887D02*
X154297561Y-121434649D01*
X154297561Y-121434649D02*
X154249942Y-121387030D01*
X154249942Y-121387030D02*
X154154704Y-121339411D01*
X154154704Y-121339411D02*
X154059466Y-121339411D01*
X154059466Y-121339411D02*
X153964228Y-121387030D01*
X153964228Y-121387030D02*
X153916609Y-121434649D01*
X153916609Y-121434649D02*
X153868990Y-121529887D01*
X153868990Y-121529887D02*
X153868990Y-121863220D01*
X153345180Y-120863220D02*
X154345180Y-120863220D01*
X154345180Y-120863220D02*
X153630895Y-120529887D01*
X153630895Y-120529887D02*
X154345180Y-120196554D01*
X154345180Y-120196554D02*
X153345180Y-120196554D01*
X153868990Y-119720363D02*
X153868990Y-119387030D01*
X153345180Y-119244173D02*
X153345180Y-119720363D01*
X153345180Y-119720363D02*
X154345180Y-119720363D01*
X154345180Y-119720363D02*
X154345180Y-119244173D01*
X154249942Y-118863220D02*
X154297561Y-118815601D01*
X154297561Y-118815601D02*
X154345180Y-118720363D01*
X154345180Y-118720363D02*
X154345180Y-118482268D01*
X154345180Y-118482268D02*
X154297561Y-118387030D01*
X154297561Y-118387030D02*
X154249942Y-118339411D01*
X154249942Y-118339411D02*
X154154704Y-118291792D01*
X154154704Y-118291792D02*
X154059466Y-118291792D01*
X154059466Y-118291792D02*
X153916609Y-118339411D01*
X153916609Y-118339411D02*
X153345180Y-118910839D01*
X153345180Y-118910839D02*
X153345180Y-118291792D01*
X153916609Y-117720363D02*
X153964228Y-117815601D01*
X153964228Y-117815601D02*
X154011847Y-117863220D01*
X154011847Y-117863220D02*
X154107085Y-117910839D01*
X154107085Y-117910839D02*
X154154704Y-117910839D01*
X154154704Y-117910839D02*
X154249942Y-117863220D01*
X154249942Y-117863220D02*
X154297561Y-117815601D01*
X154297561Y-117815601D02*
X154345180Y-117720363D01*
X154345180Y-117720363D02*
X154345180Y-117529887D01*
X154345180Y-117529887D02*
X154297561Y-117434649D01*
X154297561Y-117434649D02*
X154249942Y-117387030D01*
X154249942Y-117387030D02*
X154154704Y-117339411D01*
X154154704Y-117339411D02*
X154107085Y-117339411D01*
X154107085Y-117339411D02*
X154011847Y-117387030D01*
X154011847Y-117387030D02*
X153964228Y-117434649D01*
X153964228Y-117434649D02*
X153916609Y-117529887D01*
X153916609Y-117529887D02*
X153916609Y-117720363D01*
X153916609Y-117720363D02*
X153868990Y-117815601D01*
X153868990Y-117815601D02*
X153821371Y-117863220D01*
X153821371Y-117863220D02*
X153726133Y-117910839D01*
X153726133Y-117910839D02*
X153535657Y-117910839D01*
X153535657Y-117910839D02*
X153440419Y-117863220D01*
X153440419Y-117863220D02*
X153392800Y-117815601D01*
X153392800Y-117815601D02*
X153345180Y-117720363D01*
X153345180Y-117720363D02*
X153345180Y-117529887D01*
X153345180Y-117529887D02*
X153392800Y-117434649D01*
X153392800Y-117434649D02*
X153440419Y-117387030D01*
X153440419Y-117387030D02*
X153535657Y-117339411D01*
X153535657Y-117339411D02*
X153726133Y-117339411D01*
X153726133Y-117339411D02*
X153821371Y-117387030D01*
X153821371Y-117387030D02*
X153868990Y-117434649D01*
X153868990Y-117434649D02*
X153916609Y-117529887D01*
X154345180Y-116720363D02*
X154345180Y-116625125D01*
X154345180Y-116625125D02*
X154297561Y-116529887D01*
X154297561Y-116529887D02*
X154249942Y-116482268D01*
X154249942Y-116482268D02*
X154154704Y-116434649D01*
X154154704Y-116434649D02*
X153964228Y-116387030D01*
X153964228Y-116387030D02*
X153726133Y-116387030D01*
X153726133Y-116387030D02*
X153535657Y-116434649D01*
X153535657Y-116434649D02*
X153440419Y-116482268D01*
X153440419Y-116482268D02*
X153392800Y-116529887D01*
X153392800Y-116529887D02*
X153345180Y-116625125D01*
X153345180Y-116625125D02*
X153345180Y-116720363D01*
X153345180Y-116720363D02*
X153392800Y-116815601D01*
X153392800Y-116815601D02*
X153440419Y-116863220D01*
X153440419Y-116863220D02*
X153535657Y-116910839D01*
X153535657Y-116910839D02*
X153726133Y-116958458D01*
X153726133Y-116958458D02*
X153964228Y-116958458D01*
X153964228Y-116958458D02*
X154154704Y-116910839D01*
X154154704Y-116910839D02*
X154249942Y-116863220D01*
X154249942Y-116863220D02*
X154297561Y-116815601D01*
X154297561Y-116815601D02*
X154345180Y-116720363D01*
X134261904Y-117802438D02*
X134357142Y-117754819D01*
X134357142Y-117754819D02*
X134499999Y-117754819D01*
X134499999Y-117754819D02*
X134642856Y-117802438D01*
X134642856Y-117802438D02*
X134738094Y-117897676D01*
X134738094Y-117897676D02*
X134785713Y-117992914D01*
X134785713Y-117992914D02*
X134833332Y-118183390D01*
X134833332Y-118183390D02*
X134833332Y-118326247D01*
X134833332Y-118326247D02*
X134785713Y-118516723D01*
X134785713Y-118516723D02*
X134738094Y-118611961D01*
X134738094Y-118611961D02*
X134642856Y-118707200D01*
X134642856Y-118707200D02*
X134499999Y-118754819D01*
X134499999Y-118754819D02*
X134404761Y-118754819D01*
X134404761Y-118754819D02*
X134261904Y-118707200D01*
X134261904Y-118707200D02*
X134214285Y-118659580D01*
X134214285Y-118659580D02*
X134214285Y-118326247D01*
X134214285Y-118326247D02*
X134404761Y-118326247D01*
X133785713Y-118754819D02*
X133785713Y-117754819D01*
X133785713Y-117754819D02*
X133214285Y-118754819D01*
X133214285Y-118754819D02*
X133214285Y-117754819D01*
X132738094Y-118754819D02*
X132738094Y-117754819D01*
X132738094Y-117754819D02*
X132499999Y-117754819D01*
X132499999Y-117754819D02*
X132357142Y-117802438D01*
X132357142Y-117802438D02*
X132261904Y-117897676D01*
X132261904Y-117897676D02*
X132214285Y-117992914D01*
X132214285Y-117992914D02*
X132166666Y-118183390D01*
X132166666Y-118183390D02*
X132166666Y-118326247D01*
X132166666Y-118326247D02*
X132214285Y-118516723D01*
X132214285Y-118516723D02*
X132261904Y-118611961D01*
X132261904Y-118611961D02*
X132357142Y-118707200D01*
X132357142Y-118707200D02*
X132499999Y-118754819D01*
X132499999Y-118754819D02*
X132738094Y-118754819D01*
X129114285Y-125754819D02*
X129685713Y-125754819D01*
X129399999Y-125754819D02*
X129399999Y-124754819D01*
X129399999Y-124754819D02*
X129495237Y-124897676D01*
X129495237Y-124897676D02*
X129590475Y-124992914D01*
X129590475Y-124992914D02*
X129685713Y-125040533D01*
X128780951Y-125088152D02*
X128590475Y-125754819D01*
X128590475Y-125754819D02*
X128399999Y-125278628D01*
X128399999Y-125278628D02*
X128209523Y-125754819D01*
X128209523Y-125754819D02*
X128019047Y-125088152D01*
X127638094Y-125754819D02*
X127638094Y-125088152D01*
X127638094Y-124754819D02*
X127685713Y-124802438D01*
X127685713Y-124802438D02*
X127638094Y-124850057D01*
X127638094Y-124850057D02*
X127590475Y-124802438D01*
X127590475Y-124802438D02*
X127638094Y-124754819D01*
X127638094Y-124754819D02*
X127638094Y-124850057D01*
X127161904Y-125754819D02*
X127161904Y-125088152D01*
X127161904Y-125278628D02*
X127114285Y-125183390D01*
X127114285Y-125183390D02*
X127066666Y-125135771D01*
X127066666Y-125135771D02*
X126971428Y-125088152D01*
X126971428Y-125088152D02*
X126876190Y-125088152D01*
X126161904Y-125707200D02*
X126257142Y-125754819D01*
X126257142Y-125754819D02*
X126447618Y-125754819D01*
X126447618Y-125754819D02*
X126542856Y-125707200D01*
X126542856Y-125707200D02*
X126590475Y-125611961D01*
X126590475Y-125611961D02*
X126590475Y-125231009D01*
X126590475Y-125231009D02*
X126542856Y-125135771D01*
X126542856Y-125135771D02*
X126447618Y-125088152D01*
X126447618Y-125088152D02*
X126257142Y-125088152D01*
X126257142Y-125088152D02*
X126161904Y-125135771D01*
X126161904Y-125135771D02*
X126114285Y-125231009D01*
X126114285Y-125231009D02*
X126114285Y-125326247D01*
X126114285Y-125326247D02*
X126590475Y-125421485D01*
X112392800Y-114023808D02*
X112345180Y-113880951D01*
X112345180Y-113880951D02*
X112345180Y-113642856D01*
X112345180Y-113642856D02*
X112392800Y-113547618D01*
X112392800Y-113547618D02*
X112440419Y-113499999D01*
X112440419Y-113499999D02*
X112535657Y-113452380D01*
X112535657Y-113452380D02*
X112630895Y-113452380D01*
X112630895Y-113452380D02*
X112726133Y-113499999D01*
X112726133Y-113499999D02*
X112773752Y-113547618D01*
X112773752Y-113547618D02*
X112821371Y-113642856D01*
X112821371Y-113642856D02*
X112868990Y-113833332D01*
X112868990Y-113833332D02*
X112916609Y-113928570D01*
X112916609Y-113928570D02*
X112964228Y-113976189D01*
X112964228Y-113976189D02*
X113059466Y-114023808D01*
X113059466Y-114023808D02*
X113154704Y-114023808D01*
X113154704Y-114023808D02*
X113249942Y-113976189D01*
X113249942Y-113976189D02*
X113297561Y-113928570D01*
X113297561Y-113928570D02*
X113345180Y-113833332D01*
X113345180Y-113833332D02*
X113345180Y-113595237D01*
X113345180Y-113595237D02*
X113297561Y-113452380D01*
X112345180Y-113023808D02*
X113345180Y-113023808D01*
X113297561Y-112023809D02*
X113345180Y-112119047D01*
X113345180Y-112119047D02*
X113345180Y-112261904D01*
X113345180Y-112261904D02*
X113297561Y-112404761D01*
X113297561Y-112404761D02*
X113202323Y-112499999D01*
X113202323Y-112499999D02*
X113107085Y-112547618D01*
X113107085Y-112547618D02*
X112916609Y-112595237D01*
X112916609Y-112595237D02*
X112773752Y-112595237D01*
X112773752Y-112595237D02*
X112583276Y-112547618D01*
X112583276Y-112547618D02*
X112488038Y-112499999D01*
X112488038Y-112499999D02*
X112392800Y-112404761D01*
X112392800Y-112404761D02*
X112345180Y-112261904D01*
X112345180Y-112261904D02*
X112345180Y-112166666D01*
X112345180Y-112166666D02*
X112392800Y-112023809D01*
X112392800Y-112023809D02*
X112440419Y-111976190D01*
X112440419Y-111976190D02*
X112773752Y-111976190D01*
X112773752Y-111976190D02*
X112773752Y-112166666D01*
D11*
X178659774Y-108649757D02*
X178802632Y-108578328D01*
X178802632Y-108578328D02*
X179016917Y-108578328D01*
X179016917Y-108578328D02*
X179231203Y-108649757D01*
X179231203Y-108649757D02*
X179374060Y-108792614D01*
X179374060Y-108792614D02*
X179445489Y-108935471D01*
X179445489Y-108935471D02*
X179516917Y-109221185D01*
X179516917Y-109221185D02*
X179516917Y-109435471D01*
X179516917Y-109435471D02*
X179445489Y-109721185D01*
X179445489Y-109721185D02*
X179374060Y-109864042D01*
X179374060Y-109864042D02*
X179231203Y-110006900D01*
X179231203Y-110006900D02*
X179016917Y-110078328D01*
X179016917Y-110078328D02*
X178874060Y-110078328D01*
X178874060Y-110078328D02*
X178659774Y-110006900D01*
X178659774Y-110006900D02*
X178588346Y-109935471D01*
X178588346Y-109935471D02*
X178588346Y-109435471D01*
X178588346Y-109435471D02*
X178874060Y-109435471D01*
X177945489Y-110078328D02*
X177945489Y-108578328D01*
X177945489Y-108578328D02*
X177088346Y-110078328D01*
X177088346Y-110078328D02*
X177088346Y-108578328D01*
X176374060Y-110078328D02*
X176374060Y-108578328D01*
X176374060Y-108578328D02*
X176016917Y-108578328D01*
X176016917Y-108578328D02*
X175802631Y-108649757D01*
X175802631Y-108649757D02*
X175659774Y-108792614D01*
X175659774Y-108792614D02*
X175588345Y-108935471D01*
X175588345Y-108935471D02*
X175516917Y-109221185D01*
X175516917Y-109221185D02*
X175516917Y-109435471D01*
X175516917Y-109435471D02*
X175588345Y-109721185D01*
X175588345Y-109721185D02*
X175659774Y-109864042D01*
X175659774Y-109864042D02*
X175802631Y-110006900D01*
X175802631Y-110006900D02*
X176016917Y-110078328D01*
X176016917Y-110078328D02*
X176374060Y-110078328D01*
D10*
X131838094Y-113354819D02*
X131219047Y-113354819D01*
X131219047Y-113354819D02*
X131552380Y-113735771D01*
X131552380Y-113735771D02*
X131409523Y-113735771D01*
X131409523Y-113735771D02*
X131314285Y-113783390D01*
X131314285Y-113783390D02*
X131266666Y-113831009D01*
X131266666Y-113831009D02*
X131219047Y-113926247D01*
X131219047Y-113926247D02*
X131219047Y-114164342D01*
X131219047Y-114164342D02*
X131266666Y-114259580D01*
X131266666Y-114259580D02*
X131314285Y-114307200D01*
X131314285Y-114307200D02*
X131409523Y-114354819D01*
X131409523Y-114354819D02*
X131695237Y-114354819D01*
X131695237Y-114354819D02*
X131790475Y-114307200D01*
X131790475Y-114307200D02*
X131838094Y-114259580D01*
X130933332Y-113354819D02*
X130599999Y-114354819D01*
X130599999Y-114354819D02*
X130266666Y-113354819D01*
X130028570Y-113354819D02*
X129409523Y-113354819D01*
X129409523Y-113354819D02*
X129742856Y-113735771D01*
X129742856Y-113735771D02*
X129599999Y-113735771D01*
X129599999Y-113735771D02*
X129504761Y-113783390D01*
X129504761Y-113783390D02*
X129457142Y-113831009D01*
X129457142Y-113831009D02*
X129409523Y-113926247D01*
X129409523Y-113926247D02*
X129409523Y-114164342D01*
X129409523Y-114164342D02*
X129457142Y-114259580D01*
X129457142Y-114259580D02*
X129504761Y-114307200D01*
X129504761Y-114307200D02*
X129599999Y-114354819D01*
X129599999Y-114354819D02*
X129885713Y-114354819D01*
X129885713Y-114354819D02*
X129980951Y-114307200D01*
X129980951Y-114307200D02*
X130028570Y-114259580D01*
D11*
X186516917Y-130306900D02*
X186302632Y-130378328D01*
X186302632Y-130378328D02*
X185945489Y-130378328D01*
X185945489Y-130378328D02*
X185802632Y-130306900D01*
X185802632Y-130306900D02*
X185731203Y-130235471D01*
X185731203Y-130235471D02*
X185659774Y-130092614D01*
X185659774Y-130092614D02*
X185659774Y-129949757D01*
X185659774Y-129949757D02*
X185731203Y-129806900D01*
X185731203Y-129806900D02*
X185802632Y-129735471D01*
X185802632Y-129735471D02*
X185945489Y-129664042D01*
X185945489Y-129664042D02*
X186231203Y-129592614D01*
X186231203Y-129592614D02*
X186374060Y-129521185D01*
X186374060Y-129521185D02*
X186445489Y-129449757D01*
X186445489Y-129449757D02*
X186516917Y-129306900D01*
X186516917Y-129306900D02*
X186516917Y-129164042D01*
X186516917Y-129164042D02*
X186445489Y-129021185D01*
X186445489Y-129021185D02*
X186374060Y-128949757D01*
X186374060Y-128949757D02*
X186231203Y-128878328D01*
X186231203Y-128878328D02*
X185874060Y-128878328D01*
X185874060Y-128878328D02*
X185659774Y-128949757D01*
X185159775Y-128878328D02*
X184159775Y-128878328D01*
X184159775Y-128878328D02*
X184802632Y-130378328D01*
D10*
X159445180Y-109133332D02*
X159445180Y-108514285D01*
X159445180Y-108514285D02*
X159064228Y-108847618D01*
X159064228Y-108847618D02*
X159064228Y-108704761D01*
X159064228Y-108704761D02*
X159016609Y-108609523D01*
X159016609Y-108609523D02*
X158968990Y-108561904D01*
X158968990Y-108561904D02*
X158873752Y-108514285D01*
X158873752Y-108514285D02*
X158635657Y-108514285D01*
X158635657Y-108514285D02*
X158540419Y-108561904D01*
X158540419Y-108561904D02*
X158492800Y-108609523D01*
X158492800Y-108609523D02*
X158445180Y-108704761D01*
X158445180Y-108704761D02*
X158445180Y-108990475D01*
X158445180Y-108990475D02*
X158492800Y-109085713D01*
X158492800Y-109085713D02*
X158540419Y-109133332D01*
D11*
X160350242Y-114942856D02*
X160421671Y-115085714D01*
X160421671Y-115085714D02*
X160421671Y-115299999D01*
X160421671Y-115299999D02*
X160350242Y-115514285D01*
X160350242Y-115514285D02*
X160207385Y-115657142D01*
X160207385Y-115657142D02*
X160064528Y-115728571D01*
X160064528Y-115728571D02*
X159778814Y-115799999D01*
X159778814Y-115799999D02*
X159564528Y-115799999D01*
X159564528Y-115799999D02*
X159278814Y-115728571D01*
X159278814Y-115728571D02*
X159135957Y-115657142D01*
X159135957Y-115657142D02*
X158993100Y-115514285D01*
X158993100Y-115514285D02*
X158921671Y-115299999D01*
X158921671Y-115299999D02*
X158921671Y-115157142D01*
X158921671Y-115157142D02*
X158993100Y-114942856D01*
X158993100Y-114942856D02*
X159064528Y-114871428D01*
X159064528Y-114871428D02*
X159564528Y-114871428D01*
X159564528Y-114871428D02*
X159564528Y-115157142D01*
X158921671Y-114228571D02*
X160421671Y-114228571D01*
X160421671Y-114228571D02*
X158921671Y-113371428D01*
X158921671Y-113371428D02*
X160421671Y-113371428D01*
X158921671Y-112657142D02*
X160421671Y-112657142D01*
X160421671Y-112657142D02*
X160421671Y-112299999D01*
X160421671Y-112299999D02*
X160350242Y-112085713D01*
X160350242Y-112085713D02*
X160207385Y-111942856D01*
X160207385Y-111942856D02*
X160064528Y-111871427D01*
X160064528Y-111871427D02*
X159778814Y-111799999D01*
X159778814Y-111799999D02*
X159564528Y-111799999D01*
X159564528Y-111799999D02*
X159278814Y-111871427D01*
X159278814Y-111871427D02*
X159135957Y-111942856D01*
X159135957Y-111942856D02*
X158993100Y-112085713D01*
X158993100Y-112085713D02*
X158921671Y-112299999D01*
X158921671Y-112299999D02*
X158921671Y-112657142D01*
X113197366Y-145978328D02*
X114054509Y-145978328D01*
X113625938Y-145978328D02*
X113625938Y-144478328D01*
X113625938Y-144478328D02*
X113768795Y-144692614D01*
X113768795Y-144692614D02*
X113911652Y-144835471D01*
X113911652Y-144835471D02*
X114054509Y-144906900D01*
X112625938Y-144621185D02*
X112554510Y-144549757D01*
X112554510Y-144549757D02*
X112411653Y-144478328D01*
X112411653Y-144478328D02*
X112054510Y-144478328D01*
X112054510Y-144478328D02*
X111911653Y-144549757D01*
X111911653Y-144549757D02*
X111840224Y-144621185D01*
X111840224Y-144621185D02*
X111768795Y-144764042D01*
X111768795Y-144764042D02*
X111768795Y-144906900D01*
X111768795Y-144906900D02*
X111840224Y-145121185D01*
X111840224Y-145121185D02*
X112697367Y-145978328D01*
X112697367Y-145978328D02*
X111768795Y-145978328D01*
X111340224Y-144478328D02*
X110840224Y-145978328D01*
X110840224Y-145978328D02*
X110340224Y-144478328D01*
X166921671Y-115757142D02*
X166921671Y-114828570D01*
X166921671Y-114828570D02*
X166350242Y-115328570D01*
X166350242Y-115328570D02*
X166350242Y-115114285D01*
X166350242Y-115114285D02*
X166278814Y-114971428D01*
X166278814Y-114971428D02*
X166207385Y-114899999D01*
X166207385Y-114899999D02*
X166064528Y-114828570D01*
X166064528Y-114828570D02*
X165707385Y-114828570D01*
X165707385Y-114828570D02*
X165564528Y-114899999D01*
X165564528Y-114899999D02*
X165493100Y-114971428D01*
X165493100Y-114971428D02*
X165421671Y-115114285D01*
X165421671Y-115114285D02*
X165421671Y-115542856D01*
X165421671Y-115542856D02*
X165493100Y-115685713D01*
X165493100Y-115685713D02*
X165564528Y-115757142D01*
X166921671Y-114399999D02*
X165421671Y-113899999D01*
X165421671Y-113899999D02*
X166921671Y-113399999D01*
X166921671Y-113042857D02*
X166921671Y-112114285D01*
X166921671Y-112114285D02*
X166350242Y-112614285D01*
X166350242Y-112614285D02*
X166350242Y-112400000D01*
X166350242Y-112400000D02*
X166278814Y-112257143D01*
X166278814Y-112257143D02*
X166207385Y-112185714D01*
X166207385Y-112185714D02*
X166064528Y-112114285D01*
X166064528Y-112114285D02*
X165707385Y-112114285D01*
X165707385Y-112114285D02*
X165564528Y-112185714D01*
X165564528Y-112185714D02*
X165493100Y-112257143D01*
X165493100Y-112257143D02*
X165421671Y-112400000D01*
X165421671Y-112400000D02*
X165421671Y-112828571D01*
X165421671Y-112828571D02*
X165493100Y-112971428D01*
X165493100Y-112971428D02*
X165564528Y-113042857D01*
D10*
X134461904Y-113402438D02*
X134557142Y-113354819D01*
X134557142Y-113354819D02*
X134699999Y-113354819D01*
X134699999Y-113354819D02*
X134842856Y-113402438D01*
X134842856Y-113402438D02*
X134938094Y-113497676D01*
X134938094Y-113497676D02*
X134985713Y-113592914D01*
X134985713Y-113592914D02*
X135033332Y-113783390D01*
X135033332Y-113783390D02*
X135033332Y-113926247D01*
X135033332Y-113926247D02*
X134985713Y-114116723D01*
X134985713Y-114116723D02*
X134938094Y-114211961D01*
X134938094Y-114211961D02*
X134842856Y-114307200D01*
X134842856Y-114307200D02*
X134699999Y-114354819D01*
X134699999Y-114354819D02*
X134604761Y-114354819D01*
X134604761Y-114354819D02*
X134461904Y-114307200D01*
X134461904Y-114307200D02*
X134414285Y-114259580D01*
X134414285Y-114259580D02*
X134414285Y-113926247D01*
X134414285Y-113926247D02*
X134604761Y-113926247D01*
X133985713Y-114354819D02*
X133985713Y-113354819D01*
X133985713Y-113354819D02*
X133414285Y-114354819D01*
X133414285Y-114354819D02*
X133414285Y-113354819D01*
X132938094Y-114354819D02*
X132938094Y-113354819D01*
X132938094Y-113354819D02*
X132699999Y-113354819D01*
X132699999Y-113354819D02*
X132557142Y-113402438D01*
X132557142Y-113402438D02*
X132461904Y-113497676D01*
X132461904Y-113497676D02*
X132414285Y-113592914D01*
X132414285Y-113592914D02*
X132366666Y-113783390D01*
X132366666Y-113783390D02*
X132366666Y-113926247D01*
X132366666Y-113926247D02*
X132414285Y-114116723D01*
X132414285Y-114116723D02*
X132461904Y-114211961D01*
X132461904Y-114211961D02*
X132557142Y-114307200D01*
X132557142Y-114307200D02*
X132699999Y-114354819D01*
X132699999Y-114354819D02*
X132938094Y-114354819D01*
X129738094Y-123454819D02*
X129119047Y-123454819D01*
X129119047Y-123454819D02*
X129452380Y-123835771D01*
X129452380Y-123835771D02*
X129309523Y-123835771D01*
X129309523Y-123835771D02*
X129214285Y-123883390D01*
X129214285Y-123883390D02*
X129166666Y-123931009D01*
X129166666Y-123931009D02*
X129119047Y-124026247D01*
X129119047Y-124026247D02*
X129119047Y-124264342D01*
X129119047Y-124264342D02*
X129166666Y-124359580D01*
X129166666Y-124359580D02*
X129214285Y-124407200D01*
X129214285Y-124407200D02*
X129309523Y-124454819D01*
X129309523Y-124454819D02*
X129595237Y-124454819D01*
X129595237Y-124454819D02*
X129690475Y-124407200D01*
X129690475Y-124407200D02*
X129738094Y-124359580D01*
X128833332Y-123454819D02*
X128499999Y-124454819D01*
X128499999Y-124454819D02*
X128166666Y-123454819D01*
X127928570Y-123454819D02*
X127309523Y-123454819D01*
X127309523Y-123454819D02*
X127642856Y-123835771D01*
X127642856Y-123835771D02*
X127499999Y-123835771D01*
X127499999Y-123835771D02*
X127404761Y-123883390D01*
X127404761Y-123883390D02*
X127357142Y-123931009D01*
X127357142Y-123931009D02*
X127309523Y-124026247D01*
X127309523Y-124026247D02*
X127309523Y-124264342D01*
X127309523Y-124264342D02*
X127357142Y-124359580D01*
X127357142Y-124359580D02*
X127404761Y-124407200D01*
X127404761Y-124407200D02*
X127499999Y-124454819D01*
X127499999Y-124454819D02*
X127785713Y-124454819D01*
X127785713Y-124454819D02*
X127880951Y-124407200D01*
X127880951Y-124407200D02*
X127928570Y-124359580D01*
X154940476Y-121109580D02*
X154988095Y-121157200D01*
X154988095Y-121157200D02*
X155130952Y-121204819D01*
X155130952Y-121204819D02*
X155226190Y-121204819D01*
X155226190Y-121204819D02*
X155369047Y-121157200D01*
X155369047Y-121157200D02*
X155464285Y-121061961D01*
X155464285Y-121061961D02*
X155511904Y-120966723D01*
X155511904Y-120966723D02*
X155559523Y-120776247D01*
X155559523Y-120776247D02*
X155559523Y-120633390D01*
X155559523Y-120633390D02*
X155511904Y-120442914D01*
X155511904Y-120442914D02*
X155464285Y-120347676D01*
X155464285Y-120347676D02*
X155369047Y-120252438D01*
X155369047Y-120252438D02*
X155226190Y-120204819D01*
X155226190Y-120204819D02*
X155130952Y-120204819D01*
X155130952Y-120204819D02*
X154988095Y-120252438D01*
X154988095Y-120252438D02*
X154940476Y-120300057D01*
D11*
X116097366Y-109478328D02*
X116954509Y-109478328D01*
X116525938Y-109478328D02*
X116525938Y-107978328D01*
X116525938Y-107978328D02*
X116668795Y-108192614D01*
X116668795Y-108192614D02*
X116811652Y-108335471D01*
X116811652Y-108335471D02*
X116954509Y-108406900D01*
X115525938Y-108121185D02*
X115454510Y-108049757D01*
X115454510Y-108049757D02*
X115311653Y-107978328D01*
X115311653Y-107978328D02*
X114954510Y-107978328D01*
X114954510Y-107978328D02*
X114811653Y-108049757D01*
X114811653Y-108049757D02*
X114740224Y-108121185D01*
X114740224Y-108121185D02*
X114668795Y-108264042D01*
X114668795Y-108264042D02*
X114668795Y-108406900D01*
X114668795Y-108406900D02*
X114740224Y-108621185D01*
X114740224Y-108621185D02*
X115597367Y-109478328D01*
X115597367Y-109478328D02*
X114668795Y-109478328D01*
X114240224Y-107978328D02*
X113740224Y-109478328D01*
X113740224Y-109478328D02*
X113240224Y-107978328D01*
D10*
X112933332Y-110054819D02*
X112314285Y-110054819D01*
X112314285Y-110054819D02*
X112647618Y-110435771D01*
X112647618Y-110435771D02*
X112504761Y-110435771D01*
X112504761Y-110435771D02*
X112409523Y-110483390D01*
X112409523Y-110483390D02*
X112361904Y-110531009D01*
X112361904Y-110531009D02*
X112314285Y-110626247D01*
X112314285Y-110626247D02*
X112314285Y-110864342D01*
X112314285Y-110864342D02*
X112361904Y-110959580D01*
X112361904Y-110959580D02*
X112409523Y-111007200D01*
X112409523Y-111007200D02*
X112504761Y-111054819D01*
X112504761Y-111054819D02*
X112790475Y-111054819D01*
X112790475Y-111054819D02*
X112885713Y-111007200D01*
X112885713Y-111007200D02*
X112933332Y-110959580D01*
X169997561Y-108538095D02*
X170045180Y-108633333D01*
X170045180Y-108633333D02*
X170045180Y-108776190D01*
X170045180Y-108776190D02*
X169997561Y-108919047D01*
X169997561Y-108919047D02*
X169902323Y-109014285D01*
X169902323Y-109014285D02*
X169807085Y-109061904D01*
X169807085Y-109061904D02*
X169616609Y-109109523D01*
X169616609Y-109109523D02*
X169473752Y-109109523D01*
X169473752Y-109109523D02*
X169283276Y-109061904D01*
X169283276Y-109061904D02*
X169188038Y-109014285D01*
X169188038Y-109014285D02*
X169092800Y-108919047D01*
X169092800Y-108919047D02*
X169045180Y-108776190D01*
X169045180Y-108776190D02*
X169045180Y-108680952D01*
X169045180Y-108680952D02*
X169092800Y-108538095D01*
X169092800Y-108538095D02*
X169140419Y-108490476D01*
X169140419Y-108490476D02*
X169473752Y-108490476D01*
X169473752Y-108490476D02*
X169473752Y-108680952D01*
D11*
X175216917Y-142306900D02*
X175002632Y-142378328D01*
X175002632Y-142378328D02*
X174645489Y-142378328D01*
X174645489Y-142378328D02*
X174502632Y-142306900D01*
X174502632Y-142306900D02*
X174431203Y-142235471D01*
X174431203Y-142235471D02*
X174359774Y-142092614D01*
X174359774Y-142092614D02*
X174359774Y-141949757D01*
X174359774Y-141949757D02*
X174431203Y-141806900D01*
X174431203Y-141806900D02*
X174502632Y-141735471D01*
X174502632Y-141735471D02*
X174645489Y-141664042D01*
X174645489Y-141664042D02*
X174931203Y-141592614D01*
X174931203Y-141592614D02*
X175074060Y-141521185D01*
X175074060Y-141521185D02*
X175145489Y-141449757D01*
X175145489Y-141449757D02*
X175216917Y-141306900D01*
X175216917Y-141306900D02*
X175216917Y-141164042D01*
X175216917Y-141164042D02*
X175145489Y-141021185D01*
X175145489Y-141021185D02*
X175074060Y-140949757D01*
X175074060Y-140949757D02*
X174931203Y-140878328D01*
X174931203Y-140878328D02*
X174574060Y-140878328D01*
X174574060Y-140878328D02*
X174359774Y-140949757D01*
X173502632Y-141521185D02*
X173645489Y-141449757D01*
X173645489Y-141449757D02*
X173716918Y-141378328D01*
X173716918Y-141378328D02*
X173788346Y-141235471D01*
X173788346Y-141235471D02*
X173788346Y-141164042D01*
X173788346Y-141164042D02*
X173716918Y-141021185D01*
X173716918Y-141021185D02*
X173645489Y-140949757D01*
X173645489Y-140949757D02*
X173502632Y-140878328D01*
X173502632Y-140878328D02*
X173216918Y-140878328D01*
X173216918Y-140878328D02*
X173074061Y-140949757D01*
X173074061Y-140949757D02*
X173002632Y-141021185D01*
X173002632Y-141021185D02*
X172931203Y-141164042D01*
X172931203Y-141164042D02*
X172931203Y-141235471D01*
X172931203Y-141235471D02*
X173002632Y-141378328D01*
X173002632Y-141378328D02*
X173074061Y-141449757D01*
X173074061Y-141449757D02*
X173216918Y-141521185D01*
X173216918Y-141521185D02*
X173502632Y-141521185D01*
X173502632Y-141521185D02*
X173645489Y-141592614D01*
X173645489Y-141592614D02*
X173716918Y-141664042D01*
X173716918Y-141664042D02*
X173788346Y-141806900D01*
X173788346Y-141806900D02*
X173788346Y-142092614D01*
X173788346Y-142092614D02*
X173716918Y-142235471D01*
X173716918Y-142235471D02*
X173645489Y-142306900D01*
X173645489Y-142306900D02*
X173502632Y-142378328D01*
X173502632Y-142378328D02*
X173216918Y-142378328D01*
X173216918Y-142378328D02*
X173074061Y-142306900D01*
X173074061Y-142306900D02*
X173002632Y-142235471D01*
X173002632Y-142235471D02*
X172931203Y-142092614D01*
X172931203Y-142092614D02*
X172931203Y-141806900D01*
X172931203Y-141806900D02*
X173002632Y-141664042D01*
X173002632Y-141664042D02*
X173074061Y-141592614D01*
X173074061Y-141592614D02*
X173216918Y-141521185D01*
X141721671Y-110868795D02*
X140721671Y-110868795D01*
X142293100Y-111225937D02*
X141221671Y-111583080D01*
X141221671Y-111583080D02*
X141221671Y-110654509D01*
X141578814Y-109868795D02*
X141650242Y-110011652D01*
X141650242Y-110011652D02*
X141721671Y-110083081D01*
X141721671Y-110083081D02*
X141864528Y-110154509D01*
X141864528Y-110154509D02*
X141935957Y-110154509D01*
X141935957Y-110154509D02*
X142078814Y-110083081D01*
X142078814Y-110083081D02*
X142150242Y-110011652D01*
X142150242Y-110011652D02*
X142221671Y-109868795D01*
X142221671Y-109868795D02*
X142221671Y-109583081D01*
X142221671Y-109583081D02*
X142150242Y-109440224D01*
X142150242Y-109440224D02*
X142078814Y-109368795D01*
X142078814Y-109368795D02*
X141935957Y-109297366D01*
X141935957Y-109297366D02*
X141864528Y-109297366D01*
X141864528Y-109297366D02*
X141721671Y-109368795D01*
X141721671Y-109368795D02*
X141650242Y-109440224D01*
X141650242Y-109440224D02*
X141578814Y-109583081D01*
X141578814Y-109583081D02*
X141578814Y-109868795D01*
X141578814Y-109868795D02*
X141507385Y-110011652D01*
X141507385Y-110011652D02*
X141435957Y-110083081D01*
X141435957Y-110083081D02*
X141293100Y-110154509D01*
X141293100Y-110154509D02*
X141007385Y-110154509D01*
X141007385Y-110154509D02*
X140864528Y-110083081D01*
X140864528Y-110083081D02*
X140793100Y-110011652D01*
X140793100Y-110011652D02*
X140721671Y-109868795D01*
X140721671Y-109868795D02*
X140721671Y-109583081D01*
X140721671Y-109583081D02*
X140793100Y-109440224D01*
X140793100Y-109440224D02*
X140864528Y-109368795D01*
X140864528Y-109368795D02*
X141007385Y-109297366D01*
X141007385Y-109297366D02*
X141293100Y-109297366D01*
X141293100Y-109297366D02*
X141435957Y-109368795D01*
X141435957Y-109368795D02*
X141507385Y-109440224D01*
X141507385Y-109440224D02*
X141578814Y-109583081D01*
X142221671Y-107940224D02*
X142221671Y-108654510D01*
X142221671Y-108654510D02*
X141507385Y-108725938D01*
X141507385Y-108725938D02*
X141578814Y-108654510D01*
X141578814Y-108654510D02*
X141650242Y-108511653D01*
X141650242Y-108511653D02*
X141650242Y-108154510D01*
X141650242Y-108154510D02*
X141578814Y-108011653D01*
X141578814Y-108011653D02*
X141507385Y-107940224D01*
X141507385Y-107940224D02*
X141364528Y-107868795D01*
X141364528Y-107868795D02*
X141007385Y-107868795D01*
X141007385Y-107868795D02*
X140864528Y-107940224D01*
X140864528Y-107940224D02*
X140793100Y-108011653D01*
X140793100Y-108011653D02*
X140721671Y-108154510D01*
X140721671Y-108154510D02*
X140721671Y-108511653D01*
X140721671Y-108511653D02*
X140793100Y-108654510D01*
X140793100Y-108654510D02*
X140864528Y-108725938D01*
X141150242Y-107297367D02*
X141150242Y-106583082D01*
X140721671Y-107440224D02*
X142221671Y-106940224D01*
X142221671Y-106940224D02*
X140721671Y-106440224D01*
X178659774Y-114978328D02*
X179516917Y-114978328D01*
X179088346Y-114978328D02*
X179088346Y-113478328D01*
X179088346Y-113478328D02*
X179231203Y-113692614D01*
X179231203Y-113692614D02*
X179374060Y-113835471D01*
X179374060Y-113835471D02*
X179516917Y-113906900D01*
X178088346Y-113621185D02*
X178016918Y-113549757D01*
X178016918Y-113549757D02*
X177874061Y-113478328D01*
X177874061Y-113478328D02*
X177516918Y-113478328D01*
X177516918Y-113478328D02*
X177374061Y-113549757D01*
X177374061Y-113549757D02*
X177302632Y-113621185D01*
X177302632Y-113621185D02*
X177231203Y-113764042D01*
X177231203Y-113764042D02*
X177231203Y-113906900D01*
X177231203Y-113906900D02*
X177302632Y-114121185D01*
X177302632Y-114121185D02*
X178159775Y-114978328D01*
X178159775Y-114978328D02*
X177231203Y-114978328D01*
X176802632Y-113478328D02*
X176302632Y-114978328D01*
X176302632Y-114978328D02*
X175802632Y-113478328D01*
X178559774Y-127378328D02*
X179416917Y-127378328D01*
X178988346Y-127378328D02*
X178988346Y-125878328D01*
X178988346Y-125878328D02*
X179131203Y-126092614D01*
X179131203Y-126092614D02*
X179274060Y-126235471D01*
X179274060Y-126235471D02*
X179416917Y-126306900D01*
X177988346Y-126021185D02*
X177916918Y-125949757D01*
X177916918Y-125949757D02*
X177774061Y-125878328D01*
X177774061Y-125878328D02*
X177416918Y-125878328D01*
X177416918Y-125878328D02*
X177274061Y-125949757D01*
X177274061Y-125949757D02*
X177202632Y-126021185D01*
X177202632Y-126021185D02*
X177131203Y-126164042D01*
X177131203Y-126164042D02*
X177131203Y-126306900D01*
X177131203Y-126306900D02*
X177202632Y-126521185D01*
X177202632Y-126521185D02*
X178059775Y-127378328D01*
X178059775Y-127378328D02*
X177131203Y-127378328D01*
X176702632Y-125878328D02*
X176202632Y-127378328D01*
X176202632Y-127378328D02*
X175702632Y-125878328D01*
D13*
%TO.C,J7*%
X103195000Y-100000000D02*
X103195000Y-111900000D01*
X109995000Y-109450000D02*
X110595000Y-109150000D01*
X110595000Y-109150000D02*
X110595000Y-109750000D01*
X110595000Y-109750000D02*
X109995000Y-109450000D01*
D14*
X109195000Y-111900000D02*
X99995000Y-111900000D01*
X99995000Y-100000000D01*
X109195000Y-100000000D01*
X109195000Y-111900000D01*
D13*
%TO.C,J14*%
X179395000Y-114050000D02*
X179995000Y-114350000D01*
X179395000Y-114650000D02*
X179395000Y-114050000D01*
X179995000Y-114350000D02*
X179395000Y-114650000D01*
X186795000Y-123800000D02*
X186795000Y-111900000D01*
D14*
X180795000Y-111900000D02*
X189995000Y-111900000D01*
X189995000Y-123800000D01*
X180795000Y-123800000D01*
X180795000Y-111900000D01*
D13*
%TO.C,U6*%
X125774000Y-115084000D02*
X125774000Y-117370000D01*
X125774000Y-115592000D02*
X126790000Y-115592000D01*
X125774000Y-116608000D02*
X126790000Y-116608000D01*
X126536000Y-116100000D02*
X127044000Y-117116000D01*
X126790000Y-116100000D02*
X127044000Y-115592000D01*
X127044000Y-115084000D02*
X126536000Y-116100000D01*
X127044000Y-115592000D02*
X128822000Y-115592000D01*
X127044000Y-116608000D02*
X126790000Y-116100000D01*
X128822000Y-115592000D02*
X129076000Y-116100000D01*
X128822000Y-116608000D02*
X127044000Y-116608000D01*
X129076000Y-116100000D02*
X128822000Y-116608000D01*
X137600000Y-116100000D02*
G75*
G02*
X123600000Y-116100000I-7000000J0D01*
G01*
X123600000Y-116100000D02*
G75*
G02*
X137600000Y-116100000I7000000J0D01*
G01*
%TO.C,J15*%
X179395000Y-125950000D02*
X179995000Y-126250000D01*
X179395000Y-126550000D02*
X179395000Y-125950000D01*
X179995000Y-126250000D02*
X179395000Y-126550000D01*
X186795000Y-135700000D02*
X186795000Y-123800000D01*
D14*
X180795000Y-123800000D02*
X189995000Y-123800000D01*
X189995000Y-135700000D01*
X180795000Y-135700000D01*
X180795000Y-123800000D01*
D13*
%TO.C,J1*%
X103195000Y-135750000D02*
X103195000Y-147650000D01*
X109995000Y-145200000D02*
X110595000Y-144900000D01*
X110595000Y-144900000D02*
X110595000Y-145500000D01*
X110595000Y-145500000D02*
X109995000Y-145200000D01*
D14*
X109195000Y-147650000D02*
X99995000Y-147650000D01*
X99995000Y-135750000D01*
X109195000Y-135750000D01*
X109195000Y-147650000D01*
%TO.C,J12*%
X128395000Y-136000000D02*
X128395000Y-148800000D01*
D13*
X128495000Y-134600000D02*
X129095000Y-134900000D01*
X128495000Y-135200000D02*
X128495000Y-134600000D01*
X129095000Y-134900000D02*
X128495000Y-135200000D01*
X154685000Y-135900000D02*
X153705000Y-135900000D01*
D14*
X179995000Y-135000000D02*
X179995000Y-148800000D01*
X179995000Y-148800000D02*
X128395000Y-148800000D01*
D13*
%TO.C,Q4*%
X119640000Y-109950000D02*
X119640000Y-120170000D01*
X119640000Y-120170000D02*
X124260000Y-120170000D01*
X122880000Y-120170000D02*
X122880000Y-109950000D01*
X124260000Y-109950000D02*
X119640000Y-109950000D01*
X124260000Y-113210000D02*
X122880000Y-113210000D01*
X124260000Y-116910000D02*
X122880000Y-116910000D01*
X124260000Y-120170000D02*
X124260000Y-109950000D01*
%TO.C,J2*%
X103195000Y-123800000D02*
X103195000Y-135700000D01*
X109995000Y-133250000D02*
X110595000Y-132950000D01*
X110595000Y-132950000D02*
X110595000Y-133550000D01*
X110595000Y-133550000D02*
X109995000Y-133250000D01*
D14*
X109195000Y-135700000D02*
X99995000Y-135700000D01*
X99995000Y-123800000D01*
X109195000Y-123800000D01*
X109195000Y-135700000D01*
D13*
%TO.C,U10*%
X103454001Y-118250001D02*
G75*
G02*
X106953999Y-118249999I1749999J-249999D01*
G01*
X106953999Y-102749999D02*
G75*
G02*
X103449885Y-102719265I-1749999J249999D01*
G01*
X113204000Y-110500000D02*
G75*
G02*
X97204000Y-110500000I-8000000J0D01*
G01*
X97204000Y-110500000D02*
G75*
G02*
X113204000Y-110500000I8000000J0D01*
G01*
%TO.C,J13*%
X179395000Y-102150000D02*
X179995000Y-102450000D01*
X179395000Y-102750000D02*
X179395000Y-102150000D01*
X179995000Y-102450000D02*
X179395000Y-102750000D01*
X186795000Y-111900000D02*
X186795000Y-100000000D01*
D14*
X180795000Y-100000000D02*
X189995000Y-100000000D01*
X189995000Y-111900000D01*
X180795000Y-111900000D01*
X180795000Y-100000000D01*
D13*
%TO.C,J17*%
X157610000Y-109270000D02*
X157610000Y-111930000D01*
X157610000Y-109270000D02*
X167830000Y-109270000D01*
X157610000Y-111930000D02*
X167830000Y-111930000D01*
X167830000Y-109270000D02*
X167830000Y-111930000D01*
X169100000Y-109270000D02*
X170430000Y-109270000D01*
X170430000Y-109270000D02*
X170430000Y-110600000D01*
%TO.C,J5*%
X164492500Y-119017500D02*
X165742500Y-119017500D01*
X164492500Y-121017500D02*
X164492500Y-119017500D01*
X164882500Y-119407500D02*
X164882500Y-128027500D01*
X164882500Y-128027500D02*
X172352500Y-128027500D01*
X165842500Y-120467500D02*
X166842500Y-120717500D01*
X165842500Y-123467500D02*
X165842500Y-120467500D01*
X165842500Y-123967500D02*
X166842500Y-124217500D01*
X165842500Y-126967500D02*
X165842500Y-123967500D01*
X166842500Y-120717500D02*
X166842500Y-121217500D01*
X166842500Y-121217500D02*
X167192500Y-121217500D01*
X166842500Y-122717500D02*
X166842500Y-123217500D01*
X166842500Y-123217500D02*
X165842500Y-123467500D01*
X166842500Y-124217500D02*
X166842500Y-124717500D01*
X166842500Y-124717500D02*
X167192500Y-124717500D01*
X166842500Y-126217500D02*
X166842500Y-126717500D01*
X166842500Y-126717500D02*
X165842500Y-126967500D01*
X167192500Y-120467500D02*
X171492500Y-120467500D01*
X167192500Y-121217500D02*
X167192500Y-120467500D01*
X167192500Y-122717500D02*
X166842500Y-122717500D01*
X167192500Y-123467500D02*
X167192500Y-122717500D01*
X167192500Y-123967500D02*
X171492500Y-123967500D01*
X167192500Y-124717500D02*
X167192500Y-123967500D01*
X167192500Y-126217500D02*
X166842500Y-126217500D01*
X167192500Y-126967500D02*
X167192500Y-126217500D01*
X171492500Y-120467500D02*
X171492500Y-121217500D01*
X171492500Y-122717500D02*
X171492500Y-123467500D01*
X171492500Y-123467500D02*
X167192500Y-123467500D01*
X171492500Y-123967500D02*
X171492500Y-124717500D01*
X171492500Y-126217500D02*
X171492500Y-126967500D01*
X171492500Y-126967500D02*
X167192500Y-126967500D01*
X172352500Y-119407500D02*
X164882500Y-119407500D01*
X172352500Y-128027500D02*
X172352500Y-119407500D01*
X171492344Y-122717147D02*
G75*
G02*
X171492500Y-121217500I1700156J749647D01*
G01*
X171492344Y-126217147D02*
G75*
G02*
X171492500Y-124717500I1700156J749647D01*
G01*
%TO.C,U9*%
X134650000Y-127700000D02*
X134650000Y-124100000D01*
X130350000Y-125080000D02*
G75*
G02*
X134642156Y-124088547I2450000J-820000D01*
G01*
X134627684Y-127708445D02*
G75*
G02*
X130350000Y-126680000I-1827684J1808445D01*
G01*
%TO.C,J11*%
X160790000Y-99962500D02*
X167100000Y-99962500D01*
X163100000Y-100572500D02*
X163100000Y-106072500D01*
X163100000Y-106072500D02*
X163600000Y-106072500D01*
X163600000Y-100572500D02*
X163100000Y-100572500D01*
X163600000Y-106072500D02*
X163600000Y-100572500D01*
X165600000Y-100572500D02*
X165600000Y-106072500D01*
X165600000Y-106072500D02*
X166100000Y-106072500D01*
X166100000Y-100572500D02*
X165600000Y-100572500D01*
X166100000Y-106072500D02*
X166100000Y-100572500D01*
X168100000Y-100572500D02*
X168100000Y-106072500D01*
X168100000Y-106072500D02*
X168600000Y-106072500D01*
X168600000Y-100572500D02*
X168100000Y-100572500D01*
X168600000Y-106072500D02*
X168600000Y-100572500D01*
X170600000Y-100572500D02*
X170600000Y-106072500D01*
X170600000Y-106072500D02*
X171100000Y-106072500D01*
X171100000Y-100572500D02*
X170600000Y-100572500D01*
X171100000Y-106072500D02*
X171100000Y-100572500D01*
X173410000Y-99962500D02*
X167100000Y-99962500D01*
%TO.C,J4*%
X119400000Y-110595000D02*
X119700000Y-109995000D01*
X119700000Y-109995000D02*
X120000000Y-110595000D01*
X120000000Y-110595000D02*
X119400000Y-110595000D01*
X129150000Y-103195000D02*
X117250000Y-103195000D01*
D14*
X117250000Y-109195000D02*
X129150000Y-109195000D01*
X129150000Y-99995000D01*
X117250000Y-99995000D01*
X117250000Y-109195000D01*
D13*
%TO.C,J6*%
X103200000Y-111900000D02*
X103200000Y-123800000D01*
X110000000Y-121350000D02*
X110600000Y-121050000D01*
X110600000Y-121050000D02*
X110600000Y-121650000D01*
X110600000Y-121650000D02*
X110000000Y-121350000D01*
D14*
X109200000Y-123800000D02*
X100000000Y-123800000D01*
X100000000Y-111900000D01*
X109200000Y-111900000D01*
X109200000Y-123800000D01*
D13*
%TO.C,J18*%
X155770000Y-114230000D02*
X157100000Y-114230000D01*
X155770000Y-115560000D02*
X155770000Y-114230000D01*
X155770000Y-116830000D02*
X158430000Y-116830000D01*
X155770000Y-124510000D02*
X155770000Y-116830000D01*
X155770000Y-124510000D02*
X158430000Y-124510000D01*
X158430000Y-124510000D02*
X158430000Y-116830000D01*
%TO.C,J16*%
X179395000Y-137850000D02*
X179995000Y-138150000D01*
X179395000Y-138450000D02*
X179395000Y-137850000D01*
X179995000Y-138150000D02*
X179395000Y-138450000D01*
X186795000Y-147600000D02*
X186795000Y-135700000D01*
D14*
X180795000Y-135700000D02*
X189995000Y-135700000D01*
X189995000Y-147600000D01*
X180795000Y-147600000D01*
X180795000Y-135700000D01*
D13*
%TO.C,Q3*%
X114740000Y-109950000D02*
X114740000Y-120170000D01*
X114740000Y-120170000D02*
X119360000Y-120170000D01*
X117980000Y-120170000D02*
X117980000Y-109950000D01*
X119360000Y-109950000D02*
X114740000Y-109950000D01*
X119360000Y-113210000D02*
X117980000Y-113210000D01*
X119360000Y-116910000D02*
X117980000Y-116910000D01*
X119360000Y-120170000D02*
X119360000Y-109950000D01*
D14*
%TO.C,J8*%
X109995000Y-136000000D02*
X109995000Y-148800000D01*
X109995000Y-148800000D02*
X127995000Y-148800000D01*
D13*
X110095000Y-134500000D02*
X110695000Y-134800000D01*
X110095000Y-135100000D02*
X110095000Y-134500000D01*
X110695000Y-134800000D02*
X110095000Y-135100000D01*
X112395000Y-131410000D02*
X112395000Y-132690000D01*
X112995000Y-131410000D02*
X112995000Y-132690000D01*
X116595000Y-131410000D02*
X116595000Y-132690000D01*
X117195000Y-131410000D02*
X117195000Y-132690000D01*
X120795000Y-131410000D02*
X120795000Y-132690000D01*
X121395000Y-131410000D02*
X121395000Y-132690000D01*
X124995000Y-131410000D02*
X124995000Y-132690000D01*
X125595000Y-131410000D02*
X125595000Y-132690000D01*
D14*
X127995000Y-148800000D02*
X127995000Y-136000000D01*
%TD*%
%LPC*%
D15*
%TO.C,H4*%
X113000000Y-124000000D03*
%TD*%
%TO.C,H2*%
X177000000Y-103500000D03*
%TD*%
D16*
%TO.C,J9*%
X156800000Y-110200000D03*
X156800000Y-112740000D03*
%TD*%
D17*
%TO.C,U2*%
X143995000Y-115190000D03*
%TD*%
D15*
%TO.C,H1*%
X113000000Y-103500000D03*
%TD*%
%TO.C,H3*%
X177000000Y-124000000D03*
%TD*%
D18*
%TO.C,SW1*%
X123100000Y-102842500D03*
X120100000Y-102842500D03*
%TD*%
D19*
%TO.C,J3*%
X163970000Y-113565000D03*
D20*
X163970000Y-114835000D03*
X162700000Y-113565000D03*
X162700000Y-114835000D03*
X161430000Y-113565000D03*
X161430000Y-114835000D03*
%TD*%
D21*
%TO.C,J7*%
X107995000Y-109450000D03*
D22*
X107995000Y-105950000D03*
X107995000Y-102450000D03*
%TD*%
D23*
%TO.C,J14*%
X181995000Y-114350000D03*
D22*
X181995000Y-117850000D03*
X181995000Y-121350000D03*
%TD*%
D24*
%TO.C,U6*%
X133140000Y-120110000D03*
D25*
X130600000Y-120110000D03*
X128060000Y-120110000D03*
X128060000Y-112090000D03*
X130600000Y-112090000D03*
X133140000Y-112090000D03*
%TD*%
D23*
%TO.C,J15*%
X181995000Y-126250000D03*
D22*
X181995000Y-129750000D03*
X181995000Y-133250000D03*
%TD*%
D21*
%TO.C,J1*%
X107995000Y-145200000D03*
D22*
X107995000Y-141700000D03*
X107995000Y-138200000D03*
%TD*%
D26*
%TO.C,J12*%
X131095000Y-142200000D03*
X177295000Y-142200000D03*
D27*
X131095000Y-134900000D03*
D28*
X135295000Y-134900000D03*
X139495000Y-134900000D03*
X143695000Y-134900000D03*
X147895000Y-134900000D03*
X152095000Y-134900000D03*
X156295000Y-134900000D03*
X160495000Y-134900000D03*
X164695000Y-134900000D03*
X168895000Y-134900000D03*
X173095000Y-134900000D03*
X177295000Y-134900000D03*
X131095000Y-129400000D03*
X135295000Y-129400000D03*
X139495000Y-129400000D03*
X143695000Y-129400000D03*
X147895000Y-129400000D03*
X152095000Y-129400000D03*
X156295000Y-129400000D03*
X160495000Y-129400000D03*
X164695000Y-129400000D03*
X168895000Y-129400000D03*
X173095000Y-129400000D03*
X177295000Y-129400000D03*
%TD*%
D29*
%TO.C,Q4*%
X121000000Y-117600000D03*
D30*
X121000000Y-115060000D03*
X121000000Y-112520000D03*
%TD*%
D21*
%TO.C,J2*%
X107995000Y-133250000D03*
D22*
X107995000Y-129750000D03*
X107995000Y-126250000D03*
%TD*%
D31*
%TO.C,U10*%
X111300000Y-107960000D03*
D32*
X111300000Y-110500000D03*
X111300000Y-113040000D03*
%TD*%
D23*
%TO.C,J13*%
X181995000Y-102450000D03*
D22*
X181995000Y-105950000D03*
X181995000Y-109450000D03*
%TD*%
D33*
%TO.C,J17*%
X169100000Y-110600000D03*
D34*
X166560000Y-110600000D03*
X164020000Y-110600000D03*
X161480000Y-110600000D03*
X158940000Y-110600000D03*
%TD*%
D35*
%TO.C,J5*%
X169242500Y-121967500D03*
D36*
X169242500Y-125467500D03*
%TD*%
D37*
%TO.C,U9*%
X133200000Y-124630000D03*
D38*
X131130000Y-125900000D03*
X133200000Y-127170000D03*
%TD*%
D25*
%TO.C,J11*%
X163350000Y-107672500D03*
X165850000Y-107672500D03*
X168350000Y-107672500D03*
X170850000Y-107672500D03*
%TD*%
D39*
%TO.C,J4*%
X119700000Y-107995000D03*
D40*
X123200000Y-107995000D03*
X126700000Y-107995000D03*
%TD*%
D21*
%TO.C,J6*%
X108000000Y-121350000D03*
D22*
X108000000Y-117850000D03*
X108000000Y-114350000D03*
%TD*%
D41*
%TO.C,J18*%
X157100000Y-115560000D03*
D34*
X157100000Y-118100000D03*
X157100000Y-120640000D03*
X157100000Y-123180000D03*
%TD*%
D23*
%TO.C,J16*%
X181995000Y-138150000D03*
D22*
X181995000Y-141650000D03*
X181995000Y-145150000D03*
%TD*%
D29*
%TO.C,Q3*%
X116100000Y-117600000D03*
D30*
X116100000Y-115060000D03*
X116100000Y-112520000D03*
%TD*%
D26*
%TO.C,J8*%
X112695000Y-142100000D03*
X125295000Y-142100000D03*
D27*
X112695000Y-134800000D03*
D28*
X116895000Y-134800000D03*
X121095000Y-134800000D03*
X125295000Y-134800000D03*
X112695000Y-129300000D03*
X116895000Y-129300000D03*
X121095000Y-129300000D03*
X125295000Y-129300000D03*
%TD*%
%LPD*%
M02*
