%TF.GenerationSoftware,KiCad,Pcbnew,9.0.4*%
%TF.CreationDate,2026-01-11T12:06:53+01:00*%
%TF.ProjectId,esp32_octal_wled,65737033-325f-46f6-9374-616c5f776c65,rev?*%
%TF.SameCoordinates,Original*%
%TF.FileFunction,Soldermask,Top*%
%TF.FilePolarity,Negative*%
%FSLAX46Y46*%
G04 Gerber Fmt 4.6, Leading zero omitted, Abs format (unit mm)*
G04 Created by KiCad (PCBNEW 9.0.4) date 2026-01-11 12:06:53*
%MOMM*%
%LPD*%
G01*
G04 APERTURE LIST*
G04 Aperture macros list*
%AMRoundRect*
0 Rectangle with rounded corners*
0 $1 Rounding radius*
0 $2 $3 $4 $5 $6 $7 $8 $9 X,Y pos of 4 corners*
0 Add a 4 corners polygon primitive as box body*
4,1,4,$2,$3,$4,$5,$6,$7,$8,$9,$2,$3,0*
0 Add four circle primitives for the rounded corners*
1,1,$1+$1,$2,$3*
1,1,$1+$1,$4,$5*
1,1,$1+$1,$6,$7*
1,1,$1+$1,$8,$9*
0 Add four rect primitives between the rounded corners*
20,1,$1+$1,$2,$3,$4,$5,0*
20,1,$1+$1,$4,$5,$6,$7,0*
20,1,$1+$1,$6,$7,$8,$9,0*
20,1,$1+$1,$8,$9,$2,$3,0*%
%AMRotRect*
0 Rectangle, with rotation*
0 The origin of the aperture is its center*
0 $1 length*
0 $2 width*
0 $3 Rotation angle, in degrees counterclockwise*
0 Add horizontal line*
21,1,$1,$2,0,0,$3*%
G04 Aperture macros list end*
%ADD10RoundRect,0.250001X-2.474999X0.799999X-2.474999X-0.799999X2.474999X-0.799999X2.474999X0.799999X0*%
%ADD11RoundRect,0.250001X2.474999X-0.799999X2.474999X0.799999X-2.474999X0.799999X-2.474999X-0.799999X0*%
%ADD12R,2.000000X1.000000*%
%ADD13R,1.500000X1.000000*%
%ADD14RoundRect,0.250000X-0.450000X0.350000X-0.450000X-0.350000X0.450000X-0.350000X0.450000X0.350000X0*%
%ADD15RoundRect,0.150000X-0.150000X0.950000X-0.150000X-0.950000X0.150000X-0.950000X0.150000X0.950000X0*%
%ADD16RoundRect,0.250000X0.475000X-0.337500X0.475000X0.337500X-0.475000X0.337500X-0.475000X-0.337500X0*%
%ADD17RoundRect,0.250000X0.350000X0.450000X-0.350000X0.450000X-0.350000X-0.450000X0.350000X-0.450000X0*%
%ADD18RoundRect,0.250000X-0.337500X-0.475000X0.337500X-0.475000X0.337500X0.475000X-0.337500X0.475000X0*%
%ADD19C,1.400000*%
%ADD20RoundRect,0.200000X0.200000X-0.750000X0.200000X0.750000X-0.200000X0.750000X-0.200000X-0.750000X0*%
%ADD21RoundRect,0.250000X0.450000X-0.350000X0.450000X0.350000X-0.450000X0.350000X-0.450000X-0.350000X0*%
%ADD22RoundRect,0.225000X-1.275000X-0.225000X1.275000X-0.225000X1.275000X0.225000X-1.275000X0.225000X0*%
%ADD23RoundRect,0.225000X0.225000X-1.275000X0.225000X1.275000X-0.225000X1.275000X-0.225000X-1.275000X0*%
%ADD24RoundRect,0.225000X1.275000X0.225000X-1.275000X0.225000X-1.275000X-0.225000X1.275000X-0.225000X0*%
%ADD25R,5.000000X5.000000*%
%ADD26RoundRect,0.250000X-0.350000X-0.450000X0.350000X-0.450000X0.350000X0.450000X-0.350000X0.450000X0*%
%ADD27RoundRect,0.200000X0.750000X0.200000X-0.750000X0.200000X-0.750000X-0.200000X0.750000X-0.200000X0*%
%ADD28RoundRect,0.250000X0.337500X0.475000X-0.337500X0.475000X-0.337500X-0.475000X0.337500X-0.475000X0*%
%ADD29R,0.700000X2.000000*%
%ADD30R,2.000000X0.800000*%
%ADD31RoundRect,0.250000X0.400000X0.625000X-0.400000X0.625000X-0.400000X-0.625000X0.400000X-0.625000X0*%
%ADD32RoundRect,0.250000X-0.475000X0.337500X-0.475000X-0.337500X0.475000X-0.337500X0.475000X0.337500X0*%
%ADD33RoundRect,0.375000X0.625000X0.375000X-0.625000X0.375000X-0.625000X-0.375000X0.625000X-0.375000X0*%
%ADD34RoundRect,0.500000X0.500000X1.400000X-0.500000X1.400000X-0.500000X-1.400000X0.500000X-1.400000X0*%
%ADD35RotRect,2.000000X1.000000X135.000000*%
%ADD36RoundRect,0.150000X-0.950000X-0.150000X0.950000X-0.150000X0.950000X0.150000X-0.950000X0.150000X0*%
%ADD37R,1.000000X1.000000*%
%ADD38O,1.000000X1.000000*%
%ADD39RoundRect,0.150000X0.950000X0.150000X-0.950000X0.150000X-0.950000X-0.150000X0.950000X-0.150000X0*%
%ADD40RoundRect,0.250000X-0.325000X-0.450000X0.325000X-0.450000X0.325000X0.450000X-0.325000X0.450000X0*%
%ADD41RoundRect,0.250000X1.550000X-0.650000X1.550000X0.650000X-1.550000X0.650000X-1.550000X-0.650000X0*%
%ADD42O,3.600000X1.800000*%
%ADD43RoundRect,0.250000X-1.550000X0.650000X-1.550000X-0.650000X1.550000X-0.650000X1.550000X0.650000X0*%
%ADD44RoundRect,0.400000X0.400000X-0.600000X0.400000X0.600000X-0.400000X0.600000X-0.400000X-0.600000X0*%
%ADD45O,1.600000X2.000000*%
%ADD46RoundRect,0.250001X-1.099999X-1.599999X1.099999X-1.599999X1.099999X1.599999X-1.099999X1.599999X0*%
%ADD47O,2.700000X3.700000*%
%ADD48R,2.000000X1.905000*%
%ADD49O,2.000000X1.905000*%
%ADD50RoundRect,0.450000X-0.450000X0.450000X-0.450000X-0.450000X0.450000X-0.450000X0.450000X0.450000X0*%
%ADD51C,1.800000*%
%ADD52RoundRect,0.250000X0.600000X-0.600000X0.600000X0.600000X-0.600000X0.600000X-0.600000X-0.600000X0*%
%ADD53O,1.700000X1.700000*%
%ADD54RoundRect,0.250000X-1.000000X0.650000X-1.000000X-0.650000X1.000000X-0.650000X1.000000X0.650000X0*%
%ADD55O,2.500000X1.800000*%
%ADD56R,1.800000X1.100000*%
%ADD57RoundRect,0.275000X-0.625000X0.275000X-0.625000X-0.275000X0.625000X-0.275000X0.625000X0.275000X0*%
%ADD58RoundRect,0.250000X-0.650000X-1.550000X0.650000X-1.550000X0.650000X1.550000X-0.650000X1.550000X0*%
%ADD59O,1.800000X3.600000*%
%ADD60C,1.700000*%
G04 APERTURE END LIST*
%TO.C,JP1*%
G36*
X111350000Y-137150000D02*
G01*
X109850000Y-137150000D01*
X109850000Y-137450000D01*
X111350000Y-137450000D01*
X111350000Y-137150000D01*
G37*
%TD*%
D10*
%TO.C,F2*%
X103100000Y-130225000D03*
X103100000Y-137175000D03*
%TD*%
D11*
%TO.C,F1*%
X103100000Y-147275000D03*
X103100000Y-140325000D03*
%TD*%
D12*
%TO.C,SW2*%
X172300000Y-104600000D03*
X165700000Y-104600000D03*
X172300000Y-100800000D03*
X165700000Y-100800000D03*
%TD*%
D13*
%TO.C,JP1*%
X110600000Y-136650000D03*
X110600000Y-137950000D03*
%TD*%
D14*
%TO.C,R18*%
X118800000Y-115900000D03*
X118800000Y-117900000D03*
%TD*%
D15*
%TO.C,U3*%
X126010000Y-120025000D03*
X124740000Y-120025000D03*
X123470000Y-120025000D03*
X122200000Y-120025000D03*
X120930000Y-120025000D03*
X119660000Y-120025000D03*
X118390000Y-120025000D03*
X118390000Y-125375000D03*
X119660000Y-125375000D03*
X120930000Y-125375000D03*
X122200000Y-125375000D03*
X123470000Y-125375000D03*
X124740000Y-125375000D03*
X126010000Y-125375000D03*
%TD*%
D16*
%TO.C,C4*%
X154100000Y-139447419D03*
X154100000Y-137372419D03*
%TD*%
%TO.C,C3*%
X156100000Y-139447419D03*
X156100000Y-137372419D03*
%TD*%
D14*
%TO.C,R13*%
X117900000Y-137600000D03*
X117900000Y-139600000D03*
%TD*%
D17*
%TO.C,R8*%
X163150000Y-104250000D03*
X161150000Y-104250000D03*
%TD*%
D18*
%TO.C,C9*%
X178862500Y-147700000D03*
X180937500Y-147700000D03*
%TD*%
D19*
%TO.C,J9*%
X156800000Y-110200000D03*
X156800000Y-112740000D03*
%TD*%
D20*
%TO.C,D1*%
X127550000Y-104600000D03*
X129450000Y-104600000D03*
X128500000Y-101600000D03*
%TD*%
D21*
%TO.C,R15*%
X119800000Y-139600000D03*
X119800000Y-137600000D03*
%TD*%
D11*
%TO.C,F5*%
X186900000Y-111175000D03*
X186900000Y-104225000D03*
%TD*%
D14*
%TO.C,R16*%
X114185411Y-117542624D03*
X114185411Y-119542624D03*
%TD*%
D10*
%TO.C,F8*%
X186900000Y-137525000D03*
X186900000Y-144475000D03*
%TD*%
D16*
%TO.C,C13*%
X159300000Y-123837500D03*
X159300000Y-121762500D03*
%TD*%
D22*
%TO.C,U2*%
X135995000Y-107690000D03*
X135995000Y-108960000D03*
X135995000Y-110230000D03*
X135995000Y-111500000D03*
X135995000Y-112770000D03*
X135995000Y-114040000D03*
X135995000Y-115310000D03*
X135995000Y-116580000D03*
X135995000Y-117850000D03*
X135995000Y-119120000D03*
X135995000Y-120390000D03*
X135995000Y-121660000D03*
X135995000Y-122930000D03*
X135995000Y-124200000D03*
D23*
X139280000Y-125700000D03*
X140550000Y-125700000D03*
X141820000Y-125700000D03*
X143090000Y-125700000D03*
X144360000Y-125700000D03*
X145630000Y-125700000D03*
X146900000Y-125700000D03*
X148170000Y-125700000D03*
X149440000Y-125700000D03*
X150710000Y-125700000D03*
D24*
X153995000Y-124200000D03*
X153995000Y-122930000D03*
X153995000Y-121660000D03*
X153995000Y-120390000D03*
X153995000Y-119120000D03*
X153995000Y-117850000D03*
X153995000Y-116580000D03*
X153995000Y-115310000D03*
X153995000Y-114040000D03*
X153995000Y-112770000D03*
X153995000Y-111500000D03*
X153995000Y-110230000D03*
X153995000Y-108960000D03*
X153995000Y-107690000D03*
D25*
X143995000Y-115190000D03*
%TD*%
D26*
%TO.C,R12*%
X175100000Y-147700000D03*
X177100000Y-147700000D03*
%TD*%
D27*
%TO.C,Q1*%
X115700000Y-139550000D03*
X115700000Y-137650000D03*
X112700000Y-138600000D03*
%TD*%
D16*
%TO.C,C7*%
X131495000Y-109237500D03*
X131495000Y-107162500D03*
%TD*%
D17*
%TO.C,R2*%
X166000000Y-126500000D03*
X164000000Y-126500000D03*
%TD*%
D11*
%TO.C,F7*%
X186900000Y-134875000D03*
X186900000Y-127925000D03*
%TD*%
D21*
%TO.C,R5*%
X172600000Y-109700000D03*
X172600000Y-107700000D03*
%TD*%
D18*
%TO.C,C2*%
X166862500Y-140200000D03*
X168937500Y-140200000D03*
%TD*%
D11*
%TO.C,F6*%
X186900000Y-123075000D03*
X186900000Y-116125000D03*
%TD*%
D17*
%TO.C,R19*%
X124900000Y-117700000D03*
X122900000Y-117700000D03*
%TD*%
D28*
%TO.C,C12*%
X124937500Y-115700000D03*
X122862500Y-115700000D03*
%TD*%
D26*
%TO.C,R9*%
X139500000Y-137800000D03*
X141500000Y-137800000D03*
%TD*%
D17*
%TO.C,R10*%
X165700000Y-119000000D03*
X163700000Y-119000000D03*
%TD*%
D11*
%TO.C,F4*%
X103100000Y-116375000D03*
X103100000Y-109425000D03*
%TD*%
D17*
%TO.C,R4*%
X141500000Y-139700000D03*
X139500000Y-139700000D03*
%TD*%
D14*
%TO.C,R17*%
X112285411Y-116300000D03*
X112285411Y-118300000D03*
%TD*%
D29*
%TO.C,SW1*%
X123850000Y-104852500D03*
X120850000Y-104852500D03*
X119350000Y-104852500D03*
D30*
X125750000Y-103952500D03*
X125750000Y-101742500D03*
X117450000Y-103952500D03*
X117450000Y-101742500D03*
%TD*%
D17*
%TO.C,R3*%
X162300000Y-126500000D03*
X160300000Y-126500000D03*
%TD*%
D18*
%TO.C,C1*%
X166862500Y-137900000D03*
X168937500Y-137900000D03*
%TD*%
D31*
%TO.C,R1*%
X126150001Y-111300000D03*
X123049999Y-111300000D03*
%TD*%
D32*
%TO.C,C10*%
X128200000Y-127762500D03*
X128200000Y-129837500D03*
%TD*%
D27*
%TO.C,Q2*%
X137400000Y-139650000D03*
X137400000Y-137750000D03*
X134400000Y-138700000D03*
%TD*%
D11*
%TO.C,F3*%
X103100000Y-127575000D03*
X103100000Y-120625000D03*
%TD*%
D33*
%TO.C,U1*%
X164650000Y-142200000D03*
X164650000Y-139900000D03*
D34*
X158350000Y-139900000D03*
D33*
X164650000Y-137600000D03*
%TD*%
D35*
%TO.C,SW4*%
X172889949Y-147576955D03*
X168223045Y-142910051D03*
X175576955Y-144889949D03*
X170910051Y-140223045D03*
%TD*%
D36*
%TO.C,U7*%
X161400000Y-120895000D03*
X161400000Y-122165000D03*
X161400000Y-123435000D03*
X161400000Y-124705000D03*
X166600000Y-124705000D03*
X166600000Y-123435000D03*
X166600000Y-122165000D03*
X166600000Y-120895000D03*
%TD*%
D37*
%TO.C,J3*%
X163970000Y-113565000D03*
D38*
X163970000Y-114835000D03*
X162700000Y-113565000D03*
X162700000Y-114835000D03*
X161430000Y-113565000D03*
X161430000Y-114835000D03*
%TD*%
D26*
%TO.C,R11*%
X155700000Y-126500000D03*
X157700000Y-126500000D03*
%TD*%
D17*
%TO.C,R7*%
X161500000Y-108500000D03*
X159500000Y-108500000D03*
%TD*%
D18*
%TO.C,C8*%
X161162500Y-102050000D03*
X163237500Y-102050000D03*
%TD*%
D39*
%TO.C,U5*%
X133100000Y-118305000D03*
X133100000Y-117035000D03*
X133100000Y-115765000D03*
X133100000Y-114495000D03*
X127900000Y-114495000D03*
X127900000Y-115765000D03*
X127900000Y-117035000D03*
X127900000Y-118305000D03*
%TD*%
D15*
%TO.C,U4*%
X175810000Y-113125000D03*
X174540000Y-113125000D03*
X173270000Y-113125000D03*
X172000000Y-113125000D03*
X170730000Y-113125000D03*
X169460000Y-113125000D03*
X168190000Y-113125000D03*
X168190000Y-118475000D03*
X169460000Y-118475000D03*
X170730000Y-118475000D03*
X172000000Y-118475000D03*
X173270000Y-118475000D03*
X174540000Y-118475000D03*
X175810000Y-118475000D03*
%TD*%
D28*
%TO.C,C11*%
X173637500Y-120600000D03*
X171562500Y-120600000D03*
%TD*%
D16*
%TO.C,C6*%
X133495000Y-109237500D03*
X133495000Y-107162500D03*
%TD*%
D40*
%TO.C,D2*%
X143175000Y-137800000D03*
X145225000Y-137800000D03*
%TD*%
D17*
%TO.C,R14*%
X129700000Y-125600000D03*
X127700000Y-125600000D03*
%TD*%
D21*
%TO.C,R6*%
X174500000Y-109700000D03*
X174500000Y-107700000D03*
%TD*%
D41*
%TO.C,J7*%
X107995000Y-109450000D03*
D42*
X107995000Y-105950000D03*
X107995000Y-102450000D03*
%TD*%
D43*
%TO.C,J14*%
X181995000Y-114350000D03*
D42*
X181995000Y-117850000D03*
X181995000Y-121350000D03*
%TD*%
D44*
%TO.C,U6*%
X133140000Y-120110000D03*
D45*
X130600000Y-120110000D03*
X128060000Y-120110000D03*
X128060000Y-112090000D03*
X130600000Y-112090000D03*
X133140000Y-112090000D03*
%TD*%
D43*
%TO.C,J15*%
X181995000Y-126250000D03*
D42*
X181995000Y-129750000D03*
X181995000Y-133250000D03*
%TD*%
D41*
%TO.C,J1*%
X107995000Y-145200000D03*
D42*
X107995000Y-141700000D03*
X107995000Y-138200000D03*
%TD*%
D46*
%TO.C,J12*%
X131095000Y-134900000D03*
D47*
X135295000Y-134900000D03*
X139495000Y-134900000D03*
X143695000Y-134900000D03*
X147895000Y-134900000D03*
X152095000Y-134900000D03*
X156295000Y-134900000D03*
X160495000Y-134900000D03*
X164695000Y-134900000D03*
X168895000Y-134900000D03*
X173095000Y-134900000D03*
X177295000Y-134900000D03*
X131095000Y-129400000D03*
X135295000Y-129400000D03*
X139495000Y-129400000D03*
X143695000Y-129400000D03*
X147895000Y-129400000D03*
X152095000Y-129400000D03*
X156295000Y-129400000D03*
X160495000Y-129400000D03*
X164695000Y-129400000D03*
X168895000Y-129400000D03*
X173095000Y-129400000D03*
X177295000Y-129400000D03*
%TD*%
D48*
%TO.C,Q4*%
X121000000Y-117600000D03*
D49*
X121000000Y-115060000D03*
X121000000Y-112520000D03*
%TD*%
D41*
%TO.C,J2*%
X107995000Y-133250000D03*
D42*
X107995000Y-129750000D03*
X107995000Y-126250000D03*
%TD*%
D50*
%TO.C,U10*%
X111300000Y-107960000D03*
D51*
X111300000Y-110500000D03*
X111300000Y-113040000D03*
%TD*%
D43*
%TO.C,J13*%
X181995000Y-102450000D03*
D42*
X181995000Y-105950000D03*
X181995000Y-109450000D03*
%TD*%
D52*
%TO.C,J17*%
X169100000Y-110600000D03*
D53*
X166560000Y-110600000D03*
X164020000Y-110600000D03*
X161480000Y-110600000D03*
X158940000Y-110600000D03*
%TD*%
D54*
%TO.C,J5*%
X169242500Y-121967500D03*
D55*
X169242500Y-125467500D03*
%TD*%
D56*
%TO.C,U9*%
X133200000Y-124630000D03*
D57*
X131130000Y-125900000D03*
X133200000Y-127170000D03*
%TD*%
D45*
%TO.C,J11*%
X163350000Y-107672500D03*
X165850000Y-107672500D03*
X168350000Y-107672500D03*
X170850000Y-107672500D03*
%TD*%
D58*
%TO.C,J4*%
X119700000Y-107995000D03*
D59*
X123200000Y-107995000D03*
X126700000Y-107995000D03*
%TD*%
D41*
%TO.C,J6*%
X108000000Y-121350000D03*
D42*
X108000000Y-117850000D03*
X108000000Y-114350000D03*
%TD*%
D60*
%TO.C,J18*%
X157100000Y-115560000D03*
D53*
X157100000Y-118100000D03*
X157100000Y-120640000D03*
X157100000Y-123180000D03*
%TD*%
D43*
%TO.C,J16*%
X181995000Y-138150000D03*
D42*
X181995000Y-141650000D03*
X181995000Y-145150000D03*
%TD*%
D48*
%TO.C,Q3*%
X116100000Y-117600000D03*
D49*
X116100000Y-115060000D03*
X116100000Y-112520000D03*
%TD*%
D46*
%TO.C,J8*%
X112695000Y-134800000D03*
D47*
X116895000Y-134800000D03*
X121095000Y-134800000D03*
X125295000Y-134800000D03*
X112695000Y-129300000D03*
X116895000Y-129300000D03*
X121095000Y-129300000D03*
X125295000Y-129300000D03*
%TD*%
M02*
