%TF.GenerationSoftware,KiCad,Pcbnew,8.0.7*%
%TF.CreationDate,2025-01-14T17:57:31+01:00*%
%TF.ProjectId,esp32_octal_wled,65737033-325f-46f6-9374-616c5f776c65,rev?*%
%TF.SameCoordinates,Original*%
%TF.FileFunction,Paste,Top*%
%TF.FilePolarity,Positive*%
%FSLAX46Y46*%
G04 Gerber Fmt 4.6, Leading zero omitted, Abs format (unit mm)*
G04 Created by KiCad (PCBNEW 8.0.7) date 2025-01-14 17:57:31*
%MOMM*%
%LPD*%
G01*
G04 APERTURE LIST*
G04 Aperture macros list*
%AMRoundRect*
0 Rectangle with rounded corners*
0 $1 Rounding radius*
0 $2 $3 $4 $5 $6 $7 $8 $9 X,Y pos of 4 corners*
0 Add a 4 corners polygon primitive as box body*
4,1,4,$2,$3,$4,$5,$6,$7,$8,$9,$2,$3,0*
0 Add four circle primitives for the rounded corners*
1,1,$1+$1,$2,$3*
1,1,$1+$1,$4,$5*
1,1,$1+$1,$6,$7*
1,1,$1+$1,$8,$9*
0 Add four rect primitives between the rounded corners*
20,1,$1+$1,$2,$3,$4,$5,0*
20,1,$1+$1,$4,$5,$6,$7,0*
20,1,$1+$1,$6,$7,$8,$9,0*
20,1,$1+$1,$8,$9,$2,$3,0*%
G04 Aperture macros list end*
%ADD10RoundRect,0.250001X2.474999X-0.799999X2.474999X0.799999X-2.474999X0.799999X-2.474999X-0.799999X0*%
%ADD11RoundRect,0.250001X-2.474999X0.799999X-2.474999X-0.799999X2.474999X-0.799999X2.474999X0.799999X0*%
%ADD12R,2.000000X1.000000*%
%ADD13RoundRect,0.150000X0.950000X0.150000X-0.950000X0.150000X-0.950000X-0.150000X0.950000X-0.150000X0*%
%ADD14RoundRect,0.250000X0.337500X0.475000X-0.337500X0.475000X-0.337500X-0.475000X0.337500X-0.475000X0*%
%ADD15RoundRect,0.250000X0.350000X0.450000X-0.350000X0.450000X-0.350000X-0.450000X0.350000X-0.450000X0*%
%ADD16RoundRect,0.250000X-0.337500X-0.475000X0.337500X-0.475000X0.337500X0.475000X-0.337500X0.475000X0*%
%ADD17RoundRect,0.200000X0.200000X-0.750000X0.200000X0.750000X-0.200000X0.750000X-0.200000X-0.750000X0*%
%ADD18RoundRect,0.250001X-0.799999X-2.474999X0.799999X-2.474999X0.799999X2.474999X-0.799999X2.474999X0*%
%ADD19RoundRect,0.250000X0.475000X-0.337500X0.475000X0.337500X-0.475000X0.337500X-0.475000X-0.337500X0*%
%ADD20RoundRect,0.225000X-1.275000X-0.225000X1.275000X-0.225000X1.275000X0.225000X-1.275000X0.225000X0*%
%ADD21RoundRect,0.225000X0.225000X-1.275000X0.225000X1.275000X-0.225000X1.275000X-0.225000X-1.275000X0*%
%ADD22RoundRect,0.225000X1.275000X0.225000X-1.275000X0.225000X-1.275000X-0.225000X1.275000X-0.225000X0*%
%ADD23RoundRect,0.250000X0.450000X-0.350000X0.450000X0.350000X-0.450000X0.350000X-0.450000X-0.350000X0*%
%ADD24RoundRect,0.250000X-0.350000X-0.450000X0.350000X-0.450000X0.350000X0.450000X-0.350000X0.450000X0*%
%ADD25RoundRect,0.250000X0.412500X0.650000X-0.412500X0.650000X-0.412500X-0.650000X0.412500X-0.650000X0*%
%ADD26R,0.700000X2.000000*%
%ADD27R,2.000000X0.800000*%
%ADD28RoundRect,0.250000X-0.450000X0.350000X-0.450000X-0.350000X0.450000X-0.350000X0.450000X0.350000X0*%
%ADD29RoundRect,0.250000X0.625000X-0.400000X0.625000X0.400000X-0.625000X0.400000X-0.625000X-0.400000X0*%
%ADD30RoundRect,0.200000X-0.750000X-0.200000X0.750000X-0.200000X0.750000X0.200000X-0.750000X0.200000X0*%
%ADD31RoundRect,0.375000X0.625000X0.375000X-0.625000X0.375000X-0.625000X-0.375000X0.625000X-0.375000X0*%
%ADD32RoundRect,0.500000X0.500000X1.400000X-0.500000X1.400000X-0.500000X-1.400000X0.500000X-1.400000X0*%
%ADD33RoundRect,0.150000X-0.950000X-0.150000X0.950000X-0.150000X0.950000X0.150000X-0.950000X0.150000X0*%
%ADD34RoundRect,0.150000X0.150000X-0.950000X0.150000X0.950000X-0.150000X0.950000X-0.150000X-0.950000X0*%
%ADD35RoundRect,0.250000X-0.325000X-0.450000X0.325000X-0.450000X0.325000X0.450000X-0.325000X0.450000X0*%
G04 APERTURE END LIST*
D10*
%TO.C,F2*%
X103100000Y-140275000D03*
X103100000Y-133325000D03*
%TD*%
D11*
%TO.C,F1*%
X117500000Y-138625000D03*
X117500000Y-145575000D03*
%TD*%
D12*
%TO.C,SW2*%
X165700000Y-100800000D03*
X172300000Y-100800000D03*
X165700000Y-104600000D03*
X172300000Y-104600000D03*
%TD*%
D13*
%TO.C,U3*%
X116475000Y-115360000D03*
X116475000Y-114090000D03*
X116475000Y-112820000D03*
X116475000Y-111550000D03*
X116475000Y-110280000D03*
X116475000Y-109010000D03*
X116475000Y-107740000D03*
X111125000Y-107740000D03*
X111125000Y-109010000D03*
X111125000Y-110280000D03*
X111125000Y-111550000D03*
X111125000Y-112820000D03*
X111125000Y-114090000D03*
X111125000Y-115360000D03*
%TD*%
D14*
%TO.C,C4*%
X139487500Y-140400000D03*
X137412500Y-140400000D03*
%TD*%
%TO.C,C3*%
X139487500Y-138400000D03*
X137412500Y-138400000D03*
%TD*%
D15*
%TO.C,R8*%
X163700000Y-101000000D03*
X161700000Y-101000000D03*
%TD*%
D16*
%TO.C,C9*%
X163262500Y-140250000D03*
X165337500Y-140250000D03*
%TD*%
D17*
%TO.C,D1*%
X127550000Y-104600000D03*
X129450000Y-104600000D03*
X128500000Y-101600000D03*
%TD*%
D10*
%TO.C,F5*%
X186900000Y-111175000D03*
X186900000Y-104225000D03*
%TD*%
D18*
%TO.C,F8*%
X167525000Y-140000000D03*
X174475000Y-140000000D03*
%TD*%
D19*
%TO.C,C13*%
X160000000Y-119487500D03*
X160000000Y-117412500D03*
%TD*%
D20*
%TO.C,U2*%
X135995000Y-107690000D03*
X135995000Y-108960000D03*
X135995000Y-110230000D03*
X135995000Y-111500000D03*
X135995000Y-112770000D03*
X135995000Y-114040000D03*
X135995000Y-115310000D03*
X135995000Y-116580000D03*
X135995000Y-117850000D03*
X135995000Y-119120000D03*
X135995000Y-120390000D03*
X135995000Y-121660000D03*
X135995000Y-122930000D03*
X135995000Y-124200000D03*
D21*
X139280000Y-125700000D03*
X140550000Y-125700000D03*
X141820000Y-125700000D03*
X143090000Y-125700000D03*
X144360000Y-125700000D03*
X145630000Y-125700000D03*
X146900000Y-125700000D03*
X148170000Y-125700000D03*
X149440000Y-125700000D03*
X150710000Y-125700000D03*
D22*
X153995000Y-124200000D03*
X153995000Y-122930000D03*
X153995000Y-121660000D03*
X153995000Y-120390000D03*
X153995000Y-119120000D03*
X153995000Y-117850000D03*
X153995000Y-116580000D03*
X153995000Y-115310000D03*
X153995000Y-114040000D03*
X153995000Y-112770000D03*
X153995000Y-111500000D03*
X153995000Y-110230000D03*
X153995000Y-108960000D03*
X153995000Y-107690000D03*
%TD*%
D23*
%TO.C,R12*%
X163350000Y-147800000D03*
X163350000Y-145800000D03*
%TD*%
D19*
%TO.C,C7*%
X131495000Y-109237500D03*
X131495000Y-107162500D03*
%TD*%
D23*
%TO.C,R2*%
X161950000Y-119450000D03*
X161950000Y-117450000D03*
%TD*%
D10*
%TO.C,F7*%
X186900000Y-134875000D03*
X186900000Y-127925000D03*
%TD*%
D24*
%TO.C,R5*%
X166000000Y-109850000D03*
X168000000Y-109850000D03*
%TD*%
D16*
%TO.C,C2*%
X163262500Y-138250000D03*
X165337500Y-138250000D03*
%TD*%
D25*
%TO.C,C5*%
X140462500Y-142550000D03*
X137337500Y-142550000D03*
%TD*%
D10*
%TO.C,F6*%
X186900000Y-123075000D03*
X186900000Y-116125000D03*
%TD*%
D14*
%TO.C,C12*%
X126237500Y-111100000D03*
X124162500Y-111100000D03*
%TD*%
D24*
%TO.C,R9*%
X145800000Y-137850000D03*
X147800000Y-137850000D03*
%TD*%
D23*
%TO.C,R10*%
X166350000Y-119450000D03*
X166350000Y-117450000D03*
%TD*%
D10*
%TO.C,F4*%
X103100000Y-116375000D03*
X103100000Y-109425000D03*
%TD*%
D15*
%TO.C,R4*%
X133100000Y-123500000D03*
X131100000Y-123500000D03*
%TD*%
D26*
%TO.C,SW1*%
X123850000Y-104852500D03*
X120850000Y-104852500D03*
X119350000Y-104852500D03*
D27*
X125750000Y-103952500D03*
X125750000Y-101742500D03*
X117450000Y-103952500D03*
X117450000Y-101742500D03*
%TD*%
D28*
%TO.C,R3*%
X164100000Y-117450000D03*
X164100000Y-119450000D03*
%TD*%
D25*
%TO.C,C1*%
X160362500Y-137950000D03*
X157237500Y-137950000D03*
%TD*%
D29*
%TO.C,R1*%
X104550000Y-104200000D03*
X104550000Y-101100000D03*
%TD*%
D16*
%TO.C,C10*%
X111962500Y-117150000D03*
X114037500Y-117150000D03*
%TD*%
D30*
%TO.C,Q2*%
X126000000Y-122500000D03*
X126000000Y-124400000D03*
X129000000Y-123450000D03*
%TD*%
D10*
%TO.C,F3*%
X103100000Y-128275000D03*
X103100000Y-121325000D03*
%TD*%
D31*
%TO.C,U1*%
X161150000Y-145200000D03*
X161150000Y-142900000D03*
D32*
X154850000Y-142900000D03*
D31*
X161150000Y-140600000D03*
%TD*%
D12*
%TO.C,SW4*%
X172300000Y-148000000D03*
X165700000Y-148000000D03*
X172300000Y-144200000D03*
X165700000Y-144200000D03*
%TD*%
D33*
%TO.C,U7*%
X159250000Y-121295000D03*
X159250000Y-122565000D03*
X159250000Y-123835000D03*
X159250000Y-125105000D03*
X164450000Y-125105000D03*
X164450000Y-123835000D03*
X164450000Y-122565000D03*
X164450000Y-121295000D03*
%TD*%
D23*
%TO.C,R11*%
X163350000Y-144100000D03*
X163350000Y-142100000D03*
%TD*%
D15*
%TO.C,R7*%
X133500000Y-111100000D03*
X131500000Y-111100000D03*
%TD*%
D16*
%TO.C,C8*%
X161662500Y-103000000D03*
X163737500Y-103000000D03*
%TD*%
D34*
%TO.C,U5*%
X126130000Y-118700000D03*
X127400000Y-118700000D03*
X128670000Y-118700000D03*
X129940000Y-118700000D03*
X129940000Y-113500000D03*
X128670000Y-113500000D03*
X127400000Y-113500000D03*
X126130000Y-113500000D03*
%TD*%
D13*
%TO.C,U4*%
X176675000Y-118710000D03*
X176675000Y-117440000D03*
X176675000Y-116170000D03*
X176675000Y-114900000D03*
X176675000Y-113630000D03*
X176675000Y-112360000D03*
X176675000Y-111090000D03*
X171325000Y-111090000D03*
X171325000Y-112360000D03*
X171325000Y-113630000D03*
X171325000Y-114900000D03*
X171325000Y-116170000D03*
X171325000Y-117440000D03*
X171325000Y-118710000D03*
%TD*%
D19*
%TO.C,C11*%
X169150000Y-119537500D03*
X169150000Y-117462500D03*
%TD*%
%TO.C,C6*%
X133495000Y-109237500D03*
X133495000Y-107162500D03*
%TD*%
D35*
%TO.C,D2*%
X149475000Y-137850000D03*
X151525000Y-137850000D03*
%TD*%
D23*
%TO.C,R14*%
X123800000Y-124700000D03*
X123800000Y-122700000D03*
%TD*%
D15*
%TO.C,R6*%
X168750000Y-112550000D03*
X166750000Y-112550000D03*
%TD*%
M02*
