%TF.GenerationSoftware,KiCad,Pcbnew,8.0.4*%
%TF.CreationDate,2024-11-13T17:28:34+01:00*%
%TF.ProjectId,esp32_octal_wled,65737033-325f-46f6-9374-616c5f776c65,rev?*%
%TF.SameCoordinates,Original*%
%TF.FileFunction,Legend,Top*%
%TF.FilePolarity,Positive*%
%FSLAX46Y46*%
G04 Gerber Fmt 4.6, Leading zero omitted, Abs format (unit mm)*
G04 Created by KiCad (PCBNEW 8.0.4) date 2024-11-13 17:28:34*
%MOMM*%
%LPD*%
G01*
G04 APERTURE LIST*
G04 Aperture macros list*
%AMRoundRect*
0 Rectangle with rounded corners*
0 $1 Rounding radius*
0 $2 $3 $4 $5 $6 $7 $8 $9 X,Y pos of 4 corners*
0 Add a 4 corners polygon primitive as box body*
4,1,4,$2,$3,$4,$5,$6,$7,$8,$9,$2,$3,0*
0 Add four circle primitives for the rounded corners*
1,1,$1+$1,$2,$3*
1,1,$1+$1,$4,$5*
1,1,$1+$1,$6,$7*
1,1,$1+$1,$8,$9*
0 Add four rect primitives between the rounded corners*
20,1,$1+$1,$2,$3,$4,$5,0*
20,1,$1+$1,$4,$5,$6,$7,0*
20,1,$1+$1,$6,$7,$8,$9,0*
20,1,$1+$1,$8,$9,$2,$3,0*%
G04 Aperture macros list end*
%ADD10C,0.300000*%
%ADD11C,0.150000*%
%ADD12C,0.120000*%
%ADD13C,2.000000*%
%ADD14RoundRect,0.250000X0.650000X1.550000X-0.650000X1.550000X-0.650000X-1.550000X0.650000X-1.550000X0*%
%ADD15O,1.800000X3.600000*%
%ADD16RoundRect,0.150000X-0.150000X0.950000X-0.150000X-0.950000X0.150000X-0.950000X0.150000X0.950000X0*%
%ADD17RoundRect,0.250000X-0.337500X-0.475000X0.337500X-0.475000X0.337500X0.475000X-0.337500X0.475000X0*%
%ADD18C,3.200000*%
%ADD19RoundRect,0.250000X0.350000X0.450000X-0.350000X0.450000X-0.350000X-0.450000X0.350000X-0.450000X0*%
%ADD20C,3.000000*%
%ADD21RoundRect,0.250001X1.099999X1.599999X-1.099999X1.599999X-1.099999X-1.599999X1.099999X-1.599999X0*%
%ADD22O,2.700000X3.700000*%
%ADD23RoundRect,0.200000X-0.750000X-0.200000X0.750000X-0.200000X0.750000X0.200000X-0.750000X0.200000X0*%
%ADD24RoundRect,0.225000X0.225000X-1.275000X0.225000X1.275000X-0.225000X1.275000X-0.225000X-1.275000X0*%
%ADD25RoundRect,0.225000X1.275000X0.225000X-1.275000X0.225000X-1.275000X-0.225000X1.275000X-0.225000X0*%
%ADD26RoundRect,0.225000X-0.225000X1.275000X-0.225000X-1.275000X0.225000X-1.275000X0.225000X1.275000X0*%
%ADD27R,5.000000X5.000000*%
%ADD28RoundRect,0.250000X0.337500X0.475000X-0.337500X0.475000X-0.337500X-0.475000X0.337500X-0.475000X0*%
%ADD29RoundRect,0.250000X0.450000X-0.350000X0.450000X0.350000X-0.450000X0.350000X-0.450000X-0.350000X0*%
%ADD30RoundRect,0.250000X-0.412500X-0.650000X0.412500X-0.650000X0.412500X0.650000X-0.412500X0.650000X0*%
%ADD31C,1.600000*%
%ADD32RoundRect,0.250000X-0.350000X-0.450000X0.350000X-0.450000X0.350000X0.450000X-0.350000X0.450000X0*%
%ADD33O,1.400000X1.800000*%
%ADD34RoundRect,0.250000X0.412500X0.650000X-0.412500X0.650000X-0.412500X-0.650000X0.412500X-0.650000X0*%
%ADD35RoundRect,0.250000X0.625000X-0.400000X0.625000X0.400000X-0.625000X0.400000X-0.625000X-0.400000X0*%
%ADD36RoundRect,0.250000X0.475000X-0.337500X0.475000X0.337500X-0.475000X0.337500X-0.475000X-0.337500X0*%
%ADD37RoundRect,0.200000X0.750000X0.200000X-0.750000X0.200000X-0.750000X-0.200000X0.750000X-0.200000X0*%
%ADD38RoundRect,0.375000X-0.625000X-0.375000X0.625000X-0.375000X0.625000X0.375000X-0.625000X0.375000X0*%
%ADD39RoundRect,0.500000X-0.500000X-1.400000X0.500000X-1.400000X0.500000X1.400000X-0.500000X1.400000X0*%
%ADD40R,1.000000X1.000000*%
%ADD41O,1.000000X1.000000*%
%ADD42R,1.700000X1.700000*%
%ADD43O,1.700000X1.700000*%
%ADD44RoundRect,0.250000X-0.450000X0.350000X-0.450000X-0.350000X0.450000X-0.350000X0.450000X0.350000X0*%
%ADD45RoundRect,0.250000X1.550000X-0.650000X1.550000X0.650000X-1.550000X0.650000X-1.550000X-0.650000X0*%
%ADD46O,3.600000X1.800000*%
%ADD47RoundRect,0.250000X0.600000X0.725000X-0.600000X0.725000X-0.600000X-0.725000X0.600000X-0.725000X0*%
%ADD48O,1.700000X1.950000*%
%ADD49RoundRect,0.150000X-0.950000X-0.150000X0.950000X-0.150000X0.950000X0.150000X-0.950000X0.150000X0*%
%ADD50RoundRect,0.250000X0.450000X-0.325000X0.450000X0.325000X-0.450000X0.325000X-0.450000X-0.325000X0*%
G04 APERTURE END LIST*
D10*
X105457143Y-56606900D02*
X105671429Y-56678328D01*
X105671429Y-56678328D02*
X106028571Y-56678328D01*
X106028571Y-56678328D02*
X106171429Y-56606900D01*
X106171429Y-56606900D02*
X106242857Y-56535471D01*
X106242857Y-56535471D02*
X106314286Y-56392614D01*
X106314286Y-56392614D02*
X106314286Y-56249757D01*
X106314286Y-56249757D02*
X106242857Y-56106900D01*
X106242857Y-56106900D02*
X106171429Y-56035471D01*
X106171429Y-56035471D02*
X106028571Y-55964042D01*
X106028571Y-55964042D02*
X105742857Y-55892614D01*
X105742857Y-55892614D02*
X105600000Y-55821185D01*
X105600000Y-55821185D02*
X105528571Y-55749757D01*
X105528571Y-55749757D02*
X105457143Y-55606900D01*
X105457143Y-55606900D02*
X105457143Y-55464042D01*
X105457143Y-55464042D02*
X105528571Y-55321185D01*
X105528571Y-55321185D02*
X105600000Y-55249757D01*
X105600000Y-55249757D02*
X105742857Y-55178328D01*
X105742857Y-55178328D02*
X106100000Y-55178328D01*
X106100000Y-55178328D02*
X106314286Y-55249757D01*
X107671428Y-55178328D02*
X106957142Y-55178328D01*
X106957142Y-55178328D02*
X106885714Y-55892614D01*
X106885714Y-55892614D02*
X106957142Y-55821185D01*
X106957142Y-55821185D02*
X107100000Y-55749757D01*
X107100000Y-55749757D02*
X107457142Y-55749757D01*
X107457142Y-55749757D02*
X107600000Y-55821185D01*
X107600000Y-55821185D02*
X107671428Y-55892614D01*
X107671428Y-55892614D02*
X107742857Y-56035471D01*
X107742857Y-56035471D02*
X107742857Y-56392614D01*
X107742857Y-56392614D02*
X107671428Y-56535471D01*
X107671428Y-56535471D02*
X107600000Y-56606900D01*
X107600000Y-56606900D02*
X107457142Y-56678328D01*
X107457142Y-56678328D02*
X107100000Y-56678328D01*
X107100000Y-56678328D02*
X106957142Y-56606900D01*
X106957142Y-56606900D02*
X106885714Y-56535471D01*
X60635714Y-86678328D02*
X61564286Y-86678328D01*
X61564286Y-86678328D02*
X61064286Y-87249757D01*
X61064286Y-87249757D02*
X61278571Y-87249757D01*
X61278571Y-87249757D02*
X61421429Y-87321185D01*
X61421429Y-87321185D02*
X61492857Y-87392614D01*
X61492857Y-87392614D02*
X61564286Y-87535471D01*
X61564286Y-87535471D02*
X61564286Y-87892614D01*
X61564286Y-87892614D02*
X61492857Y-88035471D01*
X61492857Y-88035471D02*
X61421429Y-88106900D01*
X61421429Y-88106900D02*
X61278571Y-88178328D01*
X61278571Y-88178328D02*
X60850000Y-88178328D01*
X60850000Y-88178328D02*
X60707143Y-88106900D01*
X60707143Y-88106900D02*
X60635714Y-88035471D01*
X64135714Y-86749757D02*
X63992857Y-86678328D01*
X63992857Y-86678328D02*
X63778571Y-86678328D01*
X63778571Y-86678328D02*
X63564285Y-86749757D01*
X63564285Y-86749757D02*
X63421428Y-86892614D01*
X63421428Y-86892614D02*
X63349999Y-87035471D01*
X63349999Y-87035471D02*
X63278571Y-87321185D01*
X63278571Y-87321185D02*
X63278571Y-87535471D01*
X63278571Y-87535471D02*
X63349999Y-87821185D01*
X63349999Y-87821185D02*
X63421428Y-87964042D01*
X63421428Y-87964042D02*
X63564285Y-88106900D01*
X63564285Y-88106900D02*
X63778571Y-88178328D01*
X63778571Y-88178328D02*
X63921428Y-88178328D01*
X63921428Y-88178328D02*
X64135714Y-88106900D01*
X64135714Y-88106900D02*
X64207142Y-88035471D01*
X64207142Y-88035471D02*
X64207142Y-87535471D01*
X64207142Y-87535471D02*
X63921428Y-87535471D01*
X66849999Y-88035471D02*
X66778571Y-88106900D01*
X66778571Y-88106900D02*
X66564285Y-88178328D01*
X66564285Y-88178328D02*
X66421428Y-88178328D01*
X66421428Y-88178328D02*
X66207142Y-88106900D01*
X66207142Y-88106900D02*
X66064285Y-87964042D01*
X66064285Y-87964042D02*
X65992856Y-87821185D01*
X65992856Y-87821185D02*
X65921428Y-87535471D01*
X65921428Y-87535471D02*
X65921428Y-87321185D01*
X65921428Y-87321185D02*
X65992856Y-87035471D01*
X65992856Y-87035471D02*
X66064285Y-86892614D01*
X66064285Y-86892614D02*
X66207142Y-86749757D01*
X66207142Y-86749757D02*
X66421428Y-86678328D01*
X66421428Y-86678328D02*
X66564285Y-86678328D01*
X66564285Y-86678328D02*
X66778571Y-86749757D01*
X66778571Y-86749757D02*
X66849999Y-86821185D01*
X68635713Y-88178328D02*
X68635713Y-86678328D01*
X68635713Y-86678328D02*
X68992856Y-86678328D01*
X68992856Y-86678328D02*
X69207142Y-86749757D01*
X69207142Y-86749757D02*
X69349999Y-86892614D01*
X69349999Y-86892614D02*
X69421428Y-87035471D01*
X69421428Y-87035471D02*
X69492856Y-87321185D01*
X69492856Y-87321185D02*
X69492856Y-87535471D01*
X69492856Y-87535471D02*
X69421428Y-87821185D01*
X69421428Y-87821185D02*
X69349999Y-87964042D01*
X69349999Y-87964042D02*
X69207142Y-88106900D01*
X69207142Y-88106900D02*
X68992856Y-88178328D01*
X68992856Y-88178328D02*
X68635713Y-88178328D01*
X92157143Y-56606900D02*
X92371429Y-56678328D01*
X92371429Y-56678328D02*
X92728571Y-56678328D01*
X92728571Y-56678328D02*
X92871429Y-56606900D01*
X92871429Y-56606900D02*
X92942857Y-56535471D01*
X92942857Y-56535471D02*
X93014286Y-56392614D01*
X93014286Y-56392614D02*
X93014286Y-56249757D01*
X93014286Y-56249757D02*
X92942857Y-56106900D01*
X92942857Y-56106900D02*
X92871429Y-56035471D01*
X92871429Y-56035471D02*
X92728571Y-55964042D01*
X92728571Y-55964042D02*
X92442857Y-55892614D01*
X92442857Y-55892614D02*
X92300000Y-55821185D01*
X92300000Y-55821185D02*
X92228571Y-55749757D01*
X92228571Y-55749757D02*
X92157143Y-55606900D01*
X92157143Y-55606900D02*
X92157143Y-55464042D01*
X92157143Y-55464042D02*
X92228571Y-55321185D01*
X92228571Y-55321185D02*
X92300000Y-55249757D01*
X92300000Y-55249757D02*
X92442857Y-55178328D01*
X92442857Y-55178328D02*
X92800000Y-55178328D01*
X92800000Y-55178328D02*
X93014286Y-55249757D01*
X94300000Y-55678328D02*
X94300000Y-56678328D01*
X93942857Y-55106900D02*
X93585714Y-56178328D01*
X93585714Y-56178328D02*
X94514285Y-56178328D01*
X140857143Y-56606900D02*
X141071429Y-56678328D01*
X141071429Y-56678328D02*
X141428571Y-56678328D01*
X141428571Y-56678328D02*
X141571429Y-56606900D01*
X141571429Y-56606900D02*
X141642857Y-56535471D01*
X141642857Y-56535471D02*
X141714286Y-56392614D01*
X141714286Y-56392614D02*
X141714286Y-56249757D01*
X141714286Y-56249757D02*
X141642857Y-56106900D01*
X141642857Y-56106900D02*
X141571429Y-56035471D01*
X141571429Y-56035471D02*
X141428571Y-55964042D01*
X141428571Y-55964042D02*
X141142857Y-55892614D01*
X141142857Y-55892614D02*
X141000000Y-55821185D01*
X141000000Y-55821185D02*
X140928571Y-55749757D01*
X140928571Y-55749757D02*
X140857143Y-55606900D01*
X140857143Y-55606900D02*
X140857143Y-55464042D01*
X140857143Y-55464042D02*
X140928571Y-55321185D01*
X140928571Y-55321185D02*
X141000000Y-55249757D01*
X141000000Y-55249757D02*
X141142857Y-55178328D01*
X141142857Y-55178328D02*
X141500000Y-55178328D01*
X141500000Y-55178328D02*
X141714286Y-55249757D01*
X142571428Y-55821185D02*
X142428571Y-55749757D01*
X142428571Y-55749757D02*
X142357142Y-55678328D01*
X142357142Y-55678328D02*
X142285714Y-55535471D01*
X142285714Y-55535471D02*
X142285714Y-55464042D01*
X142285714Y-55464042D02*
X142357142Y-55321185D01*
X142357142Y-55321185D02*
X142428571Y-55249757D01*
X142428571Y-55249757D02*
X142571428Y-55178328D01*
X142571428Y-55178328D02*
X142857142Y-55178328D01*
X142857142Y-55178328D02*
X143000000Y-55249757D01*
X143000000Y-55249757D02*
X143071428Y-55321185D01*
X143071428Y-55321185D02*
X143142857Y-55464042D01*
X143142857Y-55464042D02*
X143142857Y-55535471D01*
X143142857Y-55535471D02*
X143071428Y-55678328D01*
X143071428Y-55678328D02*
X143000000Y-55749757D01*
X143000000Y-55749757D02*
X142857142Y-55821185D01*
X142857142Y-55821185D02*
X142571428Y-55821185D01*
X142571428Y-55821185D02*
X142428571Y-55892614D01*
X142428571Y-55892614D02*
X142357142Y-55964042D01*
X142357142Y-55964042D02*
X142285714Y-56106900D01*
X142285714Y-56106900D02*
X142285714Y-56392614D01*
X142285714Y-56392614D02*
X142357142Y-56535471D01*
X142357142Y-56535471D02*
X142428571Y-56606900D01*
X142428571Y-56606900D02*
X142571428Y-56678328D01*
X142571428Y-56678328D02*
X142857142Y-56678328D01*
X142857142Y-56678328D02*
X143000000Y-56606900D01*
X143000000Y-56606900D02*
X143071428Y-56535471D01*
X143071428Y-56535471D02*
X143142857Y-56392614D01*
X143142857Y-56392614D02*
X143142857Y-56106900D01*
X143142857Y-56106900D02*
X143071428Y-55964042D01*
X143071428Y-55964042D02*
X143000000Y-55892614D01*
X143000000Y-55892614D02*
X142857142Y-55821185D01*
X139592857Y-66849757D02*
X139450000Y-66778328D01*
X139450000Y-66778328D02*
X139235714Y-66778328D01*
X139235714Y-66778328D02*
X139021428Y-66849757D01*
X139021428Y-66849757D02*
X138878571Y-66992614D01*
X138878571Y-66992614D02*
X138807142Y-67135471D01*
X138807142Y-67135471D02*
X138735714Y-67421185D01*
X138735714Y-67421185D02*
X138735714Y-67635471D01*
X138735714Y-67635471D02*
X138807142Y-67921185D01*
X138807142Y-67921185D02*
X138878571Y-68064042D01*
X138878571Y-68064042D02*
X139021428Y-68206900D01*
X139021428Y-68206900D02*
X139235714Y-68278328D01*
X139235714Y-68278328D02*
X139378571Y-68278328D01*
X139378571Y-68278328D02*
X139592857Y-68206900D01*
X139592857Y-68206900D02*
X139664285Y-68135471D01*
X139664285Y-68135471D02*
X139664285Y-67635471D01*
X139664285Y-67635471D02*
X139378571Y-67635471D01*
X70014285Y-66078328D02*
X70014285Y-64578328D01*
X70728571Y-65078328D02*
X70728571Y-66078328D01*
X70728571Y-65221185D02*
X70800000Y-65149757D01*
X70800000Y-65149757D02*
X70942857Y-65078328D01*
X70942857Y-65078328D02*
X71157143Y-65078328D01*
X71157143Y-65078328D02*
X71300000Y-65149757D01*
X71300000Y-65149757D02*
X71371429Y-65292614D01*
X71371429Y-65292614D02*
X71371429Y-66078328D01*
X71871429Y-65078328D02*
X72442857Y-65078328D01*
X72085714Y-66078328D02*
X72085714Y-64792614D01*
X72085714Y-64792614D02*
X72157143Y-64649757D01*
X72157143Y-64649757D02*
X72300000Y-64578328D01*
X72300000Y-64578328D02*
X72442857Y-64578328D01*
X73157143Y-66078328D02*
X73014286Y-66006900D01*
X73014286Y-66006900D02*
X72942857Y-65935471D01*
X72942857Y-65935471D02*
X72871429Y-65792614D01*
X72871429Y-65792614D02*
X72871429Y-65364042D01*
X72871429Y-65364042D02*
X72942857Y-65221185D01*
X72942857Y-65221185D02*
X73014286Y-65149757D01*
X73014286Y-65149757D02*
X73157143Y-65078328D01*
X73157143Y-65078328D02*
X73371429Y-65078328D01*
X73371429Y-65078328D02*
X73514286Y-65149757D01*
X73514286Y-65149757D02*
X73585715Y-65221185D01*
X73585715Y-65221185D02*
X73657143Y-65364042D01*
X73657143Y-65364042D02*
X73657143Y-65792614D01*
X73657143Y-65792614D02*
X73585715Y-65935471D01*
X73585715Y-65935471D02*
X73514286Y-66006900D01*
X73514286Y-66006900D02*
X73371429Y-66078328D01*
X73371429Y-66078328D02*
X73157143Y-66078328D01*
X138842857Y-71349757D02*
X139557143Y-71349757D01*
X138700000Y-71778328D02*
X139200000Y-70278328D01*
X139200000Y-70278328D02*
X139700000Y-71778328D01*
X122057143Y-56606900D02*
X122271429Y-56678328D01*
X122271429Y-56678328D02*
X122628571Y-56678328D01*
X122628571Y-56678328D02*
X122771429Y-56606900D01*
X122771429Y-56606900D02*
X122842857Y-56535471D01*
X122842857Y-56535471D02*
X122914286Y-56392614D01*
X122914286Y-56392614D02*
X122914286Y-56249757D01*
X122914286Y-56249757D02*
X122842857Y-56106900D01*
X122842857Y-56106900D02*
X122771429Y-56035471D01*
X122771429Y-56035471D02*
X122628571Y-55964042D01*
X122628571Y-55964042D02*
X122342857Y-55892614D01*
X122342857Y-55892614D02*
X122200000Y-55821185D01*
X122200000Y-55821185D02*
X122128571Y-55749757D01*
X122128571Y-55749757D02*
X122057143Y-55606900D01*
X122057143Y-55606900D02*
X122057143Y-55464042D01*
X122057143Y-55464042D02*
X122128571Y-55321185D01*
X122128571Y-55321185D02*
X122200000Y-55249757D01*
X122200000Y-55249757D02*
X122342857Y-55178328D01*
X122342857Y-55178328D02*
X122700000Y-55178328D01*
X122700000Y-55178328D02*
X122914286Y-55249757D01*
X124200000Y-55178328D02*
X123914285Y-55178328D01*
X123914285Y-55178328D02*
X123771428Y-55249757D01*
X123771428Y-55249757D02*
X123700000Y-55321185D01*
X123700000Y-55321185D02*
X123557142Y-55535471D01*
X123557142Y-55535471D02*
X123485714Y-55821185D01*
X123485714Y-55821185D02*
X123485714Y-56392614D01*
X123485714Y-56392614D02*
X123557142Y-56535471D01*
X123557142Y-56535471D02*
X123628571Y-56606900D01*
X123628571Y-56606900D02*
X123771428Y-56678328D01*
X123771428Y-56678328D02*
X124057142Y-56678328D01*
X124057142Y-56678328D02*
X124200000Y-56606900D01*
X124200000Y-56606900D02*
X124271428Y-56535471D01*
X124271428Y-56535471D02*
X124342857Y-56392614D01*
X124342857Y-56392614D02*
X124342857Y-56035471D01*
X124342857Y-56035471D02*
X124271428Y-55892614D01*
X124271428Y-55892614D02*
X124200000Y-55821185D01*
X124200000Y-55821185D02*
X124057142Y-55749757D01*
X124057142Y-55749757D02*
X123771428Y-55749757D01*
X123771428Y-55749757D02*
X123628571Y-55821185D01*
X123628571Y-55821185D02*
X123557142Y-55892614D01*
X123557142Y-55892614D02*
X123485714Y-56035471D01*
X118185714Y-65478328D02*
X118185714Y-63978328D01*
X118185714Y-63978328D02*
X118757143Y-63978328D01*
X118757143Y-63978328D02*
X118900000Y-64049757D01*
X118900000Y-64049757D02*
X118971429Y-64121185D01*
X118971429Y-64121185D02*
X119042857Y-64264042D01*
X119042857Y-64264042D02*
X119042857Y-64478328D01*
X119042857Y-64478328D02*
X118971429Y-64621185D01*
X118971429Y-64621185D02*
X118900000Y-64692614D01*
X118900000Y-64692614D02*
X118757143Y-64764042D01*
X118757143Y-64764042D02*
X118185714Y-64764042D01*
X119685714Y-65478328D02*
X119685714Y-64478328D01*
X119685714Y-64764042D02*
X119757143Y-64621185D01*
X119757143Y-64621185D02*
X119828572Y-64549757D01*
X119828572Y-64549757D02*
X119971429Y-64478328D01*
X119971429Y-64478328D02*
X120114286Y-64478328D01*
X120828571Y-65478328D02*
X120685714Y-65406900D01*
X120685714Y-65406900D02*
X120614285Y-65335471D01*
X120614285Y-65335471D02*
X120542857Y-65192614D01*
X120542857Y-65192614D02*
X120542857Y-64764042D01*
X120542857Y-64764042D02*
X120614285Y-64621185D01*
X120614285Y-64621185D02*
X120685714Y-64549757D01*
X120685714Y-64549757D02*
X120828571Y-64478328D01*
X120828571Y-64478328D02*
X121042857Y-64478328D01*
X121042857Y-64478328D02*
X121185714Y-64549757D01*
X121185714Y-64549757D02*
X121257143Y-64621185D01*
X121257143Y-64621185D02*
X121328571Y-64764042D01*
X121328571Y-64764042D02*
X121328571Y-65192614D01*
X121328571Y-65192614D02*
X121257143Y-65335471D01*
X121257143Y-65335471D02*
X121185714Y-65406900D01*
X121185714Y-65406900D02*
X121042857Y-65478328D01*
X121042857Y-65478328D02*
X120828571Y-65478328D01*
X122614286Y-64478328D02*
X122614286Y-65692614D01*
X122614286Y-65692614D02*
X122542857Y-65835471D01*
X122542857Y-65835471D02*
X122471428Y-65906900D01*
X122471428Y-65906900D02*
X122328571Y-65978328D01*
X122328571Y-65978328D02*
X122114286Y-65978328D01*
X122114286Y-65978328D02*
X121971428Y-65906900D01*
X122614286Y-65406900D02*
X122471428Y-65478328D01*
X122471428Y-65478328D02*
X122185714Y-65478328D01*
X122185714Y-65478328D02*
X122042857Y-65406900D01*
X122042857Y-65406900D02*
X121971428Y-65335471D01*
X121971428Y-65335471D02*
X121900000Y-65192614D01*
X121900000Y-65192614D02*
X121900000Y-64764042D01*
X121900000Y-64764042D02*
X121971428Y-64621185D01*
X121971428Y-64621185D02*
X122042857Y-64549757D01*
X122042857Y-64549757D02*
X122185714Y-64478328D01*
X122185714Y-64478328D02*
X122471428Y-64478328D01*
X122471428Y-64478328D02*
X122614286Y-64549757D01*
X60785714Y-61878328D02*
X60785714Y-60378328D01*
X60785714Y-60378328D02*
X61357143Y-60378328D01*
X61357143Y-60378328D02*
X61500000Y-60449757D01*
X61500000Y-60449757D02*
X61571429Y-60521185D01*
X61571429Y-60521185D02*
X61642857Y-60664042D01*
X61642857Y-60664042D02*
X61642857Y-60878328D01*
X61642857Y-60878328D02*
X61571429Y-61021185D01*
X61571429Y-61021185D02*
X61500000Y-61092614D01*
X61500000Y-61092614D02*
X61357143Y-61164042D01*
X61357143Y-61164042D02*
X60785714Y-61164042D01*
X62285714Y-61878328D02*
X62285714Y-60878328D01*
X62285714Y-61164042D02*
X62357143Y-61021185D01*
X62357143Y-61021185D02*
X62428572Y-60949757D01*
X62428572Y-60949757D02*
X62571429Y-60878328D01*
X62571429Y-60878328D02*
X62714286Y-60878328D01*
X63428571Y-61878328D02*
X63285714Y-61806900D01*
X63285714Y-61806900D02*
X63214285Y-61735471D01*
X63214285Y-61735471D02*
X63142857Y-61592614D01*
X63142857Y-61592614D02*
X63142857Y-61164042D01*
X63142857Y-61164042D02*
X63214285Y-61021185D01*
X63214285Y-61021185D02*
X63285714Y-60949757D01*
X63285714Y-60949757D02*
X63428571Y-60878328D01*
X63428571Y-60878328D02*
X63642857Y-60878328D01*
X63642857Y-60878328D02*
X63785714Y-60949757D01*
X63785714Y-60949757D02*
X63857143Y-61021185D01*
X63857143Y-61021185D02*
X63928571Y-61164042D01*
X63928571Y-61164042D02*
X63928571Y-61592614D01*
X63928571Y-61592614D02*
X63857143Y-61735471D01*
X63857143Y-61735471D02*
X63785714Y-61806900D01*
X63785714Y-61806900D02*
X63642857Y-61878328D01*
X63642857Y-61878328D02*
X63428571Y-61878328D01*
X65214286Y-60878328D02*
X65214286Y-62092614D01*
X65214286Y-62092614D02*
X65142857Y-62235471D01*
X65142857Y-62235471D02*
X65071428Y-62306900D01*
X65071428Y-62306900D02*
X64928571Y-62378328D01*
X64928571Y-62378328D02*
X64714286Y-62378328D01*
X64714286Y-62378328D02*
X64571428Y-62306900D01*
X65214286Y-61806900D02*
X65071428Y-61878328D01*
X65071428Y-61878328D02*
X64785714Y-61878328D01*
X64785714Y-61878328D02*
X64642857Y-61806900D01*
X64642857Y-61806900D02*
X64571428Y-61735471D01*
X64571428Y-61735471D02*
X64500000Y-61592614D01*
X64500000Y-61592614D02*
X64500000Y-61164042D01*
X64500000Y-61164042D02*
X64571428Y-61021185D01*
X64571428Y-61021185D02*
X64642857Y-60949757D01*
X64642857Y-60949757D02*
X64785714Y-60878328D01*
X64785714Y-60878328D02*
X65071428Y-60878328D01*
X65071428Y-60878328D02*
X65214286Y-60949757D01*
X56857143Y-61906900D02*
X57071429Y-61978328D01*
X57071429Y-61978328D02*
X57428571Y-61978328D01*
X57428571Y-61978328D02*
X57571429Y-61906900D01*
X57571429Y-61906900D02*
X57642857Y-61835471D01*
X57642857Y-61835471D02*
X57714286Y-61692614D01*
X57714286Y-61692614D02*
X57714286Y-61549757D01*
X57714286Y-61549757D02*
X57642857Y-61406900D01*
X57642857Y-61406900D02*
X57571429Y-61335471D01*
X57571429Y-61335471D02*
X57428571Y-61264042D01*
X57428571Y-61264042D02*
X57142857Y-61192614D01*
X57142857Y-61192614D02*
X57000000Y-61121185D01*
X57000000Y-61121185D02*
X56928571Y-61049757D01*
X56928571Y-61049757D02*
X56857143Y-60906900D01*
X56857143Y-60906900D02*
X56857143Y-60764042D01*
X56857143Y-60764042D02*
X56928571Y-60621185D01*
X56928571Y-60621185D02*
X57000000Y-60549757D01*
X57000000Y-60549757D02*
X57142857Y-60478328D01*
X57142857Y-60478328D02*
X57500000Y-60478328D01*
X57500000Y-60478328D02*
X57714286Y-60549757D01*
X59142857Y-61978328D02*
X58285714Y-61978328D01*
X58714285Y-61978328D02*
X58714285Y-60478328D01*
X58714285Y-60478328D02*
X58571428Y-60692614D01*
X58571428Y-60692614D02*
X58428571Y-60835471D01*
X58428571Y-60835471D02*
X58285714Y-60906900D01*
X128857143Y-56606900D02*
X129071429Y-56678328D01*
X129071429Y-56678328D02*
X129428571Y-56678328D01*
X129428571Y-56678328D02*
X129571429Y-56606900D01*
X129571429Y-56606900D02*
X129642857Y-56535471D01*
X129642857Y-56535471D02*
X129714286Y-56392614D01*
X129714286Y-56392614D02*
X129714286Y-56249757D01*
X129714286Y-56249757D02*
X129642857Y-56106900D01*
X129642857Y-56106900D02*
X129571429Y-56035471D01*
X129571429Y-56035471D02*
X129428571Y-55964042D01*
X129428571Y-55964042D02*
X129142857Y-55892614D01*
X129142857Y-55892614D02*
X129000000Y-55821185D01*
X129000000Y-55821185D02*
X128928571Y-55749757D01*
X128928571Y-55749757D02*
X128857143Y-55606900D01*
X128857143Y-55606900D02*
X128857143Y-55464042D01*
X128857143Y-55464042D02*
X128928571Y-55321185D01*
X128928571Y-55321185D02*
X129000000Y-55249757D01*
X129000000Y-55249757D02*
X129142857Y-55178328D01*
X129142857Y-55178328D02*
X129500000Y-55178328D01*
X129500000Y-55178328D02*
X129714286Y-55249757D01*
X130214285Y-55178328D02*
X131214285Y-55178328D01*
X131214285Y-55178328D02*
X130571428Y-56678328D01*
X130642857Y-65478328D02*
X130142857Y-64764042D01*
X129785714Y-65478328D02*
X129785714Y-63978328D01*
X129785714Y-63978328D02*
X130357143Y-63978328D01*
X130357143Y-63978328D02*
X130500000Y-64049757D01*
X130500000Y-64049757D02*
X130571429Y-64121185D01*
X130571429Y-64121185D02*
X130642857Y-64264042D01*
X130642857Y-64264042D02*
X130642857Y-64478328D01*
X130642857Y-64478328D02*
X130571429Y-64621185D01*
X130571429Y-64621185D02*
X130500000Y-64692614D01*
X130500000Y-64692614D02*
X130357143Y-64764042D01*
X130357143Y-64764042D02*
X129785714Y-64764042D01*
X131857143Y-65406900D02*
X131714286Y-65478328D01*
X131714286Y-65478328D02*
X131428572Y-65478328D01*
X131428572Y-65478328D02*
X131285714Y-65406900D01*
X131285714Y-65406900D02*
X131214286Y-65264042D01*
X131214286Y-65264042D02*
X131214286Y-64692614D01*
X131214286Y-64692614D02*
X131285714Y-64549757D01*
X131285714Y-64549757D02*
X131428572Y-64478328D01*
X131428572Y-64478328D02*
X131714286Y-64478328D01*
X131714286Y-64478328D02*
X131857143Y-64549757D01*
X131857143Y-64549757D02*
X131928572Y-64692614D01*
X131928572Y-64692614D02*
X131928572Y-64835471D01*
X131928572Y-64835471D02*
X131214286Y-64978328D01*
X132500000Y-65406900D02*
X132642857Y-65478328D01*
X132642857Y-65478328D02*
X132928571Y-65478328D01*
X132928571Y-65478328D02*
X133071428Y-65406900D01*
X133071428Y-65406900D02*
X133142857Y-65264042D01*
X133142857Y-65264042D02*
X133142857Y-65192614D01*
X133142857Y-65192614D02*
X133071428Y-65049757D01*
X133071428Y-65049757D02*
X132928571Y-64978328D01*
X132928571Y-64978328D02*
X132714286Y-64978328D01*
X132714286Y-64978328D02*
X132571428Y-64906900D01*
X132571428Y-64906900D02*
X132500000Y-64764042D01*
X132500000Y-64764042D02*
X132500000Y-64692614D01*
X132500000Y-64692614D02*
X132571428Y-64549757D01*
X132571428Y-64549757D02*
X132714286Y-64478328D01*
X132714286Y-64478328D02*
X132928571Y-64478328D01*
X132928571Y-64478328D02*
X133071428Y-64549757D01*
X134357143Y-65406900D02*
X134214286Y-65478328D01*
X134214286Y-65478328D02*
X133928572Y-65478328D01*
X133928572Y-65478328D02*
X133785714Y-65406900D01*
X133785714Y-65406900D02*
X133714286Y-65264042D01*
X133714286Y-65264042D02*
X133714286Y-64692614D01*
X133714286Y-64692614D02*
X133785714Y-64549757D01*
X133785714Y-64549757D02*
X133928572Y-64478328D01*
X133928572Y-64478328D02*
X134214286Y-64478328D01*
X134214286Y-64478328D02*
X134357143Y-64549757D01*
X134357143Y-64549757D02*
X134428572Y-64692614D01*
X134428572Y-64692614D02*
X134428572Y-64835471D01*
X134428572Y-64835471D02*
X133714286Y-64978328D01*
X134857143Y-64478328D02*
X135428571Y-64478328D01*
X135071428Y-63978328D02*
X135071428Y-65264042D01*
X135071428Y-65264042D02*
X135142857Y-65406900D01*
X135142857Y-65406900D02*
X135285714Y-65478328D01*
X135285714Y-65478328D02*
X135428571Y-65478328D01*
X139307142Y-63992614D02*
X139521428Y-64064042D01*
X139521428Y-64064042D02*
X139592857Y-64135471D01*
X139592857Y-64135471D02*
X139664285Y-64278328D01*
X139664285Y-64278328D02*
X139664285Y-64492614D01*
X139664285Y-64492614D02*
X139592857Y-64635471D01*
X139592857Y-64635471D02*
X139521428Y-64706900D01*
X139521428Y-64706900D02*
X139378571Y-64778328D01*
X139378571Y-64778328D02*
X138807142Y-64778328D01*
X138807142Y-64778328D02*
X138807142Y-63278328D01*
X138807142Y-63278328D02*
X139307142Y-63278328D01*
X139307142Y-63278328D02*
X139450000Y-63349757D01*
X139450000Y-63349757D02*
X139521428Y-63421185D01*
X139521428Y-63421185D02*
X139592857Y-63564042D01*
X139592857Y-63564042D02*
X139592857Y-63706900D01*
X139592857Y-63706900D02*
X139521428Y-63849757D01*
X139521428Y-63849757D02*
X139450000Y-63921185D01*
X139450000Y-63921185D02*
X139307142Y-63992614D01*
X139307142Y-63992614D02*
X138807142Y-63992614D01*
X143007143Y-75878328D02*
X142507143Y-75164042D01*
X142150000Y-75878328D02*
X142150000Y-74378328D01*
X142150000Y-74378328D02*
X142721429Y-74378328D01*
X142721429Y-74378328D02*
X142864286Y-74449757D01*
X142864286Y-74449757D02*
X142935715Y-74521185D01*
X142935715Y-74521185D02*
X143007143Y-74664042D01*
X143007143Y-74664042D02*
X143007143Y-74878328D01*
X143007143Y-74878328D02*
X142935715Y-75021185D01*
X142935715Y-75021185D02*
X142864286Y-75092614D01*
X142864286Y-75092614D02*
X142721429Y-75164042D01*
X142721429Y-75164042D02*
X142150000Y-75164042D01*
X143578572Y-75806900D02*
X143792858Y-75878328D01*
X143792858Y-75878328D02*
X144150000Y-75878328D01*
X144150000Y-75878328D02*
X144292858Y-75806900D01*
X144292858Y-75806900D02*
X144364286Y-75735471D01*
X144364286Y-75735471D02*
X144435715Y-75592614D01*
X144435715Y-75592614D02*
X144435715Y-75449757D01*
X144435715Y-75449757D02*
X144364286Y-75306900D01*
X144364286Y-75306900D02*
X144292858Y-75235471D01*
X144292858Y-75235471D02*
X144150000Y-75164042D01*
X144150000Y-75164042D02*
X143864286Y-75092614D01*
X143864286Y-75092614D02*
X143721429Y-75021185D01*
X143721429Y-75021185D02*
X143650000Y-74949757D01*
X143650000Y-74949757D02*
X143578572Y-74806900D01*
X143578572Y-74806900D02*
X143578572Y-74664042D01*
X143578572Y-74664042D02*
X143650000Y-74521185D01*
X143650000Y-74521185D02*
X143721429Y-74449757D01*
X143721429Y-74449757D02*
X143864286Y-74378328D01*
X143864286Y-74378328D02*
X144221429Y-74378328D01*
X144221429Y-74378328D02*
X144435715Y-74449757D01*
X145721429Y-74878328D02*
X145721429Y-75878328D01*
X145364286Y-74306900D02*
X145007143Y-75378328D01*
X145007143Y-75378328D02*
X145935714Y-75378328D01*
X146721428Y-75021185D02*
X146578571Y-74949757D01*
X146578571Y-74949757D02*
X146507142Y-74878328D01*
X146507142Y-74878328D02*
X146435714Y-74735471D01*
X146435714Y-74735471D02*
X146435714Y-74664042D01*
X146435714Y-74664042D02*
X146507142Y-74521185D01*
X146507142Y-74521185D02*
X146578571Y-74449757D01*
X146578571Y-74449757D02*
X146721428Y-74378328D01*
X146721428Y-74378328D02*
X147007142Y-74378328D01*
X147007142Y-74378328D02*
X147150000Y-74449757D01*
X147150000Y-74449757D02*
X147221428Y-74521185D01*
X147221428Y-74521185D02*
X147292857Y-74664042D01*
X147292857Y-74664042D02*
X147292857Y-74735471D01*
X147292857Y-74735471D02*
X147221428Y-74878328D01*
X147221428Y-74878328D02*
X147150000Y-74949757D01*
X147150000Y-74949757D02*
X147007142Y-75021185D01*
X147007142Y-75021185D02*
X146721428Y-75021185D01*
X146721428Y-75021185D02*
X146578571Y-75092614D01*
X146578571Y-75092614D02*
X146507142Y-75164042D01*
X146507142Y-75164042D02*
X146435714Y-75306900D01*
X146435714Y-75306900D02*
X146435714Y-75592614D01*
X146435714Y-75592614D02*
X146507142Y-75735471D01*
X146507142Y-75735471D02*
X146578571Y-75806900D01*
X146578571Y-75806900D02*
X146721428Y-75878328D01*
X146721428Y-75878328D02*
X147007142Y-75878328D01*
X147007142Y-75878328D02*
X147150000Y-75806900D01*
X147150000Y-75806900D02*
X147221428Y-75735471D01*
X147221428Y-75735471D02*
X147292857Y-75592614D01*
X147292857Y-75592614D02*
X147292857Y-75306900D01*
X147292857Y-75306900D02*
X147221428Y-75164042D01*
X147221428Y-75164042D02*
X147150000Y-75092614D01*
X147150000Y-75092614D02*
X147007142Y-75021185D01*
X148649999Y-74378328D02*
X147935713Y-74378328D01*
X147935713Y-74378328D02*
X147864285Y-75092614D01*
X147864285Y-75092614D02*
X147935713Y-75021185D01*
X147935713Y-75021185D02*
X148078571Y-74949757D01*
X148078571Y-74949757D02*
X148435713Y-74949757D01*
X148435713Y-74949757D02*
X148578571Y-75021185D01*
X148578571Y-75021185D02*
X148649999Y-75092614D01*
X148649999Y-75092614D02*
X148721428Y-75235471D01*
X148721428Y-75235471D02*
X148721428Y-75592614D01*
X148721428Y-75592614D02*
X148649999Y-75735471D01*
X148649999Y-75735471D02*
X148578571Y-75806900D01*
X148578571Y-75806900D02*
X148435713Y-75878328D01*
X148435713Y-75878328D02*
X148078571Y-75878328D01*
X148078571Y-75878328D02*
X147935713Y-75806900D01*
X147935713Y-75806900D02*
X147864285Y-75735471D01*
X123742857Y-58578328D02*
X124600000Y-58578328D01*
X124171428Y-60078328D02*
X124171428Y-58578328D01*
X125099999Y-59292614D02*
X125599999Y-59292614D01*
X125814285Y-60078328D02*
X125099999Y-60078328D01*
X125099999Y-60078328D02*
X125099999Y-58578328D01*
X125099999Y-58578328D02*
X125814285Y-58578328D01*
X127314285Y-60078328D02*
X126814285Y-59364042D01*
X126457142Y-60078328D02*
X126457142Y-58578328D01*
X126457142Y-58578328D02*
X127028571Y-58578328D01*
X127028571Y-58578328D02*
X127171428Y-58649757D01*
X127171428Y-58649757D02*
X127242857Y-58721185D01*
X127242857Y-58721185D02*
X127314285Y-58864042D01*
X127314285Y-58864042D02*
X127314285Y-59078328D01*
X127314285Y-59078328D02*
X127242857Y-59221185D01*
X127242857Y-59221185D02*
X127171428Y-59292614D01*
X127171428Y-59292614D02*
X127028571Y-59364042D01*
X127028571Y-59364042D02*
X126457142Y-59364042D01*
X127957142Y-60078328D02*
X127957142Y-58578328D01*
X127957142Y-58578328D02*
X128457142Y-59649757D01*
X128457142Y-59649757D02*
X128957142Y-58578328D01*
X128957142Y-58578328D02*
X128957142Y-60078328D01*
X131100000Y-58578328D02*
X131385714Y-58578328D01*
X131385714Y-58578328D02*
X131528571Y-58649757D01*
X131528571Y-58649757D02*
X131671428Y-58792614D01*
X131671428Y-58792614D02*
X131742857Y-59078328D01*
X131742857Y-59078328D02*
X131742857Y-59578328D01*
X131742857Y-59578328D02*
X131671428Y-59864042D01*
X131671428Y-59864042D02*
X131528571Y-60006900D01*
X131528571Y-60006900D02*
X131385714Y-60078328D01*
X131385714Y-60078328D02*
X131100000Y-60078328D01*
X131100000Y-60078328D02*
X130957143Y-60006900D01*
X130957143Y-60006900D02*
X130814285Y-59864042D01*
X130814285Y-59864042D02*
X130742857Y-59578328D01*
X130742857Y-59578328D02*
X130742857Y-59078328D01*
X130742857Y-59078328D02*
X130814285Y-58792614D01*
X130814285Y-58792614D02*
X130957143Y-58649757D01*
X130957143Y-58649757D02*
X131100000Y-58578328D01*
X132385714Y-60078328D02*
X132385714Y-58578328D01*
X132385714Y-58578328D02*
X133242857Y-60078328D01*
X133242857Y-60078328D02*
X133242857Y-58578328D01*
X80857143Y-56606900D02*
X81071429Y-56678328D01*
X81071429Y-56678328D02*
X81428571Y-56678328D01*
X81428571Y-56678328D02*
X81571429Y-56606900D01*
X81571429Y-56606900D02*
X81642857Y-56535471D01*
X81642857Y-56535471D02*
X81714286Y-56392614D01*
X81714286Y-56392614D02*
X81714286Y-56249757D01*
X81714286Y-56249757D02*
X81642857Y-56106900D01*
X81642857Y-56106900D02*
X81571429Y-56035471D01*
X81571429Y-56035471D02*
X81428571Y-55964042D01*
X81428571Y-55964042D02*
X81142857Y-55892614D01*
X81142857Y-55892614D02*
X81000000Y-55821185D01*
X81000000Y-55821185D02*
X80928571Y-55749757D01*
X80928571Y-55749757D02*
X80857143Y-55606900D01*
X80857143Y-55606900D02*
X80857143Y-55464042D01*
X80857143Y-55464042D02*
X80928571Y-55321185D01*
X80928571Y-55321185D02*
X81000000Y-55249757D01*
X81000000Y-55249757D02*
X81142857Y-55178328D01*
X81142857Y-55178328D02*
X81500000Y-55178328D01*
X81500000Y-55178328D02*
X81714286Y-55249757D01*
X82214285Y-55178328D02*
X83142857Y-55178328D01*
X83142857Y-55178328D02*
X82642857Y-55749757D01*
X82642857Y-55749757D02*
X82857142Y-55749757D01*
X82857142Y-55749757D02*
X83000000Y-55821185D01*
X83000000Y-55821185D02*
X83071428Y-55892614D01*
X83071428Y-55892614D02*
X83142857Y-56035471D01*
X83142857Y-56035471D02*
X83142857Y-56392614D01*
X83142857Y-56392614D02*
X83071428Y-56535471D01*
X83071428Y-56535471D02*
X83000000Y-56606900D01*
X83000000Y-56606900D02*
X82857142Y-56678328D01*
X82857142Y-56678328D02*
X82428571Y-56678328D01*
X82428571Y-56678328D02*
X82285714Y-56606900D01*
X82285714Y-56606900D02*
X82214285Y-56535471D01*
X67457143Y-61906900D02*
X67671429Y-61978328D01*
X67671429Y-61978328D02*
X68028571Y-61978328D01*
X68028571Y-61978328D02*
X68171429Y-61906900D01*
X68171429Y-61906900D02*
X68242857Y-61835471D01*
X68242857Y-61835471D02*
X68314286Y-61692614D01*
X68314286Y-61692614D02*
X68314286Y-61549757D01*
X68314286Y-61549757D02*
X68242857Y-61406900D01*
X68242857Y-61406900D02*
X68171429Y-61335471D01*
X68171429Y-61335471D02*
X68028571Y-61264042D01*
X68028571Y-61264042D02*
X67742857Y-61192614D01*
X67742857Y-61192614D02*
X67600000Y-61121185D01*
X67600000Y-61121185D02*
X67528571Y-61049757D01*
X67528571Y-61049757D02*
X67457143Y-60906900D01*
X67457143Y-60906900D02*
X67457143Y-60764042D01*
X67457143Y-60764042D02*
X67528571Y-60621185D01*
X67528571Y-60621185D02*
X67600000Y-60549757D01*
X67600000Y-60549757D02*
X67742857Y-60478328D01*
X67742857Y-60478328D02*
X68100000Y-60478328D01*
X68100000Y-60478328D02*
X68314286Y-60549757D01*
X68885714Y-60621185D02*
X68957142Y-60549757D01*
X68957142Y-60549757D02*
X69100000Y-60478328D01*
X69100000Y-60478328D02*
X69457142Y-60478328D01*
X69457142Y-60478328D02*
X69600000Y-60549757D01*
X69600000Y-60549757D02*
X69671428Y-60621185D01*
X69671428Y-60621185D02*
X69742857Y-60764042D01*
X69742857Y-60764042D02*
X69742857Y-60906900D01*
X69742857Y-60906900D02*
X69671428Y-61121185D01*
X69671428Y-61121185D02*
X68814285Y-61978328D01*
X68814285Y-61978328D02*
X69742857Y-61978328D01*
D11*
X103307142Y-65454819D02*
X102735714Y-65454819D01*
X103021428Y-65454819D02*
X103021428Y-64454819D01*
X103021428Y-64454819D02*
X102926190Y-64597676D01*
X102926190Y-64597676D02*
X102830952Y-64692914D01*
X102830952Y-64692914D02*
X102735714Y-64740533D01*
X103926190Y-64454819D02*
X104021428Y-64454819D01*
X104021428Y-64454819D02*
X104116666Y-64502438D01*
X104116666Y-64502438D02*
X104164285Y-64550057D01*
X104164285Y-64550057D02*
X104211904Y-64645295D01*
X104211904Y-64645295D02*
X104259523Y-64835771D01*
X104259523Y-64835771D02*
X104259523Y-65073866D01*
X104259523Y-65073866D02*
X104211904Y-65264342D01*
X104211904Y-65264342D02*
X104164285Y-65359580D01*
X104164285Y-65359580D02*
X104116666Y-65407200D01*
X104116666Y-65407200D02*
X104021428Y-65454819D01*
X104021428Y-65454819D02*
X103926190Y-65454819D01*
X103926190Y-65454819D02*
X103830952Y-65407200D01*
X103830952Y-65407200D02*
X103783333Y-65359580D01*
X103783333Y-65359580D02*
X103735714Y-65264342D01*
X103735714Y-65264342D02*
X103688095Y-65073866D01*
X103688095Y-65073866D02*
X103688095Y-64835771D01*
X103688095Y-64835771D02*
X103735714Y-64645295D01*
X103735714Y-64645295D02*
X103783333Y-64550057D01*
X103783333Y-64550057D02*
X103830952Y-64502438D01*
X103830952Y-64502438D02*
X103926190Y-64454819D01*
X105116666Y-64788152D02*
X105116666Y-65454819D01*
X104688095Y-64788152D02*
X104688095Y-65311961D01*
X104688095Y-65311961D02*
X104735714Y-65407200D01*
X104735714Y-65407200D02*
X104830952Y-65454819D01*
X104830952Y-65454819D02*
X104973809Y-65454819D01*
X104973809Y-65454819D02*
X105069047Y-65407200D01*
X105069047Y-65407200D02*
X105116666Y-65359580D01*
X104088095Y-66788152D02*
X104088095Y-67454819D01*
X103659524Y-66788152D02*
X103659524Y-67311961D01*
X103659524Y-67311961D02*
X103707143Y-67407200D01*
X103707143Y-67407200D02*
X103802381Y-67454819D01*
X103802381Y-67454819D02*
X103945238Y-67454819D01*
X103945238Y-67454819D02*
X104040476Y-67407200D01*
X104040476Y-67407200D02*
X104088095Y-67359580D01*
X105088095Y-67454819D02*
X104516667Y-67454819D01*
X104802381Y-67454819D02*
X104802381Y-66454819D01*
X104802381Y-66454819D02*
X104707143Y-66597676D01*
X104707143Y-66597676D02*
X104611905Y-66692914D01*
X104611905Y-66692914D02*
X104516667Y-66740533D01*
X126207143Y-70704819D02*
X126207143Y-69704819D01*
X126302381Y-70323866D02*
X126588095Y-70704819D01*
X126588095Y-70038152D02*
X126207143Y-70419104D01*
X127540476Y-70704819D02*
X126969048Y-70704819D01*
X127254762Y-70704819D02*
X127254762Y-69704819D01*
X127254762Y-69704819D02*
X127159524Y-69847676D01*
X127159524Y-69847676D02*
X127064286Y-69942914D01*
X127064286Y-69942914D02*
X126969048Y-69990533D01*
X113588095Y-71368152D02*
X113588095Y-72034819D01*
X113159524Y-71368152D02*
X113159524Y-71891961D01*
X113159524Y-71891961D02*
X113207143Y-71987200D01*
X113207143Y-71987200D02*
X113302381Y-72034819D01*
X113302381Y-72034819D02*
X113445238Y-72034819D01*
X113445238Y-72034819D02*
X113540476Y-71987200D01*
X113540476Y-71987200D02*
X113588095Y-71939580D01*
X114588095Y-72034819D02*
X114016667Y-72034819D01*
X114302381Y-72034819D02*
X114302381Y-71034819D01*
X114302381Y-71034819D02*
X114207143Y-71177676D01*
X114207143Y-71177676D02*
X114111905Y-71272914D01*
X114111905Y-71272914D02*
X114016667Y-71320533D01*
X113257143Y-70704819D02*
X113257143Y-69704819D01*
X113352381Y-70323866D02*
X113638095Y-70704819D01*
X113638095Y-70038152D02*
X113257143Y-70419104D01*
X114590476Y-70704819D02*
X114019048Y-70704819D01*
X114304762Y-70704819D02*
X114304762Y-69704819D01*
X114304762Y-69704819D02*
X114209524Y-69847676D01*
X114209524Y-69847676D02*
X114114286Y-69942914D01*
X114114286Y-69942914D02*
X114019048Y-69990533D01*
X51485714Y-79700057D02*
X51533333Y-79652438D01*
X51533333Y-79652438D02*
X51628571Y-79604819D01*
X51628571Y-79604819D02*
X51866666Y-79604819D01*
X51866666Y-79604819D02*
X51961904Y-79652438D01*
X51961904Y-79652438D02*
X52009523Y-79700057D01*
X52009523Y-79700057D02*
X52057142Y-79795295D01*
X52057142Y-79795295D02*
X52057142Y-79890533D01*
X52057142Y-79890533D02*
X52009523Y-80033390D01*
X52009523Y-80033390D02*
X51438095Y-80604819D01*
X51438095Y-80604819D02*
X52057142Y-80604819D01*
X52438095Y-79700057D02*
X52485714Y-79652438D01*
X52485714Y-79652438D02*
X52580952Y-79604819D01*
X52580952Y-79604819D02*
X52819047Y-79604819D01*
X52819047Y-79604819D02*
X52914285Y-79652438D01*
X52914285Y-79652438D02*
X52961904Y-79700057D01*
X52961904Y-79700057D02*
X53009523Y-79795295D01*
X53009523Y-79795295D02*
X53009523Y-79890533D01*
X53009523Y-79890533D02*
X52961904Y-80033390D01*
X52961904Y-80033390D02*
X52390476Y-80604819D01*
X52390476Y-80604819D02*
X53009523Y-80604819D01*
X53866666Y-79938152D02*
X53866666Y-80604819D01*
X53438095Y-79938152D02*
X53438095Y-80461961D01*
X53438095Y-80461961D02*
X53485714Y-80557200D01*
X53485714Y-80557200D02*
X53580952Y-80604819D01*
X53580952Y-80604819D02*
X53723809Y-80604819D01*
X53723809Y-80604819D02*
X53819047Y-80557200D01*
X53819047Y-80557200D02*
X53866666Y-80509580D01*
X57633333Y-77550057D02*
X57680952Y-77502438D01*
X57680952Y-77502438D02*
X57776190Y-77454819D01*
X57776190Y-77454819D02*
X58014285Y-77454819D01*
X58014285Y-77454819D02*
X58109523Y-77502438D01*
X58109523Y-77502438D02*
X58157142Y-77550057D01*
X58157142Y-77550057D02*
X58204761Y-77645295D01*
X58204761Y-77645295D02*
X58204761Y-77740533D01*
X58204761Y-77740533D02*
X58157142Y-77883390D01*
X58157142Y-77883390D02*
X57585714Y-78454819D01*
X57585714Y-78454819D02*
X58204761Y-78454819D01*
X58585714Y-77550057D02*
X58633333Y-77502438D01*
X58633333Y-77502438D02*
X58728571Y-77454819D01*
X58728571Y-77454819D02*
X58966666Y-77454819D01*
X58966666Y-77454819D02*
X59061904Y-77502438D01*
X59061904Y-77502438D02*
X59109523Y-77550057D01*
X59109523Y-77550057D02*
X59157142Y-77645295D01*
X59157142Y-77645295D02*
X59157142Y-77740533D01*
X59157142Y-77740533D02*
X59109523Y-77883390D01*
X59109523Y-77883390D02*
X58538095Y-78454819D01*
X58538095Y-78454819D02*
X59157142Y-78454819D01*
X59585714Y-78454819D02*
X59585714Y-77454819D01*
X59680952Y-78073866D02*
X59966666Y-78454819D01*
X59966666Y-77788152D02*
X59585714Y-78169104D01*
X112809523Y-60388152D02*
X112809523Y-61054819D01*
X112571428Y-60007200D02*
X112333333Y-60721485D01*
X112333333Y-60721485D02*
X112952380Y-60721485D01*
X113333333Y-61054819D02*
X113333333Y-60054819D01*
X113428571Y-60673866D02*
X113714285Y-61054819D01*
X113714285Y-60388152D02*
X113333333Y-60769104D01*
X114047619Y-60054819D02*
X114714285Y-60054819D01*
X114714285Y-60054819D02*
X114285714Y-61054819D01*
X91757142Y-66404819D02*
X91185714Y-66404819D01*
X91471428Y-66404819D02*
X91471428Y-65404819D01*
X91471428Y-65404819D02*
X91376190Y-65547676D01*
X91376190Y-65547676D02*
X91280952Y-65642914D01*
X91280952Y-65642914D02*
X91185714Y-65690533D01*
X92376190Y-65404819D02*
X92471428Y-65404819D01*
X92471428Y-65404819D02*
X92566666Y-65452438D01*
X92566666Y-65452438D02*
X92614285Y-65500057D01*
X92614285Y-65500057D02*
X92661904Y-65595295D01*
X92661904Y-65595295D02*
X92709523Y-65785771D01*
X92709523Y-65785771D02*
X92709523Y-66023866D01*
X92709523Y-66023866D02*
X92661904Y-66214342D01*
X92661904Y-66214342D02*
X92614285Y-66309580D01*
X92614285Y-66309580D02*
X92566666Y-66357200D01*
X92566666Y-66357200D02*
X92471428Y-66404819D01*
X92471428Y-66404819D02*
X92376190Y-66404819D01*
X92376190Y-66404819D02*
X92280952Y-66357200D01*
X92280952Y-66357200D02*
X92233333Y-66309580D01*
X92233333Y-66309580D02*
X92185714Y-66214342D01*
X92185714Y-66214342D02*
X92138095Y-66023866D01*
X92138095Y-66023866D02*
X92138095Y-65785771D01*
X92138095Y-65785771D02*
X92185714Y-65595295D01*
X92185714Y-65595295D02*
X92233333Y-65500057D01*
X92233333Y-65500057D02*
X92280952Y-65452438D01*
X92280952Y-65452438D02*
X92376190Y-65404819D01*
X93566666Y-65738152D02*
X93566666Y-66404819D01*
X93138095Y-65738152D02*
X93138095Y-66261961D01*
X93138095Y-66261961D02*
X93185714Y-66357200D01*
X93185714Y-66357200D02*
X93280952Y-66404819D01*
X93280952Y-66404819D02*
X93423809Y-66404819D01*
X93423809Y-66404819D02*
X93519047Y-66357200D01*
X93519047Y-66357200D02*
X93566666Y-66309580D01*
X103195238Y-63304819D02*
X103195238Y-62638152D01*
X103195238Y-62733390D02*
X103242857Y-62685771D01*
X103242857Y-62685771D02*
X103338095Y-62638152D01*
X103338095Y-62638152D02*
X103480952Y-62638152D01*
X103480952Y-62638152D02*
X103576190Y-62685771D01*
X103576190Y-62685771D02*
X103623809Y-62781009D01*
X103623809Y-62781009D02*
X103623809Y-63304819D01*
X103623809Y-62781009D02*
X103671428Y-62685771D01*
X103671428Y-62685771D02*
X103766666Y-62638152D01*
X103766666Y-62638152D02*
X103909523Y-62638152D01*
X103909523Y-62638152D02*
X104004762Y-62685771D01*
X104004762Y-62685771D02*
X104052381Y-62781009D01*
X104052381Y-62781009D02*
X104052381Y-63304819D01*
X105052380Y-63304819D02*
X104480952Y-63304819D01*
X104766666Y-63304819D02*
X104766666Y-62304819D01*
X104766666Y-62304819D02*
X104671428Y-62447676D01*
X104671428Y-62447676D02*
X104576190Y-62542914D01*
X104576190Y-62542914D02*
X104480952Y-62590533D01*
X77088095Y-67088152D02*
X77088095Y-67754819D01*
X76659524Y-67088152D02*
X76659524Y-67611961D01*
X76659524Y-67611961D02*
X76707143Y-67707200D01*
X76707143Y-67707200D02*
X76802381Y-67754819D01*
X76802381Y-67754819D02*
X76945238Y-67754819D01*
X76945238Y-67754819D02*
X77040476Y-67707200D01*
X77040476Y-67707200D02*
X77088095Y-67659580D01*
X78088095Y-67754819D02*
X77516667Y-67754819D01*
X77802381Y-67754819D02*
X77802381Y-66754819D01*
X77802381Y-66754819D02*
X77707143Y-66897676D01*
X77707143Y-66897676D02*
X77611905Y-66992914D01*
X77611905Y-66992914D02*
X77516667Y-67040533D01*
X75830952Y-71254819D02*
X75259524Y-71254819D01*
X75545238Y-71254819D02*
X75545238Y-70254819D01*
X75545238Y-70254819D02*
X75450000Y-70397676D01*
X75450000Y-70397676D02*
X75354762Y-70492914D01*
X75354762Y-70492914D02*
X75259524Y-70540533D01*
X76259524Y-71254819D02*
X76259524Y-70254819D01*
X76354762Y-70873866D02*
X76640476Y-71254819D01*
X76640476Y-70588152D02*
X76259524Y-70969104D01*
X103304761Y-69454819D02*
X102733333Y-69454819D01*
X103019047Y-69454819D02*
X103019047Y-68454819D01*
X103019047Y-68454819D02*
X102923809Y-68597676D01*
X102923809Y-68597676D02*
X102828571Y-68692914D01*
X102828571Y-68692914D02*
X102733333Y-68740533D01*
X103923809Y-68454819D02*
X104019047Y-68454819D01*
X104019047Y-68454819D02*
X104114285Y-68502438D01*
X104114285Y-68502438D02*
X104161904Y-68550057D01*
X104161904Y-68550057D02*
X104209523Y-68645295D01*
X104209523Y-68645295D02*
X104257142Y-68835771D01*
X104257142Y-68835771D02*
X104257142Y-69073866D01*
X104257142Y-69073866D02*
X104209523Y-69264342D01*
X104209523Y-69264342D02*
X104161904Y-69359580D01*
X104161904Y-69359580D02*
X104114285Y-69407200D01*
X104114285Y-69407200D02*
X104019047Y-69454819D01*
X104019047Y-69454819D02*
X103923809Y-69454819D01*
X103923809Y-69454819D02*
X103828571Y-69407200D01*
X103828571Y-69407200D02*
X103780952Y-69359580D01*
X103780952Y-69359580D02*
X103733333Y-69264342D01*
X103733333Y-69264342D02*
X103685714Y-69073866D01*
X103685714Y-69073866D02*
X103685714Y-68835771D01*
X103685714Y-68835771D02*
X103733333Y-68645295D01*
X103733333Y-68645295D02*
X103780952Y-68550057D01*
X103780952Y-68550057D02*
X103828571Y-68502438D01*
X103828571Y-68502438D02*
X103923809Y-68454819D01*
X104685714Y-69454819D02*
X104685714Y-68454819D01*
X104780952Y-69073866D02*
X105066666Y-69454819D01*
X105066666Y-68788152D02*
X104685714Y-69169104D01*
X66830952Y-80504819D02*
X66259524Y-80504819D01*
X66545238Y-80504819D02*
X66545238Y-79504819D01*
X66545238Y-79504819D02*
X66450000Y-79647676D01*
X66450000Y-79647676D02*
X66354762Y-79742914D01*
X66354762Y-79742914D02*
X66259524Y-79790533D01*
X67259524Y-80504819D02*
X67259524Y-79504819D01*
X67354762Y-80123866D02*
X67640476Y-80504819D01*
X67640476Y-79838152D02*
X67259524Y-80219104D01*
X58204761Y-80504819D02*
X57633333Y-80504819D01*
X57919047Y-80504819D02*
X57919047Y-79504819D01*
X57919047Y-79504819D02*
X57823809Y-79647676D01*
X57823809Y-79647676D02*
X57728571Y-79742914D01*
X57728571Y-79742914D02*
X57633333Y-79790533D01*
X59109523Y-79504819D02*
X58633333Y-79504819D01*
X58633333Y-79504819D02*
X58585714Y-79981009D01*
X58585714Y-79981009D02*
X58633333Y-79933390D01*
X58633333Y-79933390D02*
X58728571Y-79885771D01*
X58728571Y-79885771D02*
X58966666Y-79885771D01*
X58966666Y-79885771D02*
X59061904Y-79933390D01*
X59061904Y-79933390D02*
X59109523Y-79981009D01*
X59109523Y-79981009D02*
X59157142Y-80076247D01*
X59157142Y-80076247D02*
X59157142Y-80314342D01*
X59157142Y-80314342D02*
X59109523Y-80409580D01*
X59109523Y-80409580D02*
X59061904Y-80457200D01*
X59061904Y-80457200D02*
X58966666Y-80504819D01*
X58966666Y-80504819D02*
X58728571Y-80504819D01*
X58728571Y-80504819D02*
X58633333Y-80457200D01*
X58633333Y-80457200D02*
X58585714Y-80409580D01*
X59585714Y-80504819D02*
X59585714Y-79504819D01*
X59680952Y-80123866D02*
X59966666Y-80504819D01*
X59966666Y-79838152D02*
X59585714Y-80219104D01*
X91695238Y-67904819D02*
X91695238Y-67238152D01*
X91695238Y-67333390D02*
X91742857Y-67285771D01*
X91742857Y-67285771D02*
X91838095Y-67238152D01*
X91838095Y-67238152D02*
X91980952Y-67238152D01*
X91980952Y-67238152D02*
X92076190Y-67285771D01*
X92076190Y-67285771D02*
X92123809Y-67381009D01*
X92123809Y-67381009D02*
X92123809Y-67904819D01*
X92123809Y-67381009D02*
X92171428Y-67285771D01*
X92171428Y-67285771D02*
X92266666Y-67238152D01*
X92266666Y-67238152D02*
X92409523Y-67238152D01*
X92409523Y-67238152D02*
X92504762Y-67285771D01*
X92504762Y-67285771D02*
X92552381Y-67381009D01*
X92552381Y-67381009D02*
X92552381Y-67904819D01*
X93552380Y-67904819D02*
X92980952Y-67904819D01*
X93266666Y-67904819D02*
X93266666Y-66904819D01*
X93266666Y-66904819D02*
X93171428Y-67047676D01*
X93171428Y-67047676D02*
X93076190Y-67142914D01*
X93076190Y-67142914D02*
X92980952Y-67190533D01*
X145054819Y-65514285D02*
X144054819Y-65514285D01*
X145054819Y-64942857D02*
X144483390Y-65371428D01*
X144054819Y-64942857D02*
X144626247Y-65514285D01*
X145054819Y-63990476D02*
X145054819Y-64561904D01*
X145054819Y-64276190D02*
X144054819Y-64276190D01*
X144054819Y-64276190D02*
X144197676Y-64371428D01*
X144197676Y-64371428D02*
X144292914Y-64466666D01*
X144292914Y-64466666D02*
X144340533Y-64561904D01*
X144150057Y-63609523D02*
X144102438Y-63561904D01*
X144102438Y-63561904D02*
X144054819Y-63466666D01*
X144054819Y-63466666D02*
X144054819Y-63228571D01*
X144054819Y-63228571D02*
X144102438Y-63133333D01*
X144102438Y-63133333D02*
X144150057Y-63085714D01*
X144150057Y-63085714D02*
X144245295Y-63038095D01*
X144245295Y-63038095D02*
X144340533Y-63038095D01*
X144340533Y-63038095D02*
X144483390Y-63085714D01*
X144483390Y-63085714D02*
X145054819Y-63657142D01*
X145054819Y-63657142D02*
X145054819Y-63038095D01*
X119938152Y-60861904D02*
X120604819Y-60861904D01*
X119938152Y-61290475D02*
X120461961Y-61290475D01*
X120461961Y-61290475D02*
X120557200Y-61242856D01*
X120557200Y-61242856D02*
X120604819Y-61147618D01*
X120604819Y-61147618D02*
X120604819Y-61004761D01*
X120604819Y-61004761D02*
X120557200Y-60909523D01*
X120557200Y-60909523D02*
X120509580Y-60861904D01*
X120604819Y-59861904D02*
X120604819Y-60433332D01*
X120604819Y-60147618D02*
X119604819Y-60147618D01*
X119604819Y-60147618D02*
X119747676Y-60242856D01*
X119747676Y-60242856D02*
X119842914Y-60338094D01*
X119842914Y-60338094D02*
X119890533Y-60433332D01*
X101142857Y-71631009D02*
X101285714Y-71678628D01*
X101285714Y-71678628D02*
X101333333Y-71726247D01*
X101333333Y-71726247D02*
X101380952Y-71821485D01*
X101380952Y-71821485D02*
X101380952Y-71964342D01*
X101380952Y-71964342D02*
X101333333Y-72059580D01*
X101333333Y-72059580D02*
X101285714Y-72107200D01*
X101285714Y-72107200D02*
X101190476Y-72154819D01*
X101190476Y-72154819D02*
X100809524Y-72154819D01*
X100809524Y-72154819D02*
X100809524Y-71154819D01*
X100809524Y-71154819D02*
X101142857Y-71154819D01*
X101142857Y-71154819D02*
X101238095Y-71202438D01*
X101238095Y-71202438D02*
X101285714Y-71250057D01*
X101285714Y-71250057D02*
X101333333Y-71345295D01*
X101333333Y-71345295D02*
X101333333Y-71440533D01*
X101333333Y-71440533D02*
X101285714Y-71535771D01*
X101285714Y-71535771D02*
X101238095Y-71583390D01*
X101238095Y-71583390D02*
X101142857Y-71631009D01*
X101142857Y-71631009D02*
X100809524Y-71631009D01*
X102380952Y-72059580D02*
X102333333Y-72107200D01*
X102333333Y-72107200D02*
X102190476Y-72154819D01*
X102190476Y-72154819D02*
X102095238Y-72154819D01*
X102095238Y-72154819D02*
X101952381Y-72107200D01*
X101952381Y-72107200D02*
X101857143Y-72011961D01*
X101857143Y-72011961D02*
X101809524Y-71916723D01*
X101809524Y-71916723D02*
X101761905Y-71726247D01*
X101761905Y-71726247D02*
X101761905Y-71583390D01*
X101761905Y-71583390D02*
X101809524Y-71392914D01*
X101809524Y-71392914D02*
X101857143Y-71297676D01*
X101857143Y-71297676D02*
X101952381Y-71202438D01*
X101952381Y-71202438D02*
X102095238Y-71154819D01*
X102095238Y-71154819D02*
X102190476Y-71154819D01*
X102190476Y-71154819D02*
X102333333Y-71202438D01*
X102333333Y-71202438D02*
X102380952Y-71250057D01*
X102952381Y-71583390D02*
X102857143Y-71535771D01*
X102857143Y-71535771D02*
X102809524Y-71488152D01*
X102809524Y-71488152D02*
X102761905Y-71392914D01*
X102761905Y-71392914D02*
X102761905Y-71345295D01*
X102761905Y-71345295D02*
X102809524Y-71250057D01*
X102809524Y-71250057D02*
X102857143Y-71202438D01*
X102857143Y-71202438D02*
X102952381Y-71154819D01*
X102952381Y-71154819D02*
X103142857Y-71154819D01*
X103142857Y-71154819D02*
X103238095Y-71202438D01*
X103238095Y-71202438D02*
X103285714Y-71250057D01*
X103285714Y-71250057D02*
X103333333Y-71345295D01*
X103333333Y-71345295D02*
X103333333Y-71392914D01*
X103333333Y-71392914D02*
X103285714Y-71488152D01*
X103285714Y-71488152D02*
X103238095Y-71535771D01*
X103238095Y-71535771D02*
X103142857Y-71583390D01*
X103142857Y-71583390D02*
X102952381Y-71583390D01*
X102952381Y-71583390D02*
X102857143Y-71631009D01*
X102857143Y-71631009D02*
X102809524Y-71678628D01*
X102809524Y-71678628D02*
X102761905Y-71773866D01*
X102761905Y-71773866D02*
X102761905Y-71964342D01*
X102761905Y-71964342D02*
X102809524Y-72059580D01*
X102809524Y-72059580D02*
X102857143Y-72107200D01*
X102857143Y-72107200D02*
X102952381Y-72154819D01*
X102952381Y-72154819D02*
X103142857Y-72154819D01*
X103142857Y-72154819D02*
X103238095Y-72107200D01*
X103238095Y-72107200D02*
X103285714Y-72059580D01*
X103285714Y-72059580D02*
X103333333Y-71964342D01*
X103333333Y-71964342D02*
X103333333Y-71773866D01*
X103333333Y-71773866D02*
X103285714Y-71678628D01*
X103285714Y-71678628D02*
X103238095Y-71631009D01*
X103238095Y-71631009D02*
X103142857Y-71583390D01*
X104190476Y-71488152D02*
X104190476Y-72154819D01*
X103952381Y-71107200D02*
X103714286Y-71821485D01*
X103714286Y-71821485D02*
X104333333Y-71821485D01*
X104619048Y-71154819D02*
X105285714Y-71154819D01*
X105285714Y-71154819D02*
X104857143Y-72154819D01*
X65904819Y-57695238D02*
X65904819Y-58266666D01*
X65904819Y-57980952D02*
X64904819Y-57980952D01*
X64904819Y-57980952D02*
X65047676Y-58076190D01*
X65047676Y-58076190D02*
X65142914Y-58171428D01*
X65142914Y-58171428D02*
X65190533Y-58266666D01*
X64904819Y-57076190D02*
X64904819Y-56980952D01*
X64904819Y-56980952D02*
X64952438Y-56885714D01*
X64952438Y-56885714D02*
X65000057Y-56838095D01*
X65000057Y-56838095D02*
X65095295Y-56790476D01*
X65095295Y-56790476D02*
X65285771Y-56742857D01*
X65285771Y-56742857D02*
X65523866Y-56742857D01*
X65523866Y-56742857D02*
X65714342Y-56790476D01*
X65714342Y-56790476D02*
X65809580Y-56838095D01*
X65809580Y-56838095D02*
X65857200Y-56885714D01*
X65857200Y-56885714D02*
X65904819Y-56980952D01*
X65904819Y-56980952D02*
X65904819Y-57076190D01*
X65904819Y-57076190D02*
X65857200Y-57171428D01*
X65857200Y-57171428D02*
X65809580Y-57219047D01*
X65809580Y-57219047D02*
X65714342Y-57266666D01*
X65714342Y-57266666D02*
X65523866Y-57314285D01*
X65523866Y-57314285D02*
X65285771Y-57314285D01*
X65285771Y-57314285D02*
X65095295Y-57266666D01*
X65095295Y-57266666D02*
X65000057Y-57219047D01*
X65000057Y-57219047D02*
X64952438Y-57171428D01*
X64952438Y-57171428D02*
X64904819Y-57076190D01*
X65904819Y-56314285D02*
X64904819Y-56314285D01*
X65523866Y-56219047D02*
X65904819Y-55933333D01*
X65238152Y-55933333D02*
X65619104Y-56314285D01*
X55754819Y-79945238D02*
X55754819Y-80516666D01*
X55754819Y-80230952D02*
X54754819Y-80230952D01*
X54754819Y-80230952D02*
X54897676Y-80326190D01*
X54897676Y-80326190D02*
X54992914Y-80421428D01*
X54992914Y-80421428D02*
X55040533Y-80516666D01*
X54754819Y-79326190D02*
X54754819Y-79230952D01*
X54754819Y-79230952D02*
X54802438Y-79135714D01*
X54802438Y-79135714D02*
X54850057Y-79088095D01*
X54850057Y-79088095D02*
X54945295Y-79040476D01*
X54945295Y-79040476D02*
X55135771Y-78992857D01*
X55135771Y-78992857D02*
X55373866Y-78992857D01*
X55373866Y-78992857D02*
X55564342Y-79040476D01*
X55564342Y-79040476D02*
X55659580Y-79088095D01*
X55659580Y-79088095D02*
X55707200Y-79135714D01*
X55707200Y-79135714D02*
X55754819Y-79230952D01*
X55754819Y-79230952D02*
X55754819Y-79326190D01*
X55754819Y-79326190D02*
X55707200Y-79421428D01*
X55707200Y-79421428D02*
X55659580Y-79469047D01*
X55659580Y-79469047D02*
X55564342Y-79516666D01*
X55564342Y-79516666D02*
X55373866Y-79564285D01*
X55373866Y-79564285D02*
X55135771Y-79564285D01*
X55135771Y-79564285D02*
X54945295Y-79516666D01*
X54945295Y-79516666D02*
X54850057Y-79469047D01*
X54850057Y-79469047D02*
X54802438Y-79421428D01*
X54802438Y-79421428D02*
X54754819Y-79326190D01*
X55754819Y-78564285D02*
X54754819Y-78564285D01*
X55373866Y-78469047D02*
X55754819Y-78183333D01*
X55088152Y-78183333D02*
X55469104Y-78564285D01*
X126588095Y-71368152D02*
X126588095Y-72034819D01*
X126159524Y-71368152D02*
X126159524Y-71891961D01*
X126159524Y-71891961D02*
X126207143Y-71987200D01*
X126207143Y-71987200D02*
X126302381Y-72034819D01*
X126302381Y-72034819D02*
X126445238Y-72034819D01*
X126445238Y-72034819D02*
X126540476Y-71987200D01*
X126540476Y-71987200D02*
X126588095Y-71939580D01*
X127588095Y-72034819D02*
X127016667Y-72034819D01*
X127302381Y-72034819D02*
X127302381Y-71034819D01*
X127302381Y-71034819D02*
X127207143Y-71177676D01*
X127207143Y-71177676D02*
X127111905Y-71272914D01*
X127111905Y-71272914D02*
X127016667Y-71320533D01*
X77638095Y-60438152D02*
X77638095Y-61104819D01*
X77209524Y-60438152D02*
X77209524Y-60961961D01*
X77209524Y-60961961D02*
X77257143Y-61057200D01*
X77257143Y-61057200D02*
X77352381Y-61104819D01*
X77352381Y-61104819D02*
X77495238Y-61104819D01*
X77495238Y-61104819D02*
X77590476Y-61057200D01*
X77590476Y-61057200D02*
X77638095Y-61009580D01*
X78638095Y-61104819D02*
X78066667Y-61104819D01*
X78352381Y-61104819D02*
X78352381Y-60104819D01*
X78352381Y-60104819D02*
X78257143Y-60247676D01*
X78257143Y-60247676D02*
X78161905Y-60342914D01*
X78161905Y-60342914D02*
X78066667Y-60390533D01*
X52088095Y-78538152D02*
X52088095Y-79204819D01*
X51659524Y-78538152D02*
X51659524Y-79061961D01*
X51659524Y-79061961D02*
X51707143Y-79157200D01*
X51707143Y-79157200D02*
X51802381Y-79204819D01*
X51802381Y-79204819D02*
X51945238Y-79204819D01*
X51945238Y-79204819D02*
X52040476Y-79157200D01*
X52040476Y-79157200D02*
X52088095Y-79109580D01*
X53088095Y-79204819D02*
X52516667Y-79204819D01*
X52802381Y-79204819D02*
X52802381Y-78204819D01*
X52802381Y-78204819D02*
X52707143Y-78347676D01*
X52707143Y-78347676D02*
X52611905Y-78442914D01*
X52611905Y-78442914D02*
X52516667Y-78490533D01*
X112809523Y-59088152D02*
X112809523Y-59754819D01*
X112571428Y-58707200D02*
X112333333Y-59421485D01*
X112333333Y-59421485D02*
X112952380Y-59421485D01*
X113333333Y-59754819D02*
X113333333Y-58754819D01*
X113428571Y-59373866D02*
X113714285Y-59754819D01*
X113714285Y-59088152D02*
X113333333Y-59469104D01*
X114047619Y-58754819D02*
X114714285Y-58754819D01*
X114714285Y-58754819D02*
X114285714Y-59754819D01*
D12*
%TO.C,SW2*%
X129500000Y-68750000D02*
X129500000Y-70250000D01*
X130750000Y-72750000D02*
X135250000Y-72750000D01*
X135250000Y-66250000D02*
X130750000Y-66250000D01*
X136500000Y-70250000D02*
X136500000Y-68750000D01*
%TO.C,J7*%
X87940000Y-44890000D02*
X87940000Y-54310000D01*
X87940000Y-54310000D02*
X89450000Y-54310000D01*
X92950000Y-54310000D02*
X91550000Y-54310000D01*
X96450000Y-54310000D02*
X95050000Y-54310000D01*
X97200000Y-55600000D02*
X97500000Y-55000000D01*
X97500000Y-55000000D02*
X97800000Y-55600000D01*
X97800000Y-55600000D02*
X97200000Y-55600000D01*
X100060000Y-44890000D02*
X87940000Y-44890000D01*
X100060000Y-48200000D02*
X87940000Y-48200000D01*
X100060000Y-54310000D02*
X98550000Y-54310000D01*
X100060000Y-54310000D02*
X100060000Y-44890000D01*
%TO.C,U3*%
X70065000Y-59800000D02*
X70065000Y-57850000D01*
X70065000Y-59800000D02*
X70065000Y-61750000D01*
X78935000Y-59800000D02*
X78935000Y-56350000D01*
X78935000Y-59800000D02*
X78935000Y-61750000D01*
%TO.C,J14*%
X111940000Y-44890000D02*
X111940000Y-54310000D01*
X111940000Y-54310000D02*
X113450000Y-54310000D01*
X116950000Y-54310000D02*
X115550000Y-54310000D01*
X120450000Y-54310000D02*
X119050000Y-54310000D01*
X121200000Y-55600000D02*
X121500000Y-55000000D01*
X121500000Y-55000000D02*
X121800000Y-55600000D01*
X121800000Y-55600000D02*
X121200000Y-55600000D01*
X124060000Y-44890000D02*
X111940000Y-44890000D01*
X124060000Y-48200000D02*
X111940000Y-48200000D01*
X124060000Y-54310000D02*
X122550000Y-54310000D01*
X124060000Y-54310000D02*
X124060000Y-44890000D01*
%TO.C,C4*%
X106838748Y-64265000D02*
X107361252Y-64265000D01*
X106838748Y-65735000D02*
X107361252Y-65735000D01*
%TO.C,C3*%
X106838748Y-66265000D02*
X107361252Y-66265000D01*
X106838748Y-67735000D02*
X107361252Y-67735000D01*
%TO.C,J15*%
X123940000Y-44890000D02*
X123940000Y-54310000D01*
X123940000Y-54310000D02*
X125450000Y-54310000D01*
X128950000Y-54310000D02*
X127550000Y-54310000D01*
X132450000Y-54310000D02*
X131050000Y-54310000D01*
X133200000Y-55600000D02*
X133500000Y-55000000D01*
X133500000Y-55000000D02*
X133800000Y-55600000D01*
X133800000Y-55600000D02*
X133200000Y-55600000D01*
X136060000Y-44890000D02*
X123940000Y-44890000D01*
X136060000Y-48200000D02*
X123940000Y-48200000D01*
X136060000Y-54310000D02*
X134550000Y-54310000D01*
X136060000Y-54310000D02*
X136060000Y-44890000D01*
%TO.C,R8*%
X127077064Y-71165000D02*
X126622936Y-71165000D01*
X127077064Y-72635000D02*
X126622936Y-72635000D01*
%TO.C,C9*%
X113588748Y-69165000D02*
X114111252Y-69165000D01*
X113588748Y-70635000D02*
X114111252Y-70635000D01*
%TO.C,J1*%
X51940000Y-44890000D02*
X51940000Y-54310000D01*
X51940000Y-54310000D02*
X53450000Y-54310000D01*
X56950000Y-54310000D02*
X55550000Y-54310000D01*
X60450000Y-54310000D02*
X59050000Y-54310000D01*
X61200000Y-55600000D02*
X61500000Y-55000000D01*
X61500000Y-55000000D02*
X61800000Y-55600000D01*
X61800000Y-55600000D02*
X61200000Y-55600000D01*
X64060000Y-44890000D02*
X51940000Y-44890000D01*
X64060000Y-48200000D02*
X51940000Y-48200000D01*
X64060000Y-54310000D02*
X62550000Y-54310000D01*
X64060000Y-54310000D02*
X64060000Y-44890000D01*
%TO.C,J12*%
X71690000Y-81990000D02*
X71690000Y-95010000D01*
X71690000Y-95010000D02*
X97600000Y-95010000D01*
X72500000Y-81990000D02*
X71690000Y-81990000D01*
X74200000Y-78890000D02*
X74200000Y-77610000D01*
X74800000Y-78890000D02*
X74800000Y-77610000D01*
X77090000Y-82000000D02*
X76110000Y-82000000D01*
X78400000Y-78890000D02*
X78400000Y-77610000D01*
X79000000Y-78890000D02*
X79000000Y-77610000D01*
X81290000Y-82000000D02*
X80310000Y-82000000D01*
X82600000Y-78890000D02*
X82600000Y-77610000D01*
X83200000Y-78890000D02*
X83200000Y-77610000D01*
X85490000Y-82000000D02*
X84510000Y-82000000D01*
X86800000Y-78890000D02*
X86800000Y-77610000D01*
X87400000Y-78890000D02*
X87400000Y-77610000D01*
X89690000Y-82000000D02*
X88710000Y-82000000D01*
X91000000Y-78890000D02*
X91000000Y-77610000D01*
X91600000Y-78890000D02*
X91600000Y-77610000D01*
X93890000Y-82000000D02*
X92910000Y-82000000D01*
X95200000Y-78890000D02*
X95200000Y-77610000D01*
X95800000Y-78890000D02*
X95800000Y-77610000D01*
X98090000Y-82000000D02*
X97110000Y-82000000D01*
X99400000Y-78890000D02*
X99400000Y-77610000D01*
X100000000Y-78890000D02*
X100000000Y-77610000D01*
X102290000Y-82000000D02*
X101310000Y-82000000D01*
X103600000Y-78890000D02*
X103600000Y-77610000D01*
X104200000Y-78890000D02*
X104200000Y-77610000D01*
X106490000Y-82000000D02*
X105510000Y-82000000D01*
X107800000Y-78890000D02*
X107800000Y-77610000D01*
X108400000Y-78890000D02*
X108400000Y-77610000D01*
X110690000Y-82000000D02*
X109710000Y-82000000D01*
X112000000Y-78890000D02*
X112000000Y-77610000D01*
X112600000Y-78890000D02*
X112600000Y-77610000D01*
X114890000Y-82000000D02*
X113910000Y-82000000D01*
X116200000Y-78890000D02*
X116200000Y-77610000D01*
X116800000Y-78890000D02*
X116800000Y-77610000D01*
X119090000Y-82000000D02*
X118110000Y-82000000D01*
X120400000Y-78890000D02*
X120400000Y-77610000D01*
X121000000Y-78890000D02*
X121000000Y-77610000D01*
X122700000Y-81000000D02*
X123300000Y-80700000D01*
X122700000Y-81990000D02*
X123510000Y-81990000D01*
X123300000Y-80700000D02*
X123300000Y-81300000D01*
X123300000Y-81300000D02*
X122700000Y-81000000D01*
X123510000Y-81990000D02*
X123510000Y-95010000D01*
X123510000Y-95010000D02*
X97600000Y-95010000D01*
%TO.C,D1*%
X83060000Y-69420000D02*
X82260000Y-69420000D01*
X83060000Y-69420000D02*
X83860000Y-69420000D01*
X83860000Y-69420000D02*
X83860000Y-70350000D01*
X83860000Y-72580000D02*
X82400000Y-72580000D01*
X83860000Y-72580000D02*
X83860000Y-71650000D01*
X81760000Y-69390000D02*
X81520000Y-69060000D01*
X82000000Y-69060000D01*
X81760000Y-69390000D01*
G36*
X81760000Y-69390000D02*
G01*
X81520000Y-69060000D01*
X82000000Y-69060000D01*
X81760000Y-69390000D01*
G37*
%TO.C,U2*%
X43690000Y-64280000D02*
X50110000Y-64280000D01*
X43690000Y-82520000D02*
X43690000Y-64280000D01*
X43690000Y-82520000D02*
X50110000Y-82520000D01*
X50110000Y-82520000D02*
X50110000Y-82900000D01*
X68655000Y-64280000D02*
X69435000Y-64280000D01*
X68655000Y-82520000D02*
X69435000Y-82520000D01*
X69435000Y-64280000D02*
X69435000Y-65280000D01*
X69435000Y-82520000D02*
X69435000Y-81520000D01*
%TO.C,J2*%
X63940000Y-44890000D02*
X63940000Y-54310000D01*
X63940000Y-54310000D02*
X65450000Y-54310000D01*
X68950000Y-54310000D02*
X67550000Y-54310000D01*
X72450000Y-54310000D02*
X71050000Y-54310000D01*
X73200000Y-55600000D02*
X73500000Y-55000000D01*
X73500000Y-55000000D02*
X73800000Y-55600000D01*
X73800000Y-55600000D02*
X73200000Y-55600000D01*
X76060000Y-44890000D02*
X63940000Y-44890000D01*
X76060000Y-48200000D02*
X63940000Y-48200000D01*
X76060000Y-54310000D02*
X74550000Y-54310000D01*
X76060000Y-54310000D02*
X76060000Y-44890000D01*
%TO.C,R12*%
X114127064Y-71165000D02*
X113672936Y-71165000D01*
X114127064Y-72635000D02*
X113672936Y-72635000D01*
%TO.C,C7*%
X52661252Y-86165000D02*
X52138748Y-86165000D01*
X52661252Y-87635000D02*
X52138748Y-87635000D01*
%TO.C,R2*%
X59027064Y-84165000D02*
X58572936Y-84165000D01*
X59027064Y-85635000D02*
X58572936Y-85635000D01*
%TO.C,R5*%
X108365000Y-56927064D02*
X108365000Y-56472936D01*
X109835000Y-56927064D02*
X109835000Y-56472936D01*
%TO.C,C2*%
X88561252Y-68765000D02*
X88038748Y-68765000D01*
X88561252Y-70235000D02*
X88038748Y-70235000D01*
%TO.C,C5*%
X106988748Y-61890000D02*
X108411252Y-61890000D01*
X106988748Y-63710000D02*
X108411252Y-63710000D01*
%TO.C,J13*%
X99940000Y-44890000D02*
X99940000Y-54310000D01*
X99940000Y-54310000D02*
X101450000Y-54310000D01*
X104950000Y-54310000D02*
X103550000Y-54310000D01*
X108450000Y-54310000D02*
X107050000Y-54310000D01*
X109200000Y-55600000D02*
X109500000Y-55000000D01*
X109500000Y-55000000D02*
X109800000Y-55600000D01*
X109800000Y-55600000D02*
X109200000Y-55600000D01*
X112060000Y-44890000D02*
X99940000Y-44890000D01*
X112060000Y-48200000D02*
X99940000Y-48200000D01*
X112060000Y-54310000D02*
X110550000Y-54310000D01*
X112060000Y-54310000D02*
X112060000Y-44890000D01*
%TO.C,TH1*%
X109230000Y-65630000D02*
X109475000Y-65630000D01*
X109230000Y-69270000D02*
X109230000Y-65630000D01*
X109230000Y-69270000D02*
X109475000Y-69270000D01*
X111325000Y-65630000D02*
X111570000Y-65630000D01*
X111325000Y-69270000D02*
X111570000Y-69270000D01*
X111570000Y-69270000D02*
X111570000Y-65630000D01*
%TO.C,C12*%
X82338748Y-66765000D02*
X82861252Y-66765000D01*
X82338748Y-68235000D02*
X82861252Y-68235000D01*
%TO.C,R9*%
X71065000Y-72527064D02*
X71065000Y-72072936D01*
X72535000Y-72527064D02*
X72535000Y-72072936D01*
%TO.C,R13*%
X106872936Y-68265000D02*
X107327064Y-68265000D01*
X106872936Y-69735000D02*
X107327064Y-69735000D01*
%TO.C,R4*%
X67572936Y-84265000D02*
X68027064Y-84265000D01*
X67572936Y-85735000D02*
X68027064Y-85735000D01*
%TO.C,SW1*%
X133750000Y-57650000D02*
X142250000Y-57650000D01*
X133750000Y-61150000D02*
X133750000Y-57650000D01*
X142250000Y-57650000D02*
X142250000Y-61150000D01*
X142250000Y-61150000D02*
X133750000Y-61150000D01*
%TO.C,R3*%
X58572936Y-86165000D02*
X59027064Y-86165000D01*
X58572936Y-87635000D02*
X59027064Y-87635000D01*
%TO.C,C1*%
X89011252Y-70790000D02*
X87588748Y-70790000D01*
X89011252Y-72610000D02*
X87588748Y-72610000D01*
%TO.C,R1*%
X136090000Y-64327064D02*
X136090000Y-62872936D01*
X137910000Y-64327064D02*
X137910000Y-62872936D01*
%TO.C,C10*%
X121465000Y-62161252D02*
X121465000Y-61638748D01*
X122935000Y-62161252D02*
X122935000Y-61638748D01*
%TO.C,Q2*%
X107340000Y-70120000D02*
X107340000Y-71050000D01*
X107340000Y-70120000D02*
X108800000Y-70120000D01*
X107340000Y-73280000D02*
X107340000Y-72350000D01*
X108140000Y-73280000D02*
X107340000Y-73280000D01*
X108140000Y-73280000D02*
X108940000Y-73280000D01*
X109680000Y-73640000D02*
X109200000Y-73640000D01*
X109440000Y-73310000D01*
X109680000Y-73640000D01*
G36*
X109680000Y-73640000D02*
G01*
X109200000Y-73640000D01*
X109440000Y-73310000D01*
X109680000Y-73640000D01*
G37*
%TO.C,U1*%
X90450000Y-61490000D02*
X94210000Y-61490000D01*
X90450000Y-68310000D02*
X94210000Y-68310000D01*
X94210000Y-61490000D02*
X94210000Y-62750000D01*
X94210000Y-68310000D02*
X94210000Y-67050000D01*
X89170000Y-61590000D02*
X88930000Y-61260000D01*
X89410000Y-61260000D01*
X89170000Y-61590000D01*
G36*
X89170000Y-61590000D02*
G01*
X88930000Y-61260000D01*
X89410000Y-61260000D01*
X89170000Y-61590000D01*
G37*
%TO.C,SW4*%
X116500000Y-68750000D02*
X116500000Y-70250000D01*
X117750000Y-72750000D02*
X122250000Y-72750000D01*
X122250000Y-66250000D02*
X117750000Y-66250000D01*
X123500000Y-70250000D02*
X123500000Y-68750000D01*
%TO.C,J3*%
X57300000Y-55000000D02*
X57300000Y-60000000D01*
X57300000Y-60000000D02*
X66100000Y-60000000D01*
X60500000Y-59200000D02*
X62900000Y-59200000D01*
X60500000Y-60000000D02*
X60500000Y-59200000D01*
X61700000Y-55000000D02*
X57300000Y-55000000D01*
X62900000Y-59200000D02*
X62900000Y-60000000D01*
X66100000Y-55000000D02*
X61700000Y-55000000D01*
X66100000Y-60000000D02*
X66100000Y-55000000D01*
%TO.C,J11*%
X94870000Y-55370000D02*
X96200000Y-55370000D01*
X94870000Y-56700000D02*
X94870000Y-55370000D01*
X97470000Y-55370000D02*
X105150000Y-55370000D01*
X97470000Y-58030000D02*
X97470000Y-55370000D01*
X97470000Y-58030000D02*
X105150000Y-58030000D01*
X105150000Y-58030000D02*
X105150000Y-55370000D01*
%TO.C,R11*%
X66665000Y-57427064D02*
X66665000Y-56972936D01*
X68135000Y-57427064D02*
X68135000Y-56972936D01*
%TO.C,R7*%
X54565000Y-85572936D02*
X54565000Y-86027064D01*
X56035000Y-85572936D02*
X56035000Y-86027064D01*
%TO.C,J4*%
X139300000Y-70800000D02*
X139900000Y-71100000D01*
X139300000Y-71400000D02*
X139300000Y-70800000D01*
X139900000Y-71100000D02*
X139300000Y-71400000D01*
X140590000Y-61540000D02*
X140590000Y-63050000D01*
X140590000Y-66550000D02*
X140590000Y-65150000D01*
X140590000Y-70050000D02*
X140590000Y-68650000D01*
X140590000Y-73660000D02*
X140590000Y-72150000D01*
X140590000Y-73660000D02*
X150010000Y-73660000D01*
X146700000Y-73660000D02*
X146700000Y-61540000D01*
X150010000Y-61540000D02*
X140590000Y-61540000D01*
X150010000Y-73660000D02*
X150010000Y-61540000D01*
%TO.C,J5*%
X55740000Y-88590000D02*
X55740000Y-94560000D01*
X55740000Y-94560000D02*
X70860000Y-94560000D01*
X55750000Y-92300000D02*
X56500000Y-92300000D01*
X55750000Y-93800000D02*
X55750000Y-94550000D01*
X55750000Y-94550000D02*
X57550000Y-94550000D01*
X56500000Y-89350000D02*
X63300000Y-89350000D01*
X56500000Y-92300000D02*
X56500000Y-89350000D01*
X57550000Y-93800000D02*
X55750000Y-93800000D01*
X57550000Y-94550000D02*
X57550000Y-93800000D01*
X59050000Y-93800000D02*
X59050000Y-94550000D01*
X59050000Y-94550000D02*
X67550000Y-94550000D01*
X67550000Y-93800000D02*
X59050000Y-93800000D01*
X67550000Y-94550000D02*
X67550000Y-93800000D01*
X69050000Y-93800000D02*
X69050000Y-94550000D01*
X69050000Y-94550000D02*
X70850000Y-94550000D01*
X69900000Y-94850000D02*
X71150000Y-94850000D01*
X70100000Y-89350000D02*
X63300000Y-89350000D01*
X70100000Y-92300000D02*
X70100000Y-89350000D01*
X70850000Y-92300000D02*
X70100000Y-92300000D01*
X70850000Y-93800000D02*
X69050000Y-93800000D01*
X70850000Y-94550000D02*
X70850000Y-93800000D01*
X70860000Y-88590000D02*
X55740000Y-88590000D01*
X70860000Y-94560000D02*
X70860000Y-88590000D01*
X71150000Y-94850000D02*
X71150000Y-93600000D01*
%TO.C,J6*%
X75940000Y-44890000D02*
X75940000Y-54310000D01*
X75940000Y-54310000D02*
X77450000Y-54310000D01*
X80950000Y-54310000D02*
X79550000Y-54310000D01*
X84450000Y-54310000D02*
X83050000Y-54310000D01*
X85200000Y-55600000D02*
X85500000Y-55000000D01*
X85500000Y-55000000D02*
X85800000Y-55600000D01*
X85800000Y-55600000D02*
X85200000Y-55600000D01*
X88060000Y-44890000D02*
X75940000Y-44890000D01*
X88060000Y-48200000D02*
X75940000Y-48200000D01*
X88060000Y-54310000D02*
X86550000Y-54310000D01*
X88060000Y-54310000D02*
X88060000Y-44890000D01*
%TO.C,C8*%
X126588748Y-69165000D02*
X127111252Y-69165000D01*
X126588748Y-70635000D02*
X127111252Y-70635000D01*
%TO.C,U5*%
X76600000Y-66440000D02*
X73150000Y-66440000D01*
X76600000Y-66440000D02*
X78550000Y-66440000D01*
X76600000Y-71560000D02*
X74650000Y-71560000D01*
X76600000Y-71560000D02*
X78550000Y-71560000D01*
%TO.C,U4*%
X112165000Y-60000000D02*
X112165000Y-58050000D01*
X112165000Y-60000000D02*
X112165000Y-61950000D01*
X121035000Y-60000000D02*
X121035000Y-56550000D01*
X121035000Y-60000000D02*
X121035000Y-61950000D01*
%TO.C,C11*%
X79365000Y-62061252D02*
X79365000Y-61538748D01*
X80835000Y-62061252D02*
X80835000Y-61538748D01*
%TO.C,C6*%
X52661252Y-84165000D02*
X52138748Y-84165000D01*
X52661252Y-85635000D02*
X52138748Y-85635000D01*
%TO.C,J16*%
X135940000Y-44890000D02*
X135940000Y-54310000D01*
X135940000Y-54310000D02*
X137450000Y-54310000D01*
X140950000Y-54310000D02*
X139550000Y-54310000D01*
X144450000Y-54310000D02*
X143050000Y-54310000D01*
X145200000Y-55600000D02*
X145500000Y-55000000D01*
X145500000Y-55000000D02*
X145800000Y-55600000D01*
X145800000Y-55600000D02*
X145200000Y-55600000D01*
X148060000Y-44890000D02*
X135940000Y-44890000D01*
X148060000Y-48200000D02*
X135940000Y-48200000D01*
X148060000Y-54310000D02*
X146550000Y-54310000D01*
X148060000Y-54310000D02*
X148060000Y-44890000D01*
%TO.C,D2*%
X70840000Y-67600000D02*
X70840000Y-70460000D01*
X70840000Y-70460000D02*
X72760000Y-70460000D01*
X72760000Y-70460000D02*
X72760000Y-67600000D01*
%TO.C,J8*%
X124290000Y-81990000D02*
X124290000Y-95010000D01*
X124290000Y-95010000D02*
X133400000Y-95010000D01*
X125100000Y-81990000D02*
X124290000Y-81990000D01*
X126800000Y-78890000D02*
X126800000Y-77610000D01*
X127400000Y-78890000D02*
X127400000Y-77610000D01*
X129690000Y-82000000D02*
X128710000Y-82000000D01*
X131000000Y-78890000D02*
X131000000Y-77610000D01*
X131600000Y-78890000D02*
X131600000Y-77610000D01*
X133890000Y-82000000D02*
X132910000Y-82000000D01*
X135200000Y-78890000D02*
X135200000Y-77610000D01*
X135800000Y-78890000D02*
X135800000Y-77610000D01*
X138090000Y-82000000D02*
X137110000Y-82000000D01*
X139400000Y-78890000D02*
X139400000Y-77610000D01*
X140000000Y-78890000D02*
X140000000Y-77610000D01*
X141700000Y-81000000D02*
X142300000Y-80700000D01*
X141700000Y-81990000D02*
X142510000Y-81990000D01*
X142300000Y-80700000D02*
X142300000Y-81300000D01*
X142300000Y-81300000D02*
X141700000Y-81000000D01*
X142510000Y-81990000D02*
X142510000Y-95010000D01*
X142510000Y-95010000D02*
X133400000Y-95010000D01*
%TO.C,R6*%
X110265000Y-56927064D02*
X110265000Y-56472936D01*
X111735000Y-56927064D02*
X111735000Y-56472936D01*
%TD*%
%LPC*%
D13*
%TO.C,SW2*%
X136250000Y-71750000D03*
X129750000Y-71750000D03*
X136250000Y-67250000D03*
X129750000Y-67250000D03*
%TD*%
D14*
%TO.C,J7*%
X97500000Y-53000000D03*
D15*
X94000000Y-53000000D03*
X90500000Y-53000000D03*
%TD*%
D16*
%TO.C,U3*%
X78310000Y-57125000D03*
X77040000Y-57125000D03*
X75770000Y-57125000D03*
X74500000Y-57125000D03*
X73230000Y-57125000D03*
X71960000Y-57125000D03*
X70690000Y-57125000D03*
X70690000Y-62475000D03*
X71960000Y-62475000D03*
X73230000Y-62475000D03*
X74500000Y-62475000D03*
X75770000Y-62475000D03*
X77040000Y-62475000D03*
X78310000Y-62475000D03*
%TD*%
D14*
%TO.C,J14*%
X121500000Y-53000000D03*
D15*
X118000000Y-53000000D03*
X114500000Y-53000000D03*
%TD*%
D17*
%TO.C,C4*%
X106062500Y-65000000D03*
X108137500Y-65000000D03*
%TD*%
%TO.C,C3*%
X106062500Y-67000000D03*
X108137500Y-67000000D03*
%TD*%
D14*
%TO.C,J15*%
X133500000Y-53000000D03*
D15*
X130000000Y-53000000D03*
X126500000Y-53000000D03*
%TD*%
D18*
%TO.C,H4*%
X53600000Y-91400000D03*
%TD*%
D19*
%TO.C,R8*%
X127850000Y-71900000D03*
X125850000Y-71900000D03*
%TD*%
D18*
%TO.C,H2*%
X146400000Y-58000000D03*
%TD*%
D17*
%TO.C,C9*%
X112812500Y-69900000D03*
X114887500Y-69900000D03*
%TD*%
D14*
%TO.C,J1*%
X61500000Y-53000000D03*
D15*
X58000000Y-53000000D03*
X54500000Y-53000000D03*
%TD*%
D20*
%TO.C,J12*%
X120700000Y-88300000D03*
X74500000Y-88300000D03*
D21*
X120700000Y-81000000D03*
D22*
X116500000Y-81000000D03*
X112300000Y-81000000D03*
X108100000Y-81000000D03*
X103900000Y-81000000D03*
X99700000Y-81000000D03*
X95500000Y-81000000D03*
X91300000Y-81000000D03*
X87100000Y-81000000D03*
X82900000Y-81000000D03*
X78700000Y-81000000D03*
X74500000Y-81000000D03*
X120700000Y-75500000D03*
X116500000Y-75500000D03*
X112300000Y-75500000D03*
X108100000Y-75500000D03*
X103900000Y-75500000D03*
X99700000Y-75500000D03*
X95500000Y-75500000D03*
X91300000Y-75500000D03*
X87100000Y-75500000D03*
X82900000Y-75500000D03*
X78700000Y-75500000D03*
X74500000Y-75500000D03*
%TD*%
D23*
%TO.C,D1*%
X81600000Y-70050000D03*
X81600000Y-71950000D03*
X84600000Y-71000000D03*
%TD*%
D24*
%TO.C,U2*%
X51300000Y-82400000D03*
X52570000Y-82400000D03*
X53840000Y-82400000D03*
X55110000Y-82400000D03*
X56380000Y-82400000D03*
X57650000Y-82400000D03*
X58920000Y-82400000D03*
X60190000Y-82400000D03*
X61460000Y-82400000D03*
X62730000Y-82400000D03*
X64000000Y-82400000D03*
X65270000Y-82400000D03*
X66540000Y-82400000D03*
X67810000Y-82400000D03*
D25*
X69310000Y-79115000D03*
X69310000Y-77845000D03*
X69310000Y-76575000D03*
X69310000Y-75305000D03*
X69310000Y-74035000D03*
X69310000Y-72765000D03*
X69310000Y-71495000D03*
X69310000Y-70225000D03*
X69310000Y-68955000D03*
X69310000Y-67685000D03*
D26*
X67810000Y-64400000D03*
X66540000Y-64400000D03*
X65270000Y-64400000D03*
X64000000Y-64400000D03*
X62730000Y-64400000D03*
X61460000Y-64400000D03*
X60190000Y-64400000D03*
X58920000Y-64400000D03*
X57650000Y-64400000D03*
X56380000Y-64400000D03*
X55110000Y-64400000D03*
X53840000Y-64400000D03*
X52570000Y-64400000D03*
X51300000Y-64400000D03*
D27*
X58800000Y-74400000D03*
%TD*%
D14*
%TO.C,J2*%
X73500000Y-53000000D03*
D15*
X70000000Y-53000000D03*
X66500000Y-53000000D03*
%TD*%
D19*
%TO.C,R12*%
X114900000Y-71900000D03*
X112900000Y-71900000D03*
%TD*%
D28*
%TO.C,C7*%
X53437500Y-86900000D03*
X51362500Y-86900000D03*
%TD*%
D19*
%TO.C,R2*%
X59800000Y-84900000D03*
X57800000Y-84900000D03*
%TD*%
D18*
%TO.C,H1*%
X53600000Y-58000000D03*
%TD*%
D29*
%TO.C,R5*%
X109100000Y-57700000D03*
X109100000Y-55700000D03*
%TD*%
D28*
%TO.C,C2*%
X89337500Y-69500000D03*
X87262500Y-69500000D03*
%TD*%
D30*
%TO.C,C5*%
X106137500Y-62800000D03*
X109262500Y-62800000D03*
%TD*%
D14*
%TO.C,J13*%
X109500000Y-53000000D03*
D15*
X106000000Y-53000000D03*
X102500000Y-53000000D03*
%TD*%
D18*
%TO.C,H3*%
X146400000Y-91400000D03*
%TD*%
D31*
%TO.C,TH1*%
X110400000Y-68700000D03*
X110400000Y-66200000D03*
%TD*%
D17*
%TO.C,C12*%
X81562500Y-67500000D03*
X83637500Y-67500000D03*
%TD*%
D29*
%TO.C,R9*%
X71800000Y-73300000D03*
X71800000Y-71300000D03*
%TD*%
D32*
%TO.C,R13*%
X106100000Y-69000000D03*
X108100000Y-69000000D03*
%TD*%
%TO.C,R4*%
X66800000Y-85000000D03*
X68800000Y-85000000D03*
%TD*%
D33*
%TO.C,SW1*%
X140500000Y-59400000D03*
X138000000Y-59400000D03*
X135500000Y-59400000D03*
%TD*%
D32*
%TO.C,R3*%
X57800000Y-86900000D03*
X59800000Y-86900000D03*
%TD*%
D34*
%TO.C,C1*%
X89862500Y-71700000D03*
X86737500Y-71700000D03*
%TD*%
D35*
%TO.C,R1*%
X137000000Y-65150000D03*
X137000000Y-62050000D03*
%TD*%
D36*
%TO.C,C10*%
X122200000Y-62937500D03*
X122200000Y-60862500D03*
%TD*%
D37*
%TO.C,Q2*%
X109600000Y-72650000D03*
X109600000Y-70750000D03*
X106600000Y-71700000D03*
%TD*%
D38*
%TO.C,U1*%
X89150000Y-62600000D03*
X89150000Y-64900000D03*
D39*
X95450000Y-64900000D03*
D38*
X89150000Y-67200000D03*
%TD*%
D13*
%TO.C,SW4*%
X123250000Y-71750000D03*
X116750000Y-71750000D03*
X123250000Y-67250000D03*
X116750000Y-67250000D03*
%TD*%
D40*
%TO.C,J3*%
X60430000Y-58135000D03*
D41*
X60430000Y-56865000D03*
X61700000Y-58135000D03*
X61700000Y-56865000D03*
X62970000Y-58135000D03*
X62970000Y-56865000D03*
%TD*%
D42*
%TO.C,J11*%
X96200000Y-56700000D03*
D43*
X98740000Y-56700000D03*
X101280000Y-56700000D03*
X103820000Y-56700000D03*
%TD*%
D29*
%TO.C,R11*%
X67400000Y-58200000D03*
X67400000Y-56200000D03*
%TD*%
D44*
%TO.C,R7*%
X55300000Y-84800000D03*
X55300000Y-86800000D03*
%TD*%
D45*
%TO.C,J4*%
X141900000Y-71100000D03*
D46*
X141900000Y-67600000D03*
X141900000Y-64100000D03*
%TD*%
D47*
%TO.C,J5*%
X68300000Y-92100000D03*
D48*
X65800000Y-92100000D03*
X63300000Y-92100000D03*
X60800000Y-92100000D03*
X58300000Y-92100000D03*
%TD*%
D14*
%TO.C,J6*%
X85500000Y-53000000D03*
D15*
X82000000Y-53000000D03*
X78500000Y-53000000D03*
%TD*%
D17*
%TO.C,C8*%
X125812500Y-69900000D03*
X127887500Y-69900000D03*
%TD*%
D49*
%TO.C,U5*%
X74000000Y-67095000D03*
X74000000Y-68365000D03*
X74000000Y-69635000D03*
X74000000Y-70905000D03*
X79200000Y-70905000D03*
X79200000Y-69635000D03*
X79200000Y-68365000D03*
X79200000Y-67095000D03*
%TD*%
D16*
%TO.C,U4*%
X120410000Y-57325000D03*
X119140000Y-57325000D03*
X117870000Y-57325000D03*
X116600000Y-57325000D03*
X115330000Y-57325000D03*
X114060000Y-57325000D03*
X112790000Y-57325000D03*
X112790000Y-62675000D03*
X114060000Y-62675000D03*
X115330000Y-62675000D03*
X116600000Y-62675000D03*
X117870000Y-62675000D03*
X119140000Y-62675000D03*
X120410000Y-62675000D03*
%TD*%
D36*
%TO.C,C11*%
X80100000Y-62837500D03*
X80100000Y-60762500D03*
%TD*%
D28*
%TO.C,C6*%
X53437500Y-84900000D03*
X51362500Y-84900000D03*
%TD*%
D14*
%TO.C,J16*%
X145500000Y-53000000D03*
D15*
X142000000Y-53000000D03*
X138500000Y-53000000D03*
%TD*%
D50*
%TO.C,D2*%
X71800000Y-69625000D03*
X71800000Y-67575000D03*
%TD*%
D20*
%TO.C,J8*%
X139700000Y-88300000D03*
X127100000Y-88300000D03*
D21*
X139700000Y-81000000D03*
D22*
X135500000Y-81000000D03*
X131300000Y-81000000D03*
X127100000Y-81000000D03*
X139700000Y-75500000D03*
X135500000Y-75500000D03*
X131300000Y-75500000D03*
X127100000Y-75500000D03*
%TD*%
D29*
%TO.C,R6*%
X111000000Y-57700000D03*
X111000000Y-55700000D03*
%TD*%
%LPD*%
M02*
